<svg width="43" height="43" viewBox="0 0 43 43" fill="none" xmlns="http://www.w3.org/2000/svg">
<g clip-path="url(#clip0_71_444)">
<path d="M37 0H6C2.68629 0 0 2.68629 0 6V37C0 40.3137 2.68629 43 6 43H37C40.3137 43 43 40.3137 43 37V6C43 2.68629 40.3137 0 37 0Z" fill="#E1E9FA"/>
<g clip-path="url(#clip1_71_444)">
<path d="M15.0318 28.0314C14.6723 27.6719 14.1943 27.4739 13.686 27.4739C13.3857 27.4739 13.0962 27.5435 12.8352 27.6742C10.271 24.0412 10.2621 19.0627 12.857 15.4209C13.0009 15.2188 12.9538 14.9383 12.7517 14.7944C12.5497 14.6504 12.2692 14.6974 12.1252 14.8995C10.6939 16.9084 9.95958 19.2806 10.0017 21.7597C10.0418 24.119 10.7826 26.357 12.1474 28.2569C11.6051 29.0008 11.6693 30.052 12.3402 30.723C12.7112 31.094 13.1986 31.2796 13.686 31.2796C14.1734 31.2796 14.6607 31.094 15.0318 30.723C15.7739 29.9809 15.7739 28.7735 15.0318 28.0314ZM14.3965 30.0877C14.0046 30.4795 13.3672 30.4795 12.9755 30.0877C12.5837 29.6959 12.5837 29.0584 12.9755 28.6666C13.1653 28.4768 13.4176 28.3723 13.6859 28.3723C13.9543 28.3723 14.2067 28.4768 14.3964 28.6666C14.7883 29.0584 14.7883 29.6959 14.3965 30.0877Z" fill="#1D4599"/>
<path d="M28.3264 30.2667C28.1813 30.0656 27.9005 30.0203 27.6993 30.1657C26.4151 31.0936 24.9714 31.7084 23.4084 31.9929C23.0463 32.0588 22.6769 31.9617 22.3951 31.7266C22.1153 31.4932 21.9549 31.1503 21.9549 30.7858V27.4931H21.9941C22.5143 27.4931 22.9375 27.07 22.9375 26.5498V25.7913C24.4591 25.2105 25.543 23.7359 25.543 22.0127V19.8859C26.2669 19.6881 26.8008 19.025 26.8008 18.2393C26.8008 17.3742 26.1538 16.6578 25.3184 16.5475V13.7471C25.3184 13.004 24.7138 12.3994 23.9707 12.3994C23.2276 12.3994 22.623 13.004 22.623 13.7471V16.5322H20.377V13.7471C20.377 13.004 19.7724 12.3994 19.0293 12.3994C18.2862 12.3994 17.6816 13.004 17.6816 13.7471V16.5475C16.8462 16.6578 16.1992 17.3742 16.1992 18.2393C16.1992 19.025 16.7331 19.6881 17.457 19.8859V22.0127C17.457 23.7359 18.5409 25.2105 20.0625 25.7913V26.5498C20.0625 27.07 20.4857 27.4932 21.0059 27.4932H21.0565V30.7858C21.0565 31.4175 21.3346 32.0119 21.8195 32.4165C22.2065 32.7394 22.6888 32.9116 23.1842 32.9116C23.3121 32.9116 23.441 32.9001 23.5693 32.8768C25.2652 32.5681 26.8317 31.9009 28.2254 30.8939C28.4265 30.7486 28.4717 30.4678 28.3264 30.2667ZM23.5215 13.7471C23.5215 13.4994 23.723 13.2979 23.9707 13.2979C24.2184 13.2979 24.42 13.4994 24.42 13.7471V16.5322H23.5215V13.7471ZM18.5801 13.7471C18.5801 13.4994 18.7816 13.2979 19.0293 13.2979C19.277 13.2979 19.4786 13.4994 19.4786 13.7471V16.5322H18.5801V13.7471ZM17.0977 18.2393C17.0977 17.7934 17.4604 17.4307 17.9063 17.4307H25.0938C25.5396 17.4307 25.9024 17.7934 25.9024 18.2393C25.9024 18.6851 25.5396 19.0479 25.0938 19.0479H17.9063C17.4604 19.0479 17.0977 18.6851 17.0977 18.2393ZM18.3555 22.0127V19.9463H24.6446V22.0127C24.6446 23.7466 23.2339 25.1572 21.5 25.1572C19.7661 25.1572 18.3555 23.7466 18.3555 22.0127ZM21.5171 26.5947C21.5133 26.5946 21.5096 26.5941 21.5058 26.5941C21.502 26.5941 21.4983 26.5946 21.4945 26.5947H21.006C20.9811 26.5947 20.961 26.5746 20.961 26.5498V26.0196C21.1374 26.0433 21.3173 26.0557 21.5 26.0557C21.6828 26.0557 21.8627 26.0433 22.0391 26.0196V26.5498C22.0391 26.5746 22.019 26.5947 21.9942 26.5947H21.5171Z" fill="#1D4599"/>
<path d="M29.62 29.0485C29.4419 28.8823 29.1646 28.8888 28.9943 29.0609C28.9908 29.0644 28.9874 29.0679 28.9841 29.0714C28.8148 29.2528 28.8246 29.537 29.006 29.7063C29.0926 29.7872 29.2026 29.8271 29.3124 29.8271C29.4284 29.8271 29.5442 29.7824 29.6316 29.694C29.6351 29.6905 29.6386 29.6869 29.6418 29.6835C29.8112 29.5021 29.8013 29.2179 29.62 29.0485Z" fill="#1D4599"/>
<path d="M32.9696 20.7235C32.7695 17.9735 31.5841 15.3838 29.632 13.4316C27.7133 11.5128 25.1503 10.3383 22.415 10.1245C19.7131 9.91323 17.024 10.6464 14.8423 12.1889C14.6397 12.3321 14.5916 12.6125 14.7348 12.815C14.8779 13.0176 15.1583 13.0658 15.3609 12.9225C19.5329 9.97307 25.3951 10.465 28.9968 14.0669C32.7188 17.7892 33.1689 23.5695 30.0668 27.8112C29.9204 28.0115 29.964 28.2925 30.1643 28.439C30.2442 28.4975 30.3371 28.5257 30.4291 28.5257C30.5675 28.5257 30.7041 28.4619 30.7921 28.3416C32.3944 26.1506 33.1677 23.4451 32.9696 20.7235Z" fill="#1D4599"/>
<path d="M13.9486 13.4837C13.7724 13.3091 13.4879 13.3102 13.3133 13.4865L13.3059 13.494C13.1313 13.6702 13.1326 13.9546 13.3088 14.1293C13.3964 14.216 13.5107 14.2594 13.625 14.2594C13.7406 14.2594 13.8562 14.215 13.9441 14.1264L13.9514 14.119C14.1261 13.9428 14.1248 13.6583 13.9486 13.4837Z" fill="#1D4599"/>
<path d="M22.5127 21.8464C22.4322 21.7083 22.2844 21.6234 22.1246 21.6234H21.8036L22.3949 20.8765C22.5488 20.682 22.516 20.3994 22.3215 20.2455C22.1269 20.0914 21.8444 20.1244 21.6904 20.3188L20.5228 21.7937C20.4159 21.9288 20.3956 22.1131 20.4706 22.2682C20.5456 22.4233 20.7027 22.5218 20.875 22.5218H21.3539L20.8038 23.4931C20.6815 23.709 20.7574 23.9831 20.9732 24.1053C21.0432 24.145 21.1192 24.1638 21.1942 24.1638C21.3509 24.1637 21.5029 24.0817 21.5856 23.9358L22.5155 22.294C22.5943 22.1549 22.5932 21.9844 22.5127 21.8464Z" fill="#1D4599"/>
</g>
</g>
<defs>
<clipPath id="clip0_71_444">
<rect width="43" height="43" fill="white"/>
</clipPath>
<clipPath id="clip1_71_444">
<rect width="23" height="23" fill="white" transform="translate(10 10)"/>
</clipPath>
</defs>
</svg>
