<svg width="43" height="43" viewBox="0 0 43 43" fill="none" xmlns="http://www.w3.org/2000/svg">
<g clip-path="url(#clip0_71_443)">
<path d="M37 0H6C2.68629 0 0 2.68629 0 6V37C0 40.3137 2.68629 43 6 43H37C40.3137 43 43 40.3137 43 37V6C43 2.68629 40.3137 0 37 0Z" fill="#EDE8FB"/>
<g clip-path="url(#clip1_71_443)">
<path d="M14.8594 34H28.1406C28.7622 34 29.3584 33.7531 29.7979 33.3135C30.2374 32.874 30.4844 32.2779 30.4844 31.6562V12.9062C30.4844 12.2847 30.2374 11.6885 29.7979 11.249C29.3584 10.8094 28.7622 10.5625 28.1406 10.5625H26.4414C26.28 10.106 25.9812 9.71065 25.586 9.43086C25.1908 9.15107 24.7186 9.00055 24.2344 9H18.7656C18.2814 9.00055 17.8093 9.15107 17.414 9.43086C17.0188 9.71065 16.72 10.106 16.5586 10.5625H14.8594C14.2378 10.5625 13.6416 10.8094 13.2021 11.249C12.7626 11.6885 12.5156 12.2847 12.5156 12.9062V31.6562C12.5156 32.2779 12.7626 32.874 13.2021 33.3135C13.6416 33.7531 14.2378 34 14.8594 34ZM18.7656 10.5625H24.2344C24.4416 10.5625 24.6403 10.6448 24.7868 10.7913C24.9333 10.9378 25.0156 11.1365 25.0156 11.3438C25.0156 11.551 24.9333 11.7497 24.7868 11.8962C24.6403 12.0427 24.4416 12.125 24.2344 12.125H18.7656C18.5584 12.125 18.3597 12.0427 18.2132 11.8962C18.0667 11.7497 17.9844 11.551 17.9844 11.3438C17.9844 11.1365 18.0667 10.9378 18.2132 10.7913C18.3597 10.6448 18.5584 10.5625 18.7656 10.5625ZM14.0781 12.9062C14.0781 12.699 14.1604 12.5003 14.307 12.3538C14.4535 12.2073 14.6522 12.125 14.8594 12.125H16.5586C16.72 12.5815 17.0188 12.9768 17.414 13.2566C17.8093 13.5364 18.2814 13.687 18.7656 13.6875H24.2344C24.7186 13.687 25.1908 13.5364 25.586 13.2566C25.9812 12.9768 26.28 12.5815 26.4414 12.125H28.1406C28.3478 12.125 28.5465 12.2073 28.6931 12.3538C28.8396 12.5003 28.9219 12.699 28.9219 12.9062V31.6562C28.9219 31.8635 28.8396 32.0622 28.6931 32.2087C28.5465 32.3552 28.3478 32.4375 28.1406 32.4375H14.8594C14.6522 32.4375 14.4535 32.3552 14.307 32.2087C14.1604 32.0622 14.0781 31.8635 14.0781 31.6562V12.9062Z" fill="#9469FB"/>
<path d="M19.5477 26.7226C19.6227 26.8023 19.7136 26.8655 19.8145 26.9079C19.9155 26.9503 20.0242 26.971 20.1336 26.9686H20.1727C20.2863 26.9627 20.3973 26.932 20.4978 26.8787C20.5984 26.8254 20.6861 26.7508 20.7547 26.6601L27.0047 18.4569C27.1194 18.2916 27.1658 18.0883 27.1344 17.8896C27.1029 17.6908 26.996 17.5119 26.8359 17.39C26.6757 17.2682 26.4748 17.2128 26.2748 17.2354C26.0749 17.2581 25.8914 17.357 25.7625 17.5116L20.0711 24.9804L17.7743 22.5272C17.6323 22.376 17.4361 22.2873 17.2288 22.2807C17.0215 22.2741 16.8201 22.3502 16.6688 22.4921C16.5175 22.634 16.4289 22.8302 16.4223 23.0375C16.4157 23.2449 16.4917 23.4463 16.6336 23.5976L19.5477 26.7226Z" fill="#9469FB"/>
</g>
</g>
<defs>
<clipPath id="clip0_71_443">
<rect width="43" height="43" fill="white"/>
</clipPath>
<clipPath id="clip1_71_443">
<rect width="19" height="25" fill="white" transform="translate(12 9)"/>
</clipPath>
</defs>
</svg>
