<svg width="43" height="43" viewBox="0 0 43 43" fill="none" xmlns="http://www.w3.org/2000/svg">
<g clip-path="url(#clip0_71_442)">
<path d="M37 0H6C2.68629 0 0 2.68629 0 6V37C0 40.3137 2.68629 43 6 43H37C40.3137 43 43 40.3137 43 37V6C43 2.68629 40.3137 0 37 0Z" fill="#FDF1F6"/>
<g clip-path="url(#clip1_71_442)">
<path d="M21.125 30.25V32.75C21.125 33.44 21.685 34 22.375 34C23.065 34 23.625 33.44 23.625 32.75V30.25C23.625 29.56 23.065 29 22.375 29C21.685 29 21.125 29.56 21.125 30.25ZM15.3038 26.8038L13.5363 28.5712C13.0488 29.0587 13.0488 29.8512 13.5363 30.3387C14.0238 30.8262 14.8163 30.8262 15.3038 30.3387L17.0712 28.5712C17.56 28.0837 17.56 27.2913 17.0712 26.8038C16.5837 26.315 15.7913 26.315 15.3038 26.8038ZM31.2137 28.5712L29.4462 26.8038C28.9587 26.315 28.1663 26.315 27.6788 26.8038C27.19 27.2913 27.19 28.0837 27.6788 28.5712L29.4462 30.3387C29.9337 30.8262 30.7262 30.8262 31.2137 30.3387C31.7012 29.8512 31.7012 29.0587 31.2137 28.5712ZM33.625 20.25H31.125C30.435 20.25 29.875 20.81 29.875 21.5C29.875 22.19 30.435 22.75 31.125 22.75H33.625C34.315 22.75 34.875 22.19 34.875 21.5C34.875 20.81 34.315 20.25 33.625 20.25ZM13.625 20.25H11.125C10.435 20.25 9.875 20.81 9.875 21.5C9.875 22.19 10.435 22.75 11.125 22.75H13.625C14.315 22.75 14.875 22.19 14.875 21.5C14.875 20.81 14.315 20.25 13.625 20.25ZM29.4462 12.6613L27.6788 14.4288C27.19 14.9163 27.19 15.7087 27.6788 16.1962C28.1663 16.685 28.9587 16.685 29.4462 16.1962L31.2137 14.4288C31.7012 13.9413 31.7012 13.1488 31.2137 12.6613C30.7262 12.1738 29.9337 12.1738 29.4462 12.6613ZM17.0712 14.4288L15.3038 12.6613C14.8163 12.1738 14.0238 12.1738 13.5363 12.6613C13.0488 13.1488 13.0488 13.9413 13.5363 14.4288L15.3038 16.1962C15.7913 16.685 16.5837 16.685 17.0712 16.1962C17.56 15.7087 17.56 14.9163 17.0712 14.4288ZM21.125 10.25V12.75C21.125 13.44 21.685 14 22.375 14C23.065 14 23.625 13.44 23.625 12.75V10.25C23.625 9.56 23.065 9 22.375 9C21.685 9 21.125 9.56 21.125 10.25Z" fill="#F6599F"/>
</g>
</g>
<defs>
<clipPath id="clip0_71_442">
<rect width="43" height="43" fill="white"/>
</clipPath>
<clipPath id="clip1_71_442">
<rect width="26" height="25" fill="white" transform="translate(9 9)"/>
</clipPath>
</defs>
</svg>
