<svg width="22" height="22" viewBox="0 0 22 22" fill="none" xmlns="http://www.w3.org/2000/svg">
<path d="M18.7782 3.22184C16.7005 1.14421 13.9382 0 11 0V1.28906C16.3546 1.28906 20.7109 5.64536 20.7109 11C20.7109 16.3546 16.3546 20.7109 11 20.7109C5.64536 20.7109 1.28906 16.3546 1.28906 11C1.28906 8.49376 2.23218 6.13263 3.95037 4.32154L4.87631 5.24747L4.87562 2.47938L2.10783 2.47904L3.03854 3.40974C1.07705 5.46451 0 8.14941 0 11C0 13.9382 1.14421 16.7005 3.2218 18.7782C5.29947 20.8558 8.0618 22 11 22C13.9382 22 16.7005 20.8558 18.7782 18.7782C20.8558 16.7005 22 13.9382 22 11C22 8.0618 20.8558 5.29947 18.7782 3.22184Z" fill="#878787"/>
<path d="M8.98047 0C8.50661 0 8.12109 0.385516 8.12109 0.859375C8.12109 1.33323 8.50661 1.71875 8.98047 1.71875C9.45433 1.71875 9.83984 1.33323 9.83984 0.859375C9.83984 0.385516 9.45433 0 8.98047 0Z" fill="#878787"/>
<path d="M6.44531 0.816406C5.97145 0.816406 5.58594 1.20192 5.58594 1.67578C5.58594 2.14964 5.97145 2.53516 6.44531 2.53516C6.91917 2.53516 7.30469 2.14964 7.30469 1.67578C7.30469 1.20192 6.91917 0.816406 6.44531 0.816406Z" fill="#878787"/>
<path d="M12.0412 11.4745V8.47266H11.2585L8.88867 11.4745V12.5014H10.8923V13.5715H12.0412V12.5014H12.6732V11.4745H12.0412ZM11.0216 11.4745H10.0305L11.0216 10.1963V11.4745Z" fill="#878787"/>
<path d="M16.601 9.53516V11.0576H14.7841V9.53516H13.75V13.5783H14.7841V11.9625H16.601V13.5783H17.6279V9.53516H16.601Z" fill="#878787"/>
<path d="M5.98782 12.544C5.98782 11.6159 8.17098 11.7018 8.17098 10.0161C8.17098 9.08071 7.61303 8.42188 6.40441 8.42188C5.1853 8.42188 4.45573 9.15685 4.3792 9.24773L5.09734 10.009C5.15956 9.94198 5.6723 9.44165 6.24641 9.44165C6.59613 9.44165 6.86404 9.64644 6.86404 10.0305C6.86404 11.3509 4.37207 10.3984 4.37207 13.5781H8.17816V12.544H5.98782Z" fill="#878787"/>
</svg>
