<svg width="16" height="16" viewBox="0 0 16 16" fill="none" xmlns="http://www.w3.org/2000/svg">
<path d="M15.5131 7.41447H12.4618L14.8326 5.04374L13.8009 4.00471L10.3911 7.41447H8.92769V5.95105L12.3374 2.5413L11.2984 1.50959L8.92769 3.88032V0.829102H7.46427V3.88032L5.09354 1.50959L4.05452 2.5413L7.46427 5.95105V7.41447H6.00086L2.5911 4.00471L1.55939 5.04374L3.93013 7.41447H0.878906V8.87788H3.93013L1.55939 11.2486L2.5911 12.2876L6.00086 8.87788H7.46427V10.3413L4.05452 13.7511L5.09354 14.7828L7.46427 12.412V15.4632H8.92769V12.412L11.2984 14.7828L12.3374 13.7511L8.92769 10.3413V8.87788H10.3911L13.8009 12.2876L14.8326 11.2486L12.4618 8.87788H15.5131V7.41447Z" fill="#939393"/>
</svg>
