<svg width="12" height="8" viewBox="0 0 12 8" fill="none" xmlns="http://www.w3.org/2000/svg">
<path d="M2.11967 1.29007L5.99967 5.17007L9.87967 1.29007C9.97225 1.19749 10.0822 1.12405 10.2031 1.07394C10.3241 1.02384 10.4537 0.998047 10.5847 0.998047C10.7156 0.998047 10.8452 1.02384 10.9662 1.07394C11.0872 1.12405 11.1971 1.19749 11.2897 1.29007C11.3823 1.38265 11.4557 1.49256 11.5058 1.61352C11.5559 1.73449 11.5817 1.86414 11.5817 1.99507C11.5817 2.126 11.5559 2.25565 11.5058 2.37661C11.4557 2.49757 11.3823 2.60749 11.2897 2.70007L6.69967 7.29007C6.60716 7.38277 6.49727 7.45632 6.37629 7.5065C6.25532 7.55668 6.12564 7.58251 5.99467 7.58251C5.8637 7.58251 5.73402 7.55668 5.61305 7.5065C5.49207 7.45632 5.38218 7.38277 5.28967 7.29007L0.69967 2.70007C0.606967 2.60755 0.533419 2.49767 0.483238 2.37669C0.433056 2.25572 0.407227 2.12604 0.407227 1.99507C0.407227 1.8641 0.433056 1.73442 0.483238 1.61344C0.533419 1.49247 0.606967 1.38258 0.69967 1.29007C1.08967 0.910068 1.72967 0.900068 2.11967 1.29007Z" fill="#9c8f41"/>
</svg>
