<svg width="165" height="157" viewBox="0 0 165 157" fill="none" xmlns="http://www.w3.org/2000/svg">
<path d="M86.4453 1.09961L120.561 23.3808V156.365H86.4453V1.09961Z" fill="#CDCDCD"/>
<path d="M123.232 96.9473V155.666H165.003V110.29L123.232 96.9473ZM140.868 142.9L128.105 139.186V128.169L140.868 132.801V142.9ZM140.868 123.636L128.105 119.918V108.908L140.868 113.545V123.636ZM156.88 147.535L144.112 143.826V132.804L156.88 137.444V147.535ZM156.88 128.274L144.115 124.561V113.545L156.886 118.177V128.274H156.88Z" fill="#CDCDCD"/>
<path d="M40.3794 27.5554V115.728L34.3485 119.667V90.2189L30.5214 91.8012V62.4269L2.66641 74.7241V103.34L0 104.446V156.364H82.5493V0.636719L40.3794 27.5554ZM5.22058 80.328L14.6215 75.9779V87.2896L5.22058 91.4672V80.328ZM5.91867 98.6616L15.3168 94.3061V105.626L5.91867 109.798V98.6616ZM15.6015 139.298L6.20338 143.481V132.337L15.6015 127.987V139.298ZM15.6015 122.063L6.20338 126.248V115.104L15.6015 110.756V122.063ZM16.9402 74.8747L26.3411 70.5246V81.8391L16.9402 86.0139V74.8747ZM17.6383 93.2056L27.0364 88.8555V100.17L17.6383 104.35V93.2056ZM28.1369 133.908L18.7361 138.088V126.949L28.1369 122.594V133.908ZM28.1369 116.675L18.7361 120.85V109.716L28.1369 105.363V116.675ZM58.2477 118.635L45.2469 126.774V114.707L58.2477 106.297V118.635ZM58.2477 98.2455L45.2469 106.379V94.3061L58.2477 85.8962V98.2455ZM58.2477 77.8504L45.2469 85.992V73.9165L58.2477 65.5012V77.8504ZM58.2477 57.4581L45.2469 65.5888V53.5215L58.2477 45.1061V57.4581ZM58.2477 37.0603L45.2469 45.1965V33.1264L58.2477 24.7138V37.0603ZM77.5094 106.584L62.4252 116.023V103.587L77.5094 93.8243V106.584V106.584ZM77.5094 86.1891L62.4252 95.6311V83.1915L77.5094 73.4237V86.1891V86.1891ZM77.5094 65.7941L62.4252 75.236V62.8019L77.5094 53.0314V65.7941V65.7941ZM77.5094 45.399L62.4252 54.841V42.4041L77.5094 32.6364V45.399V45.399ZM77.5094 25.0013L62.4252 34.4432V22.0063L77.5094 12.2386V25.0013V25.0013Z" fill="#CDCDCD"/>
</svg>
