<svg width="23" height="23" viewBox="0 0 23 23" fill="none" xmlns="http://www.w3.org/2000/svg">
<path d="M13 1.75C13 1.41848 12.8683 1.10054 12.6339 0.866116C12.3995 0.631696 12.0815 0.5 11.75 0.5C11.4185 0.5 11.1005 0.631696 10.8661 0.866116C10.6317 1.10054 10.5 1.41848 10.5 1.75V10.5H1.75C1.41848 10.5 1.10054 10.6317 0.866116 10.8661C0.631696 11.1005 0.5 11.4185 0.5 11.75C0.5 12.0815 0.631696 12.3995 0.866116 12.6339C1.10054 12.8683 1.41848 13 1.75 13H10.5V21.75C10.5 22.0815 10.6317 22.3995 10.8661 22.6339C11.1005 22.8683 11.4185 23 11.75 23C12.0815 23 12.3995 22.8683 12.6339 22.6339C12.8683 22.3995 13 22.0815 13 21.75V13H21.75C22.0815 13 22.3995 12.8683 22.6339 12.6339C22.8683 12.3995 23 12.0815 23 11.75C23 11.4185 22.8683 11.1005 22.6339 10.8661C22.3995 10.6317 22.0815 10.5 21.75 10.5H13V1.75Z" fill="#9C8F41"/>
</svg>
