<svg width="32" height="29" viewBox="0 0 32 29" fill="none" xmlns="http://www.w3.org/2000/svg">
<path d="M21.6478 7.90671C23.8312 7.90671 25.6012 6.13674 25.6012 3.95336C25.6012 1.76998 23.8312 0 21.6478 0C19.4644 0 17.6945 1.76998 17.6945 3.95336C17.6945 6.13674 19.4644 7.90671 21.6478 7.90671Z" fill="#94E061"/>
<path d="M20.5295 7.7467C20.2795 7.6732 20.0374 7.57513 19.8068 7.45393C20.0767 6.67328 20.1155 5.71634 19.5953 4.88175C19.1476 4.16347 18.4162 3.74023 17.7144 3.55452C17.7395 3.31114 17.787 3.07059 17.8563 2.83594C18.826 2.97787 19.7765 3.6379 20.3381 4.67218C20.898 5.70361 20.9349 6.85705 20.5295 7.7467Z" fill="#E9EFF4"/>
<path d="M23.534 7.42844C21.7701 8.38602 19.5996 7.86251 18.4515 6.28119C19.661 7.35747 21.4619 7.61842 22.9667 6.80151C24.8856 5.75975 25.5965 3.35975 24.5547 1.44092C24.4718 1.28801 24.3789 1.14072 24.2766 1C24.6093 1.29596 24.8973 1.65382 25.1222 2.06786C26.1639 3.98668 25.4528 6.38668 23.534 7.42844Z" fill="#70CF3D"/>
<path d="M20.6996 7.2613C20.6565 7.42901 20.5997 7.59069 20.5295 7.74456C20.5139 7.73994 20.4983 7.73534 20.4829 7.73056C20.3531 7.69049 20.2255 7.6439 20.1005 7.59096C20.0789 7.58183 19.8045 7.45848 19.8068 7.45178C19.8466 7.33682 19.8805 7.21993 19.9086 7.10156C20.1662 7.18155 20.4312 7.23507 20.6996 7.2613Z" fill="#D3DCE2"/>
<path d="M25.5834 4.3316C25.5605 4.5703 25.5159 4.80641 25.45 5.03698C24.5023 4.87627 23.5802 4.2226 23.0308 3.21045C22.4799 2.19574 22.435 1.06313 22.8199 0.179688C23.0528 0.251994 23.2786 0.345579 23.4943 0.459257C23.2677 1.14267 23.2212 1.97599 23.5689 2.73753C23.975 3.62749 24.7876 4.12331 25.5834 4.3316Z" fill="#E9EFF4"/>
<path d="M25.5834 4.32896C25.5745 4.42148 25.5626 4.51003 25.5478 4.60153C25.5422 4.63596 25.4569 5.03549 25.4501 5.03434C25.2101 4.9936 24.9718 4.92136 24.7407 4.81951C24.8352 4.58753 24.9076 4.34715 24.957 4.10156C25.1617 4.19879 25.3732 4.27389 25.5834 4.32896Z" fill="#D3DCE2"/>
<path d="M25.5834 4.32892C25.5806 4.35877 25.5774 4.38858 25.5739 4.41836C25.5721 4.43331 25.5702 4.44812 25.5683 4.46307C25.5662 4.47787 25.5643 4.49282 25.5621 4.50762C25.5604 4.52034 25.5584 4.53307 25.5565 4.54581C25.5538 4.56443 25.5508 4.58289 25.5478 4.60151C25.5446 4.61982 25.5414 4.63827 25.5381 4.65656L25.5352 4.67232C25.5317 4.69128 25.528 4.71022 25.5242 4.72913C25.5242 4.72928 25.5242 4.72945 25.5241 4.72961C25.5201 4.7496 25.5159 4.76955 25.5115 4.78944C25.509 4.80184 25.5061 4.81426 25.5032 4.82668C25.5007 4.83797 25.4981 4.84928 25.4954 4.86057C25.4921 4.87521 25.4884 4.88986 25.4848 4.90433C25.4811 4.91882 25.4774 4.93329 25.4736 4.94778C25.4662 4.97674 25.4584 5.00554 25.4501 5.03434C25.2101 4.9936 24.9718 4.92136 24.7407 4.81951C24.8352 4.58753 24.9076 4.34715 24.957 4.10156C25.1618 4.19876 25.3732 4.27386 25.5834 4.32892Z" fill="#D3DCE2"/>
<path d="M31.2499 15.2485C31.2499 16.231 30.8914 17.1299 30.2981 17.8214C30.2584 17.8679 30.2174 17.9135 30.1754 17.958C29.4789 18.6979 28.5005 19.1694 27.4116 19.2005C27.327 19.2031 27.2424 19.2028 27.1579 19.1997C25.8726 19.1558 24.7432 18.4981 24.0531 17.5107C23.9414 17.3509 23.8416 17.183 23.7548 17.0084C23.4908 16.4784 23.3425 15.8808 23.3425 15.2486C23.3425 14.8563 23.3997 14.4774 23.5059 14.1198C23.5464 13.9836 23.5943 13.8498 23.6493 13.7189C23.8883 13.1504 24.2568 12.6457 24.7253 12.2448C25.1674 11.8656 25.688 11.5891 26.2497 11.435C26.5907 11.3417 26.9427 11.2946 27.2962 11.2949C27.9027 11.2939 28.5013 11.4332 29.0451 11.7018C30.0288 12.1878 30.7813 13.071 31.0928 14.1419C31.1443 14.3185 31.1832 14.4986 31.2092 14.6806C31.2361 14.8661 31.2499 15.0557 31.2499 15.2487L31.2499 15.2485Z" fill="#FF8800"/>
<path d="M31.2499 15.2477C31.2499 16.2301 30.8914 17.129 30.2981 17.8205C30.2583 17.867 30.2174 17.9126 30.1753 17.9571C29.4789 18.697 28.5004 19.1685 27.4115 19.1996C27.327 19.2022 27.2424 19.202 27.1578 19.1989C26.6742 19.1827 26.1977 19.0775 25.7523 18.8886C25.6091 18.8279 25.4698 18.7587 25.3348 18.6814C25.3544 18.6823 25.374 18.6831 25.3936 18.6838C25.4781 18.6869 25.5627 18.6872 25.6472 18.6845C26.7362 18.6535 27.7147 18.182 28.4111 17.4421C28.4532 17.3976 28.4941 17.352 28.5339 17.3054C29.1272 16.614 29.4856 15.7151 29.4856 14.7327C29.4856 14.5397 29.4718 14.3501 29.4449 14.1646C29.4189 13.9825 29.38 13.8025 29.3285 13.6259C29.0399 12.6334 28.3722 11.8021 27.4929 11.2988C27.8454 11.316 28.194 11.3803 28.5294 11.4902C28.706 11.5481 28.8783 11.6185 29.0449 11.7008C30.0288 12.1869 30.7812 13.07 31.0928 14.141C31.1442 14.3176 31.1831 14.4976 31.2091 14.6797C31.236 14.8652 31.2498 15.0548 31.2498 15.2477L31.2499 15.2477Z" fill="#E14F01"/>
<path d="M30.3677 14.9902C30.3677 15.9726 30.0092 16.8715 29.416 17.5629C29.3762 17.6095 29.3353 17.6551 29.2933 17.6996C28.5968 18.4395 27.6183 18.911 26.5294 18.942C26.4449 18.9446 26.3603 18.9444 26.2758 18.9413C26.1003 18.9353 25.9254 18.9177 25.7523 18.8886C25.6091 18.8279 25.4698 18.7587 25.3348 18.6814C25.3544 18.6823 25.374 18.6831 25.3936 18.6838C25.4781 18.6869 25.5627 18.6872 25.6472 18.6845C26.7362 18.6535 27.7147 18.182 28.4111 17.4421C28.4532 17.3976 28.4941 17.352 28.5339 17.3054C29.1272 16.614 29.4856 15.7151 29.4856 14.7327C29.4856 14.5397 29.4718 14.3501 29.4449 14.1646C29.4189 13.9825 29.38 13.8025 29.3285 13.6259C29.0399 12.6334 28.3722 11.8021 27.4929 11.2988C27.6503 11.3064 27.8051 11.3234 27.9571 11.349C28.0269 11.3785 28.0953 11.41 28.1629 11.4433C29.1466 11.9293 29.8991 12.8125 30.2106 13.8834C30.2621 14.0601 30.301 14.2401 30.3271 14.4222C30.3539 14.6077 30.3677 14.7973 30.3677 14.9902Z" fill="#F06B02"/>
<path d="M26.6006 12.3979C26.3382 12.5749 26.0822 12.7788 25.8383 13.0039C25.8623 13.0224 25.8861 13.0409 25.9097 13.0592C26.0303 13.1524 26.1443 13.2406 26.2558 13.3238L26.2591 13.3264C27.043 13.9717 27.7714 14.661 28.4242 15.375C29.1477 16.1662 29.7773 16.9876 30.2983 17.8201C30.2585 17.8666 30.2175 17.9122 30.1755 17.9567C28.9429 15.9726 27.3154 14.4247 26.1486 13.464C26.0322 13.3766 25.9166 13.2882 25.8018 13.1987L25.7087 13.1266C25.4671 13.3614 25.2425 13.6131 25.0366 13.8798C25.487 14.3476 25.7751 15.0927 25.9155 16.151C26.0623 17.3469 26.6057 18.4511 27.4117 19.1992C27.3271 19.2018 27.2425 19.2015 27.158 19.1984C26.8268 18.8618 26.5345 18.4548 26.3038 18.0066C26.0092 17.435 25.8196 16.8182 25.7405 16.1734C25.6074 15.1701 25.3413 14.4639 24.9291 14.0228C24.0132 15.2755 23.7008 16.5458 24.0532 17.5094C23.9415 17.3496 23.8418 17.1817 23.7549 17.0071C23.7544 17.0037 23.7541 17.0003 23.7536 16.9968C23.7172 16.6733 23.7384 16.3259 23.8166 15.9639C23.9621 15.2912 24.3015 14.5787 24.7981 13.9032L24.8007 13.8997C24.5641 13.7302 24.3183 13.6633 24.089 13.7067C23.8716 13.7477 23.6716 13.8893 23.506 14.1185C23.5465 13.9823 23.5944 13.8485 23.6494 13.7176C23.7753 13.6228 23.912 13.5606 24.0563 13.5333C24.3355 13.4806 24.6292 13.5586 24.9069 13.759C25.1099 13.4973 25.3305 13.2497 25.5672 13.0181C25.2506 12.7766 24.9126 12.5332 24.585 12.3697C24.6308 12.3265 24.6776 12.2845 24.7254 12.2436C25.0543 12.4161 25.3862 12.6577 25.6965 12.8948C25.9335 12.6734 26.1865 12.4696 26.4532 12.285C26.3488 12.1966 26.2612 12.1015 26.1949 12.0035C26.0787 11.8314 26.0307 11.6553 26.0534 11.4929C26.1182 11.4714 26.1836 11.4517 26.2498 11.4336C26.1624 11.6614 26.3043 11.9443 26.6057 12.1834C26.6885 12.1299 26.7727 12.0785 26.8582 12.0295C27.4419 11.6952 28.0091 11.5133 28.5296 11.4898C28.7062 11.5477 28.8784 11.6181 29.0451 11.7004C28.4286 11.5822 27.7049 11.7481 26.946 12.1826C26.8842 12.2179 26.8226 12.255 26.7612 12.2935C26.8268 12.3351 26.8947 12.373 26.9644 12.4073C27.2134 12.5299 27.4877 12.6212 27.7796 12.6789C29.4802 13.0146 30.559 13.487 31.0929 14.1405C31.1444 14.3171 31.1833 14.4972 31.2093 14.6793C31.0527 14.2808 30.725 13.9445 30.2124 13.6552C29.633 13.3282 28.8261 13.0653 27.7454 12.852C27.4383 12.7913 27.1493 12.695 26.8864 12.5655C26.7871 12.5168 26.6916 12.4607 26.6006 12.3979Z" fill="#333333"/>
<path d="M23.7176 14.8739C23.7481 14.6514 23.7947 14.4834 23.7578 14.4824C23.721 14.4815 23.6203 14.6694 23.5898 14.8918C23.5592 15.1145 23.6105 15.2873 23.6473 15.2884C23.6842 15.2893 23.687 15.0966 23.7176 14.8739Z" fill="white"/>
<path d="M23.6238 15.2677C23.6008 15.1992 23.5857 15.0745 23.6058 14.9284C23.6358 14.7109 23.7324 14.5261 23.7711 14.5195C23.7716 14.496 23.7678 14.4828 23.7577 14.4824C23.721 14.4818 23.6204 14.6694 23.5898 14.8918C23.5654 15.0698 23.593 15.2159 23.6238 15.2677Z" fill="#DCE0F4"/>
<path d="M23.8684 14.1832C23.8871 14.1204 23.8897 14.0738 23.8739 14.0687C23.8581 14.0638 23.8101 14.1071 23.7914 14.1698C23.7727 14.2326 23.7903 14.2909 23.8061 14.296C23.822 14.301 23.8497 14.246 23.8684 14.1832Z" fill="white"/>
<path d="M23.7949 14.2814C23.7889 14.2586 23.7883 14.2248 23.7987 14.1903C23.8173 14.1274 23.8652 14.0842 23.8806 14.0893C23.8814 14.0894 23.8822 14.0896 23.8829 14.0901C23.8836 14.0906 23.8841 14.0912 23.8845 14.0919C23.8841 14.0791 23.8802 14.07 23.8738 14.0688C23.8583 14.0636 23.8103 14.1069 23.7918 14.1698C23.7781 14.2169 23.7843 14.2607 23.7949 14.2814Z" fill="#DCE0F4"/>
<path d="M29.9797 14.4839C29.9179 14.4839 29.8568 14.496 29.7997 14.5196C29.7426 14.5433 29.6907 14.5779 29.6471 14.6216C29.6034 14.6653 29.5687 14.7172 29.5451 14.7742C29.5215 14.8313 29.5094 14.8925 29.5094 14.9543C29.5095 14.8295 29.46 14.7098 29.3719 14.6215C29.2836 14.5334 29.1639 14.484 29.0392 14.484C29.1639 14.484 29.2836 14.4345 29.3719 14.3465C29.46 14.2581 29.5095 14.1384 29.5094 14.0137C29.5094 14.1434 29.5623 14.2613 29.6469 14.3465C29.7353 14.4346 29.855 14.4839 29.9797 14.4839Z" fill="white"/>
<path d="M8.65741 5.08446C8.65741 6.06693 8.2989 6.96584 7.70562 7.65729C7.66584 7.70384 7.62491 7.74939 7.58287 7.7939C6.88642 8.53385 5.90796 9.00535 4.81905 9.03641C4.73449 9.03903 4.64988 9.03878 4.56534 9.03566C3.28008 8.99172 2.15064 8.334 1.4606 7.34661C1.34883 7.18682 1.24912 7.01894 1.16228 6.84435C0.898303 6.3143 0.75 5.71677 0.75 5.08453C0.75 4.69229 0.807131 4.31337 0.913349 3.95569C0.953879 3.81956 1.00177 3.68574 1.05681 3.5548C1.29579 2.98636 1.66423 2.4816 2.13277 2.08072C2.57488 1.70156 3.09546 1.425 3.65713 1.2709C3.99815 1.17765 4.35013 1.13055 4.70367 1.13086C5.31019 1.12986 5.90873 1.2691 6.45253 1.53771C7.43628 2.02373 8.18881 2.90692 8.50032 3.97789C8.55175 4.15448 8.59063 4.33449 8.61666 4.51657C8.64355 4.70204 8.65733 4.89169 8.65733 5.08461L8.65741 5.08446Z" fill="#FF8800"/>
<path d="M8.65735 5.08359C8.65735 6.06607 8.29885 6.96497 7.70556 7.65643C7.66579 7.70298 7.62486 7.74853 7.58281 7.79304C6.88636 8.53298 5.90791 9.00448 4.81899 9.03554C4.73444 9.03816 4.64983 9.03791 4.56529 9.0348C4.08169 9.01862 3.60521 8.91346 3.15973 8.72456C3.01662 8.6638 2.87723 8.59461 2.74231 8.51734C2.7619 8.51823 2.78149 8.51905 2.80108 8.51972C2.88559 8.52288 2.97018 8.52313 3.05471 8.52047C4.14362 8.48941 5.12215 8.01791 5.8186 7.27804C5.86065 7.2335 5.90158 7.18793 5.94135 7.14135C6.53464 6.4499 6.89307 5.55107 6.89307 4.56859C6.89307 4.37567 6.87929 4.18603 6.8524 4.00056C6.82634 3.81845 6.78744 3.63841 6.73598 3.4618C6.44734 2.46934 5.77972 1.638 4.90033 1.13477C5.25285 1.15191 5.60148 1.21626 5.93688 1.32612C6.11348 1.38407 6.28576 1.45446 6.4524 1.53677C7.43622 2.02279 8.18868 2.90598 8.50026 3.97695C8.55169 4.15354 8.59057 4.33355 8.61661 4.51563C8.6435 4.7011 8.65728 4.89074 8.65728 5.08366L8.65735 5.08359Z" fill="#E14F01"/>
<path d="M7.77521 4.82609C7.77521 5.80857 7.41671 6.7074 6.82342 7.39885C6.78367 7.44543 6.74277 7.491 6.70074 7.53554C6.00429 8.27541 5.02577 8.74691 3.93685 8.77797C3.85232 8.78059 3.76773 8.78034 3.68322 8.77722C3.50775 8.77126 3.33287 8.75367 3.15973 8.72456C3.01662 8.6638 2.87723 8.59461 2.74231 8.51734C2.7619 8.51823 2.78149 8.51905 2.80108 8.51972C2.88559 8.52288 2.97018 8.52313 3.05471 8.52047C4.14362 8.48941 5.12215 8.01791 5.8186 7.27804C5.86065 7.2335 5.90158 7.18793 5.94135 7.14135C6.53464 6.4499 6.89307 5.55107 6.89307 4.56859C6.89307 4.37567 6.87929 4.18603 6.8524 4.00056C6.82634 3.81845 6.78744 3.63841 6.73598 3.4618C6.44734 2.46934 5.77972 1.638 4.90033 1.13477C5.05772 1.14236 5.21258 1.15935 5.36461 1.18497C5.43432 1.21447 5.50278 1.2459 5.57034 1.27919C6.55408 1.76522 7.30662 2.64848 7.61812 3.71937C7.66958 3.89599 7.70848 4.07602 7.73454 4.25813C7.76136 4.4436 7.77521 4.63325 7.77521 4.82609Z" fill="#F06B02"/>
<path d="M4.00807 2.23383C3.74565 2.41081 3.48964 2.61476 3.24577 2.83985C3.26976 2.85833 3.29359 2.8768 3.31713 2.89512C3.4378 2.98838 3.55176 3.07657 3.66327 3.15977L3.66655 3.16231C4.45052 3.80766 5.17884 4.49695 5.83164 5.21091C6.55521 6.0021 7.18477 6.82354 7.70572 7.656C7.66595 7.70255 7.62502 7.7481 7.58297 7.79261C6.35037 5.80851 4.72284 4.26068 3.55608 3.29996C3.43969 3.21255 3.32409 3.12411 3.20927 3.03464L3.11617 2.96253C2.87454 3.19733 2.64994 3.44903 2.44407 3.71574C2.89449 4.18352 3.18261 4.9286 3.32301 5.98698C3.46975 7.18286 4.01321 8.28705 4.81915 9.03512C4.7346 9.03773 4.64998 9.03748 4.56545 9.03437C4.23428 8.69777 3.942 8.2907 3.71124 7.84259C3.41664 7.2709 3.22708 6.65416 3.14797 6.00933C3.01486 5.006 2.74872 4.29986 2.33659 3.85875C1.42063 5.11147 1.10831 6.38176 1.4607 7.34532C1.34894 7.18553 1.24922 7.01765 1.16239 6.84305C1.16186 6.83963 1.16157 6.8362 1.16112 6.8327C1.12462 6.50928 1.14585 6.1618 1.22406 5.7998C1.36953 5.12718 1.70897 4.41465 2.20557 3.73913L2.20818 3.73563C1.97153 3.5661 1.7258 3.49928 1.49646 3.54263C1.27911 3.5836 1.07904 3.72528 0.913452 3.9544C0.953982 3.81827 1.00187 3.68444 1.05691 3.55351C1.1828 3.45869 1.31948 3.39657 1.46376 3.36923C1.74293 3.31649 2.03671 3.39456 2.31439 3.59492C2.51734 3.3332 2.73794 3.08565 2.97464 2.85401C2.65807 2.61252 2.32005 2.3691 1.99246 2.20568C2.03824 2.16249 2.08505 2.12041 2.13287 2.0795C2.46173 2.25201 2.79371 2.49364 3.10395 2.73073C3.34102 2.50934 3.59392 2.30555 3.86066 2.12099C3.7563 2.0325 3.66863 1.93745 3.60234 1.83943C3.48614 1.66736 3.43817 1.49128 3.46089 1.32882C3.52569 1.30737 3.59109 1.28763 3.65724 1.26953C3.56986 1.49731 3.71176 1.78028 4.01321 2.01931C4.096 1.9658 4.1802 1.91448 4.26572 1.86542C4.84939 1.53113 5.41653 1.34923 5.93704 1.32569C6.11364 1.38364 6.28591 1.45404 6.45256 1.53634C5.83604 1.41813 5.1124 1.58401 4.35346 2.01849C4.29164 2.05387 4.23004 2.09097 4.16866 2.12948C4.2343 2.17102 4.30213 2.20898 4.37186 2.24322C4.62087 2.36582 4.89513 2.45714 5.18704 2.51487C6.88771 2.85058 7.9665 3.32297 8.50042 3.97644C8.55186 4.15306 8.59073 4.3331 8.61677 4.5152C8.4602 4.1167 8.13246 3.78047 7.61992 3.49109C7.04048 3.16409 6.23357 2.90123 5.15285 2.6879C4.84582 2.62727 4.55673 2.53096 4.29387 2.40143C4.19457 2.35269 4.09909 2.29668 4.00807 2.23383Z" fill="#333333"/>
<path d="M1.12505 4.70986C1.15559 4.48737 1.20214 4.31933 1.16527 4.31836C1.12847 4.31739 1.02777 4.50532 0.997228 4.72774C0.966689 4.95046 1.01794 5.12326 1.05473 5.12431C1.09168 5.12527 1.09451 4.9325 1.12505 4.70986Z" fill="white"/>
<path d="M1.03126 5.10367C1.00824 5.03514 0.993196 4.91045 1.01323 4.76439C1.04325 4.54689 1.13986 4.36201 1.17859 4.35546C1.17911 4.33192 1.17524 4.31873 1.16519 4.31836C1.12846 4.31776 1.02791 4.50532 0.997293 4.72774C0.972861 4.90576 1.00042 5.05183 1.03126 5.10367Z" fill="#DCE0F4"/>
<path d="M1.27591 4.0191C1.29461 3.95638 1.29714 3.90975 1.28135 3.90469C1.26556 3.8997 1.21759 3.94305 1.19889 4.00577C1.18012 4.06856 1.19778 4.12688 1.21357 4.13195C1.22943 4.13694 1.25722 4.08189 1.27591 4.0191Z" fill="white"/>
<path d="M1.20237 4.11737C1.19641 4.0945 1.19582 4.06076 1.20617 4.0262C1.22479 3.96333 1.27269 3.92013 1.28811 3.92519C1.28891 3.9253 1.28968 3.92559 1.29035 3.92604C1.29102 3.92649 1.29158 3.9271 1.29198 3.9278C1.29161 3.91499 1.28766 3.9059 1.28125 3.90471C1.26576 3.89957 1.21779 3.94285 1.19924 4.00571C1.18561 4.05286 1.19179 4.09659 1.20237 4.11737Z" fill="#DCE0F4"/>
<path d="M7.3872 4.31984C7.32542 4.3198 7.26424 4.33194 7.20715 4.35557C7.15007 4.3792 7.0982 4.41384 7.05452 4.45753C7.01084 4.50122 6.9762 4.55309 6.95259 4.61018C6.92897 4.66726 6.91684 4.72845 6.91689 4.79022C6.91692 4.66546 6.86747 4.54578 6.77939 4.45742C6.69105 4.36935 6.57139 4.3199 6.44666 4.31992C6.57139 4.31993 6.69105 4.27048 6.77939 4.18241C6.86747 4.09406 6.91692 3.97437 6.91689 3.84961C6.91689 3.97936 6.96977 4.09728 7.05439 4.18241C7.14275 4.2705 7.26243 4.31988 7.3872 4.31984Z" fill="white"/>
<path d="M23.248 3.35742H5.38502L0.751831 16.482L3.47228 17.5956L5.38502 7.29764H23.2485L25.1613 17.5961L27.8811 16.482L23.248 3.35742Z" fill="#E4E4E3"/>
<path d="M27.881 16.4812L25.1589 17.5942L24.6897 16.0358H3.94128L3.47271 17.5942L0.75 16.4807L0.939917 16.0358L5.38262 3.35547H23.2478L27.6905 16.0358L27.881 16.4812Z" fill="#E4E4E3"/>
<path d="M6.44922 4.8418H22.1829V7.49498H6.44922V4.8418Z" fill="#59B1E3"/>
<path d="M6.44882 4.8418V7.49498L4.76443 17.0372L3.18518 16.0565L6.44882 4.8418ZM22.1831 4.8418V7.49498L23.8675 17.0372L25.4462 16.0565L22.1831 4.8418Z" fill="#35A9D9"/>
<path d="M23.8674 17.0383H4.76379L6.44818 7.49609H22.1819L23.8674 17.0383Z" fill="#7AC1E1"/>
<path d="M27.881 16.4825V19.2041H0.75V16.4825L0.939917 16.0371H27.6911L27.881 16.4825Z" fill="#D2D2D0"/>
<path d="M8.82544 2.25781H9.24936V8.92187H8.82544V2.25781ZM11.9189 2.25781H12.3429V8.92187H11.9189V2.25781ZM9.25106 3.8772H11.9189V4.34125H9.25106V3.8772ZM9.25106 5.3581H11.9189V5.82215H9.25106V5.3581ZM9.25106 6.839H11.9189V7.30305H9.25106V6.839Z" fill="#7B7A7A"/>
<path d="M16.7745 10.9462C16.6428 10.8388 16.6795 10.667 16.8168 10.5466C17.2526 10.1679 18.0965 10.4098 18.161 10.3357C18.4085 10.1492 17.8512 9.42007 20.2557 9.73377C18.9161 10.0673 18.8895 9.73151 18.7398 10.373C18.5154 10.9784 17.5228 10.4522 17.0158 10.667C16.8841 10.7207 16.7688 10.8162 16.7745 10.9462ZM11.7247 11.1254C11.5212 10.9609 11.6851 10.5664 12.386 10.5127C12.6155 10.485 12.8681 10.5285 13.0021 10.5268C13.4628 10.5268 12.5629 9.56816 15.2054 9.91295C13.8652 10.2464 13.8392 9.91069 13.6894 10.5517C13.5069 11.0451 12.6477 10.8009 12.4069 10.7891C12.096 10.7744 11.7134 10.871 11.7247 11.1254ZM8.64984 13.5638C8.44636 13.3998 8.61028 13.0053 9.31173 12.9511C9.54121 12.9239 9.79387 12.9669 9.92783 12.9658C10.3495 12.9658 9.51634 12.0105 12.1311 12.3513C11.7592 12.444 11.3313 12.4825 11.0052 12.5435C10.3953 12.699 10.8599 13.0454 10.3371 13.2444C9.99113 13.3818 9.65878 13.2444 9.33264 13.2275C9.02176 13.2133 8.6391 13.3094 8.64984 13.5638ZM12.7924 14.5473C12.6601 14.4404 12.6963 14.2686 12.8337 14.1482C13.3056 13.7379 14.1405 14.0679 14.2089 13.8882C14.2654 13.7932 14.1897 13.3004 15.059 13.2551C15.5055 13.2359 15.8656 13.2817 16.2731 13.3348C14.9329 13.6683 14.9069 13.3332 14.7566 13.9747C14.6605 14.2341 14.2987 14.3104 14.0218 14.2839C13.7273 14.2488 13.3271 14.1431 13.0326 14.268C12.9015 14.3223 12.7868 14.4178 12.7924 14.5473ZM18.3356 14.2126C18.2034 14.1053 18.2401 13.9334 18.3774 13.813C18.8138 13.4343 19.6571 13.6762 19.7216 13.6022C19.9691 13.4157 19.4118 12.6865 21.8163 13.0002C20.4767 13.3337 20.4507 12.998 20.3004 13.6395C20.0613 14.285 19.119 13.7034 18.5764 13.9334C18.4447 13.9871 18.33 14.0826 18.3356 14.2126ZM16.4969 12.7657C16.3641 12.6583 16.4709 12.4005 16.9293 12.3649C17.0791 12.3474 17.2447 12.3757 17.3323 12.3745C17.5935 12.3745 17.0814 11.7528 18.7725 11.9732C18.5295 12.0337 18.2497 12.0586 18.0366 12.0981C17.6381 12.1999 17.9416 12.4265 17.5997 12.5571C17.282 12.6826 16.9565 12.4553 16.6546 12.5831C16.5681 12.6181 16.493 12.6809 16.4969 12.7657ZM15.5818 9.10128C15.4484 8.99388 15.5558 8.73614 16.0142 8.70053C16.164 8.68301 16.3296 8.71127 16.4172 8.71014C16.6885 8.71014 16.1736 8.08895 17.8574 8.30883C16.9892 8.52474 16.9644 8.3077 16.866 8.7271C16.8038 8.89666 16.5664 8.9464 16.3856 8.92888C16.1934 8.90627 15.9317 8.83731 15.7389 8.91871C15.653 8.95375 15.5779 9.01649 15.5818 9.10128ZM8.62158 10.8993C8.48875 10.7919 8.59558 10.5341 9.05455 10.4991C9.20377 10.481 9.36938 10.5093 9.45699 10.5087C9.75487 10.5081 9.17664 9.88242 10.8972 10.1074C10.0296 10.3227 10.0041 10.1057 9.90578 10.5251C9.75939 10.9208 9.1105 10.576 8.77928 10.7173C8.69337 10.7523 8.61819 10.8151 8.62158 10.8993ZM6.5031 14.9712C6.37027 14.8638 6.4771 14.606 6.93607 14.571C7.08585 14.5529 7.2509 14.5812 7.33851 14.58C7.68952 14.58 7.01407 13.9487 8.77872 14.1787C7.91109 14.3947 7.88565 14.1776 7.7873 14.597C7.63978 14.9966 6.99429 14.6479 6.6608 14.7892C6.57489 14.8242 6.49971 14.8864 6.5031 14.9712Z" fill="#A3DDF1"/>
<path d="M9.78566 28.2393C14.7759 28.2393 18.8213 24.1939 18.8213 19.2036C18.8213 14.2134 14.7759 10.168 9.78566 10.168C4.7954 10.168 0.75 14.2134 0.75 19.2036C0.75 24.1939 4.7954 28.2393 9.78566 28.2393Z" fill="#94E061"/>
<path d="M7.22963 27.8723C6.65829 27.7043 6.10498 27.4802 5.5778 27.2032C6.1946 25.4189 6.28335 23.2318 5.09447 21.3243C4.07109 19.6826 2.39962 18.7153 0.79541 18.2908C0.852769 17.7345 0.961361 17.1847 1.1198 16.6484C3.33606 16.9728 5.50867 18.4814 6.79209 20.8453C8.07191 23.2027 8.15629 25.839 7.22963 27.8723Z" fill="#E9EFF4"/>
<path d="M14.0966 27.1458C10.0652 29.3344 5.10427 28.1379 2.48035 24.5236C5.24467 26.9835 9.36079 27.58 12.8001 25.7129C17.1857 23.3319 18.8106 17.8465 16.4296 13.4609C16.24 13.1114 16.0277 12.7747 15.7939 12.4531C16.5544 13.1296 17.2126 13.9475 17.7265 14.8938C20.1075 19.2794 18.4822 24.7647 14.0966 27.1458Z" fill="#70CF3D"/>
<path d="M7.61829 26.7674C7.51973 27.1508 7.38992 27.5203 7.22951 27.8719C7.19385 27.8614 7.15823 27.8509 7.12296 27.84C6.82643 27.7484 6.53471 27.6419 6.24891 27.5209C6.19973 27.5 5.57241 27.2181 5.57767 27.2028C5.66859 26.94 5.74627 26.6729 5.81042 26.4023C6.39907 26.5852 7.00483 26.7075 7.61829 26.7674Z" fill="#D3DCE2"/>
<path d="M18.7808 20.0656C18.7286 20.6112 18.6266 21.1508 18.4761 21.6778C16.31 21.3105 14.2025 19.8165 12.9467 17.5032C11.6876 15.184 11.5851 12.5953 12.4648 10.5762C12.9971 10.7414 13.513 10.9553 14.0061 11.2151C13.4882 12.7771 13.382 14.6817 14.1767 16.4223C15.1048 18.4563 16.9621 19.5896 18.7808 20.0656Z" fill="#E9EFF4"/>
<path d="M18.7806 20.0646C18.7604 20.2761 18.7331 20.4785 18.6992 20.6876C18.6864 20.7663 18.4914 21.6795 18.4759 21.6768C17.9275 21.5837 17.3827 21.4186 16.8546 21.1858C17.0706 20.6556 17.2361 20.1062 17.3488 19.5449C17.8169 19.7672 18.3002 19.9388 18.7806 20.0646Z" fill="#D3DCE2"/>
<path d="M18.7807 20.0646C18.7741 20.1328 18.7669 20.2009 18.7589 20.269C18.7549 20.3031 18.7505 20.337 18.7461 20.3712C18.7414 20.405 18.737 20.4392 18.7319 20.473C18.7279 20.5021 18.7236 20.5312 18.7192 20.5603C18.713 20.6028 18.7061 20.645 18.6992 20.6876C18.6919 20.7294 18.6847 20.7716 18.677 20.8134L18.6705 20.8494C18.6625 20.8928 18.6541 20.936 18.6454 20.9793C18.6454 20.9796 18.6454 20.98 18.645 20.9804C18.636 21.0261 18.6264 21.0717 18.6163 21.1171C18.6105 21.1455 18.6039 21.1738 18.5974 21.2022C18.5915 21.228 18.5857 21.2539 18.5795 21.2797C18.5719 21.3132 18.5635 21.3466 18.5552 21.3797C18.5468 21.4128 18.5384 21.4459 18.5297 21.479C18.5126 21.5452 18.4948 21.611 18.4759 21.6768C17.9275 21.5837 17.3827 21.4186 16.8546 21.1858C17.0706 20.6556 17.2361 20.1062 17.3488 19.5449C17.8169 19.7671 18.3002 19.9387 18.7807 20.0646Z" fill="#D3DCE2"/>
</svg>
