<svg width="15" height="15" viewBox="0 0 15 15" fill="none" xmlns="http://www.w3.org/2000/svg">
<path d="M13.9159 1.3765C12.2037 -0.3355 9.07169 0.0197499 6.92145 2.17075C5.66121 3.43075 5.02247 5.026 5.04947 6.477C4.94797 8.031 4.66947 9.53075 3.93422 10.4003L3.67997 10.1458L3.28773 10.5378L3.39648 10.6465L0.759245 13.2837L0.650496 13.175L0.258748 13.5667L1.69124 15L2.08349 14.6082L1.97474 14.4998L4.61222 11.8625L4.72097 11.971L5.11246 11.5793L4.89322 11.3588C5.76221 10.624 7.25995 10.3457 8.81244 10.2435C10.2639 10.2717 11.8607 9.63325 13.1219 8.372C15.2736 6.221 15.6286 3.089 13.9159 1.3765ZM14.2114 4.16925L13.8519 3.81025L14.1309 3.53175C14.1762 3.73875 14.2027 3.95175 14.2114 4.16925ZM14.0147 3.12675L13.5917 3.55L12.7982 2.75625L13.4277 2.1265C13.6855 2.41932 13.8847 2.75887 14.0147 3.12675ZM6.71245 6.73175L7.70795 5.73575L8.50219 6.52975L7.5062 7.52525L6.71245 6.73175ZM7.2462 7.78675L6.61545 8.41675C6.35736 8.12385 6.15806 7.784 6.02846 7.41575L6.4517 6.993L7.2462 7.78675ZM10.4867 2.95775L11.4817 1.96225L12.2754 2.7565L11.2797 3.75225L10.4867 2.95775ZM12.0734 5.06725L11.0772 6.06525L10.2824 5.27175L11.2797 4.274L12.0734 5.06725ZM11.0189 4.013L10.0217 5.01025L9.22794 4.2165L10.2252 3.219L11.0189 4.013ZM9.76068 5.27175L8.76319 6.269L7.96894 5.47475L8.96669 4.4775L9.76068 5.27175ZM8.96669 3.9555L8.17494 3.1635L9.17219 2.166L9.96343 2.95775L8.96669 3.9555ZM8.70594 4.21675L7.70795 5.21375L6.91645 4.42175L7.9132 3.424L8.70594 4.21675ZM8.76319 6.79125L9.55668 7.5845L8.56119 8.5805L7.76795 7.78625L8.76319 6.79125ZM9.02494 6.52975L10.0217 5.5325L10.8154 6.32625L9.81743 7.32375L9.02494 6.52975ZM11.0772 6.587L11.8677 7.37925L10.8702 8.3765L10.0779 7.5845L11.0772 6.587ZM11.3374 6.326L12.3347 5.32875L13.1269 6.1205L12.1297 7.118L11.3374 6.326ZM11.5409 4.01325L12.5369 3.01725L13.3304 3.8105L12.3357 4.8065L11.5409 4.01325ZM13.1669 1.8655L12.5369 2.4955L11.7424 1.70125L12.1652 1.2785C12.5337 1.40788 12.8739 1.60719 13.1669 1.8655ZM11.7604 1.1615L11.4819 1.44L11.1232 1.08125C11.3407 1.09025 11.5537 1.1165 11.7604 1.1615ZM10.6127 1.09275L11.2207 1.701L10.2254 2.69675L9.43293 1.905L10.1882 1.14975C10.3304 1.1235 10.4722 1.10475 10.6127 1.09275ZM9.47343 1.3425L9.17244 1.644L9.04419 1.51575C9.18458 1.45156 9.32781 1.39375 9.47343 1.3425ZM8.69694 1.69025L8.91094 1.9045L7.9132 2.90225L7.54295 2.531C7.89067 2.20327 8.2784 1.92078 8.69694 1.69025ZM7.2817 2.7925L7.6527 3.1635L6.6552 4.16075L6.44096 3.94625C6.67156 3.52783 6.95404 3.14019 7.2817 2.7925ZM6.26621 4.29375L6.39421 4.422L6.09271 4.7235C6.14321 4.579 6.20071 4.436 6.26621 4.29375ZM5.89996 5.4375L6.6552 4.6825L7.4472 5.4745L6.4517 6.46975L5.84271 5.861C5.85496 5.721 5.87371 5.5795 5.89996 5.4375ZM6.19021 6.7315L5.91171 7.01C5.86634 6.80035 5.83957 6.58711 5.83171 6.37275L6.19021 6.7315ZM5.12171 10.1718C4.84822 9.89825 5.20421 8.83825 5.45071 8.208C5.62171 8.55775 5.84296 8.88275 6.12621 9.166C6.40971 9.4495 6.73495 9.671 7.08545 9.84225C6.4552 10.0885 5.39471 10.4447 5.12171 10.1718ZM6.87645 8.678L7.50645 8.04775L8.30019 8.84175L7.87645 9.2645C7.50865 9.1348 7.16917 8.9357 6.87645 8.678ZM8.28219 9.381L8.56094 9.10225L8.91994 9.4615C8.7054 9.45347 8.49199 9.42654 8.28219 9.381ZM9.43069 9.45L8.82169 8.841L9.81718 7.8455L10.6097 8.63725L9.85418 9.39325C9.71403 9.41907 9.57269 9.43801 9.43069 9.45ZM10.5687 9.2005L10.8699 8.89925L10.9984 9.02725C10.8562 9.092 10.7129 9.14975 10.5687 9.2005ZM11.3467 8.85175L11.1324 8.63725L12.1297 7.64025L12.5004 8.011C12.1528 8.3388 11.7652 8.6213 11.3467 8.85175ZM12.7614 7.75L12.3904 7.37925L13.3877 6.38175L13.6024 6.596C13.3717 7.01446 13.0891 7.40218 12.7614 7.75ZM13.7769 6.24875L13.6487 6.12075L13.9499 5.8195C13.8989 5.96516 13.8411 6.1084 13.7769 6.24875ZM14.1429 5.10425L13.3877 5.85975L12.5962 5.06725L13.5917 4.07175L14.2002 4.68075C14.188 4.82277 14.1689 4.9641 14.1429 5.10425ZM2.74998 5.5C3.48448 5.5 4.17522 5.214 4.69472 4.69475C5.21421 4.17525 5.49996 3.4845 5.49996 2.75C5.49996 2.0155 5.21346 1.32475 4.69397 0.8055C4.17472 0.28625 3.48423 0 2.74973 0C2.01524 0 1.32499 0.286 0.805744 0.8055C0.286248 1.32475 0 2.0155 0 2.75C0 3.4845 0.285998 4.1755 0.805494 4.69475C1.06029 4.95085 1.36333 5.15388 1.6971 5.2921C2.03087 5.43032 2.38873 5.50098 2.74998 5.5ZM4.37022 1.12975C4.78425 1.54242 5.02354 2.09862 5.03847 2.683C4.45742 2.65823 3.90688 2.41607 3.49598 2.0045C3.08417 1.59365 2.84197 1.04294 2.81748 0.46175C3.40164 0.476733 3.95764 0.715927 4.37022 1.12975ZM1.12974 1.1295C1.50662 0.750745 2.00484 0.516812 2.53698 0.46875C2.56305 1.12197 2.83424 1.74139 3.29652 2.20363C3.7588 2.66587 4.37825 2.93699 5.03147 2.963C4.98358 3.49532 4.74953 3.99371 4.37047 4.3705C3.99349 4.74925 3.4952 4.98318 2.96298 5.03125C2.93697 4.37814 2.66579 3.75882 2.20348 3.29675C1.74148 2.83436 1.12213 2.56316 0.468997 2.53725C0.516629 2.00484 0.750617 1.50632 1.12974 1.1295ZM2.00424 3.4955C2.41575 3.90654 2.65791 4.45714 2.68273 5.03825C2.09844 5.02341 1.54227 4.78431 1.12949 4.3705C0.715537 3.95783 0.476407 3.40158 0.461747 2.81725C1.04274 2.84205 1.59323 3.08411 2.00424 3.4955Z" fill="#939393"/>
</svg>
