<svg width="29" height="31" viewBox="0 0 29 31" fill="none" xmlns="http://www.w3.org/2000/svg">
<rect width="29" height="30.7152" rx="7.6853" fill="#9C8F41"/>
<path d="M13.0962 8.64621C13.2453 8.64621 13.3882 8.70542 13.4936 8.81081C13.599 8.9162 13.6582 9.05915 13.6582 9.2082C13.6582 9.33559 13.7088 9.45776 13.7989 9.54784C13.889 9.63792 14.0112 9.68853 14.1386 9.68853C14.2659 9.68853 14.3881 9.63792 14.4782 9.54784C14.5683 9.45776 14.6189 9.33559 14.6189 9.2082C14.6189 8.80437 14.4585 8.41707 14.1729 8.13152C13.8874 7.84597 13.5001 7.68555 13.0962 7.68555C12.6924 7.68555 12.3051 7.84597 12.0196 8.13152C11.734 8.41707 11.5736 8.80437 11.5736 9.2082V17.0232C11.5736 17.1506 11.6242 17.2728 11.7143 17.3628C11.8043 17.4529 11.9265 17.5035 12.0539 17.5035C12.1813 17.5035 12.3035 17.4529 12.3936 17.3628C12.4836 17.2728 12.5342 17.1506 12.5342 17.0232V16.4252H16.7996V17.0232C16.7996 17.1506 16.8502 17.2728 16.9403 17.3628C17.0304 17.4529 17.1525 17.5035 17.2799 17.5035C17.4073 17.5035 17.5295 17.4529 17.6196 17.3628C17.7096 17.2728 17.7603 17.1506 17.7603 17.0232V9.2082C17.7603 9.05915 17.8195 8.9162 17.9249 8.81081C18.0302 8.70542 18.1732 8.64621 18.3222 8.64621C18.4713 8.64621 18.6142 8.70542 18.7196 8.81081C18.825 8.9162 18.8842 9.05915 18.8842 9.2082C18.8842 9.33559 18.9348 9.45776 19.0249 9.54784C19.115 9.63792 19.2372 9.68853 19.3646 9.68853C19.4919 9.68853 19.6141 9.63792 19.7042 9.54784C19.7943 9.45776 19.8449 9.33559 19.8449 9.2082C19.8449 8.80437 19.6845 8.41707 19.3989 8.13152C19.1134 7.84597 18.7261 7.68555 18.3222 7.68555C17.9184 7.68555 17.5311 7.84597 17.2456 8.13152C16.96 8.41707 16.7996 8.80437 16.7996 9.2082V10.7981H12.5342V9.2082C12.5342 9.05915 12.5935 8.9162 12.6988 8.81081C12.8042 8.70542 12.9472 8.64621 13.0962 8.64621ZM12.5342 15.4645V14.1844H16.7996V15.4645H12.5342ZM16.7996 11.7588V13.2238H12.5342V11.7588H16.7996ZM10.2791 19.2687C9.94286 19.2687 9.79876 19.1294 9.55859 18.8941C9.38525 18.695 9.1717 18.535 8.93202 18.4245C8.69234 18.3139 8.43196 18.2554 8.16804 18.2528C8.04064 18.2528 7.91847 18.3034 7.82839 18.3935C7.73831 18.4836 7.6877 18.6058 7.6877 18.7332C7.6877 18.8606 7.73831 18.9827 7.82839 19.0728C7.91847 19.1629 8.04064 19.2135 8.16804 19.2135C8.50427 19.2135 8.64837 19.3552 8.88853 19.5882C9.06011 19.7893 9.27329 19.9509 9.51337 20.0616C9.75344 20.1724 10.0147 20.2298 10.2791 20.2298C10.5435 20.2298 10.8047 20.1724 11.0448 20.0616C11.2849 19.9509 11.4981 19.7893 11.6697 19.5882C11.9098 19.348 12.0587 19.2135 12.3901 19.2135C12.7216 19.2135 12.8705 19.3552 13.1106 19.5882C13.2822 19.7893 13.4954 19.9509 13.7355 20.0616C13.9756 20.1724 14.2368 20.2298 14.5012 20.2298C14.7656 20.2298 15.0269 20.1724 15.2669 20.0616C15.507 19.9509 15.7202 19.7893 15.8918 19.5882C16.1319 19.348 16.2808 19.2135 16.6123 19.2135C16.9437 19.2135 17.0926 19.3552 17.3328 19.5882C17.5043 19.7893 17.7175 19.9509 17.9576 20.0616C18.1977 20.1724 18.4589 20.2298 18.7233 20.2298C18.9877 20.2298 19.249 20.1724 19.489 20.0616C19.7291 19.9509 19.9423 19.7893 20.1139 19.5882C20.354 19.348 20.5053 19.2135 20.8344 19.2135C20.9618 19.2135 21.0839 19.1629 21.174 19.0728C21.2641 18.9827 21.3147 18.8606 21.3147 18.7332C21.3147 18.6058 21.2641 18.4836 21.174 18.3935C21.0839 18.3034 20.9618 18.2528 20.8344 18.2528C20.5704 18.2554 20.3101 18.3139 20.0704 18.4245C19.8307 18.535 19.6172 18.695 19.4438 18.8941C19.2036 19.1342 19.0523 19.2687 18.7233 19.2687C18.3943 19.2687 18.243 19.1294 18.0028 18.8941C17.8312 18.6929 17.6181 18.5314 17.378 18.4206C17.1379 18.3098 16.8767 18.2525 16.6123 18.2525C16.3479 18.2525 16.0866 18.3098 15.8465 18.4206C15.6065 18.5314 15.3933 18.6929 15.2217 18.8941C14.9815 19.1342 14.8326 19.2687 14.5012 19.2687C14.1698 19.2687 14.0209 19.1294 13.7807 18.8941C13.6094 18.693 13.3964 18.5314 13.1565 18.4207C12.9166 18.3099 12.6556 18.2526 12.3913 18.2526C12.1271 18.2526 11.8661 18.3099 11.6262 18.4207C11.3863 18.5314 11.1733 18.693 11.002 18.8941C10.7618 19.1294 10.6129 19.2687 10.2791 19.2687ZM8.16323 22.0138C8.49946 22.0138 8.64356 22.1555 8.88373 22.3885C9.05531 22.5897 9.26849 22.7512 9.50856 22.862C9.74864 22.9727 10.0099 23.0301 10.2743 23.0301C10.5387 23.0301 10.7999 22.9727 11.04 22.862C11.2801 22.7512 11.4933 22.5897 11.6648 22.3885C11.905 22.1483 12.0539 22.0138 12.3853 22.0138C12.7168 22.0138 12.8657 22.1555 13.1058 22.3885C13.2774 22.5897 13.4906 22.7512 13.7307 22.862C13.9708 22.9727 14.232 23.0301 14.4964 23.0301C14.7608 23.0301 15.022 22.9727 15.2621 22.862C15.5022 22.7512 15.7154 22.5897 15.887 22.3885C16.1271 22.1483 16.276 22.0138 16.6075 22.0138C16.9389 22.0138 17.0878 22.1555 17.328 22.3885C17.4995 22.5897 17.7127 22.7512 17.9528 22.862C18.1929 22.9727 18.4541 23.0301 18.7185 23.0301C18.9829 23.0301 19.2442 22.9727 19.4842 22.862C19.7243 22.7512 19.9375 22.5897 20.1091 22.3885C20.3492 22.1483 20.5005 22.0138 20.8296 22.0138C20.957 22.0138 21.0791 21.9632 21.1692 21.8731C21.2593 21.7831 21.3099 21.6609 21.3099 21.5335C21.3099 21.4061 21.2593 21.2839 21.1692 21.1939C21.0791 21.1038 20.957 21.0532 20.8296 21.0532C20.5656 21.0558 20.3053 21.1143 20.0656 21.2248C19.8259 21.3353 19.6124 21.4954 19.439 21.6944C19.1988 21.9346 19.0475 22.0691 18.7185 22.0691C18.3895 22.0691 18.2382 21.9274 17.998 21.6944C17.8264 21.4932 17.6133 21.3317 17.3732 21.2209C17.1331 21.1102 16.8719 21.0528 16.6075 21.0528C16.3431 21.0528 16.0818 21.1102 15.8417 21.2209C15.6017 21.3317 15.3885 21.4932 15.2169 21.6944C14.9767 21.9346 14.8278 22.0691 14.4964 22.0691C14.165 22.0691 14.0161 21.9274 13.7759 21.6944C13.6046 21.4933 13.3916 21.3318 13.1517 21.221C12.9118 21.1103 12.6508 21.0529 12.3865 21.0529C12.1223 21.0529 11.8613 21.1103 11.6214 21.221C11.3815 21.3318 11.1685 21.4933 10.9972 21.6944C10.757 21.9346 10.6057 22.0691 10.2767 22.0691C9.94766 22.0691 9.79636 21.9274 9.55619 21.6944C9.38285 21.4954 9.1693 21.3353 8.92962 21.2248C8.68994 21.1143 8.42956 21.0558 8.16563 21.0532C8.03824 21.0532 7.91607 21.1038 7.82599 21.1939C7.73591 21.2839 7.6853 21.4061 7.6853 21.5335C7.6853 21.6609 7.73591 21.7831 7.82599 21.8731C7.91607 21.9632 8.03824 22.0138 8.16563 22.0138H8.16323Z" fill="#FFFBE3"/>
</svg>
