<svg width="22" height="20" viewBox="0 0 22 20" fill="none" xmlns="http://www.w3.org/2000/svg">
<path d="M15.7667 10.6254H13C10.925 10.6254 9.875 9.45037 9.875 7.12537V4.73371C9.875 3.88371 9.975 2.66704 10.8583 2.00037C11.6 1.45037 12.6667 1.40871 14.2417 1.86704C16.3083 2.46704 18.0333 4.19204 18.6333 6.25871C19.0917 7.82537 19.05 8.90037 18.5 9.63371C17.8333 10.5254 16.6167 10.6254 15.7667 10.6254ZM12.4 2.80037C12.0583 2.80037 11.7917 2.86704 11.6167 3.00037C11.2917 3.24204 11.1333 3.80871 11.1333 4.73371V7.13371C11.1333 9.00037 11.85 9.38371 13.0083 9.38371H15.775C16.6917 9.38371 17.2583 9.22537 17.5083 8.90037C17.8 8.51704 17.775 7.75037 17.45 6.62537C16.9667 4.98371 15.55 3.55871 13.9083 3.08371C13.2917 2.89204 12.7917 2.80037 12.4 2.80037Z" fill="#9B9B9B"/>
<path d="M9.72466 18.9583C9.28299 18.9583 8.83299 18.9249 8.38299 18.8499C4.97466 18.2999 2.19966 15.5333 1.64966 12.1249C0.941325 7.74161 3.76632 3.60828 8.09132 2.72494C8.43299 2.65828 8.75799 2.87494 8.83299 3.20828C8.89966 3.54994 8.68299 3.87494 8.34966 3.94994C4.69133 4.69994 2.29132 8.19994 2.89966 11.9249C3.36632 14.8083 5.70799 17.1499 8.59133 17.6166C12.333 18.2166 15.8247 15.8083 16.5663 12.1333C16.633 11.7916 16.9663 11.5749 17.2997 11.6416C17.6413 11.7083 17.858 12.0416 17.7913 12.3749C16.9997 16.2666 13.5997 18.9583 9.72466 18.9583Z" fill="#9B9B9B"/>
</svg>
