<svg width="16" height="16" viewBox="0 0 16 16" fill="none" xmlns="http://www.w3.org/2000/svg">
<path d="M14.1875 0.6875H1.8125C1.36495 0.6875 0.935725 0.86529 0.619257 1.18176C0.30279 1.49822 0.125 1.92745 0.125 2.375V4.0625C0.125978 4.41066 0.234619 4.74999 0.436028 5.03397C0.637437 5.31796 0.921753 5.5327 1.25 5.64875V13.625C1.25 14.0726 1.42779 14.5018 1.74426 14.8182C2.06072 15.1347 2.48995 15.3125 2.9375 15.3125H13.0625C13.5101 15.3125 13.9393 15.1347 14.2557 14.8182C14.5722 14.5018 14.75 14.0726 14.75 13.625V5.64875C15.0782 5.5327 15.3626 5.31796 15.564 5.03397C15.7654 4.74999 15.874 4.41066 15.875 4.0625V2.375C15.875 1.92745 15.6972 1.49822 15.3807 1.18176C15.0643 0.86529 14.6351 0.6875 14.1875 0.6875ZM13.625 13.625C13.625 13.7742 13.5657 13.9173 13.4602 14.0227C13.3548 14.1282 13.2117 14.1875 13.0625 14.1875H2.9375C2.78832 14.1875 2.64524 14.1282 2.53975 14.0227C2.43426 13.9173 2.375 13.7742 2.375 13.625V5.75H13.625V13.625ZM14.75 4.0625C14.75 4.21168 14.6907 4.35476 14.5852 4.46025C14.4798 4.56574 14.3367 4.625 14.1875 4.625H1.8125C1.66332 4.625 1.52024 4.56574 1.41475 4.46025C1.30926 4.35476 1.25 4.21168 1.25 4.0625V2.375C1.25 2.22582 1.30926 2.08274 1.41475 1.97725C1.52024 1.87176 1.66332 1.8125 1.8125 1.8125H14.1875C14.3367 1.8125 14.4798 1.87176 14.5852 1.97725C14.6907 2.08274 14.75 2.22582 14.75 2.375V4.0625Z" fill="#888888"/>
<path d="M6.3125 8.5625H9.6875C9.83668 8.5625 9.97976 8.50324 10.0852 8.39775C10.1907 8.29226 10.25 8.14918 10.25 8C10.25 7.85082 10.1907 7.70774 10.0852 7.60225C9.97976 7.49676 9.83668 7.4375 9.6875 7.4375H6.3125C6.16332 7.4375 6.02024 7.49676 5.91475 7.60225C5.80926 7.70774 5.75 7.85082 5.75 8C5.75 8.14918 5.80926 8.29226 5.91475 8.39775C6.02024 8.50324 6.16332 8.5625 6.3125 8.5625Z" fill="#888888"/>
</svg>
