<svg width="33" height="33" viewBox="0 0 33 33" fill="none" xmlns="http://www.w3.org/2000/svg">
<circle cx="16.5" cy="16.5" r="16.5" fill="#fffbe3"/>
<path d="M17 7C22.5191 7 27 11.4809 27 17C27 22.5191 22.5191 27 17 27C11.4809 27 7 22.5191 7 17C7 11.4809 11.4809 7 17 7ZM17 8.39535C12.2512 8.39535 8.39535 12.2512 8.39535 17C8.39535 21.7488 12.2512 25.6047 17 25.6047C21.7488 25.6047 25.6047 21.7488 25.6047 17C25.6047 12.2512 21.7488 8.39535 17 8.39535Z" fill="#9c8f41"/>
<path d="M12.5322 17.2607C12.4014 17.1298 12.328 16.9523 12.3281 16.7673C12.3282 16.5823 12.4018 16.4049 12.5327 16.2742C12.6636 16.1434 12.841 16.07 13.026 16.0701C13.211 16.0702 13.3884 16.1438 13.5192 16.2746L15.9629 18.7184L20.4596 13.8021C20.5852 13.6684 20.7584 13.5895 20.9416 13.5825C21.1249 13.5756 21.3036 13.641 21.4389 13.7648C21.5743 13.8885 21.6555 14.0606 21.6649 14.2438C21.6744 14.4269 21.6113 14.6065 21.4894 14.7435L16.4996 20.1984C16.4359 20.2675 16.3589 20.3232 16.2731 20.3619C16.1874 20.4006 16.0947 20.4216 16.0007 20.4237C15.9066 20.4258 15.8131 20.4089 15.7257 20.374C15.6384 20.3391 15.559 20.287 15.4922 20.2207L12.5322 17.2607Z" fill="#9c8f41"/>
</svg>
