<svg width="66" height="66" viewBox="0 0 66 66" fill="none" xmlns="http://www.w3.org/2000/svg">
<circle cx="33" cy="33" r="31" stroke="white" stroke-width="4"/>
<path d="M46 34.5C46.8284 34.5 47.5 33.8284 47.5 33C47.5 32.1716 46.8284 31.5 46 31.5L46 34.5ZM18.9393 31.9393C18.3536 32.5251 18.3536 33.4749 18.9393 34.0607L28.4853 43.6066C29.0711 44.1924 30.0208 44.1924 30.6066 43.6066C31.1924 43.0208 31.1924 42.0711 30.6066 41.4853L22.1213 33L30.6066 24.5147C31.1924 23.9289 31.1924 22.9792 30.6066 22.3934C30.0208 21.8076 29.0711 21.8076 28.4853 22.3934L18.9393 31.9393ZM46 31.5L20 31.5L20 34.5L46 34.5L46 31.5Z" fill="white"/>
</svg>
