<svg width="58" height="64" viewBox="0 0 58 64" fill="none" xmlns="http://www.w3.org/2000/svg">
<path d="M29 0.375C21.5641 0.375 15.5 6.43914 15.5 13.875C15.5 14.9593 15.6305 16.0388 15.8889 17.0918C15.9956 17.5265 16.2705 17.9011 16.6533 18.1331C17.0362 18.3651 17.4954 18.4355 17.9302 18.3289C18.3649 18.2222 18.7395 17.9472 18.9715 17.5644C19.2035 17.1816 19.2739 16.7223 19.1672 16.2876C18.9734 15.4978 18.875 14.6882 18.875 13.875C18.875 8.26313 23.3881 3.75 29 3.75C34.6119 3.75 39.125 8.26313 39.125 13.875C39.125 14.6883 39.0266 15.4977 38.8328 16.2876C38.7261 16.7223 38.7965 17.1816 39.0285 17.5644C39.2605 17.9472 39.6351 18.2222 40.0698 18.3289C40.5046 18.4355 40.9638 18.3651 41.3467 18.1331C41.7295 17.9011 42.0044 17.5265 42.1111 17.0918C42.3696 16.0387 42.5 14.9594 42.5 13.875C42.5 6.43914 36.4359 0.375 29 0.375Z" fill="#1D4599"/>
<path d="M28.9742 7.10079C28.5271 7.10778 28.1009 7.29197 27.7895 7.61291C27.478 7.93384 27.3067 8.36528 27.3131 8.81246V11.0625H25.0631C24.8395 11.0593 24.6175 11.1006 24.41 11.184C24.2025 11.2674 24.0136 11.3912 23.8543 11.5482C23.6951 11.7052 23.5686 11.8923 23.4823 12.0986C23.396 12.3049 23.3516 12.5263 23.3516 12.75C23.3516 12.9736 23.396 13.195 23.4823 13.4013C23.5686 13.6076 23.6951 13.7947 23.8543 13.9517C24.0136 14.1087 24.2025 14.2325 24.41 14.3159C24.6175 14.3993 24.8395 14.4406 25.0631 14.4375H27.3131V16.6875C27.3099 16.9111 27.3512 17.1331 27.4346 17.3406C27.518 17.5481 27.6418 17.737 27.7988 17.8962C27.9558 18.0555 28.1429 18.1819 28.3492 18.2682C28.5556 18.3545 28.777 18.399 29.0006 18.399C29.2242 18.399 29.4456 18.3545 29.6519 18.2682C29.8583 18.1819 30.0454 18.0555 30.2024 17.8962C30.3594 17.737 30.4832 17.5481 30.5666 17.3406C30.6499 17.1331 30.6913 16.9111 30.6881 16.6875V14.4375H32.9381C33.1617 14.4406 33.3837 14.3993 33.5912 14.3159C33.7987 14.2325 33.9876 14.1087 34.1469 13.9517C34.3061 13.7947 34.4326 13.6076 34.5189 13.4013C34.6052 13.195 34.6496 12.9736 34.6496 12.75C34.6496 12.5263 34.6052 12.3049 34.5189 12.0986C34.4326 11.8923 34.3061 11.7052 34.1469 11.5482C33.9876 11.3912 33.7987 11.2674 33.5912 11.184C33.3837 11.1006 33.1617 11.0593 32.9381 11.0625H30.6881V8.81246C30.6913 8.5866 30.6492 8.36239 30.5642 8.15311C30.4792 7.94383 30.353 7.75375 30.1932 7.59413C30.0334 7.43451 29.8431 7.30859 29.6337 7.22385C29.4244 7.13911 29.2001 7.09726 28.9742 7.10079Z" fill="#1D4599"/>
<path d="M44.8297 7.12517C44.6061 7.12201 44.3841 7.16332 44.1766 7.2467C43.9691 7.33009 43.7802 7.45389 43.6209 7.6109C43.4617 7.76791 43.3352 7.95501 43.2489 8.16132C43.1626 8.36763 43.1182 8.58903 43.1182 8.81267C43.1182 9.0363 43.1626 9.25771 43.2489 9.46402C43.3352 9.67033 43.4617 9.85743 43.6209 10.0144C43.7802 10.1715 43.9691 10.2952 44.1766 10.3786C44.3841 10.462 44.6061 10.5033 44.8297 10.5002H47.0006V16.6877C46.9974 16.9113 47.0387 17.1333 47.1221 17.3408C47.2055 17.5483 47.3293 17.7372 47.4863 17.8964C47.6433 18.0557 47.8304 18.1821 48.0367 18.2684C48.2431 18.3548 48.4645 18.3992 48.6881 18.3992C48.9117 18.3992 49.1331 18.3548 49.3395 18.2684C49.5458 18.1821 49.7329 18.0557 49.8899 17.8964C50.0469 17.7372 50.1707 17.5483 50.2541 17.3408C50.3374 17.1333 50.3788 16.9113 50.3756 16.6877V8.81267C50.3756 8.36513 50.1977 7.93593 49.8813 7.61948C49.5648 7.30302 49.1356 7.12521 48.6881 7.12517H44.8297Z" fill="#1D4599"/>
<path d="M20.7709 46.0384C20.4068 46.0223 20.0473 46.1246 19.7461 46.3298C19.4449 46.5351 19.2183 46.8323 19.1 47.177C18.9818 47.5218 18.9784 47.8956 19.0903 48.2425C19.2021 48.5893 19.4233 48.8907 19.7207 49.1014C22.3221 51.0012 25.5385 52.1249 28.9997 52.1249C32.4609 52.1249 35.6773 51.0012 38.2788 49.1014C38.4667 48.9745 38.6272 48.811 38.7505 48.6206C38.8739 48.4303 38.9576 48.217 38.9967 47.9936C39.0358 47.7702 39.0294 47.5412 38.978 47.3203C38.9266 47.0994 38.8312 46.8911 38.6975 46.7079C38.5637 46.5247 38.3945 46.3703 38.1998 46.254C38.0051 46.1377 37.7889 46.0618 37.5642 46.0309C37.3395 46 37.1109 46.0147 36.892 46.0741C36.6731 46.1336 36.4684 46.2365 36.2902 46.3768C34.2446 47.8707 31.7335 48.7499 28.9997 48.7499C26.2659 48.7499 23.7571 47.8707 21.7114 46.3768C21.4393 46.1717 21.1114 46.0537 20.7709 46.0384Z" fill="#1D4599"/>
<path d="M19.9997 34.125C17.6778 34.125 16.115 35.6345 16.115 35.6345C15.9438 35.7755 15.8021 35.9487 15.698 36.1445C15.5938 36.3402 15.5292 36.5545 15.5078 36.7752C15.4865 36.9959 15.5088 37.2186 15.5736 37.4306C15.6383 37.6427 15.7442 37.8399 15.8852 38.011C16.0261 38.1821 16.1994 38.3238 16.3952 38.428C16.5909 38.5321 16.8052 38.5967 17.0259 38.618C17.2466 38.6393 17.4693 38.6169 17.6814 38.5522C17.8934 38.4874 18.0906 38.3815 18.2617 38.2405C18.2617 38.2405 19.4257 37.5 19.9997 37.5C20.5738 37.5 21.74 38.2405 21.74 38.2405C21.9111 38.3815 22.1083 38.4874 22.3203 38.5522C22.5324 38.6169 22.7551 38.6393 22.9758 38.618C23.1965 38.5967 23.4108 38.5321 23.6065 38.428C23.8023 38.3238 23.9755 38.1821 24.1165 38.011C24.2575 37.8399 24.3634 37.6427 24.4281 37.4306C24.4929 37.2186 24.5152 36.9959 24.4939 36.7752C24.4725 36.5545 24.4079 36.3402 24.3037 36.1445C24.1996 35.9487 24.0579 35.7755 23.8867 35.6345C23.8867 35.6345 22.3217 34.125 19.9997 34.125Z" fill="#1D4599"/>
<path d="M37.9997 34.125C35.6778 34.125 34.115 35.6345 34.115 35.6345C33.9438 35.7755 33.8021 35.9487 33.698 36.1445C33.5938 36.3402 33.5292 36.5545 33.5078 36.7752C33.4865 36.9959 33.5088 37.2186 33.5736 37.4306C33.6383 37.6427 33.7442 37.8399 33.8852 38.011C34.0261 38.1821 34.1994 38.3238 34.3952 38.428C34.5909 38.5321 34.8052 38.5967 35.0259 38.618C35.2466 38.6393 35.4693 38.6169 35.6814 38.5522C35.8934 38.4874 36.0906 38.3815 36.2617 38.2405C36.2617 38.2405 37.4257 37.5 37.9997 37.5C38.5738 37.5 39.74 38.2405 39.74 38.2405C39.9111 38.3815 40.1083 38.4874 40.3203 38.5522C40.5324 38.6169 40.7551 38.6393 40.9758 38.618C41.1965 38.5967 41.4108 38.5321 41.6065 38.428C41.8023 38.3238 41.9755 38.1821 42.1165 38.011C42.2575 37.8399 42.3634 37.6427 42.4281 37.4306C42.4929 37.2186 42.5152 36.9959 42.4939 36.7752C42.4725 36.5545 42.4079 36.3402 42.3037 36.1445C42.1996 35.9487 42.0579 35.7755 41.8867 35.6345C41.8867 35.6345 40.3217 34.125 37.9997 34.125Z" fill="#1D4599"/>
<path d="M9.31267 7.12517C4.66748 7.12517 0.875169 10.9175 0.875169 15.5627C0.875169 20.2079 4.66748 24.0002 9.31267 24.0002H53.7502V60.0002H9.31267C6.47886 60.0002 4.25017 57.7715 4.25017 54.9377V25.6877C4.25333 25.4641 4.21202 25.242 4.12863 25.0345C4.04525 24.827 3.92145 24.6382 3.76444 24.4789C3.60743 24.3197 3.42033 24.1932 3.21402 24.1069C3.00771 24.0206 2.7863 23.9761 2.56267 23.9761C2.33903 23.9761 2.11763 24.0206 1.91132 24.1069C1.70501 24.1932 1.51791 24.3197 1.3609 24.4789C1.20389 24.6382 1.08009 24.827 0.996704 25.0345C0.913318 25.242 0.872006 25.4641 0.875169 25.6877V54.9377C0.875169 59.5829 4.66748 63.3752 9.31267 63.3752H55.4377C55.8852 63.3751 56.3144 63.1973 56.6309 62.8809C56.9473 62.5644 57.1251 62.1352 57.1252 61.6877V22.3127C57.1251 21.8651 56.9473 21.4359 56.6309 21.1195C56.3144 20.803 55.8852 20.6252 55.4377 20.6252H9.31267C6.47886 20.6252 4.25017 18.3965 4.25017 15.5627C4.25017 12.7289 6.47886 10.5002 9.31267 10.5002H12.9843C13.2079 10.5033 13.4299 10.462 13.6374 10.3786C13.8449 10.2952 14.0338 10.1715 14.1931 10.0144C14.3523 9.85743 14.4788 9.67033 14.5651 9.46402C14.6514 9.25771 14.6958 9.0363 14.6958 8.81267C14.6958 8.58903 14.6514 8.36763 14.5651 8.16132C14.4788 7.95501 14.3523 7.76791 14.1931 7.6109C14.0338 7.45389 13.8449 7.33009 13.6374 7.2467C13.4299 7.16332 13.2079 7.12201 12.9843 7.12517H9.31267Z" fill="#1D4599"/>
</svg>
