<svg width="14" height="15" viewBox="0 0 14 15" fill="none" xmlns="http://www.w3.org/2000/svg">
<path d="M9.82142 7.91896C10.1653 7.35154 10.3635 6.68641 10.3635 5.97584V0H2.84368V5.97584C2.84368 6.68641 3.04187 7.35154 3.38579 7.91896H3.38576C1.51884 7.91896 0 9.43783 0 11.3047V15H13.2072V11.3047C13.2071 9.43783 11.6883 7.91896 9.82142 7.91896ZM3.72033 0.876681H9.48676V2.59506H3.72033V0.876681ZM9.48682 3.47172V4.10558H9.48679C9.07212 4.30275 8.59994 4.40643 8.10623 4.40643C7.18821 4.40643 6.35823 4.04192 5.88244 3.47172H9.48682ZM3.72033 3.47169H4.84533V3.47172C4.84618 3.47347 4.847 3.47523 4.84785 3.47696C4.6085 3.91762 4.1989 4.2318 3.72033 4.35212V3.47169ZM3.72033 5.24688C4.39272 5.1359 4.99109 4.77303 5.39875 4.23584C5.57319 4.40954 5.77188 4.56707 5.99172 4.70321C6.60438 5.08258 7.33554 5.28314 8.10617 5.28314C8.58708 5.28314 9.05416 5.20396 9.48673 5.05211V5.9759C9.48673 7.56573 8.1933 8.85916 6.6035 8.85916C5.0137 8.85916 3.72027 7.56573 3.72027 5.9759V5.24688H3.72033ZM0.876682 14.1233V11.3047C0.876682 9.92123 2.00227 8.79567 3.38576 8.79567H4.11941C4.78234 9.38041 5.6522 9.73578 6.60356 9.73578C7.55492 9.73578 8.42477 9.38041 9.0877 8.79567H9.82136C11.2049 8.79567 12.3304 9.92126 12.3304 11.3047V14.1233H0.876682Z" fill="#939393"/>
</svg>
