<svg width="15" height="15" viewBox="0 0 15 15" fill="none" xmlns="http://www.w3.org/2000/svg">
<path d="M14.5313 4.68766C14.5297 3.87049 14.2612 3.07621 13.7667 2.42564C13.2722 1.77508 12.5788 1.30384 11.7918 1.08363C11.0049 0.863412 10.1676 0.906273 9.40723 1.20569C8.64689 1.5051 8.00517 2.04469 7.57969 2.74234L7.39688 2.66266C7.46398 2.48591 7.4989 2.29858 7.5 2.10953C7.50231 1.86938 7.45187 1.63165 7.35223 1.41312C7.2526 1.1946 7.1062 1.00062 6.92339 0.844874C6.74057 0.689129 6.52579 0.57542 6.29421 0.511778C6.06263 0.448136 5.8199 0.436112 5.58317 0.476555C5.34644 0.516999 5.12147 0.608923 4.92415 0.745838C4.72684 0.882752 4.56199 1.06132 4.44124 1.26892C4.3205 1.47653 4.24681 1.70811 4.22537 1.94731C4.20394 2.18652 4.23528 2.42752 4.31719 2.65328C3.59408 2.95815 2.97682 3.4693 2.54249 4.12289C2.10815 4.77647 1.87599 5.54354 1.875 6.32828V7.50016C1.87298 8.91976 1.41265 10.3008 0.5625 11.4377C0.510269 11.5073 0.478462 11.5901 0.470644 11.6768C0.462826 11.7635 0.479306 11.8507 0.518237 11.9285C0.557169 12.0064 0.617013 12.0719 0.691064 12.1176C0.765115 12.1634 0.850448 12.1877 0.9375 12.1877H3.28125C3.28125 12.8714 3.55287 13.5272 4.03637 14.0107C4.51986 14.4942 5.17561 14.7658 5.85938 14.7658C6.54314 14.7658 7.19889 14.4942 7.68239 14.0107C8.16588 13.5272 8.4375 12.8714 8.4375 12.1877H10.7812C10.8678 12.1874 10.9526 12.1632 11.0262 12.1177C11.0999 12.0722 11.1595 12.0071 11.1984 11.9298C11.2379 11.852 11.2549 11.7647 11.2474 11.6777C11.24 11.5908 11.2084 11.5076 11.1562 11.4377C10.4749 10.5287 10.0434 9.45728 9.90469 8.32984C10.1918 8.39914 10.4859 8.43531 10.7812 8.43766C11.7758 8.43766 12.7296 8.04257 13.4329 7.33931C14.1362 6.63604 14.5313 5.68222 14.5313 4.68766ZM10.7812 1.87516C11.3375 1.87516 11.8813 2.04011 12.3438 2.34915C12.8063 2.65819 13.1668 3.09744 13.3797 3.61136C13.5925 4.12528 13.6482 4.69078 13.5397 5.23635C13.4312 5.78192 13.1633 6.28306 12.77 6.67639C12.3767 7.06973 11.8755 7.33759 11.3299 7.44612C10.7844 7.55464 10.2189 7.49894 9.70495 7.28607C9.19104 7.0732 8.75178 6.71271 8.44274 6.2502C8.1337 5.78768 7.96875 5.24392 7.96875 4.68766C7.96875 3.94173 8.26507 3.22636 8.79251 2.69892C9.31996 2.17147 10.0353 1.87516 10.7812 1.87516ZM5.15625 2.10953C5.1539 2.00322 5.1757 1.89777 5.22 1.8011C5.2643 1.70443 5.32995 1.61907 5.41201 1.55144C5.49406 1.48381 5.59039 1.43567 5.69374 1.41065C5.79709 1.38562 5.90476 1.38436 6.00867 1.40697C6.11257 1.42957 6.21 1.47545 6.29361 1.54114C6.37722 1.60684 6.44485 1.69065 6.49139 1.78625C6.53794 1.88186 6.56219 1.98678 6.56233 2.09311C6.56247 2.19945 6.53848 2.30443 6.49219 2.40016C6.28337 2.36242 6.07157 2.3436 5.85938 2.34391C5.64728 2.34594 5.43569 2.36475 5.22656 2.40016C5.18242 2.30949 5.15843 2.21035 5.15625 2.10953ZM5.85938 13.5939C5.466 13.5923 5.08629 13.4494 4.78944 13.1913C4.4926 12.9332 4.29838 12.577 4.24219 12.1877H7.5C7.44325 12.581 7.24564 12.9404 6.94389 13.199C6.64215 13.4577 6.25678 13.598 5.85938 13.5939ZM9.90938 11.2502H1.80469C2.464 10.1103 2.81159 8.81695 2.8125 7.50016V6.32828C2.81088 5.81096 2.94142 5.30179 3.19174 4.84905C3.44206 4.39632 3.80386 4.01502 4.24284 3.7413C4.68182 3.46758 5.18344 3.31051 5.70014 3.28499C6.21684 3.25947 6.73149 3.36634 7.19531 3.59547C7.08578 3.94916 7.03046 4.3174 7.03125 4.68766C7.03028 5.34686 7.20309 5.99466 7.53227 6.56579C7.86145 7.13692 8.33537 7.61118 8.90625 7.94078C8.97828 9.10699 9.32178 10.2402 9.90938 11.2502Z" fill="black"/>
<path d="M10.3125 6.32812H11.25V5.15625H12.4219V4.21875H11.25V3.04688H10.3125V4.21875H9.14062V5.15625H10.3125V6.32812Z" fill="#1D4599"/>
</svg>
