<svg width="20" height="20" viewBox="0 0 20 20" fill="none" xmlns="http://www.w3.org/2000/svg">
<path d="M10.4176 18.9586H3.40091C2.09258 18.9586 1.01758 17.9086 1.01758 16.6086V4.2419C1.01758 2.9669 1.49258 1.97524 2.35924 1.43357C3.23424 0.883571 4.36758 0.900237 5.54258 1.48357L9.24258 3.30024C10.2509 3.80024 11.0426 5.05857 11.0426 6.17524V18.3336C11.0426 18.6752 10.7592 18.9586 10.4176 18.9586ZM3.80091 2.2919C3.50924 2.2919 3.24258 2.35857 3.01758 2.50024C2.53424 2.80024 2.26758 3.42524 2.26758 4.2419V16.6086C2.26758 17.2169 2.77591 17.7086 3.40091 17.7086H9.79258V6.17524C9.79258 5.53357 9.27591 4.70857 8.68424 4.42524L4.98424 2.60857C4.55924 2.40024 4.15924 2.2919 3.80091 2.2919Z" fill="#939393"/>
<path d="M15.6743 18.9584H10.416C10.0743 18.9584 9.79102 18.6751 9.79102 18.3334V8.68339C9.79102 8.49173 9.87435 8.31673 10.0243 8.20006C10.1743 8.08339 10.3577 8.03339 10.5493 8.07506L10.941 8.15839L16.391 9.37506C18.0493 9.74173 18.8827 10.7167 18.9327 12.3751C18.941 12.3751 18.941 12.4584 18.941 12.5501V15.7001C18.9327 17.8334 17.8077 18.9584 15.6743 18.9584ZM11.041 17.7084H15.6743C17.141 17.7084 17.6827 17.1667 17.6827 15.7001V12.4834C17.641 11.3417 17.2077 10.8334 16.116 10.5917L11.041 9.45839V17.7084Z" fill="#939393"/>
<path d="M7.47565 8.125H4.58398C4.24232 8.125 3.95898 7.84167 3.95898 7.5C3.95898 7.15833 4.24232 6.875 4.58398 6.875H7.47565C7.81732 6.875 8.10065 7.15833 8.10065 7.5C8.10065 7.84167 7.82565 8.125 7.47565 8.125Z" fill="#939393"/>
<path d="M7.47565 11.459H4.58398C4.24232 11.459 3.95898 11.1757 3.95898 10.834C3.95898 10.4923 4.24232 10.209 4.58398 10.209H7.47565C7.81732 10.209 8.10065 10.4923 8.10065 10.834C8.10065 11.1757 7.82565 11.459 7.47565 11.459Z" fill="#939393"/>
<path d="M12.6836 14.7921C11.3086 14.7921 10.1836 13.6671 10.1836 12.2921V8.76706C10.1836 8.57539 10.2669 8.40039 10.4169 8.27539C10.5669 8.15039 10.7586 8.10872 10.9419 8.15039L14.6919 8.99206C14.9753 9.05872 15.1836 9.30872 15.1836 9.60039V12.2837C15.1836 13.6671 14.0669 14.7921 12.6836 14.7921ZM11.4336 9.55039V12.2921C11.4336 12.9837 11.9919 13.5421 12.6836 13.5421C13.3753 13.5421 13.9336 12.9837 13.9336 12.2921V10.1087L11.4336 9.55039Z" fill="#939393"/>
<path d="M16.4336 14.7925C15.0586 14.7925 13.9336 13.6675 13.9336 12.2925V9.60917C13.9336 9.41751 14.0169 9.24251 14.1669 9.12584C14.3169 9.00917 14.5086 8.95917 14.6919 9.00084L16.3836 9.37584C18.0419 9.74251 18.8753 10.7175 18.9253 12.3758C18.9253 12.3925 18.9253 12.4092 18.9253 12.4258C18.8586 13.7508 17.7669 14.7925 16.4336 14.7925ZM15.1836 10.3842V12.2925C15.1836 12.9842 15.7419 13.5425 16.4336 13.5425C17.0919 13.5425 17.6336 13.0342 17.6753 12.3842C17.6336 11.3342 17.2003 10.8342 16.1169 10.5925L15.1836 10.3842Z" fill="#939393"/>
</svg>
