<svg width="30" height="30" viewBox="0 0 30 30" fill="none" xmlns="http://www.w3.org/2000/svg">
<path d="M15.6234 28.4376H5.09844C3.13594 28.4376 1.52344 26.8626 1.52344 24.9126V6.36261C1.52344 4.45011 2.23594 2.96261 3.53594 2.15011C4.84844 1.32511 6.54844 1.35011 8.31094 2.22511L13.8609 4.95011C15.3734 5.70011 16.5609 7.58761 16.5609 9.26261V27.5001C16.5609 28.0126 16.1359 28.4376 15.6234 28.4376ZM5.69844 3.43761C5.26094 3.43761 4.86094 3.53761 4.52344 3.75011C3.79844 4.20011 3.39844 5.13761 3.39844 6.36261V24.9126C3.39844 25.8251 4.16094 26.5626 5.09844 26.5626H14.6859V9.26261C14.6859 8.30011 13.9109 7.06261 13.0234 6.63761L7.47344 3.91261C6.83594 3.60011 6.23594 3.43761 5.69844 3.43761Z" fill="#FF9F00"/>
<path d="M23.5125 28.4376H15.625C15.1125 28.4376 14.6875 28.0126 14.6875 27.5001V13.0251C14.6875 12.7376 14.8125 12.4751 15.0375 12.3001C15.2625 12.1251 15.5375 12.0501 15.825 12.1126L16.4125 12.2376L24.5875 14.0626C27.075 14.6126 28.325 16.0751 28.4 18.5626C28.4125 18.5626 28.4125 18.6876 28.4125 18.8251V23.5501C28.4 26.7501 26.7125 28.4376 23.5125 28.4376ZM16.5625 26.5626H23.5125C25.7125 26.5626 26.525 25.7501 26.525 23.5501V18.7251C26.4625 17.0126 25.8125 16.2501 24.175 15.8876L16.5625 14.1876V26.5626Z" fill="#FF9F00"/>
<path d="M11.2125 12.1875H6.875C6.3625 12.1875 5.9375 11.7625 5.9375 11.25C5.9375 10.7375 6.3625 10.3125 6.875 10.3125H11.2125C11.725 10.3125 12.15 10.7375 12.15 11.25C12.15 11.7625 11.7375 12.1875 11.2125 12.1875Z" fill="#FF9F00"/>
<path d="M11.2125 17.1875H6.875C6.3625 17.1875 5.9375 16.7625 5.9375 16.25C5.9375 15.7375 6.3625 15.3125 6.875 15.3125H11.2125C11.725 15.3125 12.15 15.7375 12.15 16.25C12.15 16.7625 11.7375 17.1875 11.2125 17.1875Z" fill="#FF9F00"/>
<path d="M19.0234 22.1876C16.9609 22.1876 15.2734 20.5001 15.2734 18.4376V13.1501C15.2734 12.8626 15.3984 12.6001 15.6234 12.4126C15.8484 12.2251 16.1359 12.1626 16.4109 12.2251L22.0359 13.4876C22.4609 13.5876 22.7734 13.9626 22.7734 14.4001V18.4251C22.7734 20.5001 21.0984 22.1876 19.0234 22.1876ZM17.1484 14.3251V18.4376C17.1484 19.4751 17.9859 20.3126 19.0234 20.3126C20.0609 20.3126 20.8984 19.4751 20.8984 18.4376V15.1626L17.1484 14.3251Z" fill="#FF9F00"/>
<path d="M24.6484 22.1875C22.5859 22.1875 20.8984 20.5 20.8984 18.4375V14.4125C20.8984 14.125 21.0234 13.8625 21.2484 13.6875C21.4734 13.5125 21.7609 13.4375 22.0359 13.5L24.5734 14.0625C27.0609 14.6125 28.3109 16.075 28.3859 18.5625C28.3859 18.5875 28.3859 18.6125 28.3859 18.6375C28.2859 20.625 26.6484 22.1875 24.6484 22.1875ZM22.7734 15.575V18.4375C22.7734 19.475 23.6109 20.3125 24.6484 20.3125C25.6359 20.3125 26.4484 19.55 26.5109 18.575C26.4484 17 25.7984 16.25 24.1734 15.8875L22.7734 15.575Z" fill="#FF9F00"/>
</svg>
