<svg width="15" height="15" viewBox="0 0 15 15" fill="none" xmlns="http://www.w3.org/2000/svg">
<path d="M5 3.59375C4.74375 3.59375 4.53125 3.38125 4.53125 3.125V1.25C4.53125 0.99375 4.74375 0.78125 5 0.78125C5.25625 0.78125 5.46875 0.99375 5.46875 1.25V3.125C5.46875 3.38125 5.25625 3.59375 5 3.59375Z"  fill="#9C8F41"/>
<path d="M10 3.59375C9.74375 3.59375 9.53125 3.38125 9.53125 3.125V1.25C9.53125 0.99375 9.74375 0.78125 10 0.78125C10.2563 0.78125 10.4688 0.99375 10.4688 1.25V3.125C10.4688 3.38125 10.2563 3.59375 10 3.59375Z"  fill="#9C8F41"/>
<path d="M9.375 14.2188H5.625C2.1125 14.2188 1.40625 12.5625 1.40625 9.8875V6.03125C1.40625 3.06875 2.40625 1.8625 4.975 1.71875H10C10.0063 1.71875 10.0188 1.71875 10.025 1.71875C12.5938 1.8625 13.5938 3.06875 13.5938 6.03125V9.8875C13.5938 12.5625 12.8875 14.2188 9.375 14.2188ZM5 2.65625C3.25 2.75625 2.34375 3.30625 2.34375 6.03125V9.8875C2.34375 12.2812 2.8 13.2812 5.625 13.2812H9.375C12.2 13.2812 12.6562 12.2812 12.6562 9.8875V6.03125C12.6562 3.3125 11.7562 2.75625 9.9875 2.65625H5Z"  fill="#9C8F41"/>
<path d="M12.9688 11.4688H2.03125C1.775 11.4688 1.5625 11.2563 1.5625 11C1.5625 10.7438 1.775 10.5312 2.03125 10.5312H12.9688C13.225 10.5312 13.4375 10.7438 13.4375 11C13.4375 11.2563 13.225 11.4688 12.9688 11.4688Z"  fill="#9C8F41"/>
<path d="M7.5 5.15625C6.73125 5.15625 6.08125 5.575 6.08125 6.3875C6.08125 6.775 6.2625 7.06875 6.5375 7.25625C6.15625 7.48125 5.9375 7.84375 5.9375 8.26875C5.9375 9.04375 6.53125 9.525 7.5 9.525C8.4625 9.525 9.0625 9.04375 9.0625 8.26875C9.0625 7.84375 8.84375 7.475 8.45625 7.25625C8.7375 7.0625 8.9125 6.775 8.9125 6.3875C8.9125 5.575 8.26875 5.15625 7.5 5.15625ZM7.5 6.93125C7.175 6.93125 6.9375 6.7375 6.9375 6.43125C6.9375 6.11875 7.175 5.9375 7.5 5.9375C7.825 5.9375 8.0625 6.11875 8.0625 6.43125C8.0625 6.7375 7.825 6.93125 7.5 6.93125ZM7.5 8.75C7.0875 8.75 6.7875 8.54375 6.7875 8.16875C6.7875 7.79375 7.0875 7.59375 7.5 7.59375C7.9125 7.59375 8.2125 7.8 8.2125 8.16875C8.2125 8.54375 7.9125 8.75 7.5 8.75Z"  fill="#9C8F41"/>
</svg>
