<svg width="12" height="13" viewBox="0 0 12 13" fill="none" xmlns="http://www.w3.org/2000/svg">
<path d="M6 7.66602C5.83472 7.66602 5.69628 7.61002 5.58467 7.49802C5.47267 7.3864 5.41667 7.24796 5.41667 7.08268C5.41667 6.9174 5.47267 6.77877 5.58467 6.66677C5.69628 6.55515 5.83472 6.49935 6 6.49935C6.16528 6.49935 6.30392 6.55515 6.41592 6.66677C6.52753 6.77877 6.58333 6.9174 6.58333 7.08268C6.58333 7.24796 6.52753 7.3864 6.41592 7.49802C6.30392 7.61002 6.16528 7.66602 6 7.66602ZM3.66667 7.66602C3.50139 7.66602 3.36275 7.61002 3.25075 7.49802C3.13914 7.3864 3.08333 7.24796 3.08333 7.08268C3.08333 6.9174 3.13914 6.77877 3.25075 6.66677C3.36275 6.55515 3.50139 6.49935 3.66667 6.49935C3.83194 6.49935 3.97058 6.55515 4.08258 6.66677C4.19419 6.77877 4.25 6.9174 4.25 7.08268C4.25 7.24796 4.19419 7.3864 4.08258 7.49802C3.97058 7.61002 3.83194 7.66602 3.66667 7.66602ZM8.33333 7.66602C8.16806 7.66602 8.02961 7.61002 7.918 7.49802C7.806 7.3864 7.75 7.24796 7.75 7.08268C7.75 6.9174 7.806 6.77877 7.918 6.66677C8.02961 6.55515 8.16806 6.49935 8.33333 6.49935C8.49861 6.49935 8.63706 6.55515 8.74867 6.66677C8.86067 6.77877 8.91667 6.9174 8.91667 7.08268C8.91667 7.24796 8.86067 7.3864 8.74867 7.49802C8.63706 7.61002 8.49861 7.66602 8.33333 7.66602ZM6 9.99935C5.83472 9.99935 5.69628 9.94335 5.58467 9.83135C5.47267 9.71974 5.41667 9.58129 5.41667 9.41602C5.41667 9.25074 5.47267 9.11229 5.58467 9.00068C5.69628 8.88868 5.83472 8.83268 6 8.83268C6.16528 8.83268 6.30392 8.88868 6.41592 9.00068C6.52753 9.11229 6.58333 9.25074 6.58333 9.41602C6.58333 9.58129 6.52753 9.71974 6.41592 9.83135C6.30392 9.94335 6.16528 9.99935 6 9.99935ZM3.66667 9.99935C3.50139 9.99935 3.36275 9.94335 3.25075 9.83135C3.13914 9.71974 3.08333 9.58129 3.08333 9.41602C3.08333 9.25074 3.13914 9.11229 3.25075 9.00068C3.36275 8.88868 3.50139 8.83268 3.66667 8.83268C3.83194 8.83268 3.97058 8.88868 4.08258 9.00068C4.19419 9.11229 4.25 9.25074 4.25 9.41602C4.25 9.58129 4.19419 9.71974 4.08258 9.83135C3.97058 9.94335 3.83194 9.99935 3.66667 9.99935ZM8.33333 9.99935C8.16806 9.99935 8.02961 9.94335 7.918 9.83135C7.806 9.71974 7.75 9.58129 7.75 9.41602C7.75 9.25074 7.806 9.11229 7.918 9.00068C8.02961 8.88868 8.16806 8.83268 8.33333 8.83268C8.49861 8.83268 8.63706 8.88868 8.74867 9.00068C8.86067 9.11229 8.91667 9.25074 8.91667 9.41602C8.91667 9.58129 8.86067 9.71974 8.74867 9.83135C8.63706 9.94335 8.49861 9.99935 8.33333 9.99935ZM1.91667 12.3327C1.59583 12.3327 1.32108 12.2185 1.09242 11.9903C0.864139 11.7616 0.75 11.4868 0.75 11.166V2.99935C0.75 2.67852 0.864139 2.40396 1.09242 2.17568C1.32108 1.94702 1.59583 1.83268 1.91667 1.83268H2.5V1.24935C2.5 1.08407 2.55581 0.945432 2.66742 0.833432C2.77942 0.721821 2.91806 0.666016 3.08333 0.666016C3.24861 0.666016 3.38725 0.721821 3.49925 0.833432C3.61086 0.945432 3.66667 1.08407 3.66667 1.24935V1.83268H8.33333V1.24935C8.33333 1.08407 8.38933 0.945432 8.50133 0.833432C8.61294 0.721821 8.75139 0.666016 8.91667 0.666016C9.08194 0.666016 9.22039 0.721821 9.332 0.833432C9.444 0.945432 9.5 1.08407 9.5 1.24935V1.83268H10.0833C10.4042 1.83268 10.6789 1.94702 10.9076 2.17568C11.1359 2.40396 11.25 2.67852 11.25 2.99935V11.166C11.25 11.4868 11.1359 11.7616 10.9076 11.9903C10.6789 12.2185 10.4042 12.3327 10.0833 12.3327H1.91667ZM1.91667 11.166H10.0833V5.33268H1.91667V11.166Z" fill="#C1C1C1"/>
</svg>
