<svg width="15" height="15" viewBox="0 0 15 15" fill="none" xmlns="http://www.w3.org/2000/svg">
<path d="M5 3.59375C4.74375 3.59375 4.53125 3.38125 4.53125 3.125V1.25C4.53125 0.99375 4.74375 0.78125 5 0.78125C5.25625 0.78125 5.46875 0.99375 5.46875 1.25V3.125C5.46875 3.38125 5.25625 3.59375 5 3.59375Z" fill="#9C8F41"/>
<path d="M10 3.59375C9.74375 3.59375 9.53125 3.38125 9.53125 3.125V1.25C9.53125 0.99375 9.74375 0.78125 10 0.78125C10.2563 0.78125 10.4688 0.99375 10.4688 1.25V3.125C10.4688 3.38125 10.2563 3.59375 10 3.59375Z"  fill="#9C8F41"/>
<path d="M5.3125 9.06294C5.23125 9.06294 5.15 9.0442 5.075 9.01295C4.99375 8.9817 4.93125 8.93793 4.86875 8.88168C4.75625 8.76293 4.6875 8.60669 4.6875 8.43794C4.6875 8.35669 4.70625 8.27544 4.7375 8.20044C4.76875 8.12544 4.8125 8.05669 4.86875 7.99419C4.93125 7.93794 4.99375 7.89418 5.075 7.86293C5.3 7.76918 5.58125 7.81919 5.75625 7.99419C5.86875 8.11294 5.9375 8.27544 5.9375 8.43794C5.9375 8.47544 5.93125 8.5192 5.925 8.56295C5.91875 8.60045 5.90625 8.63794 5.8875 8.67544C5.875 8.71294 5.85625 8.75044 5.83125 8.78794C5.8125 8.81919 5.78125 8.85043 5.75625 8.88168C5.6375 8.99418 5.475 9.06294 5.3125 9.06294Z"  fill="#9C8F41"/>
<path d="M7.5 9.06279C7.41875 9.06279 7.3375 9.04405 7.2625 9.0128C7.18125 8.98155 7.11875 8.93778 7.05625 8.88153C6.94375 8.76278 6.875 8.60654 6.875 8.43779C6.875 8.35654 6.89375 8.27528 6.925 8.20028C6.95625 8.12528 7 8.05654 7.05625 7.99404C7.11875 7.93779 7.18125 7.89403 7.2625 7.86278C7.4875 7.76278 7.76875 7.81904 7.94375 7.99404C8.05625 8.11279 8.125 8.27529 8.125 8.43779C8.125 8.47529 8.11875 8.51905 8.1125 8.5628C8.10625 8.6003 8.09375 8.63779 8.075 8.67529C8.0625 8.71279 8.04375 8.75029 8.01875 8.78779C8 8.81904 7.96875 8.85028 7.94375 8.88153C7.825 8.99403 7.6625 9.06279 7.5 9.06279Z"  fill="#9C8F41"/>
<path d="M9.6875 9.06279C9.60625 9.06279 9.525 9.04405 9.45 9.0128C9.36875 8.98155 9.30625 8.93778 9.24375 8.88153C9.21875 8.85028 9.19375 8.81904 9.16875 8.78779C9.14375 8.75029 9.125 8.71279 9.1125 8.67529C9.09375 8.63779 9.08125 8.6003 9.075 8.5628C9.06875 8.51905 9.0625 8.47529 9.0625 8.43779C9.0625 8.27529 9.13125 8.11279 9.24375 7.99404C9.30625 7.93779 9.36875 7.89403 9.45 7.86278C9.68125 7.76278 9.95625 7.81904 10.1312 7.99404C10.2437 8.11279 10.3125 8.27529 10.3125 8.43779C10.3125 8.47529 10.3062 8.51905 10.3 8.5628C10.2937 8.6003 10.2812 8.63779 10.2625 8.67529C10.25 8.71279 10.2313 8.75029 10.2063 8.78779C10.1875 8.81904 10.1562 8.85028 10.1312 8.88153C10.0125 8.99403 9.85 9.06279 9.6875 9.06279Z" fill="#1D4599"/>
<path d="M5.3125 11.25C5.23125 11.25 5.15 11.2313 5.075 11.2C5 11.1688 4.93125 11.125 4.86875 11.0687C4.75625 10.95 4.6875 10.7875 4.6875 10.625C4.6875 10.5437 4.70625 10.4625 4.7375 10.3875C4.76875 10.3062 4.8125 10.2375 4.86875 10.1813C5.1 9.95 5.525 9.95 5.75625 10.1813C5.86875 10.3 5.9375 10.4625 5.9375 10.625C5.9375 10.7875 5.86875 10.95 5.75625 11.0687C5.6375 11.1812 5.475 11.25 5.3125 11.25Z"  fill="#9C8F41"/>
<path d="M7.5 11.25C7.3375 11.25 7.175 11.1812 7.05625 11.0687C6.94375 10.95 6.875 10.7875 6.875 10.625C6.875 10.5437 6.89375 10.4625 6.925 10.3875C6.95625 10.3062 7 10.2375 7.05625 10.1813C7.2875 9.95 7.7125 9.95 7.94375 10.1813C8 10.2375 8.04375 10.3062 8.075 10.3875C8.10625 10.4625 8.125 10.5437 8.125 10.625C8.125 10.7875 8.05625 10.95 7.94375 11.0687C7.825 11.1812 7.6625 11.25 7.5 11.25Z"  fill="#9C8F41"/>
<path d="M9.6875 11.2496C9.525 11.2496 9.3625 11.1808 9.24375 11.0683C9.1875 11.0121 9.14375 10.9433 9.1125 10.8621C9.08125 10.7871 9.0625 10.7058 9.0625 10.6246C9.0625 10.5433 9.08125 10.4621 9.1125 10.3871C9.14375 10.3058 9.1875 10.2371 9.24375 10.1808C9.3875 10.0371 9.60625 9.96832 9.80625 10.0121C9.85 10.0183 9.8875 10.0308 9.925 10.0496C9.9625 10.0621 10 10.0808 10.0375 10.1058C10.0688 10.1246 10.1 10.1558 10.1312 10.1808C10.2437 10.2996 10.3125 10.4621 10.3125 10.6246C10.3125 10.7871 10.2437 10.9496 10.1312 11.0683C10.0125 11.1808 9.85 11.2496 9.6875 11.2496Z"  fill="#9C8F41"/>
<path d="M12.8125 6.15039H2.1875C1.93125 6.15039 1.71875 5.93789 1.71875 5.68164C1.71875 5.42539 1.93125 5.21289 2.1875 5.21289H12.8125C13.0688 5.21289 13.2812 5.42539 13.2812 5.68164C13.2812 5.93789 13.0688 6.15039 12.8125 6.15039Z"  fill="#9C8F41"/>
<path d="M10 14.2188H5C2.71875 14.2188 1.40625 12.9062 1.40625 10.625V5.3125C1.40625 3.03125 2.71875 1.71875 5 1.71875H10C12.2812 1.71875 13.5938 3.03125 13.5938 5.3125V10.625C13.5938 12.9062 12.2812 14.2188 10 14.2188ZM5 2.65625C3.2125 2.65625 2.34375 3.525 2.34375 5.3125V10.625C2.34375 12.4125 3.2125 13.2812 5 13.2812H10C11.7875 13.2812 12.6562 12.4125 12.6562 10.625V5.3125C12.6562 3.525 11.7875 2.65625 10 2.65625H5Z"  fill="#9C8F41"/>
</svg>
