<svg width="18" height="17" viewBox="0 0 18 17" fill="none" xmlns="http://www.w3.org/2000/svg">
<path d="M16.1919 16.58C14.2549 16.58 12.3668 16.1521 10.5277 15.2962C8.68793 14.4403 7.05873 13.2991 5.64004 11.8726C4.22076 10.4461 3.07956 8.81299 2.21646 6.97326C1.35275 5.13413 0.920898 3.24606 0.920898 1.30903V0.836033C0.920898 0.67086 0.935914 0.513194 0.965946 0.363037H6.23647L7.06984 4.89028L4.50215 7.48049C5.13281 8.56162 5.92504 9.57519 6.87884 10.5212C7.83204 11.4672 8.87924 12.2855 10.0204 12.9762L12.6332 10.3635L17.1379 11.2645V16.535C16.9877 16.55 16.8301 16.5614 16.6649 16.5692C16.4997 16.5764 16.3421 16.58 16.1919 16.58Z" fill="#9C8F41"/>
</svg>
