<svg width="12" height="11" viewBox="0 0 12 11" fill="none" xmlns="http://www.w3.org/2000/svg">
<path d="M6 8.86111C6.75 8.86111 7.3876 8.59385 7.9128 8.05933C8.4376 7.52441 8.7 6.875 8.7 6.11111C8.7 5.34722 8.4376 4.69781 7.9128 4.16289C7.3876 3.62837 6.75 3.36111 6 3.36111C5.25 3.36111 4.6124 3.62837 4.0872 4.16289C3.5624 4.69781 3.3 5.34722 3.3 6.11111C3.3 6.875 3.5624 7.52441 4.0872 8.05933C4.6124 8.59385 5.25 8.86111 6 8.86111ZM1.2 11C0.87 11 0.5876 10.8804 0.3528 10.6413C0.1176 10.4017 0 10.1139 0 9.77778V2.44444C0 2.10833 0.1176 1.8207 0.3528 1.58156C0.5876 1.342 0.87 1.22222 1.2 1.22222H3.09L3.84 0.397222C3.95 0.264815 4.0824 0.165407 4.2372 0.099C4.3924 0.033 4.555 0 4.725 0H7.275C7.445 0 7.6076 0.033 7.7628 0.099C7.9176 0.165407 8.05 0.264815 8.16 0.397222L8.91 1.22222H10.8C11.13 1.22222 11.4126 1.342 11.6478 1.58156C11.8826 1.8207 12 2.10833 12 2.44444V9.77778C12 10.1139 11.8826 10.4017 11.6478 10.6413C11.4126 10.8804 11.13 11 10.8 11H1.2Z" fill="#DDDDDD"/>
</svg>
