<svg width="18" height="18" viewBox="0 0 18 18" fill="none" xmlns="http://www.w3.org/2000/svg">
<path d="M17.5 9C17.5 13.6944 13.6944 17.5 9 17.5C4.30558 17.5 0.5 13.6944 0.5 9C0.5 4.30558 4.30558 0.5 9 0.5C13.6944 0.5 17.5 4.30558 17.5 9Z" stroke="#C21616"/>
<path d="M9.2463 8.99879L9.59985 8.64523L11.8146 6.4305C11.843 6.3979 11.8583 6.35589 11.8575 6.31254C11.8567 6.2672 11.8384 6.22395 11.8063 6.19188M9.2463 8.99879L11.8063 6.19188M9.2463 8.99879L9.59985 9.35234L11.8226 11.5751C11.8554 11.6079 11.8738 11.6524 11.8738 11.6988C11.8738 11.7452 11.8554 11.7896 11.8226 11.8225L12.1764 12.1758M9.2463 8.99879L11.5677 6.18361M11.8063 6.19188C11.7742 6.15982 11.731 6.14145 11.6857 6.14065C11.6423 6.13989 11.6003 6.15524 11.5677 6.18361M11.8063 6.19188L11.5677 6.18361M11.5677 6.18361L9.35296 8.39834L8.99941 8.75189L8.64585 8.39834L6.43112 6.18361C6.39852 6.15524 6.3565 6.13989 6.31316 6.14065C6.26782 6.14145 6.22456 6.15982 6.1925 6.19188C6.16044 6.22395 6.14207 6.2672 6.14127 6.31254C6.14051 6.35589 6.15586 6.3979 6.18423 6.4305L8.39896 8.64523L8.75251 8.99879L8.39896 9.35234L6.17618 11.5751C6.17614 11.5752 6.17609 11.5752 6.17605 11.5753C6.14336 11.6081 6.125 11.6525 6.125 11.6988C6.125 11.7452 6.14341 11.7896 6.17618 11.8225L5.82241 12.1758M5.82241 12.1758L6.17574 11.822C6.20855 11.8548 6.25303 11.8732 6.29941 11.8732C6.34578 11.8732 6.39026 11.8548 6.42307 11.822L8.64585 9.59923L8.99941 9.24568L9.35296 9.59923L11.5757 11.822C11.6086 11.8548 11.653 11.8732 11.6994 11.8732C11.7458 11.8732 11.7903 11.8548 11.8231 11.822L12.1764 12.1758M5.82241 12.1758C5.696 12.0492 5.625 11.8777 5.625 11.6988C5.625 11.5199 5.696 11.3484 5.82241 11.2218L7.69185 9.35234L8.64585 10.3063L6.77641 12.1758C6.64984 12.3022 6.47828 12.3732 6.29941 12.3732C6.12053 12.3732 5.94897 12.3022 5.82241 12.1758ZM12.1764 12.1758C12.3028 12.0492 12.3738 11.8777 12.3738 11.6988C12.3738 11.5199 12.3028 11.3484 12.1764 11.2218L11.2224 12.1758C11.349 12.3022 11.5205 12.3732 11.6994 12.3732C11.8783 12.3732 12.0498 12.3022 12.1764 12.1758Z" fill="#EDEBEA" stroke="#C21616"/>
</svg>
