<svg width="21" height="20" viewBox="0 0 21 20" fill="none" xmlns="http://www.w3.org/2000/svg">
<path d="M14.5827 15.8424C14.3243 15.8424 14.066 15.7674 13.841 15.6174L13.041 15.0924C12.816 14.9424 12.7077 14.6591 12.7827 14.4008C12.841 14.2091 12.866 13.9841 12.866 13.7341V10.3424C12.866 8.98408 12.016 8.13411 10.6577 8.13411H4.99934C4.89934 8.13411 4.80768 8.14246 4.71601 8.1508C4.54101 8.15913 4.37435 8.10079 4.24102 7.98412C4.10769 7.86745 4.04102 7.7008 4.04102 7.5258V5.21745C4.04102 2.76745 5.75768 1.05078 8.20768 1.05078H15.291C17.741 1.05078 19.4577 2.76745 19.4577 5.21745V9.46743C19.4577 10.6758 19.0493 11.7424 18.2993 12.4757C17.6994 13.0841 16.866 13.4758 15.916 13.5924V14.5174C15.916 15.0174 15.641 15.4675 15.2077 15.7008C15.0077 15.7925 14.791 15.8424 14.5827 15.8424ZM14.0827 14.2758L14.6243 14.5841C14.6743 14.5591 14.6743 14.5174 14.6743 14.5091V13.0008C14.6743 12.6591 14.9577 12.3758 15.2993 12.3758C16.1743 12.3758 16.916 12.1008 17.4243 11.5841C17.9493 11.0675 18.216 10.3341 18.216 9.45909V5.20911C18.216 3.43411 17.0743 2.29244 15.2993 2.29244H8.21601C6.44101 2.29244 5.29934 3.43411 5.29934 5.20911V6.87577H10.666C12.6993 6.87577 14.1244 8.30079 14.1244 10.3341V13.7257C14.116 13.9174 14.1077 14.1008 14.0827 14.2758Z" fill="#9B9B9B"/>
<path d="M5.55769 18.9583C5.37436 18.9583 5.18269 18.9167 5.00769 18.825C4.61602 18.6167 4.37434 18.2167 4.37434 17.7667V17.1333C3.64101 17.0167 2.99102 16.7083 2.50769 16.225C1.87435 15.5916 1.54102 14.725 1.54102 13.725V10.3334C1.54102 8.45002 2.77434 7.06668 4.60768 6.89168C4.74101 6.88335 4.86601 6.875 4.99934 6.875H10.6577C12.691 6.875 14.116 8.30002 14.116 10.3334V13.725C14.116 14.0916 14.0743 14.4333 13.9827 14.7417C13.6077 16.2417 12.3327 17.1833 10.6577 17.1833H8.58268L6.22434 18.75C6.02434 18.8917 5.79102 18.9583 5.55769 18.9583ZM4.99934 8.125C4.89934 8.125 4.80768 8.13335 4.71601 8.14168C3.51601 8.25002 2.79102 9.07502 2.79102 10.3334V13.725C2.79102 14.3916 2.99935 14.95 3.39102 15.3416C3.77435 15.725 4.33268 15.9333 4.99934 15.9333C5.34101 15.9333 5.62434 16.2167 5.62434 16.5583V17.65L8.04102 16.0417C8.14102 15.975 8.26602 15.9333 8.39102 15.9333H10.6577C11.7577 15.9333 12.5327 15.3833 12.7743 14.4167C12.8327 14.2083 12.866 13.975 12.866 13.725V10.3334C12.866 8.97502 12.016 8.125 10.6577 8.125H4.99934Z" fill="#9B9B9B"/>
</svg>
