<svg width="14" height="18" viewBox="0 0 14 18" fill="none" xmlns="http://www.w3.org/2000/svg">
<path d="M2.21875 18H11.7812C12.2288 18 12.658 17.8222 12.9745 17.5057C13.291 17.1893 13.4688 16.7601 13.4688 16.3125V2.8125C13.4688 2.36495 13.291 1.93572 12.9745 1.61926C12.658 1.30279 12.2288 1.125 11.7812 1.125H10.5578C10.4416 0.796302 10.2264 0.511666 9.94189 0.310218C9.65734 0.10877 9.31739 0.000398354 8.96875 0L5.03125 0C4.68261 0.000398354 4.34266 0.10877 4.05811 0.310218C3.77357 0.511666 3.5584 0.796302 3.44219 1.125H2.21875C1.7712 1.125 1.34197 1.30279 1.02551 1.61926C0.70904 1.93572 0.53125 2.36495 0.53125 2.8125V16.3125C0.53125 16.7601 0.70904 17.1893 1.02551 17.5057C1.34197 17.8222 1.7712 18 2.21875 18ZM5.03125 1.125H8.96875C9.11793 1.125 9.26101 1.18426 9.3665 1.28975C9.47199 1.39524 9.53125 1.53832 9.53125 1.6875C9.53125 1.83668 9.47199 1.97976 9.3665 2.08525C9.26101 2.19074 9.11793 2.25 8.96875 2.25H5.03125C4.88207 2.25 4.73899 2.19074 4.6335 2.08525C4.52801 1.97976 4.46875 1.83668 4.46875 1.6875C4.46875 1.53832 4.52801 1.39524 4.6335 1.28975C4.73899 1.18426 4.88207 1.125 5.03125 1.125ZM1.65625 2.8125C1.65625 2.66332 1.71551 2.52024 1.821 2.41475C1.92649 2.30926 2.06957 2.25 2.21875 2.25H3.44219C3.5584 2.5787 3.77357 2.86333 4.05811 3.06478C4.34266 3.26623 4.68261 3.3746 5.03125 3.375H8.96875C9.31739 3.3746 9.65734 3.26623 9.94189 3.06478C10.2264 2.86333 10.4416 2.5787 10.5578 2.25H11.7812C11.9304 2.25 12.0735 2.30926 12.179 2.41475C12.2845 2.52024 12.3438 2.66332 12.3438 2.8125V16.3125C12.3438 16.4617 12.2845 16.6048 12.179 16.7102C12.0735 16.8157 11.9304 16.875 11.7812 16.875H2.21875C2.06957 16.875 1.92649 16.8157 1.821 16.7102C1.71551 16.6048 1.65625 16.4617 1.65625 16.3125V2.8125Z" fill="#34C759"/>
<path d="M5.59435 12.7601C5.64833 12.8175 5.71378 12.863 5.78645 12.8935C5.85913 12.924 5.93741 12.9389 6.01622 12.9373H6.04435C6.12616 12.933 6.20606 12.9109 6.27844 12.8725C6.35083 12.8341 6.41395 12.7804 6.46341 12.7151L10.9634 6.80883C11.046 6.68977 11.0794 6.54345 11.0568 6.40035C11.0341 6.25724 10.9571 6.1284 10.8418 6.04066C10.7265 5.95292 10.5818 5.91305 10.4379 5.92936C10.2939 5.94567 10.1618 6.0169 10.069 6.1282L5.97122 11.5057L4.31747 9.73945C4.26687 9.68553 4.20615 9.6421 4.13876 9.61164C4.07138 9.58119 3.99866 9.5643 3.92475 9.56195C3.85084 9.5596 3.77719 9.57183 3.708 9.59794C3.63882 9.62406 3.57546 9.66354 3.52153 9.71414C3.46761 9.76474 3.42418 9.82547 3.39373 9.89285C3.36327 9.96023 3.34639 10.033 3.34403 10.1069C3.34168 10.1808 3.35391 10.2544 3.38003 10.3236C3.40614 10.3928 3.44562 10.4562 3.49622 10.5101L5.59435 12.7601Z" fill="#34C759"/>
</svg>
