<svg width="19" height="25" viewBox="0 0 19 25" fill="none" xmlns="http://www.w3.org/2000/svg">
<path d="M2.85938 25H16.1406C16.7622 25 17.3584 24.7531 17.7979 24.3135C18.2374 23.874 18.4844 23.2779 18.4844 22.6562V3.90625C18.4844 3.28465 18.2374 2.68851 17.7979 2.24897C17.3584 1.80943 16.7622 1.5625 16.1406 1.5625H14.4414C14.28 1.10597 13.9812 0.710648 13.586 0.430858C13.1908 0.151069 12.7186 0.00055327 12.2344 0L6.76562 0C6.28141 0.00055327 5.80925 0.151069 5.41404 0.430858C5.01884 0.710648 4.72 1.10597 4.55859 1.5625H2.85938C2.23777 1.5625 1.64163 1.80943 1.20209 2.24897C0.762555 2.68851 0.515625 3.28465 0.515625 3.90625V22.6562C0.515625 23.2779 0.762555 23.874 1.20209 24.3135C1.64163 24.7531 2.23777 25 2.85938 25ZM6.76562 1.5625H12.2344C12.4416 1.5625 12.6403 1.64481 12.7868 1.79132C12.9333 1.93784 13.0156 2.13655 13.0156 2.34375C13.0156 2.55095 12.9333 2.74966 12.7868 2.89618C12.6403 3.04269 12.4416 3.125 12.2344 3.125H6.76562C6.55842 3.125 6.35971 3.04269 6.2132 2.89618C6.06669 2.74966 5.98438 2.55095 5.98438 2.34375C5.98438 2.13655 6.06669 1.93784 6.2132 1.79132C6.35971 1.64481 6.55842 1.5625 6.76562 1.5625V1.5625ZM2.07812 3.90625C2.07812 3.69905 2.16044 3.50034 2.30695 3.35382C2.45346 3.20731 2.65217 3.125 2.85938 3.125H4.55859C4.72 3.58153 5.01884 3.97685 5.41404 4.25664C5.80925 4.53643 6.28141 4.68695 6.76562 4.6875H12.2344C12.7186 4.68695 13.1908 4.53643 13.586 4.25664C13.9812 3.97685 14.28 3.58153 14.4414 3.125H16.1406C16.3478 3.125 16.5465 3.20731 16.6931 3.35382C16.8396 3.50034 16.9219 3.69905 16.9219 3.90625V22.6562C16.9219 22.8635 16.8396 23.0622 16.6931 23.2087C16.5465 23.3552 16.3478 23.4375 16.1406 23.4375H2.85938C2.65217 23.4375 2.45346 23.3552 2.30695 23.2087C2.16044 23.0622 2.07812 22.8635 2.07812 22.6562V3.90625Z" fill="#9469FB"/>
<path d="M7.5477 17.7226C7.62267 17.8023 7.71358 17.8655 7.81452 17.9079C7.91546 17.9503 8.02418 17.971 8.13364 17.9686H8.1727C8.28634 17.9627 8.3973 17.932 8.49784 17.8787C8.59837 17.8254 8.68605 17.7508 8.75473 17.6601L15.0047 9.45692C15.1194 9.29157 15.1658 9.08834 15.1344 8.88959C15.1029 8.69083 14.996 8.51188 14.8359 8.39002C14.6757 8.26816 14.4748 8.21279 14.2748 8.23544C14.0749 8.25809 13.8914 8.35702 13.7625 8.51161L8.07114 15.9804L5.77427 13.5272C5.63233 13.376 5.43613 13.2873 5.22881 13.2807C5.0215 13.2741 4.82005 13.3502 4.6688 13.4921C4.51754 13.634 4.42886 13.8302 4.42227 14.0375C4.41568 14.2449 4.49171 14.4463 4.63364 14.5976L7.5477 17.7226Z" fill="#9469FB"/>
</svg>
