<svg width="18" height="18" viewBox="0 0 18 18" fill="none" xmlns="http://www.w3.org/2000/svg">
<path d="M9 0C4.02191 0 0 4.01727 0 9C0 13.9827 4.01727 18 9 18C13.9827 18 18 13.9827 18 9C18 4.01727 13.9782 0 9 0ZM9 16.7966C4.68071 16.7966 1.20334 13.3193 1.20334 8.99996C1.20334 4.68067 4.68075 1.2033 9 1.2033C13.3193 1.2033 16.7967 4.68067 16.7967 8.99996C16.7967 13.3193 13.3193 16.7966 9 16.7966Z" fill="#00B61D"/>
<path d="M13.3189 6.36013C13.081 6.12215 12.7195 6.12215 12.477 6.3601L7.86038 10.9768L5.52227 8.63873C5.28436 8.40082 4.92287 8.40082 4.68039 8.63873C4.44248 8.87665 4.44248 9.2381 4.68039 9.48062L7.43938 12.2396C7.55836 12.3586 7.67729 12.4181 7.86034 12.4181C8.03878 12.4181 8.16233 12.3586 8.2813 12.2396L13.3189 7.20202C13.5568 6.9641 13.5568 6.60268 13.3189 6.36013Z" fill="#00B61D"/>
</svg>
