<svg width="28" height="28" viewBox="0 0 28 28" fill="none" xmlns="http://www.w3.org/2000/svg">
<path d="M22.1673 27.9997C22.087 27.9998 22.0075 27.9831 21.934 27.9507C21.7053 27.8516 16.334 25.4494 16.334 20.5412V16.4159C16.334 16.1686 16.4915 15.9469 16.7248 15.8652L21.9748 14.0324C22.0995 13.9892 22.2351 13.9892 22.3598 14.0324L27.6098 15.8652C27.8432 15.9469 28.0007 16.1686 28.0007 16.4159V20.5412C28.0007 25.4506 22.6293 27.8516 22.4007 27.9507C22.3271 27.9831 22.2477 27.9998 22.1673 27.9997ZM17.5007 16.8301V20.5412C17.5007 24.1637 21.1908 26.2742 22.1662 26.7689C23.1415 26.2731 26.834 24.1532 26.834 20.5412V16.8301L22.1673 15.2014L17.5007 16.8301Z" fill="#1D4599"/>
<path d="M21.6891 23.0632L21.6576 23.062C21.574 23.0576 21.4924 23.0352 21.4183 22.9963C21.3442 22.9575 21.2794 22.9031 21.2283 22.8368L19.3184 20.3693C19.2715 20.3087 19.2369 20.2395 19.2167 20.1655C19.1965 20.0916 19.1911 20.0144 19.2007 19.9383C19.2104 19.8623 19.2349 19.7889 19.2729 19.7223C19.3109 19.6557 19.3617 19.5973 19.4223 19.5503C19.5446 19.4555 19.6997 19.4132 19.8533 19.4326C19.9293 19.4423 20.0027 19.4668 20.0693 19.5048C20.1359 19.5428 20.1943 19.5936 20.2413 19.6542L21.7381 21.5897L24.6104 18.6193C24.7181 18.5088 24.8652 18.4454 25.0195 18.443C25.1738 18.4407 25.3228 18.4996 25.4338 18.6069C25.5447 18.7142 25.6087 18.861 25.6116 19.0153C25.6145 19.1696 25.5561 19.3188 25.4493 19.4302L22.1091 22.8847C22.0546 22.941 21.9893 22.9858 21.9172 23.0164C21.845 23.0471 21.7675 23.063 21.6891 23.0632ZM22.7496 12.8327C22.5949 12.8327 22.4465 12.7712 22.3371 12.6618C22.2277 12.5524 22.1663 12.404 22.1663 12.2493V7.06816L11.9334 12.1875C11.7958 12.2511 11.6389 12.2586 11.4958 12.2084C11.3528 12.1583 11.2348 12.0544 11.1671 11.9188C11.0993 11.7832 11.0869 11.6266 11.1326 11.482C11.1783 11.3375 11.2785 11.2164 11.4119 11.1445L22.4883 5.60283C22.5772 5.55826 22.6761 5.53718 22.7754 5.54159C22.8748 5.54599 22.9714 5.57574 23.056 5.628C23.1407 5.68025 23.2106 5.75329 23.259 5.84016C23.3075 5.92703 23.3329 6.02485 23.3329 6.12433V12.2493C23.3329 12.404 23.2715 12.5524 23.1621 12.6618C23.0527 12.7712 22.9043 12.8327 22.7496 12.8327Z" fill="#1D4599"/>
<path d="M11.6597 23.3321C11.5649 23.3323 11.4715 23.309 11.3878 23.2644L0.3115 17.4311C0.217486 17.3817 0.138766 17.3076 0.0838604 17.2167C0.0289548 17.1258 -4.49695e-05 17.0216 5.23422e-08 16.9154V6.12375C0.000102614 6.02443 0.0255602 5.92679 0.0739608 5.84006C0.122362 5.75334 0.192102 5.68041 0.276576 5.62819C0.36105 5.57596 0.45746 5.54616 0.556671 5.54163C0.655882 5.53709 0.75461 5.55795 0.8435 5.60225L11.9198 11.1439C12.0166 11.1924 12.098 11.2669 12.1548 11.359C12.2117 11.4511 12.2418 11.5572 12.2418 11.6654V22.7487C12.2412 22.9031 12.1797 23.0509 12.0707 23.1601C11.9617 23.2694 11.814 23.3312 11.6597 23.3321ZM1.16667 16.5631L11.0763 21.7816V12.0259L1.16667 7.06758V16.5631Z" fill="#1D4599"/>
<path d="M22.7499 6.70775C22.6592 6.70757 22.5697 6.68641 22.4885 6.64591L11.6595 1.23491L0.844534 6.64591C0.706389 6.71381 0.547009 6.72435 0.401126 6.67524C0.255244 6.62613 0.134686 6.52135 0.0657245 6.38373C-0.00323683 6.24612 -0.0150108 6.08682 0.0329684 5.94056C0.0809476 5.79431 0.184791 5.67294 0.321867 5.60291L11.3982 0.061248C11.4792 0.0209642 11.5685 0 11.6589 0C11.7494 0 11.8387 0.0209642 11.9197 0.061248L23.01 5.60291C23.1274 5.66173 23.2215 5.75839 23.2771 5.87729C23.3327 5.99619 23.3466 6.13036 23.3165 6.25812C23.2864 6.38588 23.2141 6.49977 23.1113 6.58136C23.0085 6.66295 22.8811 6.70748 22.7499 6.70775Z" fill="#1D4599"/>
<path d="M5.88411 13.6941C5.7294 13.6941 5.58103 13.6326 5.47164 13.5232C5.36224 13.4138 5.30078 13.2655 5.30078 13.1108V8.7731C5.30078 8.66486 5.3309 8.55875 5.38777 8.46665C5.44464 8.37455 5.52601 8.30009 5.62278 8.2516L16.6991 2.70993C16.7677 2.67569 16.8423 2.65529 16.9188 2.64989C16.9952 2.64449 17.072 2.6542 17.1447 2.67847C17.2173 2.70273 17.2845 2.74108 17.3424 2.79132C17.4003 2.84156 17.4477 2.9027 17.4819 2.97126C17.5162 3.03983 17.5366 3.11446 17.542 3.19091C17.5474 3.26735 17.5377 3.34411 17.5134 3.4168C17.4891 3.4895 17.4508 3.5567 17.4006 3.61457C17.3503 3.67244 17.2892 3.71986 17.2206 3.7541L6.46745 9.13476V13.1119C6.46714 13.2664 6.40554 13.4145 6.29618 13.5237C6.18682 13.6328 6.03862 13.6941 5.88411 13.6941ZM11.6603 23.3319C11.53 23.332 11.4034 23.2884 11.3008 23.2082C11.1981 23.128 11.1253 23.0157 11.0939 22.8892C11.0624 22.7628 11.0743 22.6295 11.1275 22.5105C11.1806 22.3916 11.2721 22.2938 11.3873 22.2329L13.7276 20.9916C13.8644 20.919 14.0244 20.9038 14.1724 20.9492C14.3204 20.9946 14.4443 21.0969 14.5169 21.2337C14.5894 21.3704 14.6047 21.5304 14.5593 21.6784C14.5139 21.8265 14.4115 21.9504 14.2748 22.0229L11.9344 23.2643C11.8498 23.3084 11.7558 23.3316 11.6603 23.3319Z" fill="#1D4599"/>
</svg>
