<svg width="30" height="31" viewBox="0 0 30 31" fill="none" xmlns="http://www.w3.org/2000/svg">
<path d="M22.0781 20.9997C1.5 30.6091 3 29.9997 2.29688 29.9997C1.03125 29.9997 0 28.9684 0 27.7028C0 27.3747 0.09375 27.0466 0.234375 26.7185L9 7.92158C9.32812 7.21845 10.1719 6.9372 10.875 7.26533C11.0156 7.3122 11.1562 7.40595 11.25 7.54658L22.5 18.7966C23.0625 19.3591 23.0156 20.2497 22.4531 20.7653C22.3594 20.8591 22.2188 20.9528 22.0781 20.9997Z" fill="url(#paint0_linear_988_16190)"/>
<path d="M20.625 16.875V21.7031L14.0625 24.75V10.3125L20.625 16.875Z" fill="url(#paint1_linear_988_16190)"/>
<path d="M10.2656 7.07812V26.4844L3.70312 29.5312V19.2187L9 7.92187C9.23438 7.40625 9.75 7.07812 10.2656 7.07812Z" fill="url(#paint2_linear_988_16190)"/>
<path d="M22.7344 7.73379C22.4531 7.73379 22.2656 7.54629 22.2188 7.31192C22.2188 7.03067 22.4062 6.84317 22.6406 6.79629L23.1562 6.70254C24.2812 6.51504 25.0781 5.57754 25.0781 4.45254C25.0781 2.85879 26.2031 1.49942 27.7969 1.26504L28.3125 1.17129C28.5938 1.12442 28.8281 1.31192 28.875 1.54629C28.9219 1.78067 28.7344 2.06192 28.5 2.10879L27.9844 2.20254C26.8594 2.39004 26.0625 3.32754 26.0625 4.45254C26.0625 6.04629 24.9375 7.40567 23.3437 7.64004C23.1094 7.68692 22.9219 7.68692 22.7344 7.73379Z" fill="url(#paint3_linear_988_16190)"/>
<path d="M15.0002 9.6096C14.719 9.6096 14.5315 9.37522 14.5315 9.14085C14.5315 9.0471 14.5783 8.95335 14.6252 8.8596L14.9065 8.43772C15.5627 7.5471 15.469 6.28147 14.6721 5.4846C13.5471 4.3596 13.4065 2.57835 14.344 1.31272L14.6252 0.937722C14.8127 0.750222 15.094 0.703347 15.2815 0.890847C15.469 1.03147 15.5158 1.31272 15.3752 1.50022L15.094 1.87522C14.4377 2.76585 14.5315 4.03147 15.3283 4.82835C16.4533 5.95335 16.594 7.68772 15.6565 9.00022C15.3752 9.4221 15.2815 9.6096 15.0002 9.6096Z" fill="url(#paint4_linear_988_16190)"/>
<path d="M26.7658 16.2658C25.9221 16.2658 25.0783 15.9377 24.469 15.3283C23.6721 14.5315 22.4533 14.4377 21.5158 15.0471L21.094 15.3283C20.9065 15.469 20.5783 15.4221 20.4377 15.2346C20.2971 15.0471 20.344 14.719 20.5315 14.5783L20.9533 14.2971C22.219 13.3596 24.0002 13.5002 25.1252 14.6252C25.9221 15.4221 27.1877 15.5158 28.0783 14.8596L28.5002 14.5783C28.6877 14.3908 28.969 14.3908 29.1565 14.5315C29.344 14.6721 29.344 15.0002 29.2033 15.1877C29.1565 15.2346 29.1096 15.2815 29.0158 15.3283C28.4533 15.9377 27.6096 16.2658 26.7658 16.2658Z" fill="url(#paint5_linear_988_16190)"/>
<path d="M22.9688 12.6562C23.2276 12.6562 23.4375 12.4464 23.4375 12.1875C23.4375 11.9286 23.2276 11.7188 22.9688 11.7188C22.7099 11.7188 22.5 11.9286 22.5 12.1875C22.5 12.4464 22.7099 12.6562 22.9688 12.6562Z" fill="url(#paint6_linear_988_16190)"/>
<path d="M18.75 12.1875C19.0089 12.1875 19.2188 11.9776 19.2188 11.7188C19.2188 11.4599 19.0089 11.25 18.75 11.25C18.4911 11.25 18.2812 11.4599 18.2812 11.7188C18.2812 11.9776 18.4911 12.1875 18.75 12.1875Z" fill="url(#paint7_linear_988_16190)"/>
<path d="M19.2188 8.90625C19.4776 8.90625 19.6875 8.69638 19.6875 8.4375C19.6875 8.17862 19.4776 7.96875 19.2188 7.96875C18.9599 7.96875 18.75 8.17862 18.75 8.4375C18.75 8.69638 18.9599 8.90625 19.2188 8.90625Z" fill="url(#paint8_linear_988_16190)"/>
<path d="M24.8438 0.9375C25.1026 0.9375 25.3125 0.727633 25.3125 0.46875C25.3125 0.209867 25.1026 0 24.8438 0C24.5849 0 24.375 0.209867 24.375 0.46875C24.375 0.727633 24.5849 0.9375 24.8438 0.9375Z" fill="url(#paint9_linear_988_16190)"/>
<path d="M18.75 2.90625L20.0625 4.21875L18.75 5.53125L17.4375 4.21875L18.75 2.90625Z" fill="url(#paint10_linear_988_16190)"/>
<path d="M10.7812 1.96875L12.0937 3.28125L10.7812 4.59375L9.46875 3.28125L10.7812 1.96875Z" fill="url(#paint11_linear_988_16190)"/>
<path d="M28.5937 5.71875L29.9062 7.03125L28.5937 8.34375L27.2812 7.03125L28.5937 5.71875Z" fill="url(#paint12_linear_988_16190)"/>
<path d="M26.7187 17.9062L28.0312 19.2187L26.7187 20.5312L25.4062 19.2187L26.7187 17.9062Z" fill="url(#paint13_linear_988_16190)"/>
<path d="M25.7813 11.2501C25.5938 11.2501 25.4063 11.1094 25.3594 10.9219C25.2657 10.6876 25.4063 10.4063 25.6407 10.3126L27.0469 9.84382C27.2813 9.75007 27.5626 9.89069 27.6563 10.1251C27.7501 10.3594 27.6094 10.6407 27.3751 10.7344L25.9688 11.2032C25.8751 11.2501 25.8282 11.2501 25.7813 11.2501Z" fill="url(#paint14_linear_988_16190)"/>
<path d="M22.0312 4.21882C21.75 4.21882 21.5625 4.03132 21.5156 3.79694C21.5156 3.75007 21.5156 3.65632 21.5625 3.60944L22.0312 2.20319C22.125 1.96882 22.3594 1.82819 22.6406 1.92194C22.875 2.01569 23.0156 2.25007 22.9219 2.53132L22.4531 3.93757C22.4062 4.07819 22.2187 4.21882 22.0312 4.21882Z" fill="url(#paint15_linear_988_16190)"/>
<defs>
<linearGradient id="paint0_linear_988_16190" x1="-0.00328125" y1="18.5542" x2="22.8984" y2="18.5542" gradientUnits="userSpaceOnUse">
<stop stop-color="#DA5466"/>
<stop offset="1" stop-color="#F4929C"/>
</linearGradient>
<linearGradient id="paint1_linear_988_16190" x1="10.1953" y1="17.5312" x2="20.2266" y2="17.5312" gradientUnits="userSpaceOnUse">
<stop stop-color="#FBCC88"/>
<stop offset="1" stop-color="#FFE5C3"/>
</linearGradient>
<linearGradient id="paint2_linear_988_16190" x1="3.71719" y1="18.3398" x2="10.2797" y2="18.3398" gradientUnits="userSpaceOnUse">
<stop stop-color="#FBCC88"/>
<stop offset="1" stop-color="#FFE5C3"/>
</linearGradient>
<linearGradient id="paint3_linear_988_16190" x1="22.2797" y1="4.44082" x2="28.8375" y2="4.44082" gradientUnits="userSpaceOnUse">
<stop stop-color="#8CDD79"/>
<stop offset="1" stop-color="#D4E6B6"/>
</linearGradient>
<linearGradient id="paint4_linear_988_16190" x1="12.7033" y1="7.42568" x2="17.3437" y2="2.78529" gradientUnits="userSpaceOnUse">
<stop stop-color="#FBCC88"/>
<stop offset="1" stop-color="#FFE5C3"/>
</linearGradient>
<linearGradient id="paint5_linear_988_16190" x1="22.4847" y1="17.2131" x2="27.1251" y2="12.5727" gradientUnits="userSpaceOnUse">
<stop stop-color="#B15DE5"/>
<stop offset="1" stop-color="#DF86EF"/>
</linearGradient>
<linearGradient id="paint6_linear_988_16190" x1="22.5" y1="12.1875" x2="23.4375" y2="12.1875" gradientUnits="userSpaceOnUse">
<stop stop-color="#DA5466"/>
<stop offset="1" stop-color="#F4929C"/>
</linearGradient>
<linearGradient id="paint7_linear_988_16190" x1="18.2812" y1="11.7188" x2="19.2188" y2="11.7188" gradientUnits="userSpaceOnUse">
<stop stop-color="#FBCC88"/>
<stop offset="1" stop-color="#FFE5C3"/>
</linearGradient>
<linearGradient id="paint8_linear_988_16190" x1="18.75" y1="8.4375" x2="19.6875" y2="8.4375" gradientUnits="userSpaceOnUse">
<stop stop-color="#B15DE5"/>
<stop offset="1" stop-color="#DF86EF"/>
</linearGradient>
<linearGradient id="paint9_linear_988_16190" x1="24.375" y1="0.46875" x2="25.3125" y2="0.46875" gradientUnits="userSpaceOnUse">
<stop stop-color="#DA5466"/>
<stop offset="1" stop-color="#F4929C"/>
</linearGradient>
<linearGradient id="paint10_linear_988_16190" x1="18.0243" y1="3.59759" x2="19.3502" y2="4.92341" gradientUnits="userSpaceOnUse">
<stop stop-color="#B15DE5"/>
<stop offset="1" stop-color="#DF86EF"/>
</linearGradient>
<linearGradient id="paint11_linear_988_16190" x1="10.0571" y1="2.66248" x2="11.3829" y2="3.98831" gradientUnits="userSpaceOnUse">
<stop stop-color="#8CDD79"/>
<stop offset="1" stop-color="#D4E6B6"/>
</linearGradient>
<linearGradient id="paint12_linear_988_16190" x1="27.8662" y1="6.41124" x2="29.1921" y2="7.73706" gradientUnits="userSpaceOnUse">
<stop stop-color="#FBCC88"/>
<stop offset="1" stop-color="#FFE5C3"/>
</linearGradient>
<linearGradient id="paint13_linear_988_16190" x1="25.9946" y1="18.5971" x2="27.3205" y2="19.9229" gradientUnits="userSpaceOnUse">
<stop stop-color="#DA5466"/>
<stop offset="1" stop-color="#F4929C"/>
</linearGradient>
<linearGradient id="paint14_linear_988_16190" x1="25.6843" y1="11.3471" x2="27.2874" y2="9.74397" gradientUnits="userSpaceOnUse">
<stop stop-color="#B15DE5"/>
<stop offset="1" stop-color="#DF86EF"/>
</linearGradient>
<linearGradient id="paint15_linear_988_16190" x1="21.4523" y1="3.83679" x2="23.0545" y2="2.2346" gradientUnits="userSpaceOnUse">
<stop stop-color="#6AB891"/>
<stop offset="1" stop-color="#85CBA9"/>
</linearGradient>
</defs>
</svg>
