<svg width="31" height="30" viewBox="0 0 31 30" fill="none" xmlns="http://www.w3.org/2000/svg">
<path fill-rule="evenodd" clip-rule="evenodd" d="M17.5346 7.28831C17.4063 7.28831 17.2832 7.23733 17.1925 7.14659C17.1018 7.05585 17.0508 6.93277 17.0508 6.80444C17.0508 6.67611 17.1018 6.55304 17.1925 6.4623C17.2832 6.37155 17.4063 6.32058 17.5346 6.32058H29.9568C30.0851 6.32058 30.2082 6.37155 30.2989 6.4623C30.3896 6.55304 30.4406 6.67611 30.4406 6.80444C30.4406 6.93277 30.3896 7.05585 30.2989 7.14659C30.2082 7.23733 30.0851 7.28831 29.9568 7.28831H17.5346ZM17.5346 20.4587C17.4063 20.4587 17.2832 20.4077 17.1925 20.3169C17.1018 20.2262 17.0508 20.1031 17.0508 19.9748C17.0508 19.8465 17.1018 19.7234 17.1925 19.6327C17.2832 19.5419 17.4063 19.4909 17.5346 19.4909H25.9528C26.0811 19.4909 26.2042 19.5419 26.2949 19.6327C26.3856 19.7234 26.4366 19.8465 26.4366 19.9748C26.4366 20.1031 26.3856 20.2262 26.2949 20.3169C26.2042 20.4077 26.0811 20.4587 25.9528 20.4587H17.5346ZM17.5346 26.9002C17.4063 26.9002 17.2832 26.8492 17.1925 26.7585C17.1018 26.6678 17.0508 26.5447 17.0508 26.4164C17.0508 26.288 17.1018 26.165 17.1925 26.0742C17.2832 25.9835 17.4063 25.9325 17.5346 25.9325H29.9568C30.0851 25.9325 30.2082 25.9835 30.2989 26.0742C30.3896 26.165 30.4406 26.288 30.4406 26.4164C30.4406 26.5447 30.3896 26.6678 30.2989 26.7585C30.2082 26.8492 30.0851 26.9002 29.9568 26.9002H17.5346ZM17.5346 23.6794C17.4063 23.6794 17.2832 23.6285 17.1925 23.5377C17.1018 23.447 17.0508 23.3239 17.0508 23.1956C17.0508 23.0672 17.1018 22.9442 17.1925 22.8534C17.2832 22.7627 17.4063 22.7117 17.5346 22.7117H29.9568C30.0851 22.7117 30.2082 22.7627 30.2989 22.8534C30.3896 22.9442 30.4406 23.0672 30.4406 23.1956C30.4406 23.3239 30.3896 23.447 30.2989 23.5377C30.2082 23.6285 30.0851 23.6794 29.9568 23.6794H17.5346ZM17.5346 4.06759C17.4063 4.06759 17.2832 4.01661 17.1925 3.92587C17.1018 3.83512 17.0508 3.71205 17.0508 3.58372C17.0508 3.45539 17.1018 3.33232 17.1925 3.24157C17.2832 3.15083 17.4063 3.09985 17.5346 3.09985H25.9528C26.0811 3.09985 26.2042 3.15083 26.2949 3.24157C26.3856 3.33232 26.4366 3.45539 26.4366 3.58372C26.4366 3.71205 26.3856 3.83512 26.2949 3.92587C26.2042 4.01661 26.0811 4.06759 25.9528 4.06759H17.5346ZM17.5346 10.5091C17.4063 10.5091 17.2832 10.4581 17.1925 10.3674C17.1018 10.2766 17.0508 10.1536 17.0508 10.0252C17.0508 9.8969 17.1018 9.77382 17.1925 9.68308C17.2832 9.59234 17.4063 9.54136 17.5346 9.54136H29.9568C30.0851 9.54136 30.2082 9.59234 30.2989 9.68308C30.3896 9.77382 30.4406 9.8969 30.4406 10.0252C30.4406 10.1536 30.3896 10.2766 30.2989 10.3674C30.2082 10.4581 30.0851 10.5091 29.9568 10.5091H17.5346Z" fill="#2E9E82"/>
<path d="M12.1727 11.6159C14.83 8.95861 14.83 4.65028 12.1727 1.99298C9.51537 -0.664314 5.20704 -0.664314 2.54974 1.99298C-0.107554 4.65028 -0.107554 8.95861 2.54974 11.6159C5.20704 14.2732 9.51537 14.2732 12.1727 11.6159Z" fill="#1D4599"/>
<path fill-rule="evenodd" clip-rule="evenodd" d="M7.36268 13.6089C11.1206 13.6089 14.1671 10.5624 14.1671 6.80443C14.1671 3.04646 11.1207 0 7.36268 0C7.15883 0 6.95709 0.00896484 6.75781 0.026543C10.2325 0.332578 12.9574 3.25031 12.9574 6.80443C12.9574 10.3586 10.2324 13.2763 6.75781 13.5824C6.95709 13.5999 7.15883 13.6089 7.36268 13.6089Z" fill="#1D4599"/>
<path fill-rule="evenodd" clip-rule="evenodd" d="M7.36496 6.50317C9.07994 6.50317 10.4987 7.7722 10.7332 9.42243C10.7511 9.54823 10.717 9.66354 10.6337 9.75952C10.5504 9.8555 10.441 9.90536 10.314 9.90536H4.416C4.28891 9.90536 4.17951 9.85544 4.09625 9.75952C4.01299 9.66354 3.97894 9.54823 3.99682 9.42243C4.23131 7.7722 5.64998 6.50317 7.36496 6.50317Z" fill="#9DC6FB"/>
<path fill-rule="evenodd" clip-rule="evenodd" d="M10.7331 9.42243C10.4986 7.7722 9.07994 6.50317 7.3649 6.50317C7.26396 6.50318 7.16306 6.5076 7.0625 6.51642C8.63955 6.65534 9.90775 7.87022 10.1283 9.42243C10.1462 9.54823 10.1122 9.66354 10.0289 9.75952C9.94555 9.8555 9.83615 9.90536 9.70912 9.90536H10.314C10.441 9.90536 10.5505 9.85544 10.6337 9.75952C10.717 9.66354 10.751 9.54823 10.7331 9.42243Z" fill="#80B4FB"/>
<path d="M7.36467 5.89828C8.31467 5.89828 9.0848 5.12815 9.0848 4.17814C9.0848 3.22814 8.31467 2.45801 7.36467 2.45801C6.41466 2.45801 5.64453 3.22814 5.64453 4.17814C5.64453 5.12815 6.41466 5.89828 7.36467 5.89828Z" fill="#FFECE4"/>
<path fill-rule="evenodd" clip-rule="evenodd" d="M7.3649 5.89828C8.31488 5.89828 9.08504 5.12812 9.08504 4.17814C9.08504 3.22811 8.31488 2.45801 7.3649 2.45801C7.26172 2.45801 7.16064 2.46709 7.0625 2.48449C7.86828 2.6274 8.48023 3.33129 8.48023 4.17814C8.48023 5.02494 7.86828 5.72889 7.0625 5.8718C7.16064 5.8892 7.26172 5.89828 7.3649 5.89828Z" fill="#FFCBBE"/>
<path d="M12.1727 28.0053C14.83 25.348 14.83 21.0397 12.1727 18.3824C9.51537 15.7251 5.20704 15.7251 2.54974 18.3824C-0.107554 21.0397 -0.107554 25.348 2.54974 28.0053C5.20704 30.6626 9.51537 30.6626 12.1727 28.0053Z" fill="#1D4599"/>
<path fill-rule="evenodd" clip-rule="evenodd" d="M14.1671 23.1955C14.1671 19.4376 11.1206 16.3911 7.36268 16.3911C7.15883 16.3911 6.95709 16.4001 6.75781 16.4177C10.2325 16.7237 12.9574 19.6414 12.9574 23.1956C12.9574 26.7497 10.2324 29.6675 6.75781 29.9735C6.95709 29.9911 7.15883 30 7.36268 30C11.1207 30 14.1671 26.9535 14.1671 23.1955Z" fill="#1D4599"/>
<path fill-rule="evenodd" clip-rule="evenodd" d="M7.36496 22.8943C9.07994 22.8943 10.4987 24.1633 10.7332 25.8135C10.7511 25.9393 10.717 26.0547 10.6337 26.1507C10.5504 26.2466 10.441 26.2965 10.314 26.2965H4.416C4.28891 26.2965 4.17951 26.2466 4.09625 26.1507C4.01299 26.0547 3.97894 25.9394 3.99682 25.8135C4.23131 24.1633 5.64998 22.8943 7.36496 22.8943Z" fill="#FFE07D"/>
<path fill-rule="evenodd" clip-rule="evenodd" d="M10.7331 25.8135C10.4986 24.1633 9.07994 22.8943 7.3649 22.8943C7.26396 22.8943 7.16306 22.8987 7.0625 22.9075C8.63955 23.0465 9.90775 24.2613 10.1283 25.8135C10.1462 25.9393 10.1122 26.0546 10.0289 26.1506C9.94555 26.2466 9.83615 26.2965 9.70912 26.2965H10.314C10.441 26.2965 10.5505 26.2466 10.6337 26.1506C10.717 26.0547 10.751 25.9393 10.7331 25.8135Z" fill="#F0D47B"/>
<path d="M7.36467 22.2894C8.31467 22.2894 9.0848 21.5193 9.0848 20.5693C9.0848 19.6193 8.31467 18.8491 7.36467 18.8491C6.41466 18.8491 5.64453 19.6193 5.64453 20.5693C5.64453 21.5193 6.41466 22.2894 7.36467 22.2894Z" fill="#FFECE4"/>
<path fill-rule="evenodd" clip-rule="evenodd" d="M9.08504 20.5693C9.08504 19.6193 8.31488 18.8491 7.3649 18.8491C7.26172 18.8491 7.16064 18.8582 7.0625 18.8756C7.86828 19.0185 8.48023 19.7224 8.48023 20.5693C8.48023 21.4161 7.86828 22.12 7.0625 22.2629C7.16064 22.2803 7.26172 22.2894 7.3649 22.2894C8.31488 22.2895 9.08504 21.5193 9.08504 20.5693Z" fill="#FFCBBE"/>
</svg>
