<svg width="28" height="33" viewBox="0 0 28 33" fill="none" xmlns="http://www.w3.org/2000/svg">
<path d="M17.4668 33H5.15625C2.31303 33 0 30.687 0 27.8438V10.377C0 7.53373 2.31303 5.2207 5.15625 5.2207H17.4668C20.31 5.2207 22.623 7.53373 22.623 10.377V27.8438C22.623 30.687 20.31 33 17.4668 33ZM5.15625 7.79883C3.73474 7.79883 2.57812 8.95544 2.57812 10.377V27.8438C2.57812 29.2653 3.73474 30.4219 5.15625 30.4219H17.4668C18.8883 30.4219 20.0449 29.2653 20.0449 27.8438V10.377C20.0449 8.95544 18.8883 7.79883 17.4668 7.79883H5.15625ZM27.7793 24.6211V5.15625C27.7793 2.31303 25.4663 0 22.623 0H8.31445C7.60244 0 7.02539 0.577049 7.02539 1.28906C7.02539 2.00108 7.60244 2.57812 8.31445 2.57812H22.623C24.0446 2.57812 25.2012 3.73474 25.2012 5.15625V24.6211C25.2012 25.3331 25.7782 25.9102 26.4902 25.9102C27.2022 25.9102 27.7793 25.3331 27.7793 24.6211Z" fill="#939393"/>
</svg>
