<svg width="33" height="31" viewBox="0 0 33 31" fill="none" xmlns="http://www.w3.org/2000/svg">
<path d="M19.4962 9.64849C19.3464 9.52879 19.157 9.4698 18.9657 9.48314H16.0721L18.7935 6.44485L19.0484 6.16238L19.1793 5.99703C19.2248 5.93313 19.2618 5.86363 19.2895 5.79035C19.3208 5.71137 19.3371 5.62723 19.3377 5.54232C19.3569 5.3414 19.2574 5.14764 19.0828 5.04627C18.8564 4.94241 18.6081 4.89505 18.3594 4.90848H14.9767C14.7962 4.89617 14.6174 4.95008 14.4737 5.06005C14.355 5.16107 14.289 5.31075 14.2946 5.46654C14.2946 5.70078 14.3727 5.84314 14.5288 5.89369C14.7527 5.95733 14.9852 5.98523 15.2178 5.97636H17.4224C17.3306 6.10494 17.2112 6.25651 17.0642 6.43107L16.4992 7.06491L15.7345 7.89166L14.8458 8.87686C14.5381 9.22134 14.3359 9.45102 14.2395 9.56582C14.0207 9.8315 14.0479 10.2219 14.3015 10.4546C14.4832 10.5915 14.7085 10.6576 14.9353 10.6406H18.9588C19.1513 10.6557 19.3427 10.5993 19.4962 10.4821C19.6132 10.3799 19.6789 10.231 19.6753 10.0756C19.6813 9.91383 19.6157 9.75761 19.4962 9.64849Z" fill="#939393"/>
<path d="M25.5933 13.1702C25.4727 13.0737 25.32 13.027 25.1661 13.0393H22.8512L25.0214 10.6142L25.2281 10.3868L25.359 10.2284C25.396 10.1774 25.426 10.1218 25.4486 10.063C25.4747 9.99953 25.4887 9.93184 25.4899 9.86321C25.5072 9.70242 25.4291 9.54629 25.2901 9.46361C25.109 9.38042 24.9104 9.34253 24.7114 9.35338H21.9831C21.8394 9.34537 21.6975 9.38938 21.5836 9.47739C21.4883 9.55748 21.435 9.67684 21.4389 9.8012C21.4389 9.98489 21.5009 10.0998 21.6249 10.1457C21.8042 10.1954 21.9902 10.2163 22.1761 10.2077H23.9398C23.8709 10.311 23.7744 10.4281 23.6504 10.5728L23.1957 11.0827L22.6032 11.7716L21.9143 12.557C21.6662 12.8326 21.5032 13.0209 21.4251 13.122C21.2628 13.3302 21.2836 13.6273 21.4733 13.8109C21.6179 13.9185 21.7966 13.9699 21.9763 13.9556H25.173C25.3258 13.9678 25.4777 13.9237 25.6002 13.8316C25.6913 13.749 25.7416 13.6307 25.738 13.5078C25.7411 13.3795 25.6883 13.2563 25.5933 13.1702Z" fill="#939393"/>
<path d="M32.8205 9.29815C32.6706 9.17845 32.4813 9.11945 32.29 9.1328H29.3757L32.0971 6.09451L32.352 5.81204L32.5173 5.61224C32.5628 5.54834 32.5998 5.47884 32.6276 5.40556C32.6588 5.32658 32.6751 5.24245 32.6758 5.15753C32.695 4.95662 32.5954 4.76285 32.4209 4.66148C32.1945 4.55762 31.9462 4.51035 31.6975 4.52369H28.2803C28.0998 4.51138 27.921 4.56529 27.7773 4.67526C27.6587 4.77628 27.5926 4.92596 27.5982 5.08175C27.5982 5.31599 27.6763 5.45835 27.8324 5.5089C28.0564 5.57254 28.2888 5.60044 28.5214 5.59157H30.7261C30.6342 5.72015 30.5148 5.87172 30.3678 6.04628L29.796 6.6939L29.0519 7.52065L28.1631 8.50585C27.8554 8.85033 27.6533 9.08001 27.5569 9.19481C27.3381 9.46049 27.3653 9.85087 27.6189 10.0836C27.8006 10.2205 28.0259 10.2865 28.2527 10.2696H32.2693C32.4638 10.294 32.6604 10.2449 32.8205 10.1318C32.9375 10.0296 33.0031 9.88066 32.9996 9.72531C33.0055 9.56349 32.94 9.40727 32.8205 9.29815Z" fill="#939393"/>
<path d="M30.4435 20.8998C30.2473 20.6967 29.9469 20.6338 29.6857 20.7414C22.2185 23.8325 13.6591 20.2851 10.5679 12.8178C8.99818 9.02585 9.09292 4.74899 10.829 1.03035C10.9917 0.686391 10.8447 0.275688 10.5007 0.113008C10.3242 0.0294726 10.1204 0.0249083 9.94024 0.100263C1.75365 3.46314 -2.15677 12.8259 1.2061 21.0125C4.56898 29.1991 13.9317 33.1095 22.1184 29.7466C25.8522 28.2128 28.8696 25.3265 30.5676 21.6645C30.6871 21.4084 30.6379 21.1051 30.4435 20.8998ZM16.0375 29.5806C7.94425 29.5793 1.38454 23.0173 1.38592 14.9241C1.38678 9.60982 4.26472 4.71256 8.90681 2.12579C8.35711 3.75741 8.07783 5.46791 8.08006 7.18961C8.0805 16.0438 15.2586 23.2212 24.1128 23.2208C25.5967 23.2207 27.0734 23.0146 28.5007 22.6084C25.8288 26.9286 21.1171 29.5645 16.0375 29.5806Z" fill="#939393"/>
</svg>
