<svg width="22" height="22" viewBox="0 0 22 22" fill="none" xmlns="http://www.w3.org/2000/svg">
<circle cx="11" cy="11" r="11" fill="#FFC9C9"/>
<path d="M12.9553 16.9998H8.45967C8.00989 16.9933 7.57914 16.8172 7.25355 16.5068C6.92797 16.1964 6.73155 15.7746 6.70357 15.3256L6.17089 7.22415C6.16816 7.16542 6.1771 7.10672 6.19719 7.05146C6.21729 6.9962 6.24814 6.94547 6.28796 6.9022C6.32899 6.85736 6.37866 6.82129 6.43399 6.79614C6.48931 6.77099 6.54916 6.75729 6.60991 6.75586H14.805C14.8652 6.75573 14.9248 6.76798 14.9801 6.79185C15.0354 6.81572 15.0851 6.8507 15.1263 6.89462C15.1675 6.93854 15.1992 6.99045 15.2194 7.04714C15.2397 7.10383 15.2481 7.16409 15.2441 7.22415L14.7348 15.3256C14.7065 15.7786 14.5068 16.2038 14.1763 16.5148C13.8457 16.8257 13.4091 16.9992 12.9553 16.9998ZM7.10162 7.63391L7.55235 15.2729C7.56725 15.5033 7.66937 15.7193 7.83794 15.877C8.00651 16.0347 8.22884 16.1222 8.45967 16.1217H12.9553C13.1857 16.1208 13.4073 16.0328 13.5755 15.8754C13.7438 15.718 13.8463 15.5028 13.8626 15.2729L14.3367 7.66318L7.10162 7.63391Z" fill="#A90000"/>
<path d="M15.9756 7.63391H5.43902C5.32259 7.63391 5.21092 7.58765 5.12859 7.50532C5.04625 7.42299 5 7.31132 5 7.19488C5 7.07845 5.04625 6.96678 5.12859 6.88445C5.21092 6.80211 5.32259 6.75586 5.43902 6.75586H15.9756C16.092 6.75586 16.2037 6.80211 16.286 6.88445C16.3684 6.96678 16.4146 7.07845 16.4146 7.19488C16.4146 7.31132 16.3684 7.42299 16.286 7.50532C16.2037 7.58765 16.092 7.63391 15.9756 7.63391Z" fill="#A90000"/>
<path d="M12.4634 7.63415H8.95123C8.83527 7.63263 8.72448 7.58589 8.64247 7.50388C8.56046 7.42188 8.51372 7.31109 8.51221 7.19512V6.14146C8.51963 5.84106 8.64227 5.55502 8.85475 5.34254C9.06723 5.13006 9.35327 5.00742 9.65367 5H11.761C12.0664 5.00764 12.3567 5.13435 12.57 5.35308C12.7832 5.57181 12.9025 5.86524 12.9025 6.17073V7.19512C12.9009 7.31109 12.8542 7.42188 12.7722 7.50388C12.6902 7.58589 12.5794 7.63263 12.4634 7.63415ZM9.39026 6.7561H12.0244V6.17073C12.0244 6.10087 11.9966 6.03387 11.9472 5.98447C11.8978 5.93507 11.8308 5.90732 11.761 5.90732H9.65367C9.58381 5.90732 9.51681 5.93507 9.46741 5.98447C9.41801 6.03387 9.39026 6.10087 9.39026 6.17073V6.7561Z" fill="#A90000"/>
<path d="M12.4634 14.6581C12.3475 14.6566 12.2367 14.6099 12.1547 14.5279C12.0727 14.4459 12.0259 14.3351 12.0244 14.2191V9.53619C12.0244 9.41976 12.0707 9.30809 12.153 9.22576C12.2353 9.14342 12.347 9.09717 12.4634 9.09717C12.5799 9.09717 12.6915 9.14342 12.7739 9.22576C12.8562 9.30809 12.9025 9.41976 12.9025 9.53619V14.2191C12.9009 14.3351 12.8542 14.4459 12.7722 14.5279C12.6902 14.6099 12.5794 14.6566 12.4634 14.6581Z" fill="#A90000"/>
<path d="M8.95123 14.6581C8.83527 14.6566 8.72448 14.6099 8.64247 14.5279C8.56046 14.4459 8.51372 14.3351 8.51221 14.2191V9.53619C8.51221 9.41976 8.55846 9.30809 8.64079 9.22576C8.72313 9.14342 8.83479 9.09717 8.95123 9.09717C9.06767 9.09717 9.17934 9.14342 9.26167 9.22576C9.344 9.30809 9.39026 9.41976 9.39026 9.53619V14.2191C9.38874 14.3351 9.342 14.4459 9.25999 14.5279C9.17799 14.6099 9.0672 14.6566 8.95123 14.6581Z" fill="#A90000"/>
<path d="M10.7071 14.6581C10.5911 14.6566 10.4803 14.6099 10.3983 14.5279C10.3163 14.4459 10.2696 14.3351 10.2681 14.2191V9.53619C10.2681 9.41976 10.3143 9.30809 10.3967 9.22576C10.479 9.14342 10.5907 9.09717 10.7071 9.09717C10.8235 9.09717 10.9352 9.14342 11.0175 9.22576C11.0999 9.30809 11.1461 9.41976 11.1461 9.53619V14.2191C11.1446 14.3351 11.0979 14.4459 11.0159 14.5279C10.9338 14.6099 10.8231 14.6566 10.7071 14.6581Z" fill="#A90000"/>
</svg>
