<svg width="26" height="26" viewBox="0 0 26 26" fill="none" xmlns="http://www.w3.org/2000/svg">
<rect width="26" height="26" rx="13" fill="#FAE1E1"/>
<path d="M8 9.22223H9.11111H18" stroke="#F40000" stroke-width="1.5" stroke-linecap="round" stroke-linejoin="round"/>
<path d="M16.8889 9.22222V17C16.8889 17.2947 16.7718 17.5773 16.5634 17.7857C16.3551 17.994 16.0724 18.1111 15.7778 18.1111H10.2222C9.92751 18.1111 9.64489 17.994 9.43652 17.7857C9.22815 17.5773 9.11108 17.2947 9.11108 17V9.22222M10.7778 9.22222V8.11111C10.7778 7.81643 10.8948 7.53381 11.1032 7.32544C11.3116 7.11706 11.5942 7 11.8889 7H14.1111C14.4058 7 14.6884 7.11706 14.8968 7.32544C15.1051 7.53381 15.2222 7.81643 15.2222 8.11111V9.22222" stroke="#F40000" stroke-width="1.5" stroke-linecap="round" stroke-linejoin="round"/>
</svg>
