<svg width="11" height="9" viewBox="0 0 11 9"  xmlns="http://www.w3.org/2000/svg">
<path d="M9.82426 1.79604H8.60761C8.59134 1.79172 8.57442 1.78891 8.55727 1.78762H7.26186V0.964853C7.26194 0.903022 7.23028 0.843659 7.17387 0.799498C7.11738 0.755341 7.0406 0.729867 6.95994 0.728577H3.89631C3.81447 0.728577 3.736 0.753433 3.6782 0.797758C3.62032 0.842083 3.58779 0.902176 3.58779 0.964852V1.78762H2.29896C2.28182 1.78891 2.26489 1.79172 2.24863 1.79604H1.03197C0.921706 1.79604 0.819859 1.84104 0.764772 1.91415C0.709676 1.98726 0.709676 2.07731 0.764772 2.15042C0.819868 2.22353 0.921708 2.26858 1.03197 2.26858H2.0232L2.82414 7.97459C2.83271 8.03266 2.8689 8.08624 2.92583 8.12524C2.98269 8.16417 3.05632 8.18566 3.13266 8.18572H7.72791C7.80344 8.18488 7.87598 8.16294 7.93203 8.12411C7.98801 8.08523 8.02354 8.03209 8.03204 7.97459L8.83291 2.27691H9.8242C9.93447 2.27691 10.0363 2.23191 10.0914 2.1588C10.1465 2.08569 10.1465 1.99559 10.0914 1.92253C10.0363 1.84942 9.93447 1.80437 9.8242 1.80437L9.82426 1.79604ZM4.21149 1.20112H6.64472V1.78762H4.21149V1.20112ZM7.44786 7.70977H3.40835L2.6425 2.27697H8.21363L7.44786 7.70977Z"/>
<path d="M5.42821 7.1569C5.51005 7.1569 5.58852 7.13198 5.6464 7.08771C5.70428 7.04339 5.73674 6.9833 5.73674 6.92062V3.06639C5.73674 2.98195 5.67798 2.90395 5.58251 2.86177C5.48705 2.81952 5.36938 2.81952 5.27392 2.86177C5.17845 2.90396 5.11969 2.98195 5.11969 3.06639V6.92062C5.11969 6.98329 5.15215 7.04339 5.21003 7.08771C5.26791 7.13198 5.34637 7.1569 5.42822 7.1569H5.42821Z" />
<path d="M4.21373 7.15517H4.22685C4.30832 7.15259 4.3851 7.12538 4.4405 7.07953C4.49581 7.03369 4.52527 6.97293 4.52226 6.91053L4.33624 3.0563L4.33631 3.05625C4.33463 2.99312 4.29939 2.9332 4.23865 2.89045C4.17784 2.84775 4.09695 2.82592 4.01461 2.83002C3.93314 2.83265 3.85635 2.85987 3.80103 2.90571C3.74564 2.95155 3.71626 3.01231 3.71919 3.07471L3.90522 6.92894C3.9091 6.98971 3.94324 7.04705 4.00068 7.08912C4.05805 7.13115 4.13432 7.15483 4.21373 7.15516L4.21373 7.15517Z" />
<path d="M6.63156 7.15513H6.64248C6.72381 7.15653 6.80257 7.13341 6.86191 7.09083C6.92118 7.04818 6.95635 6.98944 6.95979 6.92721L7.14582 3.07298H7.14574C7.14875 3.01059 7.11929 2.94982 7.06398 2.90398C7.00859 2.85814 6.9318 2.83092 6.85033 2.82829C6.76702 2.82172 6.68394 2.84231 6.62145 2.88507C6.55895 2.92777 6.5229 2.9887 6.5221 3.05289L6.33388 6.90712H6.33395C6.32977 6.97036 6.35893 7.03224 6.41491 7.07887C6.47081 7.1255 6.54891 7.15299 6.63156 7.15512L6.63156 7.15513Z" />
</svg>
