<svg width="29" height="34" viewBox="0 0 29 34" fill="none" xmlns="http://www.w3.org/2000/svg">
<rect width="29" height="33.0512" rx="14.5" fill="#F1F1F1"/>
<path d="M21.5895 8.42348H17.8759V7.74827C17.8759 6.63136 16.9672 5.72266 15.8502 5.72266H13.1494C12.0325 5.72266 11.1238 6.63136 11.1238 7.74827V8.42348H7.41018C6.47941 8.42348 5.72217 9.18072 5.72217 10.1115V12.4747C5.72217 12.8476 6.02449 13.1499 6.39737 13.1499H6.76637L7.34971 25.4C7.40123 26.4818 8.28997 27.3292 9.373 27.3292H19.6267C20.7097 27.3292 21.5985 26.4818 21.65 25.4L22.2333 13.1499H22.6023C22.9752 13.1499 23.2775 12.8476 23.2775 12.4747V10.1115C23.2775 9.18072 22.5203 8.42348 21.5895 8.42348ZM12.4742 7.74827C12.4742 7.37598 12.7771 7.07307 13.1494 7.07307H15.8502C16.2225 7.07307 16.5255 7.37598 16.5255 7.74827V8.42348H12.4742V7.74827ZM7.07258 10.1115C7.07258 9.92534 7.22404 9.77389 7.41018 9.77389H21.5895C21.7756 9.77389 21.9271 9.92534 21.9271 10.1115V11.7995H7.07258V10.1115ZM20.3011 25.3357C20.293 25.5091 20.2184 25.6727 20.0928 25.7925C19.9672 25.9123 19.8002 25.979 19.6267 25.9788H9.373C9.19943 25.979 9.03247 25.9123 8.90685 25.7925C8.78124 25.6727 8.70665 25.5091 8.6986 25.3357L8.1183 13.1499H20.8814L20.3011 25.3357Z" fill="black"/>
<path d="M14.5 24.6281C14.8728 24.6281 15.1752 24.3258 15.1752 23.9529V15.1752C15.1752 14.8023 14.8728 14.5 14.5 14.5C14.1271 14.5 13.8248 14.8023 13.8248 15.1752V23.9529C13.8248 24.3258 14.127 24.6281 14.5 24.6281ZM17.876 24.6281C18.2489 24.6281 18.5512 24.3258 18.5512 23.9529V15.1752C18.5512 14.8023 18.2489 14.5 17.876 14.5C17.5031 14.5 17.2008 14.8023 17.2008 15.1752V23.9529C17.2008 24.3258 17.5031 24.6281 17.876 24.6281ZM11.1239 24.6281C11.4968 24.6281 11.7991 24.3258 11.7991 23.9529V15.1752C11.7991 14.8023 11.4968 14.5 11.1239 14.5C10.7511 14.5 10.4487 14.8023 10.4487 15.1752V23.9529C10.4487 24.3258 10.751 24.6281 11.1239 24.6281Z" fill="black"/>
</svg>
