<svg width="26" height="26" viewBox="0 0 26 26" fill="none" xmlns="http://www.w3.org/2000/svg">
<path d="M10.125 12.1247C9.625 11.6247 8.875 11.6247 8.375 12.1247C7.875 12.6247 7.875 13.3747 8.375 13.8747L12.125 17.6247C12.375 17.8747 12.625 17.9997 13 17.9997C13.375 17.9997 13.625 17.8747 13.875 17.6247L22.625 7.62473C23 6.99973 23 6.24973 22.375 5.87473C21.875 5.49973 21.125 5.49973 20.75 5.99973L13 14.8747L10.125 12.1247Z" fill="#1D4599"/>
<path d="M24.25 11.75C23.5 11.75 23 12.25 23 13C23 18.5 18.5 23 13 23C7.5 23 3 18.5 3 13C3 10.375 4 7.875 5.875 6C7.75 4 10.25 3 13 3C13.75 3 14.625 3.125 15.375 3.25C16 3.5 16.75 3.125 17 2.375C17.25 1.625 16.75 1.125 16.125 0.875H16C15 0.625 14 0.5 13 0.5C6.125 0.5 0.5 6.125 0.5 13.125C0.5 16.375 1.875 19.625 4.125 21.875C6.5 24.25 9.625 25.5 12.875 25.5C19.75 25.5 25.375 19.875 25.375 13C25.5 12.25 24.875 11.75 24.25 11.75Z" fill="#1D4599"/>
</svg>
