<svg width="17" height="12" viewBox="0 0 17 12" fill="none" xmlns="http://www.w3.org/2000/svg">
<path d="M4.97618 7.56095C6.19082 7.56095 7.1713 6.58046 7.1713 5.36583C7.1713 4.1512 6.19082 3.17071 4.97618 3.17071C3.76155 3.17071 2.78106 4.1512 2.78106 5.36583C2.78106 6.58046 3.76155 7.56095 4.97618 7.56095ZM4.97618 4.63412C5.37862 4.63412 5.70789 4.96339 5.70789 5.36583C5.70789 5.76827 5.37862 6.09754 4.97618 6.09754C4.57374 6.09754 4.24447 5.76827 4.24447 5.36583C4.24447 4.96339 4.57374 4.63412 4.97618 4.63412ZM13.7567 2.439H7.90301V8.29266H2.04935V0.975586H0.585938V11.9512H2.04935V9.75607H15.2201V11.9512H16.6835V5.36583C16.6835 3.74876 15.3737 2.439 13.7567 2.439ZM15.2201 8.29266H9.36643V3.90242H13.7567C14.5615 3.90242 15.2201 4.56095 15.2201 5.36583V8.29266Z" fill="#939393"/>
</svg>
