<svg width="90" height="14" viewBox="0 0 90 14" fill="none" xmlns="http://www.w3.org/2000/svg">
<path d="M11.4171 10.0653V13.8975H0V13.7217C0.820035 13.7217 1.13292 12.5479 1.13292 11.2186V2.83013C1.13292 1.61746 0.858889 0.290276 0 0.290276V0.132812H11.1635V4.14096H10.9876C10.9876 0.329131 5.65026 0.30868 5.65026 0.30868H4.94679V6.85669H6.5296C6.55005 6.85669 8.62161 6.91599 8.83633 4.54996H9.0122V9.33929H8.83633C8.62161 6.9937 6.54801 7.03051 6.5296 7.03051H4.94679V13.7176H5.65026C5.65026 13.7176 11.2433 13.9323 11.2433 10.0612H11.4191L11.4171 10.0653Z" fill="#1D4599"/>
<path d="M27.2911 10.3026C27.2911 10.8118 27.1929 11.2822 26.9987 11.7198C26.8023 12.1574 26.5365 12.5378 26.197 12.8629C25.8576 13.1881 25.4608 13.4437 25.0048 13.6257C24.5488 13.8077 24.0662 13.8997 23.559 13.8997H17.0703V0.0205078H23.5386C24.0212 0.0205078 24.4588 0.124801 24.8473 0.333389C25.2379 0.541976 25.5713 0.813958 25.8432 1.14524C26.1173 1.47653 26.33 1.85485 26.4792 2.2802C26.6306 2.70351 26.7042 3.13091 26.7042 3.56036C26.7042 4.26383 26.5283 4.91004 26.1766 5.4949C25.8248 6.08181 25.3361 6.51125 24.7103 6.78528C25.5058 7.02045 26.1336 7.46012 26.5958 8.10429C27.058 8.74845 27.289 9.4826 27.289 10.3026H27.2911ZM18.0662 0.920297V6.4724H23.148C23.5263 6.4724 23.8719 6.39265 24.1848 6.23723C24.4977 6.07977 24.7676 5.87527 24.9966 5.62169C25.2236 5.36811 25.4036 5.07159 25.5324 4.73213C25.6633 4.39471 25.7287 4.04911 25.7287 3.69737C25.7287 3.32109 25.6653 2.96527 25.5426 2.63194C25.4179 2.30065 25.2482 2.00618 25.0334 1.7526C24.8187 1.49902 24.5611 1.29657 24.2625 1.14524C23.9639 0.99596 23.6306 0.920297 23.2645 0.920297H18.0662ZM26.2952 10.1636C26.2952 9.79957 26.2297 9.44579 26.0989 9.10019C25.968 8.75664 25.786 8.44784 25.5508 8.182C25.3177 7.91411 25.0396 7.70348 24.7206 7.54806C24.3995 7.39059 24.058 7.31288 23.694 7.31288H18.0642V13H23.557C23.9476 13 24.3095 12.9222 24.6408 12.7668C24.9721 12.6094 25.2604 12.3987 25.5017 12.1308C25.743 11.865 25.9353 11.5603 26.0784 11.2229C26.2216 10.8834 26.2931 10.5337 26.2931 10.1656L26.2952 10.1636Z" fill="#1D4599"/>
<path d="M35.5782 13.0775C36.5168 13.0775 37.296 12.9016 37.9136 12.5499C38.5311 12.1981 39.0199 11.736 39.3778 11.1634C39.7356 10.5908 39.9913 9.93845 40.1405 9.20839C40.2898 8.48038 40.3655 7.74214 40.3655 7.00186V0.0244141H41.3634V7.00186C41.3634 7.92619 41.2632 8.81371 41.0608 9.66033C40.8604 10.5069 40.5291 11.2534 40.0731 11.8996C39.617 12.5437 39.024 13.055 38.2939 13.4333C37.5639 13.8116 36.6661 13.9998 35.5966 13.9998C34.5271 13.9998 33.5639 13.8014 32.8216 13.4026C32.0792 13.0059 31.4842 12.4783 31.0343 11.8198C30.5844 11.1613 30.2654 10.4149 30.0752 9.58262C29.887 8.74827 29.793 7.88734 29.793 7.00186V0.0244141H30.7909V7.00186C30.7909 7.77077 30.8666 8.51924 31.0159 9.24929C31.1651 9.97935 31.4269 10.6276 31.797 11.1941C32.1692 11.7605 32.66 12.2165 33.2735 12.5621C33.887 12.9077 34.6539 13.0816 35.5802 13.0816L35.5782 13.0775Z" fill="#1D4599"/>
<path d="M54.4779 0.920204H49.3961V13.8976H48.3982V0.920204H43.3164V0.0224609H54.4758V0.920204H54.4779Z" fill="#1D4599"/>
<path d="M56.6289 13.8977V0.0205078H57.6269V12.9979H65.9131V13.8977H56.6289Z" fill="#1D4599"/>
<path d="M77.2258 12.9979V13.8977H67.9805V0.0205078H77.0479V0.918251H68.9764V6.3722H76.0315V7.23109H68.9764V12.9959H77.2238L77.2258 12.9979Z" fill="#1D4599"/>
<path d="M79.9453 13.8977V0.0205078H85.7121C86.299 0.0205078 86.8389 0.145251 87.3338 0.390648C87.8287 0.638089 88.254 0.967331 88.614 1.37837C88.9718 1.78737 89.252 2.25157 89.4544 2.76691C89.6548 3.28224 89.7551 3.79962 89.7551 4.32109C89.7551 4.84256 89.6773 5.32108 89.5219 5.79551C89.3665 6.27199 89.1436 6.69939 88.8573 7.07567C88.571 7.45399 88.2254 7.76687 87.8226 8.01431C87.4177 8.26175 86.9759 8.42331 86.4933 8.50306L89.9514 13.8957H88.8001L85.4381 8.65848H80.9412V13.8957H79.9453V13.8977ZM80.9412 7.74028H85.8083C86.252 7.74028 86.6549 7.64417 87.0209 7.44581C87.3849 7.25154 87.6978 6.99387 87.9596 6.67485C88.2193 6.35584 88.4197 5.99183 88.5567 5.58079C88.6937 5.16975 88.7612 4.75053 88.7612 4.32109C88.7612 3.89164 88.6794 3.44993 88.5178 3.04093C88.3542 2.62989 88.1334 2.26998 87.8532 1.9571C87.5731 1.64422 87.2479 1.39269 86.8778 1.20455C86.5056 1.01641 86.1068 0.92234 85.6753 0.92234H80.9453V7.74437L80.9412 7.74028Z" fill="#1D4599"/>
</svg>
