<svg width="22" height="22" viewBox="0 0 22 22" fill="none" xmlns="http://www.w3.org/2000/svg">
<circle cx="11" cy="11" r="11" fill="#FFFBE3"/>
<g clip-path="url(#clip0_599_9080)">
<path d="M15.857 10.9997C15.6203 10.9997 15.4284 11.1916 15.4284 11.4283V15.7139C15.4284 15.9506 15.2366 16.1425 14.9999 16.1425H7.2857C7.049 16.1425 6.85712 15.9506 6.85712 15.7139V7.14263C6.85712 6.90593 7.049 6.71406 7.2857 6.71406H12.4285C12.6652 6.71406 12.8571 6.52218 12.8571 6.28548C12.8571 6.04878 12.6652 5.85693 12.4285 5.85693H7.2857C6.57563 5.85693 6 6.43256 6 7.14263V15.7139C6 16.424 6.57563 16.9996 7.2857 16.9996H14.9999C15.71 16.9996 16.2856 16.424 16.2856 15.7139V11.4283C16.2856 11.1916 16.0937 10.9997 15.857 10.9997Z" fill="#9C8F41"/>
<path d="M17.5198 5.48059C17.212 5.17282 16.7947 4.99996 16.3595 5.00001C15.924 4.99875 15.5062 5.17192 15.1994 5.48086L9.55427 11.1255C9.50743 11.1727 9.4721 11.23 9.45098 11.293L8.59386 13.8644C8.51905 14.089 8.64047 14.3317 8.86504 14.4065C8.9086 14.421 8.95423 14.4284 9.00013 14.4284C9.04614 14.4284 9.09187 14.421 9.13556 14.4066L11.707 13.5495C11.7701 13.5284 11.8275 13.4929 11.8745 13.4458L17.5196 7.80069C18.1603 7.16005 18.1604 6.1213 17.5198 5.48059ZM16.9136 7.19511L11.3422 12.7665L9.67769 13.3223L10.2318 11.6599L15.8053 6.08856C16.1117 5.78275 16.608 5.78325 16.9139 6.08966C17.0599 6.23603 17.1422 6.43419 17.1429 6.64098C17.1434 6.84887 17.0609 7.04836 16.9136 7.19511Z" fill="#9C8F41"/>
</g>
<defs>
<clipPath id="clip0_599_9080">
<rect width="12" height="12" fill="white" transform="translate(6 5)"/>
</clipPath>
</defs>
</svg>
