<svg width="12" height="13" viewBox="0 0 12 13" fill="none" xmlns="http://www.w3.org/2000/svg">
<path d="M6.0013 12.3327C5.20408 12.3327 4.45061 12.1795 3.74089 11.873C3.03116 11.567 2.41147 11.1489 1.8818 10.6188C1.35175 10.0892 0.933691 9.46949 0.627635 8.75977C0.321191 8.05004 0.167969 7.29657 0.167969 6.49935C0.167969 5.6924 0.321191 4.9366 0.627635 4.23193C0.933691 3.52688 1.35175 2.90952 1.8818 2.37985C2.41147 1.84979 3.03116 1.43154 3.74089 1.1251C4.45061 0.819043 5.20408 0.666016 6.0013 0.666016C6.80825 0.666016 7.56405 0.819043 8.26872 1.1251C8.97377 1.43154 9.59114 1.84979 10.1208 2.37985C10.6509 2.90952 11.0689 3.52688 11.375 4.23193C11.6814 4.9366 11.8346 5.6924 11.8346 6.49935V7.34518C11.8346 7.91879 11.6379 8.40724 11.2443 8.81052C10.8504 9.21418 10.3666 9.41602 9.79297 9.41602C9.44297 9.41602 9.11727 9.33824 8.81589 9.18268C8.5145 9.02713 8.26658 8.82296 8.07214 8.57018C7.80964 8.83268 7.50105 9.03938 7.14639 9.19027C6.79133 9.34077 6.40964 9.41602 6.0013 9.41602C5.19436 9.41602 4.50661 9.13154 3.93805 8.5626C3.36911 7.99404 3.08464 7.30629 3.08464 6.49935C3.08464 5.6924 3.36911 5.00446 3.93805 4.43552C4.50661 3.86696 5.19436 3.58268 6.0013 3.58268C6.80825 3.58268 7.49619 3.86696 8.06514 4.43552C8.63369 5.00446 8.91797 5.6924 8.91797 6.49935V7.34518C8.91797 7.62713 9.00547 7.84821 9.18047 8.00843C9.35547 8.16904 9.55964 8.24935 9.79297 8.24935C10.0263 8.24935 10.2305 8.16904 10.4055 8.00843C10.5805 7.84821 10.668 7.62713 10.668 7.34518V6.49935C10.668 5.22574 10.2085 4.12946 9.28955 3.21052C8.371 2.29196 7.27491 1.83268 6.0013 1.83268C4.72769 1.83268 3.63141 2.29196 2.71247 3.21052C1.79391 4.12946 1.33464 5.22574 1.33464 6.49935C1.33464 7.77296 1.79391 8.86904 2.71247 9.7876C3.63141 10.7065 4.72769 11.166 6.0013 11.166H8.33463C8.49991 11.166 8.63836 11.222 8.74997 11.334C8.86197 11.4456 8.91797 11.5841 8.91797 11.7493C8.91797 11.9146 8.86197 12.0531 8.74997 12.1647C8.63836 12.2767 8.49991 12.3327 8.33463 12.3327H6.0013ZM6.0013 8.24935C6.48741 8.24935 6.90061 8.07921 7.24089 7.73893C7.58116 7.39865 7.7513 6.98546 7.7513 6.49935C7.7513 6.01324 7.58116 5.60004 7.24089 5.25977C6.90061 4.91949 6.48741 4.74935 6.0013 4.74935C5.51519 4.74935 5.102 4.91949 4.76172 5.25977C4.42144 5.60004 4.2513 6.01324 4.2513 6.49935C4.2513 6.98546 4.42144 7.39865 4.76172 7.73893C5.102 8.07921 5.51519 8.24935 6.0013 8.24935Z" fill="#C1C1C1"/>
</svg>
