<svg width="14" height="15" viewBox="0 0 14 15" fill="none" xmlns="http://www.w3.org/2000/svg">
<path d="M0.60197 1.2366L9.40053 0.00347876C9.45019 -0.00350843 9.50079 5.66096e-05 9.54892 0.0139323C9.59705 0.0278079 9.64157 0.0516699 9.67948 0.0839011C9.71738 0.116132 9.74778 0.15598 9.76861 0.200742C9.78944 0.245505 9.80022 0.294137 9.80021 0.343342V14.6568C9.8002 14.7059 9.78944 14.7545 9.76865 14.7992C9.74786 14.8439 9.71753 14.8837 9.67971 14.9159C9.64188 14.9481 9.59745 14.972 9.54941 14.9859C9.50136 14.9999 9.45083 15.0035 9.40123 14.9966L0.60127 13.7635C0.434412 13.7402 0.28173 13.6586 0.171273 13.5337C0.0608166 13.4089 1.61732e-06 13.2491 0 13.0838V1.91633C1.61732e-06 1.75101 0.0608166 1.59123 0.171273 1.46636C0.28173 1.34149 0.435111 1.25991 0.60197 1.2366ZM10.5002 1.32036H13.3C13.4857 1.32036 13.6637 1.3927 13.795 1.52146C13.9263 1.65022 14 1.82486 14 2.00696V12.9925C14 13.1745 13.9263 13.3492 13.795 13.4779C13.6637 13.6067 13.4857 13.679 13.3 13.679H10.5002V1.32036ZM5.74041 7.49971L7.70032 4.75333H6.0204L4.90045 6.32288L3.78051 4.75333H2.10059L4.0605 7.49971L2.10059 10.2461H3.78051L4.90045 8.67653L6.0204 10.2461H7.70032L5.74041 7.49971Z" fill="black"/>
</svg>
