<svg width="20" height="21" viewBox="0 0 20 21" fill="none" xmlns="http://www.w3.org/2000/svg">
<path d="M1.32075 1.71887L13.3171 0.00483548C13.3848 -0.00487672 13.4538 7.86874e-05 13.5194 0.0193659C13.5851 0.038653 13.6458 0.0718212 13.6974 0.116623C13.7491 0.161424 13.7906 0.216812 13.819 0.279032C13.8474 0.341252 13.8621 0.40885 13.8621 0.477246V20.3729C13.8621 20.4412 13.8474 20.5087 13.819 20.5708C13.7907 20.633 13.7493 20.6883 13.6978 20.7331C13.6462 20.7779 13.5856 20.8111 13.5201 20.8304C13.4546 20.8498 13.3857 20.8549 13.3181 20.8453L1.3198 19.1313C1.0923 19.0989 0.884124 18.9855 0.733522 18.8119C0.58292 18.6383 0.500002 18.4162 0.5 18.1864V2.6637C0.500002 2.4339 0.58292 2.21182 0.733522 2.03825C0.884124 1.86468 1.09325 1.75128 1.32075 1.71887ZM14.8164 1.83531H18.6339C18.887 1.83531 19.1297 1.93586 19.3087 2.11483C19.4877 2.29381 19.5882 2.53656 19.5882 2.78967V18.0595C19.5882 18.3126 19.4877 18.5554 19.3087 18.7343C19.1297 18.9133 18.887 19.0139 18.6339 19.0139H14.8164V1.83531ZM8.32675 10.4246L10.999 6.60713H8.70849L7.18151 8.78881L5.65452 6.60713H3.36405L6.03627 10.4246L3.36405 14.242H5.65452L7.18151 12.0604L8.70849 14.242H10.999L8.32675 10.4246Z" fill="#009927"/>
</svg>
