<svg width="33" height="33" viewBox="0 0 33 33" fill="none" xmlns="http://www.w3.org/2000/svg">
<circle cx="16.5" cy="16.5" r="16.5" fill="#E1E9FA"/>
<path d="M26.9072 11.4138C26.8074 11.2046 26.557 11.1159 26.3476 11.2156C26.1384 11.3154 26.0496 11.5659 26.1494 11.7752C27.0872 13.7419 26.6817 16.0989 25.1401 17.6404L24.4762 18.3043C24.2083 18.1857 23.9261 18.0998 23.6371 18.0485C23.9954 17.642 24.2135 17.1091 24.2135 16.5259V15.6878C24.2135 14.4165 23.1792 13.3822 21.9079 13.3822C20.6366 13.3822 19.6023 14.4165 19.6023 15.6878V16.5259C19.6023 17.1092 19.8205 17.6423 20.179 18.0488C19.5945 18.153 19.0503 18.3977 18.5899 18.7532C18.4026 17.9089 17.6484 17.2754 16.7485 17.2754C15.8493 17.2754 15.0955 17.9079 14.9075 18.7513C14.4476 18.3962 13.9036 18.1523 13.3182 18.0485C13.6766 17.642 13.8947 17.1091 13.8947 16.5259V15.6878C13.8947 14.4165 12.8604 13.3822 11.5891 13.3822C10.3178 13.3822 9.28353 14.4165 9.28353 15.6878V16.5259C9.28353 17.109 9.50161 17.6419 9.85988 18.0484C9.56831 18.1001 9.2837 18.1871 9.01374 18.3074L8.34672 17.6403C7.37297 16.6666 6.83671 15.372 6.83671 13.9949C6.83671 12.6179 7.37293 11.3232 8.34672 10.3495C9.32043 9.37581 10.6151 8.83955 11.9921 8.83955C13.3692 8.83955 14.6638 9.37581 15.6375 10.3495L16.4466 11.1586C16.6105 11.3225 16.8763 11.3225 17.0403 11.1586L17.8493 10.3495C19.3909 8.80794 21.748 8.40235 23.7146 9.3403C23.9239 9.44004 24.1744 9.35138 24.2742 9.14212C24.374 8.93287 24.2853 8.68234 24.076 8.58252C21.7891 7.49178 19.0482 7.96335 17.2556 9.75588L16.7434 10.2681L16.2312 9.75588C15.0989 8.62358 13.5934 8 11.9921 8C10.3909 8 8.88538 8.62358 7.75308 9.75588C5.41564 12.0933 5.41564 15.8966 7.75308 18.234L14.6533 25.1342C15.2116 25.6925 15.9539 26 16.7434 26C17.533 26 18.2753 25.6925 18.8336 25.1342L25.7338 18.234C27.5262 16.4416 27.9978 13.7008 26.9072 11.4138ZM20.4419 15.6878C20.4419 14.8795 21.0995 14.2218 21.9079 14.2218C22.7163 14.2218 23.374 14.8795 23.374 15.6878V16.526C23.374 17.3343 22.7163 17.992 21.9079 17.992C21.0995 17.992 20.4419 17.3343 20.4419 16.526V15.6878ZM20.8155 18.8315H23.0003C23.2806 18.8315 23.559 18.874 23.8249 18.9556L19.9305 22.85C19.7416 21.8551 19.0977 21.0199 18.2239 20.5691C18.6526 19.5245 19.6773 18.8315 20.8155 18.8315ZM16.7485 18.1149C17.3258 18.1149 17.7954 18.5846 17.7954 19.1619C17.7954 19.7392 17.3258 20.2089 16.7485 20.2089C16.1712 20.2089 15.7016 19.7392 15.7016 19.1619C15.7016 18.5846 16.1712 18.1149 16.7485 18.1149ZM10.1231 15.6878C10.1231 14.8795 10.7807 14.2218 11.5891 14.2218C12.3975 14.2218 13.0551 14.8795 13.0551 15.6878V16.526C13.0551 17.3343 12.3975 17.992 11.5891 17.992C10.7807 17.992 10.1231 17.3343 10.1231 16.526V15.6878ZM10.4967 18.8315H12.6815C13.8209 18.8315 14.8397 19.5202 15.2701 20.562C14.3909 21.0103 13.742 21.8467 13.5507 22.8444L9.66423 18.9579C9.93255 18.8747 10.2138 18.8315 10.4967 18.8315ZM18.2399 24.5407C17.8401 24.9404 17.3087 25.1605 16.7434 25.1605C16.1781 25.1605 15.6467 24.9404 15.2469 24.5407L14.3315 23.6252V23.457C14.3315 22.1289 15.412 21.0485 16.7401 21.0485C18.0682 21.0485 19.1487 22.1289 19.1487 23.457V23.6319L18.2399 24.5407Z" fill="#1D4599"/>
<path d="M25.4354 10.4724C25.5458 10.4724 25.6541 10.4274 25.7322 10.3494C25.8102 10.2713 25.8552 10.163 25.8552 10.0526C25.8552 9.94219 25.8103 9.83388 25.7322 9.75581C25.6541 9.67773 25.5458 9.63281 25.4354 9.63281C25.325 9.63281 25.2167 9.67773 25.1386 9.75581C25.0606 9.83388 25.0156 9.94219 25.0156 10.0526C25.0156 10.163 25.0605 10.2713 25.1386 10.3494C25.2167 10.4274 25.325 10.4724 25.4354 10.4724Z" fill="#1D4599"/>
</svg>
