<svg width="33" height="33" viewBox="0 0 33 33" fill="none" xmlns="http://www.w3.org/2000/svg">
<circle cx="16.5" cy="16.5" r="16.5" fill="#fffbe3"/>
<path d="M20.8358 17.1137C20.7778 17.0544 20.7086 17.0073 20.6322 16.975C20.5558 16.9427 20.4737 16.926 20.3908 16.9258C20.3078 16.9256 20.2257 16.9418 20.1491 16.9737C20.0725 17.0055 20.003 17.0523 19.9447 17.1113C19.8864 17.1703 19.8404 17.2402 19.8094 17.3172C19.7784 17.3941 19.763 17.4764 19.7641 17.5594C19.7653 17.6423 19.7829 17.7242 19.816 17.8002C19.8491 17.8763 19.897 17.945 19.957 18.0023C20.4872 18.5241 20.9079 19.1465 21.1944 19.8331C21.4808 20.5197 21.6272 21.2565 21.625 22.0005C21.625 22.7649 19.4338 23.8755 16 23.8755C12.5662 23.8755 10.375 22.7643 10.375 21.9992C10.3729 21.2604 10.5174 20.5285 10.8001 19.8459C11.0827 19.1633 11.498 18.5436 12.0218 18.0225C12.081 17.9648 12.1282 17.8958 12.1606 17.8197C12.193 17.7435 12.2099 17.6617 12.2105 17.579C12.211 17.4962 12.1951 17.4142 12.1637 17.3377C12.1322 17.2611 12.0859 17.1916 12.0274 17.1331C11.9689 17.0746 11.8994 17.0283 11.8228 16.9968C11.7463 16.9654 11.6643 16.9495 11.5815 16.95C11.4988 16.9506 11.417 16.9675 11.3408 16.9999C11.2647 17.0323 11.1957 17.0795 11.138 17.1387C10.4976 17.7757 9.98997 18.5334 9.64444 19.3679C9.29892 20.2025 9.12237 21.0972 9.12503 22.0005C9.12503 24.0302 12.6669 25.1255 16 25.1255C19.3332 25.1255 22.875 24.0302 22.875 22.0005C22.8778 21.0911 22.6989 20.1904 22.3487 19.3513C21.9985 18.5121 21.4841 17.7513 20.8358 17.1137Z" fill="#9c8f41"/>
<path d="M16 17.625C16.8653 17.625 17.7112 17.3684 18.4306 16.8877C19.1501 16.407 19.7108 15.7237 20.042 14.9242C20.3731 14.1248 20.4597 13.2451 20.2909 12.3965C20.1221 11.5478 19.7054 10.7683 19.0936 10.1564C18.4817 9.54456 17.7022 9.12788 16.8535 8.95907C16.0049 8.79026 15.1252 8.8769 14.3258 9.20803C13.5263 9.53916 12.8431 10.0999 12.3623 10.8194C11.8816 11.5388 11.625 12.3847 11.625 13.25C11.6263 14.4099 12.0877 15.5219 12.9079 16.3421C13.7281 17.1623 14.8401 17.6237 16 17.625ZM16 10.125C16.6181 10.125 17.2223 10.3083 17.7362 10.6517C18.2501 10.995 18.6506 11.4831 18.8871 12.0541C19.1236 12.6251 19.1855 13.2535 19.065 13.8597C18.9444 14.4658 18.6467 15.0227 18.2097 15.4597C17.7727 15.8967 17.2158 16.1944 16.6097 16.315C16.0035 16.4355 15.3751 16.3736 14.8041 16.1371C14.2331 15.9006 13.745 15.5001 13.4017 14.9862C13.0583 14.4723 12.875 13.8681 12.875 13.25C12.876 12.4215 13.2055 11.6272 13.7914 11.0414C14.3772 10.4555 15.1715 10.126 16 10.125Z" fill="#9c8f41"/>
</svg>
