<svg width="15" height="16" viewBox="0 0 15 16" fill="none" xmlns="http://www.w3.org/2000/svg">
<path d="M13.3697 9.79501C13.3552 9.77076 13.34 9.74752 13.3247 9.72702C13.1732 9.51526 12.948 9.37528 12.691 9.333C12.4352 9.29076 12.176 9.35099 11.965 9.50251L9.16996 11.4983H6.24997C6.11222 11.4983 5.99998 11.3863 5.99998 11.2483C5.99998 11.1103 6.11222 10.9983 6.24997 10.9983H7.87498C8.35747 10.9983 8.74999 10.6058 8.74999 10.1233C8.74999 10.1205 8.74973 10.0975 8.74949 10.095C8.73399 9.61279 8.32724 9.23679 7.855 9.2483H4.60275C4.3145 9.25079 4.03375 9.35407 3.8125 9.53855L2.59 10.5561C2.53299 10.6038 2.5 10.6741 2.5 10.7483V13.7483C2.5 13.8866 2.612 13.9983 2.74999 13.9983H8.95275C9.35875 13.9978 9.75426 13.8548 10.0668 13.596L13.0975 11.0918C13.5092 10.7985 13.6287 10.229 13.3697 9.79501ZM12.7935 10.6955L9.74822 13.2108C9.52472 13.3958 9.24197 13.4978 8.95246 13.4983H2.99998V10.8655L4.13271 9.92248C4.26572 9.81174 4.43397 9.74972 4.60498 9.74823L7.86297 9.74799C8.07021 9.74773 8.24321 9.9045 8.24998 10.1233C8.24998 10.33 8.08173 10.4983 7.87498 10.4983H6.24997C5.83647 10.4983 5.49997 10.8348 5.49997 11.2483C5.49997 11.6618 5.83647 11.9983 6.24997 11.9983H9.24997C9.30197 11.9983 9.35271 11.982 9.39572 11.9518L12.2562 9.90901C12.3592 9.835 12.4845 9.80626 12.61 9.82624C12.7352 9.84699 12.8447 9.91498 12.92 10.02C12.9275 10.0302 12.9342 10.0407 12.9407 10.0515C13.0672 10.2633 13.0085 10.5415 12.7935 10.6955Z" fill="#939393"/>
<path d="M2.74251 10.252H0V10.752H2.49249V14.502H0V15.0019H2.74251C2.8805 15.0019 2.9925 14.8902 2.9925 14.752V10.5019C2.9925 10.3637 2.8805 10.252 2.74251 10.252Z" fill="#939393"/>
<path d="M1.25 12.498C0.836504 12.498 0.5 12.8346 0.5 13.248C0.5 13.6615 0.836504 13.998 1.25 13.998C1.6635 13.998 2 13.6615 2 13.248C2 12.8346 1.6635 12.498 1.25 12.498ZM1.25 13.498C1.11225 13.498 1.00001 13.386 1.00001 13.248C1.00001 13.1101 1.11225 12.9981 1.25 12.9981C1.38775 12.9981 1.49999 13.1101 1.49999 13.248C1.49999 13.386 1.38775 13.498 1.25 13.498Z" fill="#939393"/>
<path d="M14.75 7.75H0.24999C0.112002 7.75 0 7.86174 0 7.99999C0 8.96474 0.78501 9.74998 1.74999 9.74998H13.25C14.2147 9.74998 15 8.96474 15 7.99999C15 7.86177 14.8883 7.75 14.75 7.75ZM13.25 9.25H1.74999C1.14624 9.25 0.64125 8.81975 0.525234 8.25001H14.4747C14.3587 8.81975 13.8538 9.25 13.25 9.25Z" fill="#939393"/>
<path d="M7.50001 1.24805C3.91601 1.24805 1 4.16405 1 7.74806V7.99805C1 8.1363 1.112 8.24804 1.24999 8.24804H13.75C13.8883 8.24804 14 8.1363 14 7.99805V7.74806C14 4.16402 11.0842 1.24805 7.50001 1.24805ZM1.50001 7.74803C1.50001 4.43977 4.19175 1.74803 7.50001 1.74803C10.8083 1.74803 13.5 4.43977 13.5 7.74803H1.50001Z" fill="#939393"/>
<path d="M3.39165 4.10156C3.21689 4.29806 3.05491 4.50832 2.91016 4.72682L3.3269 5.00306C3.45892 4.80404 3.6064 4.61229 3.76539 4.43355L3.39165 4.10156Z" fill="#939393"/>
<path d="M7.50202 2.25195C6.09803 2.25271 4.76127 2.78319 3.73828 3.74495L4.08079 4.1092C5.01079 3.23469 6.22603 2.7527 7.50229 2.75196L7.50202 2.25195Z" fill="#939393"/>
<path d="M8.25 0H6.75V0.50001H8.25V0Z" fill="#939393"/>
<path d="M7.75001 0.25H7.25V1.50001H7.75001V0.25Z" fill="#939393"/>
</svg>
