<svg width="30" height="30" viewBox="0 0 30 30" fill="none" xmlns="http://www.w3.org/2000/svg">
<path d="M22.9 15.9376H18.75C15.6375 15.9376 14.0625 14.1751 14.0625 10.6876V7.10007C14.0625 5.82507 14.2125 4.00007 15.5375 3.00007C16.65 2.17507 18.25 2.11257 20.6125 2.80007C23.7125 3.70007 26.3 6.28757 27.2 9.38757C27.8875 11.7376 27.825 13.3501 27 14.4501C26 15.7876 24.175 15.9376 22.9 15.9376ZM17.85 4.20007C17.3375 4.20007 16.9375 4.30007 16.675 4.50007C16.1875 4.86257 15.95 5.71257 15.95 7.10007V10.7001C15.95 13.5001 17.025 14.0751 18.7625 14.0751H22.9125C24.2875 14.0751 25.1375 13.8376 25.5125 13.3501C25.95 12.7751 25.9125 11.6251 25.425 9.93757C24.7 7.47507 22.575 5.33757 20.1125 4.62507C19.1875 4.33757 18.4375 4.20007 17.85 4.20007Z" fill="#DF9815"/>
<path d="M13.838 28.4374C13.1755 28.4374 12.5005 28.3874 11.8255 28.2749C6.71296 27.4499 2.55046 23.2999 1.72546 18.1874C0.662964 11.6124 4.90046 5.41241 11.388 4.08741C11.9005 3.98741 12.388 4.31241 12.5005 4.81241C12.6005 5.32491 12.2755 5.81241 11.7755 5.92491C6.28796 7.04991 2.68796 12.2999 3.60046 17.8874C4.30046 22.2124 7.81296 25.7249 12.138 26.4249C17.7505 27.3249 22.988 23.7124 24.1005 18.1999C24.2005 17.6874 24.7005 17.3624 25.2005 17.4624C25.713 17.5624 26.038 18.0624 25.938 18.5624C24.7505 24.3999 19.6505 28.4374 13.838 28.4374Z" fill="#DF9815"/>
</svg>
