<svg width="21" height="20" viewBox="0 0 21 20" fill="none" xmlns="http://www.w3.org/2000/svg">
<path d="M13.0856 9.25L12.1856 10.17C11.4656 10.89 11.0156 11.5 11.0156 13H9.01562V12.5C9.01562 11.39 9.46562 10.39 10.1856 9.67L11.4256 8.41C11.7956 8.05 12.0156 7.55 12.0156 7C12.0156 5.89 11.1156 5 10.0156 5C9.48519 5 8.97648 5.21071 8.60141 5.58579C8.22634 5.96086 8.01562 6.46957 8.01562 7H6.01562C6.01562 5.93913 6.43705 4.92172 7.1872 4.17157C7.93734 3.42143 8.95476 3 10.0156 3C11.0765 3 12.0939 3.42143 12.8441 4.17157C13.5942 4.92172 14.0156 5.93913 14.0156 7C14.0156 7.88 13.6556 8.67 13.0856 9.25ZM11.0156 17H9.01562V15H11.0156V17ZM10.0156 0C8.70241 0 7.40205 0.258658 6.18879 0.761205C4.97553 1.26375 3.87314 2.00035 2.94456 2.92893C1.06919 4.8043 0.015625 7.34784 0.015625 10C0.015625 12.6522 1.06919 15.1957 2.94456 17.0711C3.87314 17.9997 4.97553 18.7362 6.18879 19.2388C7.40205 19.7413 8.70241 20 10.0156 20C12.6678 20 15.2113 18.9464 17.0867 17.0711C18.9621 15.1957 20.0156 12.6522 20.0156 10C20.0156 4.47 15.5156 0 10.0156 0Z" fill="#C6CACC"/>
</svg>
