<svg width="16" height="16" viewBox="0 0 16 16" fill="none" xmlns="http://www.w3.org/2000/svg">
<path d="M15.0707 14.396L10.9797 10.4055C11.9628 9.25428 12.453 7.77767 12.3484 6.28286C12.2438 4.78805 11.5524 3.39013 10.418 2.37989C9.28369 1.36965 7.79371 0.824891 6.25807 0.858926C4.72243 0.892961 3.25936 1.50317 2.17321 2.56262C1.08707 3.62207 0.461483 5.04919 0.426591 6.54709C0.391698 8.04499 0.950187 9.49835 1.98588 10.6048C3.02156 11.7113 4.45471 12.3857 5.98719 12.4877C7.51966 12.5898 9.03346 12.1116 10.2137 11.1527L14.3047 15.1431L15.0707 14.396ZM1.52785 6.68872C1.52785 5.74815 1.81379 4.82871 2.34951 4.04665C2.88522 3.2646 3.64666 2.65506 4.53753 2.29512C5.4284 1.93518 6.40868 1.841 7.35442 2.0245C8.30016 2.20799 9.16888 2.66092 9.85072 3.326C10.5326 3.99109 10.9969 4.83845 11.185 5.76095C11.3731 6.68345 11.2766 7.63964 10.9076 8.50862C10.5386 9.37759 9.91367 10.1203 9.11191 10.6429C8.31015 11.1654 7.36754 11.4443 6.40327 11.4443C5.11067 11.4429 3.87142 10.9414 2.95741 10.0499C2.0434 9.15836 1.52928 7.94956 1.52785 6.68872Z" fill="#A1A1A1"/>
</svg>
