<svg width="20" height="20" viewBox="0 0 20 20" fill="none" xmlns="http://www.w3.org/2000/svg">
<g clip-path="url(#clip0_2939_8595)">
<path d="M4.50685 13.7168C5.27446 12.9738 6.29074 12.5426 7.35842 12.5068C7.49594 12.3528 7.61877 12.1862 7.72529 12.0093C7.60873 11.9624 7.51498 11.9202 7.45123 11.889C7.2587 11.9209 7.06389 11.9371 6.86873 11.9374C6.09948 11.9469 5.35437 11.6691 4.77904 11.1584C4.74691 11.1254 4.72236 11.0859 4.70712 11.0425C4.69187 10.9991 4.68631 10.9529 4.6908 10.9071C4.6953 10.8613 4.70975 10.817 4.73314 10.7774C4.75653 10.7378 4.78831 10.7038 4.82623 10.6777C5.07211 10.5138 5.27368 10.2917 5.41303 10.0311C5.55238 9.77049 5.62519 9.4795 5.62498 9.18399V9.06242C5.62498 8.97954 5.6579 8.90006 5.71651 8.84145C5.77511 8.78285 5.8546 8.74992 5.93748 8.74992C6.02036 8.74992 6.09984 8.78285 6.15845 8.84145C6.21705 8.90006 6.24998 8.97954 6.24998 9.06242V9.1843C6.25027 9.51008 6.18467 9.83255 6.05712 10.1323C5.92958 10.4321 5.74272 10.703 5.50779 10.9287C5.91702 11.1805 6.38825 11.3133 6.86873 11.3124C7.06043 11.3122 7.25165 11.2932 7.43967 11.2559C7.51295 11.2419 7.5888 11.2541 7.65404 11.2902C7.77065 11.3518 7.89111 11.4058 8.01467 11.4518C8.1614 11.1357 8.26685 10.802 8.32842 10.459C7.85798 10.2255 7.44217 9.89526 7.10823 9.48991C6.77428 9.08456 6.52974 8.61323 6.3906 8.1068C6.33278 8.11705 6.2743 8.12311 6.2156 8.12492C5.88562 8.12 5.57052 7.98673 5.33716 7.75337C5.1038 7.52 4.97052 7.20491 4.9656 6.87492C4.96563 6.65477 5.02408 6.43857 5.13498 6.24839C5.24588 6.05821 5.40526 5.90087 5.59685 5.79242C5.6225 5.16308 5.78299 4.54657 6.06748 3.98461C6.02576 3.94865 5.98641 3.91002 5.94967 3.86899C5.7851 3.66415 5.6783 3.41903 5.64034 3.15902C5.60238 2.89902 5.63464 2.6336 5.73377 2.39026C5.8329 2.14692 5.99531 1.93451 6.20415 1.77505C6.41299 1.6156 6.66068 1.51489 6.92154 1.48336C7.22538 1.44757 7.53288 1.50627 7.80217 1.65149C7.99777 1.23809 8.31011 0.890997 8.70067 0.653041C9.09123 0.415085 9.54291 0.296676 9.99998 0.312425C10.457 0.296676 10.9087 0.415085 11.2993 0.653041C11.6898 0.890997 12.0022 1.23809 12.1978 1.65149C12.4086 1.53695 12.6442 1.47562 12.8842 1.47281C13.1241 1.46999 13.3611 1.52579 13.5745 1.63536C13.788 1.74493 13.9715 1.90494 14.1091 2.10152C14.2467 2.2981 14.3342 2.52529 14.364 2.76336C14.3881 2.95659 14.3736 3.15268 14.3212 3.34024C14.2689 3.52779 14.1797 3.70306 14.059 3.85586C14.243 4.2092 14.3395 4.60155 14.3403 4.99992V5.79586C14.5273 5.90331 14.6832 6.05747 14.7927 6.24324C14.9023 6.42902 14.9617 6.64006 14.9652 6.8557C14.9687 7.07134 14.9161 7.28419 14.8127 7.47342C14.7092 7.66266 14.5584 7.82178 14.375 7.93524V9.1843C14.3747 9.47962 14.4477 9.7704 14.5875 10.0305C14.7251 10.2914 14.9261 10.5135 15.1719 10.6765C15.2102 10.7023 15.2423 10.7363 15.2661 10.7759C15.2898 10.8156 15.3045 10.86 15.3092 10.9059C15.3139 10.9519 15.3084 10.9984 15.2931 11.042C15.2779 11.0856 15.2532 11.1253 15.2209 11.1584C14.8608 11.4762 14.4328 11.7073 13.9695 11.834C13.5062 11.9607 13.0201 11.9796 12.5484 11.8893C12.459 11.9331 12.309 11.9993 12.1181 12.0696C12.256 12.2385 12.4189 12.3853 12.6012 12.5049C13.7445 12.5268 14.8334 12.9973 15.6329 13.8148C16.4325 14.6323 16.8786 15.7314 16.875 16.8749V19.6874C16.875 19.7703 16.8421 19.8498 16.7834 19.9084C16.7248 19.967 16.6454 19.9999 16.5625 19.9999H13.75C13.7069 19.9981 13.6646 19.9878 13.6256 19.9695C13.5865 19.9512 13.5515 19.9253 13.5226 19.8933C13.4936 19.8614 13.4713 19.824 13.457 19.7833C13.4427 19.7426 13.4366 19.6995 13.439 19.6565C13.4799 19.2323 13.5347 18.8096 13.6034 18.389C13.7744 17.2574 14.0571 16.1455 14.4475 15.0696C14.4612 15.0304 14.4826 14.9944 14.5104 14.9635C14.5382 14.9327 14.5719 14.9077 14.6094 14.89C14.647 14.8724 14.6877 14.8624 14.7292 14.8606C14.7707 14.8588 14.8121 14.8654 14.8511 14.8798C14.89 14.8942 14.9257 14.9163 14.956 14.9447C14.9863 14.973 15.0106 15.0072 15.0276 15.045C15.0446 15.0829 15.0539 15.1238 15.0549 15.1653C15.0558 15.2068 15.0486 15.2481 15.0334 15.2868C14.6572 16.3246 14.385 17.3971 14.2206 18.4887C14.174 18.7668 14.1334 19.0596 14.0975 19.3749H16.25V16.8749C16.2498 16.353 16.1406 15.8369 15.9295 15.3596C15.7184 14.8823 15.41 14.4543 15.024 14.1031C14.7723 13.8749 14.4912 13.6815 14.1881 13.5281C13.7514 14.4321 13.3917 15.3714 13.1128 16.3359C13.0978 16.3887 13.0691 16.4366 13.0297 16.4747C12.9902 16.5128 12.9414 16.5399 12.8881 16.5531C10.9866 16.9823 9.01335 16.9823 7.11185 16.5531C7.05858 16.5399 7.00974 16.5128 6.97028 16.4747C6.93082 16.4366 6.90215 16.3887 6.88717 16.3359C6.60831 15.3714 6.24859 14.4321 5.81185 13.5281C5.55762 13.6583 5.31874 13.8166 5.09967 13.9999C5.87437 15.6987 6.35778 17.5157 6.52967 19.3749H12.5C12.5829 19.3749 12.6623 19.4078 12.721 19.4665C12.7796 19.5251 12.8125 19.6045 12.8125 19.6874C12.8125 19.7703 12.7796 19.8498 12.721 19.9084C12.6623 19.967 12.5829 19.9999 12.5 19.9999H6.24967C6.173 19.9972 6.09979 19.9674 6.04295 19.9159C5.98611 19.8643 5.94931 19.7944 5.93904 19.7184C5.79368 17.9077 5.35087 16.1334 4.62842 14.4668C4.05797 15.1392 3.74644 15.9932 3.74998 16.8749V19.3749H4.99998C5.08286 19.3749 5.16234 19.4078 5.22095 19.4665C5.27955 19.5251 5.31248 19.6045 5.31248 19.6874C5.31248 19.7703 5.27955 19.8498 5.22095 19.9084C5.16234 19.967 5.08286 19.9999 4.99998 19.9999H3.43748C3.3546 19.9999 3.27511 19.967 3.21651 19.9084C3.1579 19.8498 3.12498 19.7703 3.12498 19.6874V16.8749C3.13662 16.2836 3.26465 15.7003 3.50175 15.1584C3.73886 14.6165 4.0804 14.1267 4.50685 13.7168ZM11.3475 12.0521C11.1413 11.6375 11.0221 11.1851 10.9972 10.7227C10.7547 10.7892 10.5062 10.8309 10.2553 10.8471C9.80632 10.8801 9.35505 10.8343 8.92185 10.7118C8.82308 11.1534 8.66686 11.5802 8.45717 11.9812C8.32076 12.2542 8.15779 12.5132 7.9706 12.7543C8.56773 13.1227 9.25389 13.3216 9.95548 13.3297C10.6571 13.3378 11.3476 13.1548 11.9531 12.8002C11.7102 12.5871 11.5054 12.3341 11.3475 12.0521ZM6.87498 7.1093C6.87399 7.51932 6.95394 7.9255 7.11025 8.30455C7.26656 8.68361 7.49615 9.02808 7.78586 9.31822C8.07557 9.60837 8.4197 9.83848 8.79852 9.99536C9.17734 10.1522 9.5834 10.2328 9.99342 10.2324C10.391 10.2307 10.7845 10.1524 11.1525 10.0018C11.1693 9.99763 11.1864 9.99491 11.2037 9.99367C11.6845 9.79504 12.1076 9.47888 12.4344 9.07418C12.7612 8.66949 12.9811 8.18922 13.074 7.67742C13.1299 7.24754 13.147 6.81349 13.125 6.38055C12.5069 6.12688 12.0147 5.63831 11.7565 5.02211C11.6369 5.17304 11.4979 5.30753 11.3431 5.42211C10.6904 5.90732 9.91649 6.20307 9.10654 6.2768L6.87498 6.47899V7.1093ZM12.5059 4.31117C12.4078 4.28305 12.3031 4.26086 12.2019 4.23586C12.237 4.60738 12.3817 4.96009 12.6176 5.24923C12.8535 5.53838 13.17 5.75094 13.5269 5.85992C13.5377 5.86451 13.5482 5.86973 13.5584 5.87555C13.6103 5.88899 13.6619 5.90305 13.7156 5.9118V4.99992C13.7154 4.74093 13.6614 4.48481 13.5572 4.24774C13.2253 4.39251 12.8528 4.41499 12.5059 4.31117ZM6.0331 7.47117C6.10993 7.49519 6.19081 7.50348 6.27092 7.49555C6.25743 7.36723 6.25045 7.23832 6.24998 7.1093V6.53242L5.93123 6.56117C5.8557 6.56675 5.78074 6.5444 5.7206 6.49836C5.63694 6.60612 5.59124 6.7385 5.5906 6.87492C5.59107 7.00852 5.63428 7.13846 5.7139 7.24575C5.79352 7.35303 5.90537 7.43202 6.0331 7.47117ZM6.21654 5.90805L6.49998 5.88242C6.50873 5.8818 6.51623 5.88524 6.52498 5.88524C6.5281 5.88461 6.53092 5.88274 6.53435 5.88242L9.04935 5.6543C9.74488 5.59134 10.4095 5.33753 10.97 4.92086C11.2489 4.72159 11.4477 4.42942 11.5306 4.0968C11.4409 4.0818 11.3537 4.06305 11.2625 4.04992C10.0025 3.87227 8.7192 3.96095 7.4956 4.31024C7.20741 4.39329 6.90134 4.39111 6.61435 4.30399C6.36539 4.80291 6.22956 5.35061 6.21654 5.90805ZM13.7434 2.83867C13.719 2.67809 13.6494 2.52774 13.5429 2.40515C13.4363 2.28255 13.2971 2.19275 13.1415 2.14619C12.9858 2.09963 12.8202 2.09823 12.6638 2.14216C12.5074 2.18608 12.3667 2.27352 12.2581 2.3943C12.2181 2.43943 12.1659 2.47215 12.1079 2.48856C12.0498 2.50497 11.9882 2.50439 11.9305 2.4869C11.8727 2.4694 11.8212 2.43572 11.782 2.38985C11.7428 2.34397 11.7176 2.28782 11.7094 2.22805C11.6256 1.50399 10.875 0.937425 9.99998 0.937425C9.12498 0.937425 8.37435 1.50399 8.2906 2.22805C8.28163 2.28739 8.25603 2.34297 8.21676 2.38835C8.17749 2.43374 8.12616 2.46706 8.06873 2.48446C8.01129 2.50186 7.9501 2.50263 7.89225 2.48667C7.83439 2.47071 7.78225 2.43868 7.74185 2.3943C7.63317 2.27365 7.49248 2.18632 7.33613 2.14247C7.17977 2.09862 7.01418 2.10005 6.85861 2.14659C6.70304 2.19313 6.56388 2.28288 6.4573 2.40539C6.35072 2.52791 6.2811 2.67816 6.25654 2.83867C6.23901 2.97511 6.25647 3.11376 6.30729 3.24158C6.3581 3.36941 6.44059 3.48221 6.54701 3.56937C6.65342 3.65654 6.78026 3.7152 6.91559 3.73984C7.05092 3.76448 7.19029 3.75429 7.3206 3.71024C8.18637 3.46087 9.08307 3.33525 9.98404 3.33711C10.8954 3.33525 11.8025 3.46095 12.679 3.71055C12.8094 3.75424 12.9487 3.76415 13.0839 3.73935C13.2191 3.71454 13.3458 3.65584 13.4521 3.56872C13.5585 3.48161 13.641 3.36895 13.6919 3.24126C13.7429 3.11358 13.7606 2.97507 13.7434 2.83867ZM14.21 6.49711C14.158 6.538 14.0942 6.56092 14.0281 6.56242C13.9351 6.56089 13.8422 6.55421 13.75 6.54242V7.1093C13.7494 7.23927 13.7422 7.36912 13.7284 7.49836C13.8043 7.4966 13.8793 7.48103 13.9497 7.45242C14.0657 7.40723 14.1653 7.32777 14.2351 7.2246C14.3048 7.12144 14.3415 6.99947 14.3403 6.87492C14.3397 6.73806 14.2939 6.60521 14.21 6.49711ZM12.5612 11.2562C13.2234 11.4023 13.9164 11.2858 14.4944 10.9312C14.3116 10.7546 14.1575 10.5507 14.0375 10.3268C13.8486 9.97563 13.7498 9.58306 13.75 9.1843V8.1218C13.7384 8.1218 13.7269 8.12492 13.7156 8.12492C13.679 8.12492 13.6437 8.11774 13.6081 8.11461C13.4657 8.63225 13.2128 9.11287 12.8668 9.52341C12.5209 9.93395 12.09 10.2646 11.604 10.4927C11.622 10.8425 11.6868 11.1883 11.7969 11.5209C11.9854 11.4593 12.1686 11.3825 12.3447 11.2912C12.4103 11.2538 12.4872 11.2414 12.5612 11.2562ZM7.4356 15.9852C8.27957 16.1579 9.13855 16.2465 9.99998 16.2499C10.8614 16.2465 11.7204 16.1579 12.5644 15.9852C12.8416 15.0619 13.1905 14.1617 13.6081 13.2927C13.277 13.1915 12.9336 13.1365 12.5875 13.1293C11.8315 13.6661 10.9272 13.9545 9.99998 13.9545C9.07276 13.9545 8.1685 13.6661 7.41248 13.1293C7.06636 13.1364 6.72289 13.1914 6.39185 13.2927C6.8094 14.1617 7.15838 15.0619 7.4356 15.9852Z" fill="#A1930D"/>
</g>
<defs>
<clipPath id="clip0_2939_8595">
<rect width="20" height="20" fill="white" transform="matrix(-1 0 0 1 20 0)"/>
</clipPath>
</defs>
</svg>
