<svg width="18" height="16" viewBox="0 0 18 16" fill="none" xmlns="http://www.w3.org/2000/svg">
<path d="M1.00915 11.8623C0.797102 12.2294 0.684248 12.6453 0.681685 13.0692C0.679123 13.4931 0.78694 13.9104 0.994533 14.28C1.20059 14.6491 1.50125 14.9568 1.8656 15.1712C2.22995 15.3856 2.64485 15.4991 3.06761 15.5H14.8338C15.2565 15.4991 15.6714 15.3856 16.0358 15.1712C16.4001 14.9568 16.7008 14.6491 16.9068 14.28C17.1144 13.9104 17.2223 13.4931 17.2197 13.0692C17.2171 12.6453 17.1043 12.2294 16.8922 11.8623L11.0099 1.69462C10.5807 0.953077 9.79684 0.5 8.95069 0.5C8.10453 0.5 7.32069 0.953077 6.89146 1.69462L1.00915 11.8623ZM2.00761 12.44L7.89069 2.27231C8.11146 1.89 8.51453 1.65385 8.95069 1.65385C9.38684 1.65385 9.78992 1.89 10.0107 2.27231L15.8938 12.44C16.1207 12.8323 16.1238 13.3185 15.9015 13.7138C15.7957 13.9046 15.641 14.0637 15.4534 14.1748C15.2657 14.286 15.0519 14.3451 14.8338 14.3462H3.06761C2.84952 14.3451 2.63565 14.286 2.448 14.1748C2.26034 14.0637 2.10568 13.9046 1.99992 13.7138C1.8907 13.5191 1.83398 13.2992 1.83533 13.0759C1.83668 12.8526 1.89604 12.6335 2.00761 12.44Z" fill="#A1930D"/>
<path d="M8.95087 13.2885C9.37571 13.2885 9.7201 12.9441 9.7201 12.5192C9.7201 12.0944 9.37571 11.75 8.95087 11.75C8.52604 11.75 8.18164 12.0944 8.18164 12.5192C8.18164 12.9441 8.52604 13.2885 8.95087 13.2885Z" fill="#A1930D"/>
<path d="M7.99023 5.5963L8.37485 10.2117C8.37485 10.3647 8.43563 10.5114 8.54383 10.6196C8.65202 10.7278 8.79876 10.7886 8.95177 10.7886C9.10478 10.7886 9.25152 10.7278 9.35972 10.6196C9.46791 10.5114 9.5287 10.3647 9.5287 10.2117L9.91331 5.5963C9.91331 5.27784 9.721 4.63477 8.95177 4.63477C8.18254 4.63477 7.99023 5.27784 7.99023 5.5963Z" fill="#A1930D"/>
</svg>
