<svg width="21" height="20" viewBox="0 0 21 20" fill="none" xmlns="http://www.w3.org/2000/svg">
<path d="M10.5 15.6245C10.1583 15.6245 9.875 15.3412 9.875 14.9995V12.4995C9.875 12.1578 10.1583 11.8745 10.5 11.8745C10.8417 11.8745 11.125 12.1578 11.125 12.4995V14.9995C11.125 15.3412 10.8417 15.6245 10.5 15.6245Z" fill="#9B9B9B"/>
<path d="M15.1681 18.7995H5.83476C4.3181 18.7995 2.93477 17.6329 2.68477 16.1412L1.57643 9.49953C1.3931 8.46619 1.90143 7.14119 2.72643 6.48286L8.50143 1.85786C9.6181 0.95786 11.3764 0.966193 12.5014 1.86619L18.2764 6.48286C19.0931 7.14119 19.5931 8.46619 19.4264 9.49953L18.3181 16.1329C18.0681 17.6079 16.6514 18.7995 15.1681 18.7995ZM10.4931 2.44119C10.0514 2.44119 9.60977 2.57453 9.28477 2.83286L3.50977 7.46619C3.0431 7.84119 2.70977 8.70786 2.80977 9.29953L3.9181 15.9329C4.0681 16.8079 4.9431 17.5495 5.83476 17.5495H15.1681C16.0598 17.5495 16.9348 16.8079 17.0848 15.9245L18.1931 9.29119C18.2848 8.70786 17.9514 7.82453 17.4931 7.45786L11.7181 2.84119C11.3848 2.57453 10.9348 2.44119 10.4931 2.44119Z" fill="#9B9B9B"/>
</svg>
