<svg width="13" height="12" viewBox="0 0 13 12" fill="none" xmlns="http://www.w3.org/2000/svg">
<path d="M12.3696 5.90367L6.98598 0.491246L6.62512 0.128269C6.5429 0.0461104 6.43171 0 6.31581 0C6.19992 0 6.08873 0.0461104 6.00651 0.128269L0.261995 5.90367C0.177745 5.98808 0.11116 6.08862 0.066172 6.19934C0.0211838 6.31006 -0.00129663 6.42873 5.77512e-05 6.54834C0.00563089 7.04165 0.413863 7.43546 0.904299 7.43546H1.49644V12H11.1352V7.43546H11.7399C11.9781 7.43546 12.2024 7.34156 12.371 7.17199C12.454 7.08876 12.5198 6.98979 12.5645 6.88081C12.6093 6.77184 12.632 6.65502 12.6316 6.53713C12.6316 6.29888 12.5382 6.07324 12.3696 5.90367ZM7.09605 10.991H5.53558V8.13198H7.09605V10.991ZM10.132 6.42641V10.991H7.98776V7.79563C7.98776 7.48591 7.73836 7.23505 7.43044 7.23505H5.20119C4.89327 7.23505 4.64387 7.48591 4.64387 7.79563V10.991H2.49961V6.42641H1.16206L6.31721 1.24523L6.63906 1.56896L11.471 6.42641H10.132Z" fill="#959595"/>
</svg>
