<svg width="33" height="34" viewBox="0 0 33 34" fill="none" xmlns="http://www.w3.org/2000/svg">
<rect y="0.875" width="32.25" height="32.25" rx="6" fill="#fffbe3"/>
<path d="M22.8971 24.2786H9.35547C9.07786 24.2786 8.84766 24.0484 8.84766 23.7708C8.84766 23.4931 9.07786 23.2629 9.35547 23.2629H22.8971C23.1747 23.2629 23.4049 23.4931 23.4049 23.7708C23.4049 24.0484 23.1747 24.2786 22.8971 24.2786Z" fill="#9c8f41"/>
<path d="M10.5039 23.7707H9.48828L9.52213 15.6254C9.52213 15.0499 9.7862 14.515 10.2398 14.1629L14.9794 10.4728C15.6497 9.95145 16.5909 9.95145 17.268 10.4728L22.0076 14.1561C22.4544 14.5082 22.7253 15.0566 22.7253 15.6254V23.7707H21.7096V15.6322C21.7096 15.3749 21.5878 15.1244 21.3846 14.9619L16.6451 11.2785C16.3404 11.0416 15.9138 11.0416 15.6023 11.2785L10.8628 14.9686C10.6596 15.1244 10.5378 15.3749 10.5378 15.6322L10.5039 23.7707Z" fill="#9c8f41"/>
<path d="M17.819 24.2787H14.4336C14.156 24.2787 13.9258 24.0485 13.9258 23.7709V21.4011C13.9258 20.5615 14.6096 19.8777 15.4492 19.8777H16.8034C17.643 19.8777 18.3268 20.5615 18.3268 21.4011V23.7709C18.3268 24.0485 18.0966 24.2787 17.819 24.2787ZM14.9414 23.2631H17.3112V21.4011C17.3112 21.1235 17.081 20.8933 16.8034 20.8933H15.4492C15.1716 20.8933 14.9414 21.1235 14.9414 21.4011V23.2631Z" fill="#9c8f41"/>
<path d="M14.4336 18.6928H13.0794C12.4294 18.6928 11.8945 18.1579 11.8945 17.5079V16.4923C11.8945 15.8423 12.4294 15.3074 13.0794 15.3074H14.4336C15.0836 15.3074 15.6185 15.8423 15.6185 16.4923V17.5079C15.6185 18.1579 15.0836 18.6928 14.4336 18.6928ZM13.0794 16.323C12.9846 16.323 12.9102 16.3975 12.9102 16.4923V17.5079C12.9102 17.6027 12.9846 17.6772 13.0794 17.6772H14.4336C14.5284 17.6772 14.6029 17.6027 14.6029 17.5079V16.4923C14.6029 16.3975 14.5284 16.323 14.4336 16.323H13.0794Z" fill="#9c8f41"/>
<path d="M19.1719 18.6928H17.8177C17.1677 18.6928 16.6328 18.1579 16.6328 17.5079V16.4923C16.6328 15.8423 17.1677 15.3074 17.8177 15.3074H19.1719C19.8219 15.3074 20.3568 15.8423 20.3568 16.4923V17.5079C20.3568 18.1579 19.8219 18.6928 19.1719 18.6928ZM17.8177 16.323C17.7229 16.323 17.6484 16.3975 17.6484 16.4923V17.5079C17.6484 17.6027 17.7229 17.6772 17.8177 17.6772H19.1719C19.2667 17.6772 19.3411 17.6027 19.3411 17.5079V16.4923C19.3411 16.3975 19.2667 16.323 19.1719 16.323H17.8177Z" fill="#9c8f41"/>
<path d="M20.8638 14.1223C20.5862 14.1223 20.356 13.8989 20.356 13.6213L20.3424 12.0911H17.8711C17.5935 12.0911 17.3633 11.8609 17.3633 11.5833C17.3633 11.3056 17.5935 11.0754 17.8711 11.0754H20.8503C21.1279 11.0754 21.3581 11.2989 21.3581 11.5765L21.3784 13.6077C21.3716 13.8921 21.1482 14.1223 20.8638 14.1223C20.8638 14.1223 20.8706 14.1223 20.8638 14.1223Z" fill="#9c8f41"/>
</svg>
