<svg width="18" height="19" viewBox="0 0 18 19" fill="none" xmlns="http://www.w3.org/2000/svg">
<path d="M9.0013 0.541504C13.9455 0.541504 17.9596 4.55567 17.9596 9.49984C17.9596 14.444 13.9455 18.4582 9.0013 18.4582C4.05714 18.4582 0.0429688 14.444 0.0429688 9.49984C0.0429688 4.55567 4.05714 0.541504 9.0013 0.541504ZM9.0013 1.7915C4.74714 1.7915 1.29297 5.24567 1.29297 9.49984C1.29297 13.754 4.74714 17.2082 9.0013 17.2082C13.2555 17.2082 16.7096 13.754 16.7096 9.49984C16.7096 5.24567 13.2555 1.7915 9.0013 1.7915Z" fill="#078E29"/>
<path d="M4.99923 9.73296C4.88209 9.61571 4.81633 9.45674 4.81641 9.291C4.81648 9.12527 4.8824 8.96635 4.99965 8.84921C5.11689 8.73208 5.27587 8.66631 5.44161 8.66639C5.60734 8.66647 5.76626 8.73238 5.8834 8.84963L8.07256 11.0388L12.1009 6.63463C12.2134 6.51486 12.3685 6.44421 12.5327 6.43795C12.6969 6.4317 12.8569 6.49035 12.9782 6.60121C13.0994 6.71207 13.1722 6.86622 13.1806 7.03031C13.1891 7.1944 13.1326 7.35522 13.0234 7.47796L8.55339 12.3646C8.49629 12.4266 8.42727 12.4764 8.35047 12.5111C8.27366 12.5458 8.19065 12.5647 8.1064 12.5665C8.02214 12.5684 7.93838 12.5532 7.86011 12.522C7.78185 12.4907 7.71069 12.444 7.65089 12.3846L4.99923 9.73296Z" fill="#078E29"/>
</svg>
