<svg width="33" height="33" viewBox="0 0 33 33" fill="none" xmlns="http://www.w3.org/2000/svg">
<circle cx="16.5" cy="16.5" r="16.5" fill="#E1E9FA"/>
<path d="M22.547 15.4626H19.6627C19.8886 15.1503 20.0843 14.8233 20.2296 14.4876C20.4128 14.0635 20.507 13.6471 20.5092 13.2497C20.514 12.4518 20.2144 11.6902 19.6878 11.1604C19.2394 10.7094 18.6617 10.4609 18.061 10.4609C17.3572 10.4609 16.7057 10.8036 16.2517 11.3706C15.7977 10.8036 15.1462 10.4609 14.4424 10.4609C13.7726 10.4609 13.1485 10.7621 12.6847 11.3085C12.2436 11.8285 11.9983 12.5155 11.9941 13.2434C11.9917 13.6422 12.0826 14.0599 12.2641 14.4852C12.4077 14.8218 12.603 15.1496 12.8289 15.4626H10.0699C9.88098 15.4626 9.70644 15.5637 9.61237 15.7278L8.13457 18.3074C7.95426 18.622 7.95522 18.9972 8.13704 19.3111C8.3179 19.6231 8.64063 19.8095 9.00029 19.8095H10.0621L10.2122 22.4547C10.2095 22.8483 10.3776 23.2196 10.6757 23.4764C10.9744 23.7339 11.3672 23.8443 11.7551 23.7805L12.89 23.6333L12.8987 25.4744C12.9 25.7646 13.1357 25.9993 13.426 25.9993H19.9211C20.2124 25.9993 20.4485 25.7631 20.4485 25.472V21.5117C22.102 20.4339 22.9849 18.5842 23.0741 16.0082C23.079 15.8652 23.0257 15.7264 22.9263 15.6236C22.827 15.5207 22.6901 15.4626 22.547 15.4626ZM14.4424 11.5156C15.0189 11.5156 15.5432 11.9698 15.7467 12.6457C15.8139 12.8686 16.019 13.021 16.2517 13.021C16.4843 13.021 16.6895 12.8686 16.7566 12.6457C16.9602 11.9698 17.4843 11.5156 18.061 11.5156C18.3788 11.5156 18.6909 11.6535 18.9398 11.9039C19.2699 12.2361 19.4576 12.7243 19.4545 13.2434C19.4531 13.4982 19.388 13.7759 19.2614 14.069C19.0272 14.6106 18.617 15.1391 18.1643 15.6098C18.1549 15.6186 18.1463 15.6278 18.1378 15.6373C17.4445 16.3519 16.6579 16.9297 16.2503 17.2108C15.9932 17.035 15.5855 16.742 15.1441 16.3691C14.1934 15.5661 13.5328 14.7716 13.234 14.0713C13.1096 13.7795 13.0472 13.5032 13.0488 13.2497C13.0544 12.2935 13.6795 11.5156 14.4424 11.5156ZM21.4175 18.8239C21.0217 19.6728 20.4463 20.3061 19.6581 20.7595C19.4946 20.8536 19.3938 21.028 19.3938 21.2167V24.9446H13.9509L13.9439 23.4491L14.9406 23.2107C15.5936 23.0546 16.1431 22.6203 16.4481 22.0188C16.7728 21.3786 17.1857 20.5403 17.1898 20.532C17.2267 20.457 17.2442 20.3775 17.244 20.2992C17.244 20.1046 17.1358 19.9177 16.9496 19.826C16.6882 19.6973 16.3721 19.8048 16.2436 20.0661C16.2395 20.0745 15.8294 20.907 15.5075 21.5419C15.3427 21.8665 15.0468 22.101 14.6955 22.1849L13.319 22.514L11.6093 22.736C11.6017 22.7369 11.594 22.738 11.5865 22.7394C11.4777 22.7583 11.4005 22.7089 11.3643 22.6776C11.3266 22.6452 11.2642 22.5735 11.2669 22.4566C11.2673 22.4424 11.267 22.4282 11.2662 22.4139L11.0992 19.4692C11.1213 19.4109 11.1334 19.3481 11.1334 19.2821C11.1334 18.9909 10.8972 18.7548 10.6061 18.7548H9.09381L10.3756 16.5173H13.743C14.7764 17.5427 15.9005 18.2461 15.974 18.2917C16.0591 18.3443 16.1554 18.3707 16.2517 18.3707C16.3485 18.3707 16.4455 18.344 16.5309 18.2908C16.6037 18.2453 17.7196 17.542 18.7496 16.5174H21.987C21.9094 17.404 21.7183 18.178 21.4175 18.8239Z" fill="#1D4599"/>
<path d="M16.2773 9.43372C16.5686 9.43372 16.8047 9.19765 16.8047 8.90637V8.52734C16.8047 8.23607 16.5686 8 16.2773 8C15.9861 8 15.75 8.23607 15.75 8.52734V8.90637C15.75 9.19765 15.9861 9.43372 16.2773 9.43372Z" fill="#1D4599"/>
<path d="M11.4276 10.8422C11.5306 10.9455 11.6657 10.9971 11.801 10.9971C11.9357 10.9971 12.0704 10.9459 12.1733 10.8431C12.3795 10.6376 12.38 10.3037 12.1744 10.0975L11.8382 9.76045C11.6326 9.55418 11.2986 9.55376 11.0925 9.75948C10.8862 9.96507 10.8858 10.2989 11.0914 10.5052L11.4276 10.8422Z" fill="#1D4599"/>
<path d="M20.8165 10.9971C20.9516 10.9971 21.0869 10.9455 21.1899 10.8422L21.5259 10.5052C21.7315 10.2989 21.7311 9.96507 21.5248 9.75948C21.3187 9.55376 20.9847 9.55418 20.7791 9.76045L20.4431 10.0975C20.2374 10.3037 20.2378 10.6376 20.444 10.8431C20.547 10.9459 20.6818 10.9971 20.8165 10.9971Z" fill="#1D4599"/>
<path d="M9.82422 14.4062H10.2256C10.5169 14.4062 10.753 14.17 10.753 13.8789C10.753 13.5876 10.5169 13.3516 10.2256 13.3516H9.82422C9.53294 13.3516 9.29688 13.5876 9.29688 13.8789C9.29688 14.17 9.53294 14.4062 9.82422 14.4062Z" fill="#1D4599"/>
<path d="M22.741 13.3516H22.332C22.0408 13.3516 21.8047 13.5876 21.8047 13.8789C21.8047 14.17 22.0408 14.4062 22.332 14.4062H22.741C23.0323 14.4062 23.2683 14.17 23.2683 13.8789C23.2683 13.5876 23.0323 13.3516 22.741 13.3516Z" fill="#1D4599"/>
</svg>
