<svg width="39" height="31" viewBox="0 0 39 31" fill="none" xmlns="http://www.w3.org/2000/svg">
<path d="M37.2 8.85547H25.2C25.0409 8.85547 24.8883 8.9192 24.7757 9.03264C24.6632 9.14607 24.6 9.29993 24.6 9.46036V19.7435H15.6C15.4409 19.7435 15.2883 19.8072 15.1757 19.9206C15.0632 20.0341 15 20.1879 15 20.3483V27.0021C15 27.6693 15.5382 28.2119 16.2 28.2119H30.6L32.22 30.3895C32.2759 30.4646 32.3484 30.5256 32.4317 30.5676C32.515 30.6096 32.6069 30.6314 32.7 30.6314C32.7931 30.6314 32.885 30.6096 32.9683 30.5676C33.0516 30.5256 33.1241 30.4646 33.18 30.3895L34.8 28.2119H37.2C37.8612 28.2119 38.4 27.6693 38.4 27.0021V10.0652C38.4 9.39805 37.8612 8.85547 37.2 8.85547Z" fill="#E1E9FA"/>
<path d="M24.6 0.386963H1.2C0.5382 0.386963 0 0.929547 0 1.59674V19.7434C0 20.4106 0.5382 20.9532 1.2 20.9532H3.6L5.22 23.1307C5.27589 23.2059 5.34836 23.2668 5.43167 23.3088C5.51499 23.3508 5.60685 23.3727 5.7 23.3727C5.79315 23.3727 5.88501 23.3508 5.96833 23.3088C6.05164 23.2668 6.12411 23.2059 6.18 23.1307L7.8 20.9532H24.6C25.2612 20.9532 25.8 20.4106 25.8 19.7434V1.59674C25.8 0.929547 25.2612 0.386963 24.6 0.386963Z" fill="#1D4599"/>
<path d="M8.40078 10.065H6.00078V8.2503H8.40078C8.55991 8.2503 8.71252 8.18657 8.82505 8.07314C8.93757 7.9597 9.00078 7.80584 9.00078 7.64542C9.00078 7.48499 8.93757 7.33113 8.82505 7.21769C8.71252 7.10426 8.55991 7.04053 8.40078 7.04053H5.40078C5.24165 7.04053 5.08904 7.10426 4.97652 7.21769C4.864 7.33113 4.80078 7.48499 4.80078 7.64542V13.6943C4.80078 13.8547 4.864 14.0086 4.97652 14.122C5.08904 14.2355 5.24165 14.2992 5.40078 14.2992C5.55991 14.2992 5.71252 14.2355 5.82505 14.122C5.93757 14.0086 6.00078 13.8547 6.00078 13.6943V11.2747H8.40078C8.55991 11.2747 8.71252 11.211 8.82505 11.0976C8.93757 10.9841 9.00078 10.8303 9.00078 10.6699C9.00078 10.5094 8.93757 10.3556 8.82505 10.2421C8.71252 10.1287 8.55991 10.065 8.40078 10.065ZM14.3582 13.4693L11.9582 7.4204C11.9133 7.30843 11.8363 7.21253 11.7369 7.14501C11.6376 7.07748 11.5206 7.0414 11.4008 7.0414C11.281 7.0414 11.1639 7.07748 11.0646 7.14501C10.9653 7.21253 10.8883 7.30843 10.8434 7.4204L8.44338 13.4693C8.41411 13.5431 8.39954 13.622 8.40051 13.7014C8.40148 13.7809 8.41797 13.8594 8.44903 13.9324C8.48009 14.0055 8.52512 14.0717 8.58154 14.1272C8.63797 14.1827 8.70468 14.2264 8.77788 14.2559C8.85108 14.2854 8.92933 14.3001 9.00816 14.2992C9.08699 14.2982 9.16485 14.2816 9.23731 14.2502C9.30977 14.2189 9.3754 14.1735 9.43045 14.1166C9.48551 14.0598 9.52891 13.9925 9.55818 13.9187L10.367 11.8796H12.4346L13.244 13.9193C13.2732 13.993 13.3165 14.0602 13.3715 14.1171C13.4265 14.1739 13.4921 14.2192 13.5645 14.2505C13.6369 14.2817 13.7147 14.2982 13.7934 14.2991C13.8722 14.3 13.9503 14.2852 14.0234 14.2556C14.0966 14.2262 14.1633 14.1825 14.2198 14.127C14.2762 14.0716 14.3213 14.0054 14.3524 13.9324C14.3835 13.8594 14.4 13.7809 14.401 13.7014C14.402 13.622 14.3874 13.5431 14.3582 13.4693ZM10.847 10.6699L11.4008 9.27377L11.9546 10.6699H10.847ZM20.9318 12.7694C21.3668 12.1572 21.6007 11.423 21.6008 10.6699C21.6008 8.66828 19.9862 7.04053 18.0008 7.04053C16.0154 7.04053 14.4008 8.66828 14.4008 10.6699C14.4008 12.6714 16.0154 14.2992 18.0008 14.2992C18.7772 14.2992 19.4948 14.0475 20.0834 13.6247L20.5766 14.122C20.6322 14.1783 20.6983 14.223 20.7711 14.2536C20.8439 14.2841 20.9219 14.2998 21.0008 14.2998C21.0796 14.2998 21.1577 14.2841 21.2305 14.2536C21.3033 14.223 21.3694 14.1783 21.425 14.122C21.4807 14.0658 21.525 13.9992 21.5552 13.9258C21.5854 13.8524 21.6009 13.7737 21.6009 13.6943C21.6009 13.6149 21.5854 13.5362 21.5552 13.4628C21.525 13.3894 21.4807 13.3228 21.425 13.2666L20.9318 12.7694ZM18.0008 13.0894C16.6772 13.0894 15.6008 12.0042 15.6008 10.6699C15.6008 9.33547 16.6772 8.2503 18.0008 8.2503C19.3244 8.2503 20.4008 9.33547 20.4008 10.6699C20.4008 11.1175 20.2712 11.5312 20.0606 11.8911L19.025 10.8471C18.9125 10.7337 18.7599 10.6699 18.6008 10.6699C18.4417 10.6699 18.2891 10.7337 18.1766 10.8471C18.0641 10.9605 18.0009 11.1143 18.0009 11.2747C18.0009 11.4351 18.0641 11.589 18.1766 11.7024L19.2122 12.7464C18.8464 12.9688 18.4279 13.0873 18.0008 13.0894Z" fill="#E1E9FA"/>
<path d="M34.8 12.4847H30.6C30.4409 12.4847 30.2883 12.4209 30.1757 12.3075C30.0632 12.1941 30 12.0402 30 11.8798C30 11.7194 30.0632 11.5655 30.1757 11.4521C30.2883 11.3386 30.4409 11.2749 30.6 11.2749H34.8C34.9591 11.2749 35.1117 11.3386 35.2243 11.4521C35.3368 11.5655 35.4 11.7194 35.4 11.8798C35.4 12.0402 35.3368 12.1941 35.2243 12.3075C35.1117 12.4209 34.9591 12.4847 34.8 12.4847ZM34.8 14.9042H28.2C28.0409 14.9042 27.8883 14.8405 27.7757 14.7271C27.6632 14.6136 27.6 14.4598 27.6 14.2993C27.6 14.1389 27.6632 13.9851 27.7757 13.8716C27.8883 13.7582 28.0409 13.6945 28.2 13.6945H34.8C34.9591 13.6945 35.1117 13.7582 35.2243 13.8716C35.3368 13.9851 35.4 14.1389 35.4 14.2993C35.4 14.4598 35.3368 14.6136 35.2243 14.7271C35.1117 14.8405 34.9591 14.9042 34.8 14.9042ZM34.8 17.3238H28.2C28.0409 17.3238 27.8883 17.2601 27.7757 17.1466C27.6632 17.0332 27.6 16.8793 27.6 16.7189C27.6 16.5585 27.6632 16.4046 27.7757 16.2912C27.8883 16.1777 28.0409 16.114 28.2 16.114H34.8C34.9591 16.114 35.1117 16.1777 35.2243 16.2912C35.3368 16.4046 35.4 16.5585 35.4 16.7189C35.4 16.8793 35.3368 17.0332 35.2243 17.1466C35.1117 17.2601 34.9591 17.3238 34.8 17.3238ZM34.8 19.7433H28.2C28.0409 19.7433 27.8883 19.6796 27.7757 19.5662C27.6632 19.4527 27.6 19.2989 27.6 19.1384C27.6 18.978 27.6632 18.8242 27.7757 18.7107C27.8883 18.5973 28.0409 18.5336 28.2 18.5336H34.8C34.9591 18.5336 35.1117 18.5973 35.2243 18.7107C35.3368 18.8242 35.4 18.978 35.4 19.1384C35.4 19.2989 35.3368 19.4527 35.2243 19.5662C35.1117 19.6796 34.9591 19.7433 34.8 19.7433ZM34.8 23.3727H18.6C18.4409 23.3727 18.2883 23.3089 18.1757 23.1955C18.0632 23.0821 18 22.9282 18 22.7678C18 22.6073 18.0632 22.4535 18.1757 22.3401C18.2883 22.2266 18.4409 22.1629 18.6 22.1629H34.8C34.9591 22.1629 35.1117 22.2266 35.2243 22.3401C35.3368 22.4535 35.4 22.6073 35.4 22.7678C35.4 22.9282 35.3368 23.0821 35.2243 23.1955C35.1117 23.3089 34.9591 23.3727 34.8 23.3727ZM30 25.7922H18.6C18.4409 25.7922 18.2883 25.7285 18.1757 25.615C18.0632 25.5016 18 25.3478 18 25.1873C18 25.0269 18.0632 24.873 18.1757 24.7596C18.2883 24.6462 18.4409 24.5824 18.6 24.5824H30C30.1591 24.5824 30.3117 24.6462 30.4243 24.7596C30.5368 24.873 30.6 25.0269 30.6 25.1873C30.6 25.3478 30.5368 25.5016 30.4243 25.615C30.3117 25.7285 30.1591 25.7922 30 25.7922Z" fill="#1D4599"/>
</svg>
