<svg width="33" height="33" viewBox="0 0 33 33" fill="none" xmlns="http://www.w3.org/2000/svg">
<circle cx="16.5" cy="16.5" r="16.5" fill="#E1E9FA"/>
<path d="M16.5 7C12.3637 7 9 10.3637 9 14.5C9 19.6987 15.77 26.5287 16.0575 26.8175C16.18 26.9387 16.34 27 16.5 27C16.66 27 16.82 26.9387 16.9425 26.8175C17.23 26.5287 24 19.6987 24 14.5C24 10.3637 20.6362 7 16.5 7ZM16.5 25.4713C15.0075 23.8738 10.25 18.4713 10.25 14.5C10.25 11.0538 13.0538 8.25 16.5 8.25C19.9462 8.25 22.75 11.0538 22.75 14.5C22.75 18.4675 17.9925 23.8738 16.5 25.4713Z" fill="#1D4599"/>
<path d="M16.5 10.75C14.4325 10.75 12.75 12.4325 12.75 14.5C12.75 16.5675 14.4325 18.25 16.5 18.25C18.5675 18.25 20.25 16.5675 20.25 14.5C20.25 12.4325 18.5675 10.75 16.5 10.75ZM16.5 17C15.1212 17 14 15.8787 14 14.5C14 13.1212 15.1212 12 16.5 12C17.8787 12 19 13.1212 19 14.5C19 15.8787 17.8787 17 16.5 17Z" fill="#1D4599"/>
</svg>
