<svg width="15" height="15" viewBox="0 0 15 15" fill="none" xmlns="http://www.w3.org/2000/svg">
<path d="M14.6355 1.80236C14.5366 1.77936 14.4327 1.80923 14.3613 1.88132L13.1468 3.1055H12.5645L11.9235 2.4414V1.851L13.1207 0.635977C13.1915 0.564108 13.2203 0.460767 13.1969 0.362463C13.1735 0.264272 13.1012 0.185079 13.0055 0.152807C12.7048 0.0514118 12.3901 2.77945e-05 12.07 2.77945e-05C11.1158 2.77945e-05 10.2489 0.444975 9.69155 1.22077C9.16993 1.94701 9.00914 2.83702 9.23951 3.68881L7.08149 5.84682L3.48622 2.2433V1.53606C3.48622 1.43317 3.4322 1.33773 3.34397 1.28486L1.27247 0.0417988C1.15711 -0.0274381 1.0096 -0.00924192 0.914612 0.0858586L0.0860596 0.914297C-0.00892641 1.0094 -0.0271225 1.15691 0.0419998 1.27227L1.28483 3.34377C1.3377 3.432 1.43303 3.4859 1.53591 3.48602L2.24293 3.48624L5.83855 7.08976L3.68878 9.23954C2.83699 9.00928 1.94653 9.1703 1.21994 9.69227C0.444603 10.2493 0 11.1159 0 12.0701C0 12.3901 0.051384 12.7049 0.152779 13.0056C0.185165 13.1018 0.26516 13.1745 0.364037 13.1974C0.463028 13.2204 0.566826 13.1905 0.638352 13.1184L1.8528 11.8943H2.43828L3.10536 12.5614V13.1469L1.8813 14.3613C1.8092 14.4329 1.77933 14.5367 1.80233 14.6357C1.82522 14.7345 1.89789 14.8145 1.99413 14.8469C2.29477 14.9483 2.6096 14.9997 2.92957 14.9997C3.88378 14.9997 4.75033 14.555 5.30743 13.7796C5.82939 13.0531 5.99041 12.1627 5.76016 11.3109L7.48673 9.58435L7.88224 10.014L7.70073 10.1954C7.58629 10.3098 7.58629 10.4953 7.70073 10.6097C7.81517 10.7241 8.00057 10.7241 8.11512 10.6097L8.27946 10.4454L11.9903 14.4762C11.9931 14.4792 11.9959 14.4821 11.9988 14.4849C12.6854 15.1716 13.7979 15.1718 14.4849 14.4848C15.17 13.7994 15.17 12.6842 14.4849 11.9988C14.4819 11.9959 14.4788 11.993 14.4758 11.9901L10.4386 8.28636L10.6011 8.12385C10.7156 8.00953 10.7156 7.82402 10.6011 7.70958C10.4867 7.59514 10.3013 7.59514 10.1867 7.70958L10.0065 7.88994L9.57608 7.49489L11.311 5.75996C11.5576 5.82588 11.8121 5.85929 12.07 5.85929C13.6854 5.85929 14.9995 4.54505 14.9995 2.92972C14.9995 2.60963 14.9482 2.29491 14.8468 1.99416C14.8144 1.89792 14.7344 1.82525 14.6355 1.80236ZM2.57183 2.98637C2.5169 2.93132 2.4424 2.90328 2.36458 2.90328L1.70197 2.90305L0.662156 1.16698L1.16718 0.661955L2.90028 1.70199V2.36461C2.90028 2.4422 2.93106 2.51659 2.98588 2.57152L6.66722 6.26121L6.25283 6.67549L2.57183 2.98637ZM10.0239 8.70109L14.0748 12.4173C14.5273 12.8746 14.5259 13.6151 14.0705 14.0707C13.6141 14.5271 12.8753 14.5284 12.4171 14.0747L8.69408 10.0307L10.0239 8.70109ZM9.59176 8.30456L8.29686 9.59923L7.90135 9.16962L9.16134 7.90951L9.59176 8.30456ZM12.07 5.27336C11.8137 5.27336 11.5617 5.23227 11.3212 5.15125C11.2158 5.11589 11.0993 5.14312 11.0206 5.22174C9.55182 6.69048 6.38707 9.85512 5.22171 11.0206C5.14298 11.0993 5.11563 11.2158 5.15122 11.3213C5.39475 12.0445 5.27825 12.8158 4.83147 13.4378C4.38595 14.058 3.69267 14.4138 2.92957 14.4138C2.84386 14.4138 2.7586 14.4091 2.67414 14.4L3.60466 13.4767C3.66005 13.4218 3.69129 13.3469 3.69129 13.2688V12.44C3.69129 12.3623 3.66039 12.2878 3.60546 12.2329L2.76673 11.3941C2.71179 11.3392 2.63729 11.3083 2.55959 11.3083H1.73081C1.65264 11.3083 1.5778 11.3395 1.52275 11.3949L0.599556 12.3254C0.590401 12.241 0.585823 12.1557 0.585823 12.07C0.585823 11.3068 0.941506 10.6136 1.56178 10.1681C2.18365 9.72134 2.95509 9.60472 3.67836 9.84837C3.78376 9.88396 3.90026 9.85661 3.979 9.77787C3.99513 9.76185 9.77372 3.98315 9.77784 3.97903C9.85657 3.90029 9.88381 3.78391 9.84833 3.67839C9.60469 2.95524 9.72096 2.18413 10.1674 1.56261C10.6133 0.941878 11.3067 0.585966 12.0699 0.585966C12.1582 0.585966 12.246 0.590887 12.333 0.6005L11.4218 1.5253C11.3678 1.58012 11.3376 1.65393 11.3376 1.73083V2.55962C11.3376 2.6356 11.367 2.7085 11.4197 2.76309L12.2292 3.60183C12.2843 3.65905 12.3604 3.69132 12.44 3.69132H13.2687C13.3468 3.69132 13.4216 3.6602 13.4767 3.60469L14.3999 2.67429C14.409 2.75874 14.4136 2.844 14.4136 2.92972C14.4136 4.22199 13.3622 5.27336 12.07 5.27336Z" fill="#939393"/>
</svg>
