<svg width="587" height="587" viewBox="0 0 587 587" fill="none" xmlns="http://www.w3.org/2000/svg">
<circle cx="293.5" cy="293.5" r="293.5" fill="#E1E9FA"/>
<path d="M362.257 323.024C361.481 328.163 359.911 338.586 358.028 351.043C355.847 365.35 353.253 382.317 350.973 396.921C350.841 397.747 350.709 398.557 350.593 399.366C349.685 405.066 348.842 410.352 348.116 414.895C347.571 418.133 347.109 420.991 346.695 423.37C346.795 425.42 346.894 427.385 346.992 429.285C347.006 429.378 347.012 429.472 347.01 429.566V429.665C347.537 440.023 347.951 448.218 348.281 454.545C348.943 467.629 349.19 472.817 349.19 472.817C349.19 472.817 327.861 492.113 314.711 499C314.711 499 301.147 489.304 293.597 476.169C286.064 489.303 272.485 499 272.485 499C259.334 492.112 238.005 472.817 238.005 472.817C238.005 472.817 238.22 468.571 238.749 458.064C239.08 451.356 239.559 442.072 240.187 429.714C240.286 427.682 240.385 425.568 240.5 423.37C240.039 420.679 239.493 417.375 238.882 413.591C238.205 409.377 237.428 404.603 236.618 399.465C235.297 391.073 233.859 381.772 232.439 372.553C231.811 368.439 231.183 364.325 230.588 360.344C230.44 359.436 230.307 358.511 230.16 357.618C230.061 356.974 229.962 356.346 229.88 355.718C229.871 355.674 229.86 355.63 229.846 355.586C228.987 349.854 228.177 344.452 227.451 339.644C227.401 339.412 227.368 339.181 227.335 338.95C227.302 338.669 227.252 338.388 227.22 338.107C226.658 334.489 226.18 331.251 225.765 328.542C225.667 327.848 225.567 327.204 225.468 326.576C225.27 325.205 225.088 324.015 224.94 323.024C224.926 322.926 224.92 322.826 224.923 322.726C224.89 322.491 224.89 322.252 224.923 322.017V322C224.957 321.851 224.972 321.703 225.006 321.57C225.07 321.278 225.17 320.995 225.304 320.727C225.544 320.235 225.887 319.8 226.308 319.45C226.73 319.1 227.22 318.843 227.748 318.696L256.592 310.716H330.603L348.594 315.689L359.448 318.696C360.365 318.948 361.158 319.528 361.676 320.326C362.193 321.124 362.4 322.084 362.257 323.024Z" fill="#1E3DBA"/>
<path d="M321.072 327.045L293.598 432.741L266.125 327.045C284.739 312.822 303.037 313.687 321.074 327.045" fill="#D7D7D7"/>
<path d="M347.016 429.563V429.663C347.131 429.68 347.264 429.696 347.397 429.713C347.264 429.663 347.148 429.614 347.016 429.563Z" fill="#AEAEAE"/>
<path d="M289.31 416.211C287.49 418.291 284.902 419.757 281.225 419.757C278.664 419.757 275.576 419.047 271.849 417.338C271.849 417.338 264.167 420.461 253.594 424.574C249.48 426.177 244.92 427.945 240.196 429.713C239.569 442.071 239.09 451.355 238.759 458.063C238.23 468.57 238.015 472.816 238.015 472.816C238.015 472.816 259.344 492.112 272.494 498.999C272.494 498.999 286.074 489.303 293.607 476.168C301.157 489.302 314.72 498.999 314.72 498.999C327.871 492.11 349.199 472.816 349.199 472.816C341.263 474.372 333.193 475.143 325.105 475.116C284.268 475.116 247.977 456.697 260.418 446.399C268.363 439.817 277.966 433.784 293.028 430.511L289.311 416.212L289.31 416.211ZM297.995 415.864L294.255 430.252C301.443 428.79 309.85 427.946 319.866 427.946C328.943 427.997 338.009 428.57 347.02 429.663V429.564C342.426 427.845 337.999 426.127 334.001 424.574C323.428 420.461 315.745 417.338 315.745 417.338C312.02 419.045 308.93 419.755 306.37 419.755C305.761 419.756 305.153 419.713 304.55 419.626C304.235 419.583 303.923 419.524 303.615 419.449C303.094 419.327 302.583 419.164 302.088 418.962C301.822 418.856 301.562 418.736 301.309 418.603C300.283 418.07 299.357 417.366 298.569 416.52C298.368 416.308 298.177 416.089 297.995 415.863L297.995 415.864ZM229.888 355.716C229.905 355.847 229.923 355.978 229.942 356.11L230.168 357.616C230.317 358.508 230.45 359.433 230.597 360.342C231.192 364.323 231.82 368.437 232.447 372.55C233.867 381.769 235.305 391.07 236.627 399.463C239.93 398.653 243.559 397.749 247.514 396.753C237.766 387.733 230.415 357.881 229.887 355.716" fill="#1E3DBA"/>
<path d="M292.975 408.102C292.961 408.168 292.947 408.233 292.932 408.3L292.936 408.303C292.361 410.936 291.287 413.942 289.301 416.213L293.017 430.511C293.422 430.423 293.831 430.337 294.244 430.254L297.984 415.865C297.934 415.803 297.884 415.74 297.835 415.676C296.71 414.173 295.85 412.49 295.293 410.698C295.276 410.653 295.262 410.606 295.248 410.559C295.221 410.476 295.195 410.393 295.17 410.31L295.167 410.302C295.164 410.294 295.162 410.286 295.16 410.278C295.143 410.223 295.127 410.169 295.11 410.115C295.064 409.963 295.016 409.812 294.98 409.661C294.866 409.249 294.766 408.842 294.676 408.443C294.108 408.328 293.541 408.214 292.975 408.102Z" fill="#CECECE"/>
<path d="M225.305 320.727C225.387 320.578 225.437 320.495 225.437 320.495C225.38 320.565 225.336 320.643 225.305 320.727Z" fill="#1E3DBA"/>
<path d="M293.599 432.743C294.249 439.98 294.399 447.216 294.425 454.454C294.402 461.69 294.254 468.927 293.599 476.164C292.946 468.927 292.797 461.69 292.773 454.454C292.801 447.216 292.95 439.98 293.599 432.743Z" fill="black"/>
<path d="M316.554 319.612H270.656V257.874H316.554V319.612Z" fill="#EF945F"/>
<path d="M291.292 312.396C291.292 312.396 266.619 295.909 259.832 295.371C253.044 294.833 247.764 306.253 251.104 318.643C254.444 331.034 259.724 330.711 259.724 330.711C259.724 330.711 273.622 333.727 291.939 321.768C296.033 317.458 291.292 312.395 291.292 312.395" fill="#282828"/>
<path d="M295.914 312.396C295.914 312.396 320.587 295.909 327.375 295.371C334.163 294.833 339.443 306.253 336.103 318.643C332.763 331.034 327.483 330.711 327.483 330.711C327.483 330.711 313.584 333.727 295.267 321.768C291.173 317.458 295.914 312.395 295.914 312.395" fill="#282828"/>
<path d="M259.363 295.349C253.934 295.349 249.593 303.009 250.103 312.509L250.109 312.507C249.595 303.005 253.933 295.35 259.364 295.35C259.517 295.35 259.67 295.356 259.825 295.368C260.574 295.451 261.311 295.618 262.023 295.865L262.026 295.862C261.315 295.615 260.578 295.449 259.829 295.367C259.673 295.354 259.518 295.348 259.363 295.348" fill="#AEAEAE"/>
<path d="M259.371 295.353C253.939 295.353 249.602 303.007 250.116 312.51L256.597 310.717H258.77C257.154 307.738 256.85 304.645 257.837 302.16C258.797 299.802 260.223 297.662 262.03 295.868C261.318 295.62 260.58 295.454 259.831 295.371C259.678 295.358 259.523 295.353 259.37 295.353" fill="#1E1E1E"/>
<path d="M327.516 295.36C327.468 295.362 327.419 295.365 327.37 295.368C325.43 295.524 322.028 296.982 318.16 298.986C322.032 296.981 325.435 295.524 327.377 295.369C327.423 295.366 327.468 295.363 327.516 295.36Z" fill="#AEAEAE"/>
<path d="M327.833 295.353C327.729 295.353 327.624 295.355 327.518 295.36C327.472 295.363 327.426 295.366 327.378 295.369C325.437 295.522 322.034 296.981 318.162 298.986C311.175 302.605 302.664 308.002 298.484 310.715H305.401C310.262 305.338 321.775 299.029 328.859 295.451C328.521 295.383 328.177 295.35 327.833 295.353Z" fill="#1E1E1E"/>
<path d="M299.155 318.646C299.169 320.374 298.958 322.096 298.527 323.768C298.496 323.883 298.478 323.999 298.445 324.115C297.52 327.369 295.802 329.584 293.819 329.732C293.749 329.746 293.677 329.752 293.605 329.749C290.549 329.749 288.055 324.776 288.055 318.645C288.055 312.515 290.549 307.542 293.605 307.542C296.678 307.542 299.156 312.515 299.156 318.645" fill="#282828"/>
<path d="M292.46 308.072C291.695 308.602 291.008 309.518 290.445 310.715H292.005C292.095 309.825 292.246 308.942 292.458 308.072" fill="#1E1E1E"/>
<path d="M262.566 397.941L269.244 391.039C269.244 391.039 273.233 390.076 274.311 388.568C275.388 387.06 280.02 366.587 284.115 357.106C288.209 347.625 293.162 345.47 293.594 345.47C294.027 345.47 293.594 400.258 293.594 402.52C293.594 404.783 292.908 426.988 271.838 417.34C266.122 409.632 262.566 397.941 262.566 397.941Z" fill="#EF945F"/>
<path d="M278.456 374.488C278.043 375.961 277.647 377.399 277.273 378.757C277.647 377.399 278.043 375.964 278.456 374.49V374.488" fill="#1E3DBA"/>
<path d="M286.482 352.514C285.588 353.986 284.799 355.52 284.124 357.105C282.215 361.524 280.191 368.328 278.465 374.487V374.49C280.192 368.329 282.217 361.524 284.125 357.106C284.802 355.522 285.589 353.987 286.481 352.514" fill="#CECECE"/>
<path d="M274.204 388.706C273.704 389.287 272.792 389.782 271.887 390.163C272.796 389.781 273.709 389.287 274.204 388.706Z" fill="#1E3DBA"/>
<path d="M289.304 416.208C287.485 418.288 284.9 419.755 281.22 419.755C278.659 419.755 275.572 419.045 271.844 417.338C275.571 419.047 278.659 419.757 281.22 419.757C284.897 419.757 287.485 418.292 289.305 416.211V416.208" fill="#272727"/>
<path d="M292.933 408.3C292.358 410.93 291.286 413.938 289.301 416.21V416.213C291.287 413.942 292.36 410.936 292.936 408.303L292.932 408.3" fill="#C3C3C3"/>
<path d="M289.155 348.86C288.155 349.996 287.258 351.219 286.474 352.513C285.582 353.986 284.795 355.521 284.119 357.105C282.211 361.523 280.186 368.328 278.458 374.489C278.045 375.962 277.649 377.397 277.276 378.755C275.862 383.903 274.774 387.924 274.321 388.559C274.285 388.609 274.246 388.659 274.204 388.707C273.709 389.288 272.797 389.782 271.887 390.164C271.03 390.517 270.148 390.809 269.25 391.037H269.248C269.125 392.004 269.069 392.977 269.079 393.951C269.073 402.199 271.842 417.338 271.842 417.338C275.57 419.045 278.658 419.754 281.218 419.754C284.897 419.754 287.484 418.289 289.303 416.208C291.288 413.936 292.361 410.929 292.935 408.297C290.6 406.358 282.927 398.393 282.927 378.117C282.927 364.818 286.216 354.972 289.156 348.859" fill="#EB814A"/>
<path d="M271.842 417.34C271.842 417.34 264.159 420.462 253.587 424.576C249.473 426.178 244.913 427.946 240.189 429.715C220.596 437.117 198.276 444.963 193.402 444.27C184.348 442.981 174.652 431.119 176.155 415.821C177.096 406.322 195.898 371.81 210.006 347.045V347.012H210.022C212.385 342.866 214.615 339 216.599 335.564C221.257 327.551 224.594 321.917 225.305 320.729C225.172 320.996 225.072 321.279 225.008 321.572C224.974 321.704 224.958 321.853 224.925 322.001V322.018C224.892 322.253 224.892 322.492 224.925 322.728C224.922 322.827 224.928 322.927 224.941 323.025C225.09 324.016 225.271 325.206 225.47 326.578C225.569 327.205 225.668 327.849 225.767 328.543C226.18 331.253 226.659 334.49 227.222 338.109C227.252 338.39 227.304 338.671 227.354 338.951C227.369 339.182 227.419 339.414 227.453 339.645C228.262 345.015 229.187 351.143 230.162 357.62C230.311 358.512 230.443 359.437 230.59 360.345C231.185 364.327 231.813 368.44 232.441 372.554C228.244 380.435 216.713 403.465 216.365 404.175C216.646 404.125 224.246 402.473 236.62 399.467C239.924 398.656 243.552 397.753 247.507 396.757C254.017 395.105 261.335 393.188 269.248 391.041C268.273 397.832 271.842 417.342 271.842 417.342" fill="#D7D7D7"/>
<path d="M307.072 403.867C307.584 402.613 306.018 402.042 306.15 401.712C306.678 400.208 295.383 399.772 295.383 399.772L318.335 391.039C324.086 392.592 329.503 394.029 334.542 395.334L335.054 395.467C336.773 395.912 338.457 396.342 340.077 396.755C343.876 397.713 347.395 398.589 350.599 399.365C350.732 399.398 350.847 399.431 350.963 399.465C362.957 402.372 370.457 404.024 371.167 404.156L371.216 404.173C370.869 403.463 359.339 380.433 355.142 372.552C356.497 363.698 357.834 354.941 358.992 347.16L359.008 347.078C360.627 336.405 361.949 327.6 362.642 323.023C362.759 322.239 362.632 321.437 362.279 320.727C365.088 325.435 409.958 401.001 411.428 415.82C411.911 420.493 411.306 425.215 409.66 429.615C406.588 437.809 400.244 443.393 394.18 444.269C389.307 444.962 366.988 437.115 347.394 429.714C347.262 429.665 347.146 429.615 347.015 429.565C342.421 427.847 337.994 426.129 333.995 424.576C323.423 420.462 315.74 417.34 315.74 417.34C317.178 415.424 307.241 411.327 308.364 409.146C309.206 407.544 310.505 407.418 311.165 405.914L307.071 403.867" fill="#D7D7D7"/>
<path d="M210.021 347.011H210.004V347.045L210.021 347.011Z" fill="#CECECE"/>
<path d="M250.105 312.511L227.75 318.696C227.254 318.835 226.79 319.07 226.386 319.388C225.982 319.707 225.645 320.102 225.394 320.552C225.407 320.534 225.42 320.516 225.435 320.497C225.435 320.497 225.386 320.579 225.304 320.728C225.17 320.996 225.07 321.279 225.006 321.571C224.972 321.703 224.957 321.852 224.923 322.001V322.017C224.907 322.133 224.898 322.249 224.898 322.366C224.899 322.487 224.907 322.607 224.923 322.727C224.92 322.826 224.926 322.926 224.94 323.025C225.088 324.016 225.27 325.206 225.469 326.577C225.567 327.204 225.667 327.848 225.766 328.543C226.179 331.252 226.658 334.49 227.22 338.108C227.251 338.389 227.303 338.67 227.352 338.95C243.986 343.783 258.543 346.185 271.268 346.829L267.132 330.918C265.984 331.014 264.953 331.05 264.049 331.05C262.598 331.076 261.148 330.963 259.719 330.71C259.719 330.71 259.706 330.71 259.681 330.71C259.475 330.71 258.453 330.657 257.103 329.67L257.099 329.667L257.089 329.661C255.29 328.34 252.909 325.362 251.092 318.647C250.55 316.642 250.219 314.585 250.105 312.512L250.105 312.511ZM337.09 312.509C336.975 314.582 336.644 316.638 336.101 318.643C335.123 322.275 333.976 324.814 332.846 326.59L332.821 326.629C331.451 328.77 330.105 329.789 329.108 330.272C328.617 330.533 328.075 330.683 327.521 330.711C327.495 330.711 327.483 330.711 327.483 330.711C326.053 330.963 324.603 331.077 323.152 331.05C322.249 331.05 321.217 331.014 320.07 330.918L317.776 339.747C334.146 332.895 343.658 322.661 348.598 315.69L337.091 312.509" fill="#1E3DBA"/>
<path d="M298.524 323.766C298.493 323.881 298.474 323.997 298.441 324.113C297.516 327.367 295.799 329.582 293.816 329.73C293.745 329.744 293.673 329.75 293.601 329.747C291.467 329.747 289.606 327.32 288.677 323.768C281.778 327.744 275.628 329.616 270.791 330.446C269.469 330.674 268.247 330.823 267.133 330.916L271.269 346.827C273.686 346.949 276.038 347.01 278.324 347.008C282.907 347.016 287.486 346.764 292.041 346.253C292.891 345.678 293.464 345.469 293.599 345.469C293.656 345.659 293.679 345.858 293.669 346.056L293.914 346.025C293.904 345.839 293.927 345.653 293.981 345.474C294.274 345.543 294.553 345.66 294.807 345.821C294.845 345.842 294.884 345.864 294.925 345.886C302.773 344.827 310.453 342.763 317.775 339.744L320.069 330.916C315.852 330.564 310.07 329.406 303.338 326.271L303.327 326.266L303.208 326.21C303.193 326.204 303.18 326.197 303.166 326.191L303.078 326.149L303.02 326.122L302.946 326.087L302.899 326.065L302.816 326.025L302.716 325.977L302.685 325.962L302.593 325.917L302.555 325.899L302.474 325.86L302.423 325.835L302.311 325.78L302.291 325.771C301.065 325.171 299.809 324.502 298.525 323.766" fill="#CECECE"/>
<path d="M225.438 320.495C225.423 320.514 225.409 320.533 225.397 320.55C225.365 320.608 225.334 320.667 225.305 320.727C225.387 320.578 225.437 320.495 225.437 320.495" fill="#1E3DBA"/>
<path d="M289.719 310.716H288.73C289 310.89 289.25 311.054 289.483 311.205C289.559 311.038 289.638 310.874 289.719 310.716ZM298.47 310.716H297.486C297.566 310.874 297.644 311.036 297.72 311.204C297.951 311.053 298.201 310.89 298.47 310.716Z" fill="#EB814A"/>
<path d="M257.1 329.671C258.45 330.658 259.472 330.711 259.678 330.711C259.703 330.711 259.716 330.711 259.716 330.711C261.145 330.963 262.596 331.076 264.047 331.05C264.95 331.05 265.982 331.014 267.129 330.918C268.243 330.826 269.466 330.676 270.787 330.448C268.565 330.838 266.314 331.038 264.058 331.048C262.602 331.074 261.146 330.96 259.712 330.707C259.712 330.707 259.699 330.707 259.672 330.707C259.463 330.707 258.445 330.652 257.1 329.67L257.1 329.671ZM257.086 329.66L257.095 329.667L257.086 329.66ZM288.728 310.716H258.763C261.791 316.292 269.42 321.462 281.788 321.462C282.27 321.462 282.757 321.454 283.254 321.438C283.8 316.267 287.202 312.55 289.004 310.898L289.478 311.212L289.481 311.206C289.249 311.054 288.997 310.891 288.728 310.716" fill="#1E1E1E"/>
<path d="M332.845 326.588L332.82 326.627L332.845 326.588ZM303.337 326.271C310.069 329.406 315.851 330.564 320.068 330.915C321.215 331.011 322.247 331.048 323.151 331.048C324.602 331.074 326.052 330.96 327.481 330.708C327.481 330.708 327.494 330.708 327.519 330.708C328.074 330.68 328.616 330.53 329.106 330.27C328.617 330.528 328.077 330.677 327.524 330.704C327.497 330.704 327.482 330.704 327.482 330.704C326.049 330.958 324.594 331.072 323.139 331.045C318.915 331.045 311.893 330.255 303.334 326.271H303.337ZM303.204 326.21L303.324 326.266L303.204 326.21ZM303.074 326.149L303.162 326.19L303.074 326.149ZM302.943 326.087L303.016 326.123L302.943 326.087ZM302.812 326.026L302.896 326.066L302.812 326.026ZM302.681 325.965L302.712 325.98L302.681 325.965ZM302.549 325.901L302.588 325.92L302.549 325.901ZM302.417 325.838L302.469 325.863L302.417 325.838ZM302.286 325.773L302.306 325.783L302.286 325.773ZM298.477 310.717H298.469C298.2 310.891 297.95 311.054 297.719 311.205L297.721 311.21C297.954 311.058 298.207 310.893 298.478 310.717H298.477ZM330.604 310.717H305.396C304.697 311.459 304.102 312.293 303.627 313.195C300.488 319.506 323.552 322.314 334.538 323.289C334.068 324.435 333.502 325.539 332.846 326.589C333.978 324.813 335.122 322.274 336.101 318.642C336.644 316.638 336.975 314.582 337.09 312.508L330.605 310.716" fill="#1E1E1E"/>
<path d="M250.111 312.509L250.105 312.51C250.219 314.584 250.55 316.64 251.092 318.645C252.909 325.361 255.29 328.339 257.089 329.659C255.289 328.337 252.91 325.356 251.1 318.642C250.557 316.638 250.226 314.582 250.111 312.509Z" fill="#272727"/>
<path d="M288.682 323.766C281.781 327.739 275.633 329.614 270.797 330.445C275.634 329.615 281.783 327.742 288.683 323.767" fill="#C3C3C3"/>
<path d="M257.098 329.665L257.104 329.669L257.098 329.665Z" fill="#272727"/>
<path d="M258.767 310.716H256.595L250.113 312.509C250.228 314.582 250.559 316.638 251.102 318.642C252.912 325.356 255.292 328.339 257.091 329.66L257.101 329.667L257.105 329.67C258.451 330.652 259.469 330.707 259.678 330.707C259.704 330.707 259.718 330.707 259.718 330.707C261.152 330.96 262.607 331.074 264.064 331.048C266.32 331.038 268.571 330.838 270.793 330.448C275.628 329.617 281.777 327.743 288.678 323.769C288.254 322.095 288.043 320.373 288.051 318.646C288.051 315.788 288.594 313.181 289.483 311.213L289.009 310.9C287.208 312.552 283.805 316.268 283.259 321.44C282.762 321.456 282.276 321.464 281.793 321.464C269.425 321.464 261.795 316.294 258.768 310.718" fill="#161616"/>
<path d="M303.331 326.268L303.342 326.272L303.331 326.268ZM303.17 326.192C303.184 326.199 303.197 326.205 303.212 326.212C303.197 326.205 303.184 326.199 303.17 326.192ZM303.024 326.123L303.082 326.151L303.024 326.123ZM302.903 326.066L302.95 326.088L302.903 326.066ZM302.72 325.978L302.82 326.026L302.72 325.978ZM302.596 325.917L302.687 325.962L302.596 325.917ZM302.477 325.86L302.557 325.899L302.477 325.86ZM302.313 325.78L302.425 325.835L302.313 325.78ZM298.527 323.766C299.81 324.504 301.065 325.172 302.293 325.771C301.066 325.17 299.811 324.502 298.527 323.766Z" fill="#C3C3C3"/>
<path d="M332.819 326.628C331.449 328.767 330.103 329.786 329.105 330.272C330.103 329.788 331.449 328.77 332.819 326.628Z" fill="#272727"/>
<path d="M305.4 310.716H298.484C298.212 310.892 297.96 311.056 297.727 311.209C298.614 313.178 299.154 315.786 299.154 318.646C299.168 320.373 298.957 322.095 298.526 323.767C299.809 324.506 301.064 325.174 302.292 325.772L302.312 325.782L302.424 325.836L302.475 325.861L302.555 325.9L302.594 325.919L302.686 325.964L302.717 325.979L302.817 326.026L302.9 326.066L302.947 326.088L303.021 326.124L303.079 326.151L303.167 326.192C303.181 326.199 303.194 326.205 303.209 326.212L303.328 326.268L303.339 326.273C311.897 330.257 318.919 331.047 323.143 331.047C324.599 331.074 326.053 330.96 327.487 330.706C327.487 330.706 327.501 330.706 327.529 330.706C328.081 330.678 328.621 330.53 329.111 330.271C330.108 329.786 331.454 328.767 332.824 326.628L332.849 326.589C333.506 325.539 334.072 324.435 334.541 323.289C323.555 322.314 300.491 319.505 303.631 313.195C304.105 312.293 304.7 311.459 305.399 310.717" fill="#161616"/>
<path d="M297.492 310.717H292.013C291.929 311.54 291.887 312.367 291.888 313.194C291.888 319.324 294.168 324.298 296.976 324.298C297.536 324.292 298.08 324.107 298.528 323.77C298.498 323.885 298.479 324 298.446 324.116C297.521 327.371 295.803 329.585 293.82 329.733C291.094 329.502 288.914 324.628 288.914 318.648C288.914 315.54 289.505 312.731 290.451 310.718H289.725C289.644 310.876 289.565 311.04 289.49 311.207L289.487 311.213C288.597 313.182 288.055 315.789 288.055 318.646C288.046 320.373 288.257 322.094 288.682 323.769C289.61 327.321 291.47 329.748 293.606 329.748C293.678 329.75 293.75 329.745 293.82 329.731C295.803 329.582 297.522 327.368 298.446 324.114C298.479 323.998 298.496 323.882 298.529 323.767C298.96 322.095 299.171 320.373 299.156 318.646C299.156 315.786 298.617 313.178 297.729 311.209L297.727 311.204C297.651 311.037 297.573 310.874 297.493 310.716" fill="#1E1E1E"/>
<path d="M292.011 310.717H290.451C289.505 312.73 288.914 315.539 288.914 318.647C288.914 324.627 291.094 329.501 293.82 329.732C295.803 329.584 297.521 327.37 298.446 324.115C298.479 324 298.496 323.884 298.528 323.769C298.08 324.106 297.536 324.291 296.976 324.297C294.168 324.297 291.888 319.325 291.888 313.193C291.887 312.366 291.929 311.539 292.013 310.716" fill="#161616"/>
<path d="M293.598 345.47C293.463 345.47 292.889 345.679 292.039 346.254C292.586 346.193 293.129 346.127 293.668 346.056C293.678 345.858 293.654 345.66 293.598 345.47Z" fill="#EB814A"/>
<path d="M225.304 320.726C224.593 321.915 221.256 327.549 216.598 335.561C220.265 336.815 223.85 337.923 227.334 338.947H227.351C227.302 338.667 227.251 338.386 227.219 338.105C226.657 334.486 226.179 331.249 225.765 328.54C225.666 327.845 225.566 327.201 225.468 326.574C225.269 325.202 225.087 324.013 224.939 323.021C224.925 322.923 224.919 322.823 224.922 322.724C224.906 322.604 224.898 322.483 224.897 322.363C224.897 322.246 224.906 322.129 224.922 322.014V321.997C224.956 321.849 224.971 321.7 225.005 321.568C225.069 321.276 225.169 320.992 225.303 320.725" fill="#CECECE"/>
<path d="M359.027 347.044L359.011 347.078L358.994 347.16C357.837 354.941 356.5 363.698 355.145 372.552C359.341 380.433 370.872 403.462 371.219 404.173L392.185 410.12L359.027 347.044Z" fill="#CECECE"/>
<path d="M315.742 417.338C315.742 417.338 323.423 420.461 333.997 424.575C338.722 415.571 339.862 403.957 340.077 396.754C333.568 395.102 326.249 393.185 318.335 391.038C319.31 397.829 315.742 417.338 315.742 417.338Z" fill="#ECECEE"/>
<path d="M271.839 417.338C271.839 417.338 264.157 420.461 253.584 424.575C248.859 415.571 247.719 403.957 247.504 396.754C254.014 395.102 261.332 393.185 269.245 391.038C268.27 397.829 271.839 417.338 271.839 417.338Z" fill="#ECECEE"/>
<path d="M210.006 347.044C195.898 371.809 177.097 406.321 176.155 415.82C176.05 416.896 175.998 417.954 176 418.994C176.012 432.734 184.986 443.071 193.402 444.269C193.633 444.299 193.865 444.314 194.098 444.312C200.126 444.312 221.41 436.808 240.189 429.714C244.914 427.946 249.474 426.179 253.587 424.575C251.31 420.238 249.866 415.295 248.957 410.531C245.553 411.602 242.183 412.628 238.883 413.59C223.605 418.025 209.763 421.118 200.504 421.118C192.344 421.118 187.745 418.711 188.876 412.697C191.733 397.432 209.46 348.564 210.005 347.044" fill="#C7C7C7"/>
<path d="M269.248 391.038C269.248 391.038 267.101 402.041 257.403 407.806C254.578 408.738 251.756 409.65 248.957 410.531C249.867 415.295 251.312 420.237 253.587 424.575C264.16 420.461 271.842 417.338 271.842 417.338C271.842 417.338 269.073 402.2 269.08 393.952C269.069 392.978 269.125 392.004 269.248 391.038Z" fill="#E4E4E7"/>
<path d="M351.6 392.92C351.39 394.269 351.183 395.603 350.977 396.919C350.846 397.745 350.713 398.555 350.598 399.364C350.919 397.302 351.255 395.145 351.6 392.92Z" fill="#AEAEAE"/>
<path d="M358.037 351.043C355.294 361.484 347.166 388.776 337.138 388.776C324.747 388.776 308.936 373.792 308.936 373.792L308.934 373.797C311.003 381.139 312.679 387.733 313.28 388.562C314.355 390.081 318.336 391.039 318.336 391.039H318.339L318.455 391.07L334.544 395.333L335.056 395.466L350.602 399.364C350.718 398.555 350.85 397.745 350.982 396.92C351.187 395.605 351.395 394.272 351.605 392.92C353.705 379.382 356.162 363.329 358.036 351.041" fill="#1E3DBA"/>
<path d="M318.336 391.038L318.454 391.069L318.336 391.038Z" fill="#E7E7EA"/>
<path d="M315.852 416.705C315.779 417.114 315.738 417.339 315.738 417.339C312.005 419.04 308.917 419.75 306.371 419.75C305.992 419.75 305.645 419.734 305.281 419.701C305.028 419.685 304.782 419.66 304.543 419.627C305.146 419.714 305.754 419.757 306.363 419.755C308.923 419.755 312.013 419.045 315.738 417.339L315.743 417.333C315.75 417.295 315.789 417.079 315.854 416.713L315.852 416.705" fill="#272727"/>
<path d="M338.46 411.356C337.542 415.862 336.137 420.488 333.994 424.575C323.42 420.461 315.739 417.339 315.739 417.339V417.333L315.734 417.339C315.734 417.339 323.417 420.461 333.99 424.575C337.988 426.128 342.415 427.846 347.009 429.564C347.14 429.614 347.256 429.664 347.388 429.713C366.169 436.807 387.453 444.311 393.479 444.311C393.711 444.313 393.944 444.298 394.174 444.268C400.238 443.392 406.582 437.808 409.655 429.614C396.685 428.193 375.49 424.475 348.115 414.894C344.978 413.791 341.76 412.611 338.46 411.356H338.46ZM318.498 393.714C318.498 393.795 318.498 393.878 318.498 393.961C318.501 401.204 316.367 413.756 315.847 416.706L315.849 416.713C316.372 413.745 318.552 400.923 318.497 393.714" fill="#CECECE"/>
<path d="M318.349 391.137C318.452 391.992 318.503 392.852 318.502 393.713C318.556 400.922 316.376 413.744 315.853 416.713C315.788 417.078 315.749 417.294 315.742 417.332V417.338C315.742 417.338 323.423 420.461 333.997 424.575C336.142 420.487 337.548 415.862 338.463 411.355C333.319 409.393 327.991 407.225 322.478 404.849V404.832C320.446 399.908 318.579 392.095 318.349 391.137" fill="#E7E7EA"/>
<path d="M294.375 406.849C294.459 407.358 294.559 407.892 294.683 408.439H294.686C294.57 407.929 294.472 407.434 294.398 406.961C294.39 406.923 294.382 406.885 294.375 406.847" fill="#CECECE"/>
<path d="M295.296 410.699C295.854 412.491 296.713 414.174 297.838 415.676C297.68 415.471 297.528 415.26 297.383 415.045C297.264 414.88 297.154 414.709 297.053 414.533C296.417 413.508 295.896 412.417 295.5 411.278C295.434 411.096 295.368 410.915 295.302 410.716L295.296 410.699ZM295.174 410.311C295.199 410.393 295.225 410.477 295.252 410.56C295.227 410.476 295.203 410.391 295.174 410.311ZM295.114 410.115C295.131 410.17 295.147 410.224 295.164 410.278C295.148 410.224 295.131 410.17 295.114 410.115ZM294.68 408.443C294.769 408.843 294.87 409.25 294.984 409.662C294.98 409.644 294.976 409.627 294.972 409.609C294.866 409.214 294.769 408.825 294.683 408.444H294.68" fill="#C3C3C3"/>
<path d="M302.076 418.966C302.572 419.168 303.082 419.33 303.603 419.452C303.442 419.413 303.284 419.37 303.129 419.323C302.915 419.258 302.701 419.192 302.501 419.125C302.357 419.075 302.216 419.021 302.076 418.966ZM298.559 416.523C299.346 417.369 300.273 418.074 301.299 418.607C301.127 418.516 300.961 418.419 300.801 418.317C300.608 418.205 300.42 418.084 300.238 417.953C300.115 417.881 299.999 417.798 299.892 417.705C299.413 417.351 298.967 416.956 298.559 416.523Z" fill="#272727"/>
<path d="M315.737 417.34C312.004 419.042 308.916 419.752 306.37 419.752C305.99 419.752 305.643 419.735 305.279 419.703C304.551 419.658 303.831 419.531 303.132 419.322C302.918 419.256 302.704 419.19 302.504 419.124C301.908 418.921 301.337 418.65 300.803 418.315C300.61 418.204 300.422 418.082 300.24 417.951C300.117 417.88 300.001 417.797 299.894 417.703C298.909 416.968 298.06 416.068 297.383 415.044C297.263 414.879 297.153 414.708 297.052 414.532C296.416 413.508 295.895 412.416 295.5 411.277C295.433 411.095 295.367 410.914 295.302 410.715C295.252 410.583 295.219 410.435 295.169 410.302C295.103 410.071 295.021 409.84 294.971 409.608C294.733 408.737 294.54 407.855 294.393 406.965C294.359 406.8 294.327 406.635 294.31 406.47C294.178 405.644 294.112 404.9 294.062 404.272C294.046 404.107 294.03 403.942 294.03 403.793C294.016 403.689 294.01 403.584 294.012 403.479C294 403.347 293.995 403.214 293.997 403.082C293.979 402.834 293.979 402.653 293.979 402.52C293.979 400.257 293.551 345.474 293.979 345.474C294.272 345.542 294.551 345.659 294.805 345.82C295.02 345.936 295.268 346.085 295.549 346.266C296.194 346.712 296.802 347.21 297.366 347.753C299.167 349.471 301.414 352.379 303.462 357.104C307.559 366.586 312.184 387.056 313.275 388.559C314.35 390.079 318.33 391.037 318.33 391.037C318.332 391.07 318.338 391.103 318.348 391.136C319.273 398.008 315.737 417.337 315.737 417.337" fill="#EF945F"/>
<path d="M293.979 345.474C293.848 345.474 293.797 350.505 293.789 357.581C293.789 358.28 293.789 358.999 293.789 359.736C293.789 376.136 293.98 401.01 293.98 402.519C293.98 402.652 293.98 402.833 293.997 403.081C293.995 403.213 294.001 403.346 294.013 403.478C294.011 403.583 294.016 403.688 294.03 403.792C294.03 403.941 294.047 404.106 294.063 404.271C294.113 404.899 294.178 405.643 294.31 406.469C294.328 406.634 294.36 406.799 294.393 406.964C294.541 407.854 294.734 408.736 294.971 409.607C295.021 409.839 295.103 410.07 295.17 410.301C295.219 410.434 295.253 410.582 295.302 410.714C295.368 410.913 295.434 411.094 295.5 411.276C295.896 412.415 296.417 413.507 297.053 414.531C297.154 414.707 297.264 414.878 297.383 415.043C298.06 416.067 298.91 416.967 299.894 417.702C300.002 417.796 300.118 417.879 300.241 417.95C300.422 418.081 300.61 418.203 300.804 418.314C301.337 418.649 301.908 418.92 302.505 419.123C302.703 419.19 302.918 419.255 303.133 419.321C303.832 419.53 304.552 419.658 305.28 419.702C305.644 419.734 305.991 419.751 306.37 419.751C308.915 419.751 312.004 419.041 315.738 417.339C315.738 417.339 318.506 402.208 318.503 393.961C318.513 393.017 318.461 392.074 318.35 391.137L318.348 391.132C318.34 391.102 318.334 391.071 318.332 391.04C318.332 391.04 318.021 391.058 317.472 391.058C315.094 391.058 308.265 390.709 303.018 386.992C299.285 384.366 296.344 380.036 296.344 372.949C296.344 363.632 296.839 354.611 297.368 347.755C296.804 347.212 296.196 346.714 295.551 346.269C295.27 346.087 295.022 345.938 294.807 345.823C294.554 345.661 294.274 345.544 293.981 345.476" fill="#EB814A"/>
<path d="M229.706 167.154L224.039 156.67C224.039 156.67 221.02 132.536 240.32 122.584C259.62 112.631 283.543 102.984 283.543 102.984L276.202 110.824C276.202 110.824 294.415 100.873 301.483 87.002C301.483 87.002 304.474 99.3656 300.94 113.236C300.94 113.236 306.104 107.808 308.551 94.8419C308.551 94.8419 327.58 96.6515 344.434 118.966C344.434 118.966 344.23 110.447 334.851 102.531C334.851 102.531 390.154 126.451 368.211 156.67C368.211 156.67 362.171 174.901 358.502 177.39C354.832 179.878 301.619 195.708 292.24 194.577C282.862 193.446 245.349 185.982 241.067 183.722C236.785 181.462 229.706 167.154 229.706 167.154Z" fill="#241B2E"/>
<path d="M239.555 229.045C227.785 218.294 221.189 208.092 217.829 198.909C214.794 190.644 214.392 183.22 215.208 176.982C216.855 164.36 223.498 156.6 223.498 156.6L243.655 155.021C243.655 155.021 283.343 269.048 239.555 229.045Z" fill="#241B2E"/>
<path d="M376.315 183.669C376.282 185.08 376.181 186.524 376.002 188.012C375.694 190.516 375.189 192.991 374.491 195.415C371.6 205.46 364.892 216.906 351.611 229.045C307.824 269.047 347.512 155.021 347.512 155.021L367.67 156.6C367.67 156.6 370.156 159.5 372.462 164.652C375.142 170.626 376.459 177.121 376.316 183.668" fill="#241B2E"/>
<path d="M239.514 245.949C233.684 247.002 231.351 245.605 230.655 243.57C229.613 240.572 232.114 236.173 232.114 236.173C222.28 232.825 204.986 212.729 215.085 205.356C219.92 201.826 225.782 204.169 230.576 207.58C235.807 211.286 239.776 216.258 239.776 216.258L247.541 221.648C247.541 221.648 253.956 243.365 239.514 245.949Z" fill="#EF945F"/>
<path d="M242.049 235.837L237.526 229.174C236.009 227.025 234.532 224.878 232.846 222.94C232.051 221.941 231.196 220.991 230.286 220.095C229.836 219.653 229.403 219.176 228.934 218.752C228.441 218.361 227.964 217.946 227.489 217.515C225.432 215.9 223.153 214.588 220.723 213.622C223.478 213.323 226.363 214.074 228.868 215.434C231.404 216.787 233.471 218.785 235.305 220.896C237.073 223.043 238.548 225.415 239.69 227.952C240.877 230.444 241.672 233.104 242.049 235.839" fill="#BA5129"/>
<path d="M234.476 242.865C233.689 243.411 232.752 243.7 231.794 243.695C231.414 243.694 231.034 243.653 230.663 243.573C231.069 244.762 232.034 245.733 233.929 246.125C234.092 245.098 234.277 244.003 234.477 242.866L234.476 242.865ZM220.626 213.204C220.1 213.201 219.576 213.259 219.063 213.376C211.215 215.182 229.201 230.74 230.146 231.55C229.473 230.74 220.457 219.976 222.093 218.685C222.194 218.603 222.32 218.559 222.45 218.56C224.383 218.56 228.814 227.358 234.117 232.442C234.869 233.151 235.496 233.981 235.971 234.899C236.403 232.708 236.833 230.595 237.218 228.737C235.86 226.733 234.402 224.798 232.848 222.942C232.053 221.943 231.198 220.993 230.288 220.097C229.837 219.655 229.404 219.178 228.936 218.754C228.443 218.363 227.965 217.948 227.491 217.517C225.434 215.902 223.155 214.59 220.724 213.624C221.129 213.58 221.537 213.558 221.944 213.559C222.445 213.559 222.946 213.59 223.443 213.65C222.531 213.367 221.582 213.217 220.627 213.204L220.626 213.204ZM230.583 207.583C233.002 211.054 237.368 217.723 237.706 220.943C237.772 221.565 237.614 221.83 237.269 221.83C236.841 221.83 236.131 221.423 235.21 220.785L235.307 220.897C236.319 222.123 237.235 223.425 238.046 224.792C238.399 223.131 238.62 222.118 238.62 222.118L237.133 213.3C235.128 211.199 232.935 209.286 230.583 207.583Z" fill="#E87B40"/>
<path d="M221.943 213.557C221.535 213.557 221.128 213.578 220.723 213.622C223.153 214.589 225.432 215.9 227.489 217.516C227.964 217.946 228.441 218.361 228.934 218.752C229.403 219.176 229.836 219.653 230.286 220.095C231.196 220.991 232.051 221.941 232.846 222.94C234.4 224.797 235.859 226.731 237.216 228.736C237.531 227.215 237.815 225.866 238.044 224.79C237.232 223.423 236.317 222.121 235.305 220.895L235.207 220.783C234.008 219.954 232.454 218.734 230.713 217.515C228.48 215.953 225.941 214.39 223.44 213.648C222.943 213.588 222.443 213.557 221.942 213.557" fill="#A13614"/>
<path d="M350.005 245.107C355.728 246.642 358.17 245.444 359.032 243.472C360.319 240.572 358.193 235.98 358.193 235.98C368.271 233.46 387.174 214.87 377.723 206.684C373.198 202.764 367.162 204.612 362.1 207.613C356.579 210.873 352.212 215.497 352.212 215.497L344.025 220.223C344.025 220.223 335.828 241.333 350.005 245.107Z" fill="#EF945F"/>
<path d="M348.321 234.82C348.924 232.126 349.937 229.541 351.327 227.156C352.675 224.724 354.341 222.482 356.282 220.49C358.284 218.539 360.51 216.718 363.151 215.582C365.759 214.434 368.697 213.926 371.418 214.452C368.915 215.213 366.536 216.331 364.352 217.77C363.843 218.159 363.333 218.535 362.81 218.882C362.307 219.266 361.836 219.704 361.35 220.109C360.369 220.926 359.438 221.802 358.562 222.732C356.723 224.523 355.072 226.539 353.382 228.556L348.32 234.82" fill="#BA5129"/>
<path d="M356.141 243.008C356.294 243.882 356.438 244.731 356.57 245.542C357.111 245.409 357.615 245.152 358.042 244.793C358.469 244.434 358.808 243.982 359.032 243.471C358.796 243.502 358.559 243.518 358.321 243.518C357.564 243.523 356.817 243.348 356.141 243.008H356.141ZM370.873 214.014C370.146 214.019 369.42 214.099 368.709 214.253C368.872 214.247 369.035 214.243 369.198 214.243C369.945 214.242 370.689 214.311 371.423 214.451C368.92 215.212 366.541 216.33 364.357 217.769C363.848 218.158 363.338 218.534 362.815 218.881C362.312 219.265 361.841 219.703 361.355 220.108C360.374 220.925 359.443 221.801 358.567 222.731C356.727 224.522 355.077 226.539 353.387 228.555L353.349 228.602C353.623 229.923 353.921 231.377 354.228 232.899C354.321 233.364 354.414 233.835 354.508 234.312C355.051 233.468 355.728 232.718 356.513 232.093C362.166 227.512 367.269 219.227 369.238 219.227C369.387 219.224 369.531 219.28 369.639 219.383C371.162 220.805 361.285 230.783 360.546 231.533C361.553 230.805 380.771 216.795 373.1 214.343C372.38 214.119 371.629 214.008 370.875 214.014H370.873ZM362.102 207.612C358.086 209.983 354.681 213.076 353.123 214.586L351.977 222.115C351.977 222.115 352.221 223.238 352.607 225.056C353.686 223.421 354.919 221.891 356.288 220.489C356.324 220.453 356.361 220.418 356.397 220.383C355.47 220.917 354.751 221.257 354.317 221.257C353.929 221.257 353.769 220.984 353.893 220.334C354.498 217.154 359.403 210.871 362.102 207.612" fill="#E87B40"/>
<path d="M369.195 214.244C369.032 214.244 368.869 214.247 368.705 214.253C366.07 214.804 363.318 216.22 360.91 217.636C359.167 218.662 357.602 219.686 356.392 220.384C356.356 220.419 356.319 220.454 356.283 220.49C354.914 221.892 353.681 223.421 352.602 225.057C352.813 226.053 353.066 227.259 353.345 228.602L353.383 228.556C355.073 226.539 356.723 224.523 358.563 222.731C359.439 221.802 360.369 220.926 361.35 220.108C361.837 219.704 362.307 219.266 362.811 218.882C363.334 218.534 363.844 218.159 364.352 217.77C366.536 216.331 368.916 215.213 371.418 214.452C370.685 214.312 369.94 214.242 369.194 214.244" fill="#A13614"/>
<path d="M360.016 169.292L351.975 222.117C351.975 222.117 353.039 227 354.226 232.901C355.794 240.741 357.574 250.383 357.351 252.78C357.35 252.847 357.342 252.915 357.328 252.981C356.701 256.453 314.179 297.395 309.139 299.602C308.579 299.849 308.03 300.061 307.482 300.24C303.126 301.741 299.217 301.494 295.297 301.494C290.896 301.494 286.485 301.808 281.456 299.602C276.417 297.396 233.894 256.452 233.267 252.981C232.64 249.52 238.62 222.118 238.62 222.118L229.168 166.056C274.557 179.27 318.31 180.077 360.294 167.422L360.015 169.293" fill="#EF945F"/>
<path d="M299.243 249.677V249.722C298.414 249.803 297.58 249.837 296.746 249.822C298.201 249.8 299.243 249.677 299.243 249.677Z" fill="black"/>
<path d="M296.75 249.822C295.875 249.836 295 249.803 294.129 249.722V249.677C294.999 249.77 295.874 249.819 296.75 249.822Z" fill="black"/>
<path d="M269.919 207.286C265.792 207.286 262.445 214.048 262.445 222.389C262.445 230.73 265.792 237.493 269.919 237.493C274.046 237.493 277.392 230.731 277.392 222.389C277.392 214.048 274.047 207.286 269.919 207.286Z" fill="#E87B40"/>
<path d="M269.916 235.707C272.845 235.707 275.219 231.188 275.219 225.615C275.219 220.042 272.845 215.523 269.916 215.523C266.988 215.523 264.613 220.042 264.613 225.615C264.613 231.188 266.988 235.707 269.916 235.707Z" fill="#241B2E"/>
<path d="M269.978 220.79C269.978 222.53 269.192 223.941 268.222 223.941C267.252 223.941 266.465 222.53 266.465 220.79C266.465 219.051 267.252 217.64 268.222 217.64C269.192 217.64 269.978 219.05 269.978 220.79Z" fill="white"/>
<path d="M271.693 224.768C271.62 225.828 271.081 226.655 270.49 226.614C269.898 226.573 269.478 225.681 269.551 224.62C269.624 223.559 270.163 222.732 270.754 222.773C271.346 222.814 271.766 223.707 271.693 224.768Z" fill="white"/>
<path d="M318.958 204.979C314.829 204.979 311.484 211.742 311.484 220.083C311.484 228.424 314.83 235.186 318.958 235.186C323.086 235.186 326.431 228.424 326.431 220.083C326.431 211.742 323.085 204.979 318.958 204.979Z" fill="#E87B40"/>
<path d="M318.959 233.397C321.888 233.397 324.262 228.879 324.262 223.305C324.262 217.732 321.888 213.214 318.959 213.214C316.03 213.214 313.656 217.732 313.656 223.305C313.656 228.879 316.03 233.397 318.959 233.397Z" fill="#241B2E"/>
<path d="M319.01 218.48C319.01 220.22 318.223 221.63 317.252 221.63C316.282 221.63 315.496 220.219 315.496 218.48C315.496 216.74 316.282 215.329 317.252 215.329C318.223 215.329 319.01 216.739 319.01 218.48Z" fill="white"/>
<path d="M320.724 222.459C320.651 223.519 320.112 224.347 319.52 224.306C318.929 224.265 318.509 223.372 318.583 222.311C318.656 221.25 319.194 220.423 319.785 220.464C320.376 220.505 320.797 221.398 320.724 222.459Z" fill="white"/>
<path d="M229.168 166.054L238.62 222.116C238.62 222.116 238.398 223.129 238.046 224.79C237.817 225.866 237.533 227.215 237.219 228.735C235.621 236.457 233.227 248.631 233.22 252.273C233.215 252.509 233.231 252.746 233.266 252.979C233.893 256.45 276.416 297.393 281.456 299.6C285.371 301.317 288.91 301.507 292.364 301.507C293.346 301.507 294.321 301.492 295.297 301.492C296.267 301.492 297.236 301.507 298.211 301.507C301.178 301.507 304.203 301.367 307.482 300.238C329.342 285.143 351.829 255.869 354.203 252.733C339.006 271.804 308.444 294.875 308.444 294.875C303.645 293.401 298.658 292.633 293.639 292.594C285.094 292.594 280.303 295.087 280.303 295.087C265.185 286.263 253.639 253.506 250.066 238.813C250.066 238.813 245.027 197.445 248.588 177.074C248.588 177.074 269.561 181.016 295.617 181.016C316.551 181.016 340.769 178.471 360.016 169.291L360.296 167.42C340.339 173.44 319.604 176.484 298.759 176.455C276.021 176.455 252.816 172.938 229.169 166.054" fill="#E87B40"/>
<path d="M281.614 199.224C281.374 199.218 281.124 199.215 280.877 199.233C280.501 199.228 280.116 199.235 279.724 199.266C278.738 199.317 277.755 199.425 276.781 199.588C276.282 199.66 275.773 199.744 275.256 199.842C273.763 200.148 272.274 200.546 270.816 200.992C261.871 203.791 254.276 208.896 254.276 208.896C249.732 203.376 259.581 198.644 259.581 198.644C256.925 199.394 253.53 202.867 253.317 203.084C256.247 198.735 259.507 195.954 262.459 194.189C264.244 193.105 266.166 192.265 268.174 191.692C269.12 191.423 270.086 191.228 271.062 191.107C271.352 191.066 271.644 191.044 271.937 191.041L274.284 192.998L272.942 190.668C273.782 190.872 274.581 191.219 275.304 191.693L275.33 191.711C277.76 193.281 279.087 195.853 279.289 196.25C277.696 191.872 275 190.211 275 190.211C275.36 190.297 275.711 190.417 276.048 190.57C280.395 192.536 281.614 199.224 281.614 199.224Z" fill="#241B2E"/>
<path d="M275.258 199.843C273.765 200.149 272.275 200.546 270.818 200.993C268.2 196.741 264.902 194.941 262.461 194.19C264.245 193.106 266.167 192.266 268.175 191.692C273.078 194.201 274.729 197.966 275.258 199.843Z" fill="#342941"/>
<path d="M279.722 199.265C278.736 199.316 277.753 199.423 276.779 199.586C275.31 194.745 272.953 192.311 271.059 191.106C271.349 191.065 271.641 191.042 271.934 191.039L274.281 192.997L272.939 190.666C273.779 190.87 274.578 191.217 275.301 191.691L275.326 191.71C277.542 193.709 279.079 196.35 279.722 199.265Z" fill="#342941"/>
<path d="M281.62 199.223C281.381 199.217 281.131 199.213 280.884 199.232C279.695 194.628 277.62 191.988 276.055 190.569C280.402 192.534 281.62 199.223 281.62 199.223Z" fill="#342941"/>
<path d="M309.758 198.179C309.996 198.154 310.245 198.13 310.492 198.129C310.866 198.093 311.25 198.069 311.644 198.068C312.631 198.038 313.619 198.066 314.604 198.149C315.107 198.181 315.621 198.224 316.144 198.279C317.657 198.463 319.174 198.738 320.663 199.066C329.805 201.131 337.789 205.603 337.789 205.603C341.87 199.733 331.671 195.815 331.671 195.815C334.38 196.347 338.044 199.534 338.275 199.733C335.002 195.634 331.528 193.128 328.442 191.609C326.575 190.672 324.592 189.991 322.544 189.582C321.579 189.391 320.6 189.275 319.617 189.234C319.325 189.217 319.032 189.218 318.74 189.239L316.559 191.38L317.709 188.948C316.888 189.219 316.119 189.63 315.437 190.161L315.413 190.182C313.119 191.943 312.004 194.614 311.834 195.027C313.067 190.534 315.62 188.659 315.62 188.659C315.268 188.774 314.928 188.922 314.604 189.102C310.43 191.415 309.758 198.179 309.758 198.179Z" fill="#241B2E"/>
<path d="M316.148 198.281C317.661 198.464 319.178 198.739 320.667 199.067C322.931 194.617 326.072 192.555 328.445 191.609C326.579 190.673 324.595 189.991 322.547 189.583C317.863 192.48 316.523 196.368 316.148 198.281Z" fill="#342941"/>
<path d="M311.648 198.068C312.636 198.038 313.624 198.066 314.608 198.149C315.679 193.205 317.832 190.588 319.621 189.233C319.329 189.216 319.036 189.217 318.744 189.238L316.562 191.379L317.712 188.947C316.891 189.219 316.123 189.629 315.441 190.16L315.416 190.181C313.37 192.354 312.053 195.111 311.648 198.068Z" fill="#342941"/>
<path d="M309.758 198.179C309.996 198.154 310.245 198.13 310.492 198.128C311.304 193.443 313.159 190.644 314.604 189.103C310.43 191.415 309.758 198.179 309.758 198.179Z" fill="#342941"/>
<path d="M357.344 252.779C338.429 249.396 310.32 248.435 317.039 241.96C323.233 236.003 343.592 233.707 354.219 232.9C355.787 240.74 357.567 250.382 357.344 252.779Z" fill="#FFAB79"/>
<path d="M325.146 254.68C324.875 255.395 315.878 278.298 295.43 278.298C274.983 278.298 267.273 255.193 267.043 254.462C269.53 256 272.163 257.287 274.904 258.305C291.096 264.389 308.535 260.499 318.02 257.387C320.445 256.621 322.824 255.717 325.146 254.68Z" fill="#121116"/>
<path d="M318.015 257.388C317.798 257.652 317.567 257.901 317.337 258.166C293.99 283.806 278.163 263.253 274.898 258.306C291.09 264.389 308.528 260.499 318.015 257.388Z" fill="white"/>
<path d="M261.703 251.169C267.274 253.753 272.81 256.121 278.506 257.792C284.196 259.438 290.015 260.451 295.853 260.448C301.728 260.486 307.575 259.643 313.2 257.947C318.887 256.273 324.4 253.858 329.919 251.169C325.316 255.335 320.019 258.663 314.268 261.003C312.816 261.579 311.325 262.076 309.836 262.573C308.316 262.963 306.791 263.361 305.254 263.716C303.697 263.955 302.137 264.221 300.565 264.371C298.988 264.44 297.41 264.637 295.829 264.593C289.518 264.511 283.28 263.236 277.442 260.836C271.7 258.5 266.382 255.234 261.703 251.169Z" fill="#BA5129"/>
<path d="M264.842 247.559C264.593 248.691 264.427 249.46 264.239 250.157C264.076 250.77 263.866 251.37 263.611 251.951C263.341 252.539 263.023 253.102 262.659 253.636C262.149 254.395 261.572 255.107 260.936 255.764C259.18 254.273 259.048 252.048 259.837 250.231C260.252 249.313 260.934 248.542 261.793 248.017C262.24 247.73 262.743 247.541 263.269 247.462C263.794 247.383 264.331 247.416 264.842 247.559Z" fill="#BA5129"/>
<path d="M326.48 247.559C326.985 247.35 327.532 247.264 328.076 247.306C328.621 247.349 329.147 247.519 329.613 247.804C330.526 248.332 331.244 249.141 331.663 250.109C332.059 251.039 332.169 252.065 331.978 253.058C331.776 254.086 331.211 255.008 330.387 255.656C329.765 254.976 329.213 254.236 328.738 253.446C328.396 252.905 328.099 252.337 327.851 251.747C327.619 251.196 327.423 250.629 327.266 250.052C327.072 249.393 326.88 248.65 326.48 247.559Z" fill="#BA5129"/>
<path d="M283.398 281.143C285.643 281.663 287.667 282.111 289.672 282.42C291.608 282.737 293.567 282.888 295.529 282.87C297.479 282.871 299.424 282.685 301.338 282.313C303.341 282.015 305.301 281.383 307.598 280.924C306.28 282.839 304.488 284.38 302.398 285.397C300.275 286.474 297.926 287.029 295.546 287.018C293.177 287.04 290.833 286.528 288.69 285.52C286.595 284.514 284.681 283.09 283.398 281.143Z" fill="#BA5129"/>
<path d="M362.086 192.508C366.934 191.757 371.632 190.241 376.006 188.018C375.698 190.521 375.192 192.996 374.494 195.42C367.136 195.196 362.086 192.508 362.086 192.508Z" fill="#342941"/>
<path d="M361.451 183.379C362.279 176.872 367.621 169.828 372.459 164.654C375.139 170.628 376.455 177.124 376.313 183.67C368.371 187.22 360.689 189.337 361.451 183.379Z" fill="#342941"/>
<path d="M230.742 190.94C230.551 195.655 223.485 197.883 217.829 198.914C214.795 190.649 214.391 183.224 215.208 176.986C220.707 179.562 230.977 185.173 230.742 190.94Z" fill="#342941"/>
<path d="M345.783 257.213C344.835 261.464 339.247 266.258 323.41 267.249C307.122 268.256 299.309 262.472 295.568 256.867C291.827 262.472 284.014 268.256 267.726 267.249C237.3 265.341 244.694 249.399 250.192 250.242C255.466 251.053 251.949 254.224 251.679 254.449C251.814 254.239 252.986 252.225 250.086 252.03C247.021 251.82 246.599 255.306 247.442 257.424C248.285 259.543 255.045 262.278 268.147 254.464C281.25 246.651 286.748 246.02 286.748 246.02C288.311 246.786 290.249 247.162 292.127 247.342C293.296 247.451 294.47 247.496 295.643 247.478C296.762 247.497 297.88 247.452 298.994 247.342C300.798 247.162 302.675 246.817 304.208 246.11L304.388 246.019C304.388 246.019 309.887 246.65 322.974 254.463C327.662 257.258 331.539 258.7 334.619 259.301C340.164 260.398 343.138 258.79 343.694 257.423C343.868 256.97 343.979 256.494 344.025 256.011C344.235 254.283 343.665 252.375 341.831 252.059C341.572 252.025 341.311 252.015 341.05 252.028C338.15 252.224 339.322 254.237 339.442 254.447C339.172 254.222 335.656 251.052 340.945 250.241C341.109 250.215 341.275 250.205 341.441 250.21C343.95 250.271 346.595 253.532 345.783 257.213Z" fill="#241B2E"/>
<path d="M331.049 261.584C321.898 264.108 302.59 259.886 300.622 254.252C298.864 249.219 303.253 246.605 304.213 246.108L304.393 246.017C304.393 246.017 309.893 246.648 322.98 254.461C327.668 257.256 331.544 258.698 334.625 259.299C325.578 261.028 307.098 255.379 307.098 255.379C315.693 261.855 331.049 261.584 331.049 261.584Z" fill="#342941"/>
<path d="M291.892 252.278C291.892 252.278 285.132 261.435 260.902 262.281C260.902 262.281 270.622 264.535 281.468 260.45C281.468 260.45 279.073 263.267 272.03 263.971C272.03 263.97 293.441 267.21 291.892 252.278Z" fill="#342941"/>
<path d="M288.514 251.152C288.514 251.152 271.47 256.223 264.145 260.59C264.145 260.59 275.273 249.18 288.514 251.152Z" fill="#342941"/>
<path d="M345.788 257.213C345.134 256.923 344.538 256.515 344.029 256.011C344.24 254.283 343.669 252.375 341.836 252.059C341.665 251.453 341.534 250.835 341.445 250.211C343.955 250.272 346.6 253.532 345.788 257.213Z" fill="#342941"/>
<path d="M281.887 244.007L285.703 232.176C285.703 232.176 295.436 245.343 306.122 232.176L309.366 243.435C309.366 243.435 295.817 257.556 281.887 244.007Z" fill="#FFAB79"/>
<path d="M281.11 241.329C281.553 242.657 282.462 243.779 283.67 244.487C284.802 245.188 286.027 245.726 287.309 246.085C292.562 247.473 298.084 247.471 303.335 246.078C304.617 245.721 305.843 245.184 306.975 244.483C308.184 243.777 309.096 242.656 309.541 241.329C309.982 242.826 309.386 244.633 308.368 245.919C307.332 247.201 306.04 248.252 304.575 249.005C301.714 250.565 298.491 251.164 295.327 251.194C292.163 251.16 288.94 250.561 286.08 249C284.614 248.248 283.322 247.197 282.287 245.915C281.268 244.63 280.673 242.826 281.11 241.329Z" fill="#BA5129"/>
<path d="M342.675 169.98C342.675 169.98 385.694 145.515 349.199 113.913C349.199 113.913 364.286 138.786 340.229 157.747C340.229 157.747 358.238 109.001 308.559 94.8406C308.559 94.8406 316.375 125.126 293.54 151.427C293.54 151.427 299.046 134.913 300.269 119.621L289.668 142.456C289.668 142.456 298.027 115.34 301.493 87C301.493 87 291.299 106.369 275.396 122.068C259.494 137.767 259.698 155.096 263.367 161.62C263.367 161.62 244.202 137.766 272.338 115.544C272.338 115.544 227.892 123.495 238.902 163.252C238.902 163.252 239.921 140.417 251.746 132.67C251.746 132.67 239.717 151.426 256.435 170.591C256.435 170.591 250.523 158.154 252.562 145.106C252.562 145.106 252.358 163.455 275.804 173.242C275.804 173.242 267.445 159.989 276.415 143.883C285.386 127.777 291.911 110.447 291.911 110.447C291.911 110.447 289.26 129 283.144 143.475C277.027 157.951 281.308 174.057 281.308 173.242C281.308 172.426 285.997 151.019 288.24 147.349C288.24 147.349 289.871 155.708 286.405 170.183C286.405 170.183 322.288 150.815 317.599 108.204C317.599 108.204 329.832 140.621 303.939 171.203C303.939 171.203 338.599 158.359 327.385 114.116C327.385 114.116 342.881 145.31 323.308 170.184C323.308 170.184 334.929 163.454 337.172 147.96C337.172 147.96 340.638 160.194 333.501 169.776C333.501 169.776 356.744 158.359 358.17 135.524C358.17 135.524 359.801 153.873 342.675 169.98Z" fill="#342941"/>
</svg>
