<svg width="302" height="302" viewBox="0 0 302 302" fill="none" xmlns="http://www.w3.org/2000/svg">
<circle cx="151" cy="151" r="151" fill="#17328E"/>
<path d="M78.707 266.338C78.7923 266.183 78.8439 266.098 78.8439 266.098C78.7854 266.17 78.7392 266.251 78.707 266.338Z" fill="#1E3DBA"/>
<path d="M172.927 265.187H125.535V201.438H172.927V265.187Z" fill="#EF945F"/>
<path d="M146.842 257.732C146.842 257.732 121.365 240.708 114.356 240.153C107.348 239.597 101.896 251.389 105.345 264.183C108.793 276.977 114.245 276.643 114.245 276.643C114.245 276.643 128.596 279.758 147.509 267.409C151.737 262.959 146.842 257.731 146.842 257.731" fill="#282828"/>
<path d="M151.618 257.732C151.618 257.732 177.094 240.708 184.104 240.153C191.113 239.597 196.564 251.389 193.115 264.183C189.667 276.977 184.215 276.643 184.215 276.643C184.215 276.643 169.864 279.758 150.95 267.409C146.723 262.959 151.619 257.731 151.619 257.731" fill="#282828"/>
<path d="M113.881 240.131C108.275 240.131 103.793 248.041 104.319 257.85L104.325 257.848C103.795 248.036 108.273 240.132 113.882 240.132C114.04 240.132 114.198 240.138 114.358 240.151C115.131 240.236 115.893 240.409 116.628 240.664L116.63 240.661C115.896 240.406 115.135 240.234 114.362 240.149C114.2 240.137 114.041 240.13 113.881 240.13" fill="#AEAEAE"/>
<path d="M113.88 240.134C108.272 240.134 103.794 248.038 104.324 257.85L111.017 255.998H113.261C111.591 252.923 111.277 249.728 112.297 247.162C113.288 244.728 114.76 242.518 116.626 240.666C115.891 240.41 115.129 240.238 114.356 240.152C114.198 240.14 114.037 240.134 113.88 240.134" fill="#1E1E1E"/>
<path d="M184.247 240.145C184.197 240.147 184.147 240.149 184.096 240.153C182.092 240.314 178.58 241.819 174.586 243.888C178.584 241.818 182.098 240.313 184.102 240.154C184.151 240.15 184.197 240.147 184.247 240.145Z" fill="#AEAEAE"/>
<path d="M184.574 240.134C184.466 240.134 184.358 240.137 184.249 240.142C184.201 240.144 184.154 240.147 184.104 240.151C182.1 240.309 178.586 241.816 174.588 243.885C167.373 247.622 158.585 253.195 154.27 255.997H161.411C166.43 250.444 178.319 243.93 185.634 240.235C185.285 240.165 184.929 240.132 184.574 240.134Z" fill="#1E1E1E"/>
<path d="M154.961 264.19C154.976 265.973 154.759 267.751 154.313 269.478C154.282 269.597 154.262 269.717 154.228 269.836C153.273 273.197 151.5 275.483 149.452 275.636C149.379 275.65 149.305 275.656 149.231 275.654C146.076 275.654 143.5 270.519 143.5 264.189C143.5 257.859 146.076 252.724 149.231 252.724C152.404 252.724 154.962 257.859 154.962 264.189" fill="#282828"/>
<path d="M148.052 253.272C147.263 253.819 146.553 254.765 145.973 256.001H147.583C147.676 255.082 147.832 254.17 148.051 253.272" fill="#1E1E1E"/>
<path d="M78.8452 266.098C78.8292 266.117 78.8152 266.137 78.8025 266.155C78.7694 266.215 78.7376 266.276 78.707 266.338C78.7923 266.183 78.8439 266.098 78.8439 266.098" fill="#1E3DBA"/>
<path d="M145.224 256H144.203C144.481 256.18 144.74 256.35 144.98 256.505C145.059 256.332 145.14 256.163 145.224 256ZM154.26 256H153.244C153.327 256.163 153.407 256.331 153.485 256.504C153.724 256.348 153.982 256.18 154.26 256Z" fill="#EB814A"/>
<path d="M111.546 275.572C112.94 276.592 113.995 276.646 114.208 276.646C114.234 276.646 114.247 276.646 114.247 276.646C115.723 276.906 117.22 277.023 118.718 276.996C119.651 276.996 120.716 276.959 121.902 276.86C123.052 276.765 124.314 276.61 125.679 276.375C123.384 276.777 121.06 276.984 118.73 276.994C117.227 277.021 115.724 276.903 114.243 276.642C114.243 276.642 114.229 276.642 114.202 276.642C113.986 276.642 112.935 276.585 111.545 275.571L111.546 275.572ZM111.531 275.561L111.541 275.568L111.531 275.561ZM144.203 256H113.263C116.39 261.757 124.267 267.096 137.038 267.096C137.536 267.096 138.039 267.088 138.551 267.071C139.115 261.732 142.628 257.894 144.489 256.188L144.978 256.512L144.981 256.506C144.742 256.35 144.482 256.18 144.204 256" fill="#1E1E1E"/>
<path d="M189.755 272.389L189.729 272.429L189.755 272.389ZM159.285 272.062C166.237 275.299 172.207 276.494 176.561 276.857C177.746 276.957 178.811 276.994 179.744 276.994C181.243 277.021 182.74 276.904 184.216 276.644C184.216 276.644 184.229 276.644 184.255 276.644C184.828 276.614 185.387 276.46 185.894 276.191C185.389 276.457 184.831 276.611 184.26 276.639C184.232 276.639 184.217 276.639 184.217 276.639C182.737 276.901 181.235 277.019 179.732 276.992C175.371 276.992 168.12 276.176 159.283 272.062H159.285ZM159.148 271.998L159.272 272.056L159.148 271.998ZM159.014 271.935L159.105 271.978L159.014 271.935ZM158.878 271.872L158.954 271.908L158.878 271.872ZM158.744 271.809L158.83 271.85L158.744 271.809ZM158.609 271.746L158.64 271.761L158.609 271.746ZM158.472 271.68L158.512 271.699L158.472 271.68ZM158.336 271.614L158.389 271.64L158.336 271.614ZM158.2 271.548L158.221 271.558L158.2 271.548ZM154.268 256.001H154.259C153.981 256.181 153.723 256.349 153.484 256.505L153.487 256.51C153.728 256.353 153.988 256.183 154.269 256.001H154.268ZM187.441 256.001H161.412C160.69 256.768 160.076 257.628 159.585 258.56C156.344 265.076 180.159 267.976 191.502 268.982C191.017 270.166 190.433 271.306 189.755 272.39C190.924 270.557 192.105 267.935 193.116 264.185C193.677 262.115 194.019 259.992 194.137 257.851V257.851L187.441 256" fill="#1E1E1E"/>
<path d="M104.322 257.849L104.316 257.85C104.434 259.992 104.776 262.115 105.335 264.185C107.212 271.119 109.67 274.195 111.528 275.558C109.669 274.192 107.212 271.114 105.343 264.181C104.783 262.112 104.441 259.989 104.322 257.849" fill="#272727"/>
<path d="M144.144 269.477C137.018 273.58 130.669 275.515 125.676 276.374C130.67 275.517 137.02 273.582 144.144 269.478" fill="#C3C3C3"/>
<path d="M111.539 275.564L111.544 275.568L111.539 275.564Z" fill="#272727"/>
<path d="M113.26 256H111.017L104.324 257.852C104.442 259.993 104.784 262.115 105.345 264.185C107.214 271.117 109.672 274.197 111.529 275.561L111.539 275.568L111.544 275.571C112.933 276.585 113.984 276.642 114.2 276.642C114.227 276.642 114.241 276.642 114.241 276.642C115.722 276.903 117.225 277.021 118.729 276.994C121.058 276.984 123.383 276.777 125.677 276.375C130.67 275.517 137.019 273.581 144.145 269.478C143.706 267.749 143.489 265.972 143.498 264.189C143.498 261.237 144.058 258.545 144.976 256.514L144.487 256.19C142.627 257.896 139.113 261.733 138.549 267.073C138.037 267.09 137.534 267.098 137.036 267.098C124.265 267.098 116.386 261.76 113.261 256.002" fill="#161616"/>
<path d="M159.273 272.06L159.284 272.065L159.273 272.06ZM159.106 271.982C159.121 271.989 159.134 271.995 159.149 272.002C159.134 271.995 159.121 271.989 159.106 271.982ZM158.955 271.911L159.015 271.939L158.955 271.911ZM158.831 271.852L158.879 271.875L158.831 271.852ZM158.641 271.761L158.745 271.811L158.641 271.761ZM158.513 271.698L158.608 271.745L158.513 271.698ZM158.39 271.639L158.473 271.679L158.39 271.639ZM158.222 271.557L158.337 271.613L158.222 271.557ZM154.312 269.477C155.636 270.239 156.933 270.929 158.201 271.547C156.934 270.927 155.638 270.237 154.312 269.477Z" fill="#C3C3C3"/>
<path d="M189.725 272.43C188.311 274.638 186.921 275.691 185.891 276.192C186.921 275.693 188.31 274.641 189.725 272.43Z" fill="#272727"/>
<path d="M161.412 256H154.27C153.99 256.182 153.729 256.352 153.488 256.509C154.404 258.542 154.962 261.235 154.962 264.188C154.977 265.972 154.759 267.749 154.314 269.476C155.639 270.239 156.935 270.929 158.202 271.547L158.223 271.556L158.338 271.613L158.392 271.639L158.474 271.679L158.515 271.698L158.609 271.745L158.641 271.76L158.744 271.809L158.83 271.85L158.879 271.873L158.955 271.909L159.015 271.938L159.106 271.981C159.121 271.987 159.134 271.994 159.149 272.001L159.273 272.058L159.283 272.063C168.12 276.177 175.371 276.993 179.733 276.993C181.235 277.021 182.737 276.903 184.217 276.641C184.217 276.641 184.232 276.641 184.261 276.641C184.831 276.612 185.389 276.459 185.894 276.192C186.925 275.691 188.314 274.639 189.729 272.43L189.754 272.39C190.432 271.306 191.017 270.166 191.501 268.982C180.158 267.976 156.343 265.076 159.585 258.56C160.075 257.628 160.689 256.768 161.411 256.001" fill="#161616"/>
<path d="M153.241 256.001H147.583C147.496 256.851 147.453 257.705 147.454 258.559C147.454 264.888 149.808 270.024 152.708 270.024C153.287 270.018 153.848 269.827 154.311 269.479C154.279 269.597 154.26 269.717 154.226 269.837C153.27 273.197 151.497 275.483 149.449 275.636C146.635 275.398 144.384 270.365 144.384 264.19C144.384 260.981 144.994 258.081 145.971 256.002H145.221C145.137 256.165 145.056 256.334 144.978 256.507L144.975 256.514C144.056 258.546 143.496 261.238 143.496 264.188C143.488 265.972 143.705 267.749 144.144 269.478V269.478C145.102 273.146 147.023 275.652 149.228 275.652C149.303 275.654 149.377 275.648 149.45 275.634C151.497 275.481 153.271 273.195 154.226 269.834C154.26 269.715 154.278 269.595 154.311 269.476C154.756 267.749 154.974 265.972 154.959 264.188C154.959 261.235 154.402 258.542 153.485 256.509L153.483 256.504C153.405 256.331 153.324 256.163 153.241 256" fill="#1E1E1E"/>
<path d="M147.585 256.001H145.974C144.997 258.08 144.387 260.98 144.387 264.189C144.387 270.364 146.638 275.397 149.452 275.635C151.5 275.483 153.274 273.196 154.229 269.836C154.263 269.716 154.281 269.597 154.314 269.478C153.851 269.826 153.29 270.017 152.711 270.023C149.811 270.023 147.458 264.889 147.458 258.558C147.456 257.704 147.499 256.85 147.586 256" fill="#161616"/>
<path d="M83.2551 107.762L77.4036 96.9367C77.4036 96.9367 74.2863 72.017 94.215 61.7402C114.144 51.4635 138.846 41.5022 138.846 41.5022L131.266 49.5975C131.266 49.5975 150.072 39.3223 157.37 25C157.37 25 160.458 37.7662 156.809 52.0885C156.809 52.0885 162.142 46.4837 164.667 33.0953C164.667 33.0953 184.316 34.9638 201.719 58.0045C201.719 58.0045 201.509 49.2084 191.824 41.0351C191.824 41.0351 248.928 65.7337 226.27 96.9367C226.27 96.9367 220.034 115.761 216.245 118.331C212.456 120.901 157.51 137.246 147.826 136.078C138.142 134.91 99.4081 127.203 94.9863 124.869C90.5646 122.536 83.2551 107.762 83.2551 107.762Z" fill="#241B2E"/>
<path d="M93.4259 171.674C81.2727 160.573 74.4623 150.039 70.9931 140.556C67.8593 132.023 67.4434 124.356 68.2867 117.916C69.9875 104.883 76.8459 96.87 76.8459 96.87L97.6597 95.2393C97.6597 95.2393 138.64 212.98 93.4259 171.674Z" fill="#241B2E"/>
<path d="M234.641 124.82C234.607 126.277 234.502 127.769 234.318 129.305C234 131.89 233.478 134.446 232.757 136.949C229.773 147.321 222.846 159.139 209.133 171.674C163.92 212.979 204.9 95.2393 204.9 95.2393L225.714 96.8699C225.714 96.8699 228.282 99.8647 230.663 105.184C233.43 111.353 234.79 118.06 234.643 124.819" fill="#241B2E"/>
<path d="M93.3853 189.125C87.3658 190.212 84.9569 188.77 84.2383 186.668C83.162 183.573 85.7452 179.03 85.7452 179.03C75.5904 175.573 57.7335 154.823 68.1615 147.21C73.1537 143.565 79.2061 145.984 84.1569 149.506C89.5577 153.333 93.6563 158.467 93.6563 158.467L101.674 164.032C101.674 164.032 108.298 186.457 93.3853 189.125" fill="#EF945F"/>
<path d="M95.9975 178.688L91.3272 171.807C89.7609 169.588 88.2357 167.372 86.4948 165.37C85.674 164.339 84.7913 163.358 83.8516 162.433C83.3867 161.976 82.9394 161.484 82.4556 161.046C81.9464 160.643 81.4534 160.214 80.9635 159.769C78.8394 158.101 76.4863 156.747 73.9766 155.749C76.8213 155.44 79.8006 156.216 82.3867 157.62C85.006 159.017 87.1404 161.081 89.0335 163.26C90.8597 165.476 92.3823 167.927 93.5614 170.545C94.7869 173.119 95.6083 175.865 95.9968 178.689" fill="#BA5129"/>
<path d="M88.1751 185.938C87.362 186.501 86.3952 186.8 85.4061 186.795C85.0132 186.794 84.6215 186.752 84.2375 186.668C84.6572 187.896 85.6537 188.899 87.6103 189.304C87.7787 188.244 87.9698 187.113 88.176 185.939L88.1751 185.938ZM73.8742 155.31C73.3312 155.308 72.7897 155.368 72.2603 155.488C64.1565 157.354 82.7287 173.418 83.7037 174.254C83.0089 173.418 73.6995 162.303 75.389 160.97C75.4933 160.886 75.6235 160.841 75.7575 160.842C77.7536 160.842 82.3292 169.926 87.8043 175.176C88.5812 175.907 89.2287 176.765 89.7192 177.713C90.1651 175.45 90.6092 173.268 91.0059 171.35C89.6043 169.28 88.0982 167.283 86.4935 165.366C85.6728 164.334 84.79 163.353 83.8503 162.428C83.3854 161.971 82.9381 161.479 82.4543 161.041C81.9451 160.638 81.4521 160.209 80.9622 159.765C78.8381 158.096 76.485 156.742 73.9753 155.744C74.3937 155.699 74.8143 155.677 75.2351 155.677C75.7525 155.677 76.2693 155.709 76.7828 155.772C75.8408 155.479 74.8616 155.324 73.8754 155.311L73.8742 155.31ZM84.1551 149.507C86.6527 153.091 91.1616 159.977 91.5103 163.301C91.5782 163.944 91.4156 164.217 91.059 164.217C90.6168 164.217 89.8834 163.797 88.9327 163.139L89.0335 163.255C90.0783 164.52 91.0238 165.865 91.8615 167.276C92.2254 165.561 92.4537 164.515 92.4537 164.515L90.9187 155.41C88.8481 153.241 86.5842 151.265 84.1551 149.507" fill="#E87B40"/>
<path d="M75.2364 155.678C74.8156 155.678 74.395 155.7 73.9766 155.745C76.4863 156.743 78.8394 158.097 80.9635 159.766C81.4534 160.21 81.9464 160.639 82.4556 161.042C82.9394 161.48 83.3867 161.972 83.8516 162.429C84.7914 163.354 85.6741 164.335 86.4948 165.367C88.0996 167.284 89.6056 169.281 91.0072 171.351C91.3322 169.781 91.6253 168.387 91.8616 167.277C91.0238 165.865 90.0783 164.521 89.0335 163.255L88.9328 163.14C87.6947 162.284 86.0902 161.024 84.2919 159.765C81.9862 158.152 79.3648 156.539 76.7828 155.773C76.2693 155.71 75.7525 155.678 75.2352 155.678" fill="#A13614"/>
<path d="M207.468 188.255C213.378 189.84 215.899 188.603 216.789 186.567C218.118 183.572 215.922 178.831 215.922 178.831C226.329 176.229 245.847 157.034 236.088 148.581C231.416 144.534 225.184 146.442 219.957 149.541C214.256 152.906 209.746 157.681 209.746 157.681L201.294 162.561C201.294 162.561 192.829 184.358 207.468 188.255" fill="#EF945F"/>
<path d="M205.731 177.631C206.353 174.85 207.4 172.181 208.835 169.718C210.227 167.206 211.947 164.891 213.951 162.835C216.019 160.82 218.317 158.94 221.044 157.767C223.737 156.582 226.771 156.057 229.58 156.6C226.996 157.386 224.539 158.54 222.284 160.027C221.759 160.428 221.232 160.816 220.692 161.174C220.172 161.571 219.687 162.024 219.184 162.441C218.171 163.285 217.21 164.19 216.306 165.149C214.406 166.999 212.702 169.081 210.957 171.164L205.73 177.631" fill="#BA5129"/>
<path d="M213.8 186.087C213.958 186.99 214.107 187.866 214.243 188.704C214.802 188.566 215.322 188.302 215.763 187.931C216.204 187.56 216.554 187.093 216.785 186.565C216.542 186.597 216.297 186.614 216.051 186.614C215.27 186.619 214.498 186.439 213.8 186.087H213.8ZM229.012 156.149C228.261 156.155 227.512 156.237 226.777 156.396C226.946 156.389 227.114 156.386 227.283 156.386C228.053 156.384 228.822 156.456 229.579 156.601C226.995 157.387 224.538 158.54 222.283 160.027C221.758 160.429 221.232 160.816 220.692 161.175C220.172 161.572 219.686 162.024 219.184 162.441C218.171 163.286 217.21 164.19 216.305 165.15C214.406 167 212.702 169.082 210.957 171.164L210.917 171.212C211.2 172.576 211.508 174.077 211.824 175.649C211.92 176.13 212.017 176.616 212.114 177.108C212.675 176.236 213.374 175.463 214.184 174.817C220.021 170.086 225.29 161.531 227.323 161.531C227.477 161.529 227.626 161.587 227.737 161.693C229.31 163.161 219.111 173.464 218.348 174.239C219.389 173.487 239.232 159.021 231.311 156.489C230.567 156.257 229.792 156.143 229.013 156.149H229.012ZM219.956 149.539C215.809 151.987 212.292 155.181 210.683 156.74L209.5 164.514C209.5 164.514 209.753 165.673 210.151 167.551C211.265 165.862 212.538 164.283 213.952 162.835C213.989 162.798 214.027 162.762 214.065 162.726C213.108 163.276 212.365 163.628 211.917 163.628C211.516 163.628 211.35 163.347 211.479 162.675C212.104 159.392 217.168 152.904 219.955 149.539" fill="#E87B40"/>
<path d="M227.286 156.386C227.118 156.386 226.949 156.389 226.781 156.395C224.059 156.964 221.218 158.425 218.731 159.888C216.931 160.947 215.316 162.005 214.066 162.725C214.029 162.762 213.991 162.798 213.954 162.835C212.54 164.283 211.267 165.862 210.152 167.551C210.37 168.579 210.632 169.825 210.92 171.212L210.959 171.164C212.704 169.081 214.408 166.999 216.308 165.149C217.212 164.19 218.173 163.285 219.186 162.441C219.688 162.023 220.174 161.571 220.694 161.174C221.234 160.815 221.76 160.428 222.286 160.026C224.541 158.54 226.998 157.386 229.581 156.6C228.825 156.456 228.056 156.384 227.285 156.386" fill="#A13614"/>
<path d="M217.804 109.972L209.501 164.517C209.501 164.517 210.6 169.559 211.826 175.652C213.445 183.747 215.283 193.703 215.052 196.178C215.051 196.248 215.043 196.317 215.029 196.386C214.381 199.97 170.474 242.246 165.27 244.525C164.692 244.779 164.125 244.998 163.56 245.183C159.061 246.733 155.025 246.478 150.978 246.478C146.433 246.478 141.878 246.802 136.686 244.524C131.483 242.246 87.575 199.97 86.9275 196.386C86.2801 192.812 92.4547 164.517 92.4547 164.517L82.6953 106.63C129.562 120.274 174.74 121.108 218.091 108.041L217.803 109.972" fill="#EF945F"/>
<path d="M155.055 192.975V193.021C154.198 193.105 153.337 193.14 152.477 193.125C153.979 193.102 155.055 192.975 155.055 192.975Z" fill="black"/>
<path d="M152.48 193.125C151.576 193.139 150.673 193.105 149.773 193.021V192.975C150.672 193.071 151.576 193.121 152.48 193.125V193.125Z" fill="black"/>
<path d="M124.779 149.205C120.518 149.205 117.062 156.187 117.062 164.8C117.062 173.413 120.518 180.395 124.779 180.395C129.041 180.395 132.496 173.413 132.496 164.8C132.496 156.187 129.042 149.205 124.779 149.205Z" fill="#E87B40"/>
<path d="M124.776 178.548C127.801 178.548 130.252 173.883 130.252 168.128C130.252 162.373 127.801 157.708 124.776 157.708C121.752 157.708 119.301 162.373 119.301 168.128C119.301 173.883 121.752 178.548 124.776 178.548Z" fill="#241B2E"/>
<path d="M124.835 163.145C124.835 164.942 124.023 166.398 123.021 166.398C122.019 166.398 121.207 164.941 121.207 163.145C121.207 161.349 122.019 159.892 123.021 159.892C124.023 159.892 124.835 161.348 124.835 163.145Z" fill="white"/>
<path d="M126.603 167.252C126.527 168.347 125.971 169.202 125.361 169.159C124.75 169.117 124.316 168.195 124.391 167.1C124.466 166.005 125.023 165.151 125.634 165.193C126.245 165.235 126.678 166.157 126.603 167.252Z" fill="white"/>
<path d="M175.412 146.818C171.148 146.818 167.695 153.801 167.695 162.414C167.695 171.026 171.15 178.008 175.412 178.008C179.675 178.008 183.129 171.026 183.129 162.414C183.129 153.801 179.674 146.818 175.412 146.818Z" fill="#E87B40"/>
<path d="M175.409 176.163C178.433 176.163 180.885 171.497 180.885 165.742C180.885 159.988 178.433 155.322 175.409 155.322C172.385 155.322 169.934 159.988 169.934 165.742C169.934 171.497 172.385 176.163 175.409 176.163Z" fill="#241B2E"/>
<path d="M175.468 160.758C175.468 162.555 174.655 164.011 173.653 164.011C172.652 164.011 171.84 162.554 171.84 160.758C171.84 158.962 172.652 157.505 173.653 157.505C174.655 157.505 175.468 158.961 175.468 160.758Z" fill="white"/>
<path d="M177.235 164.87C177.16 165.965 176.603 166.819 175.993 166.776C175.382 166.734 174.948 165.812 175.024 164.717C175.1 163.622 175.656 162.768 176.266 162.81C176.876 162.852 177.311 163.774 177.235 164.87Z" fill="white"/>
<path d="M82.6953 106.63L92.4547 164.517C92.4547 164.517 92.2264 165.563 91.8625 167.278C91.6263 168.39 91.3332 169.783 91.0082 171.353C89.3589 179.326 86.8868 191.896 86.8792 195.657C86.8742 195.901 86.8902 196.144 86.9269 196.386C87.5744 199.97 131.482 242.245 136.686 244.524C140.728 246.298 144.383 246.494 147.949 246.494C148.963 246.494 149.97 246.478 150.977 246.478C151.979 246.478 152.979 246.494 153.986 246.494C157.05 246.494 160.173 246.349 163.559 245.183C186.131 229.597 209.35 199.37 211.802 196.132C196.11 215.824 164.552 239.645 164.552 239.645C159.598 238.124 154.448 237.331 149.266 237.29C140.442 237.29 135.495 239.865 135.495 239.865C119.885 230.753 107.963 196.93 104.274 181.758C104.274 181.758 99.0703 139.043 102.748 118.009C102.748 118.009 124.403 122.08 151.308 122.08C172.924 122.08 197.93 119.451 217.804 109.972L218.093 108.041C197.486 114.257 176.076 117.4 154.552 117.37C131.074 117.37 107.113 113.738 82.6969 106.63" fill="#E87B40"/>
<path d="M136.851 140.877C136.604 140.871 136.346 140.867 136.091 140.887C135.703 140.881 135.305 140.888 134.901 140.921C133.882 140.973 132.867 141.084 131.861 141.253C131.346 141.327 130.821 141.414 130.287 141.515C128.745 141.831 127.207 142.242 125.702 142.703C116.466 145.593 108.623 150.864 108.623 150.864C103.932 145.164 114.101 140.278 114.101 140.278C111.359 141.052 107.854 144.638 107.633 144.863C110.658 140.372 114.025 137.5 117.073 135.678C118.916 134.559 120.9 133.691 122.974 133.099C123.951 132.822 124.948 132.62 125.956 132.496C126.256 132.453 126.557 132.431 126.86 132.427L129.283 134.449L127.897 132.042C128.765 132.253 129.59 132.611 130.336 133.101L130.363 133.12C132.873 134.74 134.242 137.396 134.452 137.806C132.806 133.286 130.022 131.57 130.022 131.57C130.394 131.659 130.756 131.783 131.104 131.941C135.593 133.971 136.851 140.877 136.851 140.877Z" fill="#241B2E"/>
<path d="M130.288 141.515C128.746 141.83 127.208 142.241 125.703 142.702C123.001 138.312 119.595 136.453 117.074 135.678C118.917 134.558 120.901 133.691 122.974 133.099C128.037 135.689 129.742 139.577 130.288 141.515Z" fill="#342941"/>
<path d="M134.903 140.921C133.884 140.973 132.869 141.084 131.863 141.253C130.347 136.253 127.913 133.741 125.957 132.496C126.256 132.454 126.558 132.431 126.861 132.427L129.284 134.449L127.898 132.042C128.766 132.253 129.591 132.611 130.337 133.101L130.364 133.12C132.652 135.184 134.239 137.911 134.903 140.921V140.921Z" fill="#342941"/>
<path d="M136.852 140.879C136.605 140.874 136.347 140.87 136.092 140.889C134.865 136.135 132.722 133.409 131.105 131.944C135.594 133.973 136.852 140.879 136.852 140.879Z" fill="#342941"/>
<path d="M165.918 139.798C166.164 139.772 166.421 139.747 166.676 139.746C167.063 139.709 167.459 139.684 167.865 139.683C168.885 139.652 169.905 139.681 170.921 139.767C171.442 139.799 171.972 139.844 172.512 139.901C174.074 140.091 175.64 140.375 177.178 140.713C186.618 142.845 194.862 147.464 194.862 147.464C199.076 141.402 188.545 137.357 188.545 137.357C191.341 137.906 195.125 141.197 195.364 141.402C191.984 137.17 188.397 134.583 185.21 133.013C183.283 132.046 181.235 131.343 179.12 130.921C178.124 130.724 177.113 130.604 176.098 130.561C175.797 130.543 175.494 130.545 175.193 130.566L172.94 132.777L174.128 130.266C173.28 130.546 172.487 130.97 171.782 131.519L171.757 131.54C169.388 133.359 168.237 136.116 168.062 136.543C169.335 131.904 171.971 129.968 171.971 129.968C171.608 130.087 171.256 130.24 170.922 130.425C166.612 132.813 165.918 139.798 165.918 139.798Z" fill="#241B2E"/>
<path d="M172.512 139.904C174.074 140.093 175.64 140.377 177.178 140.716C179.515 136.121 182.759 133.992 185.209 133.015C183.282 132.048 181.233 131.345 179.119 130.923C174.282 133.914 172.899 137.929 172.512 139.904Z" fill="#342941"/>
<path d="M167.863 139.687C168.883 139.657 169.903 139.685 170.919 139.771C172.025 134.666 174.248 131.964 176.095 130.565C175.794 130.547 175.491 130.549 175.19 130.57L172.937 132.78L174.124 130.27C173.277 130.55 172.484 130.973 171.779 131.522L171.754 131.543C169.641 133.787 168.281 136.634 167.863 139.687Z" fill="#342941"/>
<path d="M165.918 139.797C166.164 139.772 166.421 139.747 166.676 139.746C167.515 134.908 169.429 132.017 170.921 130.426C166.612 132.813 165.918 139.797 165.918 139.797Z" fill="#342941"/>
<path d="M215.049 196.178C195.518 192.686 166.494 191.693 173.432 185.007C179.827 178.856 200.849 176.485 211.822 175.652C213.441 183.747 215.279 193.703 215.049 196.178Z" fill="#FFAB79"/>
<path d="M181.8 198.14C181.52 198.879 172.23 222.527 151.116 222.527C130.003 222.527 122.043 198.67 121.805 197.915C124.372 199.503 127.091 200.832 129.922 201.883C146.641 208.165 164.648 204.148 174.442 200.936C176.946 200.144 179.402 199.211 181.8 198.14V198.14Z" fill="#121116"/>
<path d="M174.438 200.934C174.214 201.207 173.976 201.464 173.738 201.737C149.632 228.213 133.289 206.99 129.918 201.881C146.636 208.163 164.643 204.147 174.438 200.934Z" fill="white"/>
<path d="M116.285 194.512C122.037 197.18 127.754 199.625 133.635 201.35C139.51 203.05 145.519 204.096 151.547 204.093C157.613 204.132 163.651 203.262 169.459 201.511C175.331 199.782 181.024 197.289 186.723 194.512C181.969 198.814 176.5 202.25 170.561 204.666C169.062 205.261 167.523 205.774 165.985 206.287C164.416 206.689 162.841 207.101 161.255 207.467C159.646 207.714 158.035 207.989 156.413 208.144C154.784 208.215 153.155 208.418 151.523 208.373C145.006 208.288 138.564 206.971 132.537 204.493C126.608 202.082 121.117 198.71 116.285 194.512V194.512Z" fill="#BA5129"/>
<path d="M119.532 190.786C119.275 191.955 119.104 192.749 118.909 193.469C118.74 194.102 118.524 194.721 118.261 195.321C117.982 195.928 117.653 196.51 117.277 197.061C116.751 197.845 116.156 198.58 115.498 199.258C113.685 197.719 113.549 195.421 114.364 193.545C114.793 192.598 115.496 191.801 116.383 191.259C116.845 190.963 117.365 190.767 117.907 190.686C118.45 190.604 119.004 190.638 119.532 190.786Z" fill="#BA5129"/>
<path d="M183.184 190.787C183.705 190.572 184.269 190.483 184.831 190.527C185.393 190.57 185.937 190.746 186.418 191.04C187.361 191.586 188.103 192.42 188.535 193.42C188.944 194.38 189.057 195.44 188.86 196.465C188.651 197.527 188.069 198.479 187.217 199.148C186.575 198.446 186.005 197.681 185.515 196.866C185.161 196.308 184.855 195.721 184.599 195.112C184.359 194.542 184.157 193.958 183.995 193.361C183.794 192.681 183.596 191.914 183.184 190.787Z" fill="#BA5129"/>
<path d="M138.695 225.463C141.013 226 143.103 226.463 145.173 226.782C147.172 227.109 149.195 227.265 151.221 227.247C153.234 227.248 155.243 227.055 157.219 226.671C159.287 226.364 161.311 225.711 163.683 225.237C162.321 227.215 160.472 228.806 158.313 229.856C156.121 230.968 153.696 231.542 151.239 231.53C148.792 231.553 146.372 231.024 144.159 229.983C141.996 228.944 140.02 227.474 138.695 225.463Z" fill="#BA5129"/>
<path d="M219.945 133.94C224.951 133.164 229.803 131.6 234.318 129.304C234 131.889 233.479 134.444 232.758 136.947C225.16 136.716 219.945 133.94 219.945 133.94Z" fill="#342941"/>
<path d="M219.296 124.519C220.152 117.8 225.668 110.527 230.663 105.185C233.43 111.353 234.789 118.06 234.642 124.819C226.442 128.485 218.509 130.671 219.296 124.519Z" fill="#342941"/>
<path d="M84.3261 132.32C84.129 137.189 76.8325 139.49 70.9929 140.553C67.8595 132.02 67.4432 124.353 68.2868 117.912C73.9647 120.571 84.5689 126.365 84.3261 132.32Z" fill="#342941"/>
<path d="M203.113 200.752C202.134 205.142 196.364 210.092 180.011 211.115C163.193 212.155 155.126 206.182 151.263 200.395C147.4 206.182 139.332 212.155 122.514 211.115C91.0974 209.145 98.7318 192.684 104.409 193.555C109.854 194.392 106.224 197.666 105.944 197.899C106.084 197.681 107.294 195.602 104.3 195.401C101.135 195.184 100.7 198.783 101.57 200.971C102.44 203.159 109.42 205.982 122.949 197.914C136.478 189.846 142.156 189.195 142.156 189.195C143.769 189.986 145.771 190.374 147.71 190.56C148.917 190.672 150.129 190.719 151.34 190.7C152.495 190.72 153.65 190.673 154.8 190.56C156.663 190.374 158.601 190.017 160.184 189.288L160.37 189.193C160.37 189.193 166.048 189.845 179.561 197.913C184.402 200.799 188.405 202.288 191.586 202.909C197.31 204.041 200.382 202.381 200.956 200.969C201.135 200.501 201.25 200.01 201.297 199.511C201.515 197.727 200.925 195.757 199.032 195.431C198.765 195.396 198.495 195.385 198.226 195.399C195.232 195.6 196.441 197.679 196.565 197.897C196.286 197.664 192.656 194.391 198.117 193.553C198.286 193.527 198.458 193.516 198.629 193.521C201.22 193.584 203.951 196.951 203.113 200.752Z" fill="#241B2E"/>
<path d="M187.892 205.268C178.444 207.874 158.508 203.515 156.475 197.697C154.66 192.5 159.192 189.801 160.184 189.288L160.369 189.193C160.369 189.193 166.048 189.845 179.561 197.913C184.401 200.799 188.404 202.288 191.585 202.909C182.244 204.694 163.162 198.86 163.162 198.86C172.037 205.548 187.892 205.268 187.892 205.268Z" fill="#342941"/>
<path d="M147.46 195.663C147.46 195.663 140.479 205.117 115.461 205.991C115.461 205.991 125.497 208.318 136.696 204.1C136.696 204.1 134.224 207.01 126.951 207.737C126.951 207.735 149.06 211.08 147.46 195.663Z" fill="#342941"/>
<path d="M143.967 194.497C143.967 194.497 126.368 199.734 118.805 204.242C118.805 204.242 130.295 192.461 143.967 194.497Z" fill="#342941"/>
<path d="M203.113 200.753C202.437 200.454 201.822 200.033 201.297 199.512C201.515 197.728 200.925 195.758 199.032 195.432C198.855 194.806 198.721 194.168 198.629 193.523C201.22 193.586 203.951 196.952 203.113 200.753Z" fill="#342941"/>
<path d="M137.141 187.121L141.082 174.904C141.082 174.904 151.131 188.5 162.165 174.904L165.515 186.53C165.515 186.53 151.525 201.111 137.141 187.121Z" fill="#FFAB79"/>
<path d="M136.334 184.355C136.791 185.726 137.73 186.885 138.976 187.616C140.145 188.34 141.411 188.896 142.735 189.266C148.158 190.699 153.86 190.697 159.282 189.259C160.606 188.89 161.872 188.336 163.041 187.612C164.289 186.883 165.23 185.726 165.69 184.355C166.145 185.901 165.53 187.767 164.479 189.095C163.41 190.419 162.076 191.504 160.562 192.281C157.608 193.892 154.28 194.511 151.013 194.541C147.746 194.506 144.418 193.887 141.465 192.276C139.952 191.499 138.618 190.414 137.549 189.091C136.496 187.764 135.882 185.901 136.334 184.355Z" fill="#BA5129"/>
<path d="M199.9 110.682C199.9 110.682 244.32 85.42 206.637 52.7891C206.637 52.7891 222.215 78.4721 197.374 98.0507C197.374 98.0507 215.97 47.7173 164.673 33.0959C164.673 33.0959 172.743 64.3677 149.165 91.5245C149.165 91.5245 154.85 74.4727 156.114 58.6836L145.167 82.2616C145.167 82.2616 153.799 54.2625 157.377 25C157.377 25 146.851 44.9995 130.431 61.2096C114.01 77.4197 114.221 95.3136 118.01 102.05C118.01 102.05 98.2211 77.4194 127.273 54.4731C127.273 54.4731 81.3797 62.6833 92.7476 103.734C92.7476 103.734 93.8007 80.1562 106.011 72.1566C106.011 72.1566 93.5897 91.5242 110.852 111.313C110.852 111.313 104.748 98.471 106.853 84.9983C106.853 84.9983 106.642 103.945 130.851 114.05C130.851 114.05 122.22 100.366 131.483 83.7353C140.746 67.1045 147.483 49.21 147.483 49.21C147.483 49.21 144.746 68.3672 138.43 83.314C132.114 98.2607 136.535 114.892 136.535 114.05C136.535 113.208 141.377 91.1032 143.693 87.3137C143.693 87.3137 145.377 95.9453 141.798 110.892C141.798 110.892 178.85 90.8928 174.008 46.8943C174.008 46.8943 186.639 80.3668 159.903 111.945C159.903 111.945 195.691 98.682 184.113 52.9991C184.113 52.9991 200.112 85.2087 179.902 110.892C179.902 110.892 191.902 103.944 194.217 87.9454C194.217 87.9454 197.797 100.577 190.427 110.471C190.427 110.471 214.427 98.6823 215.9 75.104C215.899 75.1044 217.584 94.0509 199.9 110.682Z" fill="#342941"/>
</svg>
