<svg width="18" height="18" viewBox="0 0 18 18" fill="none" xmlns="http://www.w3.org/2000/svg">
<path d="M14.8605 7.95349H13.186C11.16 7.95349 10.0465 6.84 10.0465 4.81395V3.13953C10.0465 1.11349 11.16 0 13.186 0H14.8605C16.8865 0 18 1.11349 18 3.13953V4.81395C18 6.84 16.8865 7.95349 14.8605 7.95349ZM13.186 1.25581C11.8633 1.25581 11.3023 1.81674 11.3023 3.13953V4.81395C11.3023 6.13674 11.8633 6.69767 13.186 6.69767H14.8605C16.1833 6.69767 16.7442 6.13674 16.7442 4.81395V3.13953C16.7442 1.81674 16.1833 1.25581 14.8605 1.25581H13.186ZM4.81395 18H3.13953C1.11349 18 0 16.8865 0 14.8605V13.186C0 11.16 1.11349 10.0465 3.13953 10.0465H4.81395C6.84 10.0465 7.95349 11.16 7.95349 13.186V14.8605C7.95349 16.8865 6.84 18 4.81395 18ZM3.13953 11.3023C1.81674 11.3023 1.25581 11.8633 1.25581 13.186V14.8605C1.25581 16.1833 1.81674 16.7442 3.13953 16.7442H4.81395C6.13674 16.7442 6.69767 16.1833 6.69767 14.8605V13.186C6.69767 11.8633 6.13674 11.3023 4.81395 11.3023H3.13953ZM3.97674 7.95349C1.78326 7.95349 0 6.17023 0 3.97674C0 1.78326 1.78326 0 3.97674 0C6.17023 0 7.95349 1.78326 7.95349 3.97674C7.95349 6.17023 6.17023 7.95349 3.97674 7.95349ZM3.97674 1.25581C2.47814 1.25581 1.25581 2.47814 1.25581 3.97674C1.25581 5.47535 2.47814 6.69767 3.97674 6.69767C5.47535 6.69767 6.69767 5.47535 6.69767 3.97674C6.69767 2.47814 5.47535 1.25581 3.97674 1.25581ZM14.0233 18C11.8298 18 10.0465 16.2167 10.0465 14.0233C10.0465 11.8298 11.8298 10.0465 14.0233 10.0465C16.2167 10.0465 18 11.8298 18 14.0233C18 16.2167 16.2167 18 14.0233 18ZM14.0233 11.3023C12.5247 11.3023 11.3023 12.5247 11.3023 14.0233C11.3023 15.5219 12.5247 16.7442 14.0233 16.7442C15.5219 16.7442 16.7442 15.5219 16.7442 14.0233C16.7442 12.5247 15.5219 11.3023 14.0233 11.3023Z" fill="#1D4599"/>
</svg>
