<svg width="30" height="30" viewBox="0 0 30 30" fill="none" xmlns="http://www.w3.org/2000/svg">
<path d="M10 27.8997C9.65 27.8997 9.28748 27.8123 8.96248 27.6373C8.24998 27.2623 7.8125 26.5122 7.8125 25.7122V23.9373C4.0375 23.5498 1.5625 20.7747 1.5625 16.7997V9.2998C1.5625 4.9998 4.45 2.1123 8.75 2.1123H21.25C25.55 2.1123 28.4375 4.9998 28.4375 9.2998V16.7997C28.4375 21.0997 25.55 23.9872 21.25 23.9872H16.5375L11.2125 27.5373C10.85 27.7748 10.425 27.8997 10 27.8997ZM8.75 3.97479C5.525 3.97479 3.4375 6.06229 3.4375 9.28729V16.7874C3.4375 20.0124 5.525 22.0999 8.75 22.0999C9.2625 22.0999 9.6875 22.5249 9.6875 23.0374V25.6999C9.6875 25.8624 9.78751 25.9373 9.85001 25.9748C9.91251 26.0123 10.0375 26.0498 10.175 25.9623L15.7375 22.2624C15.8875 22.1624 16.075 22.0999 16.2625 22.0999H21.2625C24.4875 22.0999 26.575 20.0124 26.575 16.7874V9.28729C26.575 6.06229 24.4875 3.97479 21.2625 3.97479H8.75Z" fill="#FB008D"/>
<path d="M15.0007 15.1375C14.4882 15.1375 14.0632 14.7125 14.0632 14.2V13.9375C14.0632 12.4875 15.1257 11.775 15.5257 11.5C15.9882 11.1875 16.1382 10.975 16.1382 10.65C16.1382 10.025 15.6257 9.51245 15.0007 9.51245C14.3757 9.51245 13.8633 10.025 13.8633 10.65C13.8633 11.1625 13.4383 11.5875 12.9258 11.5875C12.4133 11.5875 11.9883 11.1625 11.9883 10.65C11.9883 8.98749 13.3382 7.63745 15.0007 7.63745C16.6632 7.63745 18.0132 8.98749 18.0132 10.65C18.0132 12.075 16.9633 12.7875 16.5758 13.05C16.0883 13.375 15.9382 13.5875 15.9382 13.9375V14.2C15.9382 14.725 15.5132 15.1375 15.0007 15.1375Z" fill="#FB008D"/>
<path d="M15 18.25C14.475 18.25 14.0625 17.825 14.0625 17.3125C14.0625 16.8 14.4875 16.375 15 16.375C15.5125 16.375 15.9375 16.8 15.9375 17.3125C15.9375 17.825 15.525 18.25 15 18.25Z" fill="#FB008D"/>
</svg>
