<svg width="22" height="22" viewBox="0 0 22 22" fill="none" xmlns="http://www.w3.org/2000/svg">
<g clip-path="url(#clip0_1068_12873)">
<path d="M17.9504 17.5986C15.304 18.4053 12.4323 17.9187 10.1997 16.285C7.96686 14.6513 6.63393 12.0617 6.60202 9.29529C6.5938 5.98044 8.42158 2.93375 11.3499 1.38035C11.6484 1.22469 11.7991 0.882472 11.7122 0.557217C11.6358 0.229274 11.3425 -0.00211557 11.0058 6.73511e-05H11.0035C7.98734 -0.0105114 5.10068 1.22553 3.02707 3.41584C0.953457 5.60632 -0.122892 8.55612 0.0527491 11.5672C0.174825 14.5039 1.48559 17.2648 3.68396 19.2158C5.72029 21.0057 8.33728 21.995 11.0483 22.0001C11.2661 22.0001 11.4847 21.9935 11.7023 21.9804C13.2895 21.8805 14.8365 21.4387 16.2371 20.6855C17.1358 20.1859 17.9571 19.5581 18.6748 18.8217C18.9125 18.585 18.9594 18.2171 18.7883 17.9283C18.6173 17.6396 18.2721 17.5039 17.9504 17.5986ZM15.8894 20.0391C14.5825 20.7424 13.1392 21.1548 11.6582 21.2481C8.91979 21.4041 6.22992 20.4769 4.16974 18.6664C2.11998 16.8457 0.89838 14.2698 0.78554 11.5306C0.620141 8.71967 1.62429 5.96533 3.55987 3.92009C5.49562 1.87503 8.19069 0.721272 11.0065 0.732019C7.83605 2.41505 5.85815 5.71513 5.86823 9.30453C5.90315 12.3002 7.34607 15.1047 9.76323 16.8746C12.1802 18.6446 15.2896 19.1737 18.1559 18.3027C17.4888 18.9885 16.7253 19.5735 15.8894 20.0391Z" fill="#878787"/>
<path d="M12.2898 6.2272C13.3009 6.2272 14.1237 7.21439 14.1237 8.42809C14.1237 8.63077 14.288 8.79499 14.4906 8.79499C14.6932 8.79499 14.8574 8.63077 14.8574 8.42809C14.8574 7.21439 15.6803 6.2272 16.6915 6.2272C16.8942 6.2272 17.0584 6.06298 17.0584 5.8603C17.0584 5.65779 16.8942 5.49357 16.6915 5.49357C15.6803 5.49357 14.8574 4.50622 14.8574 3.29268C14.8574 3.09 14.6932 2.92578 14.4906 2.92578C14.288 2.92578 14.1237 3.09 14.1237 3.29268C14.1237 4.50622 13.3009 5.49357 12.2898 5.49357C12.0871 5.49357 11.9229 5.65779 11.9229 5.8603C11.9229 6.06298 12.0871 6.2272 12.2898 6.2272ZM14.4906 4.80293C14.7128 5.2328 15.0433 5.59718 15.4494 5.8603C15.0433 6.1236 14.7128 6.48798 14.4906 6.91785C14.2683 6.48798 13.9379 6.1236 13.5318 5.8603C13.9379 5.59718 14.2683 5.2328 14.4906 4.80293Z" fill="#878787"/>
<path d="M19.4163 9.71088C18.665 9.71088 18.0538 8.97037 18.0538 8.06026C18.0538 7.85758 17.8896 7.69336 17.6871 7.69336C17.4844 7.69336 17.3202 7.85758 17.3202 8.06026C17.3202 8.97037 16.7091 9.71088 15.9577 9.71088C15.7552 9.71088 15.5908 9.87511 15.5908 10.0778C15.5908 10.2803 15.7552 10.4445 15.9577 10.4445C16.7091 10.4445 17.3202 11.185 17.3202 12.0953C17.3202 12.2978 17.4844 12.462 17.6871 12.462C17.8896 12.462 18.0538 12.2978 18.0538 12.0953C18.0538 11.185 18.665 10.4445 19.4163 10.4445C19.619 10.4445 19.7832 10.2803 19.7832 10.0778C19.7832 9.87511 19.619 9.71088 19.4163 9.71088ZM17.6871 10.7489C17.5301 10.4862 17.3215 10.2578 17.0737 10.0778C17.3215 9.89778 17.5301 9.66941 17.6871 9.40645C17.8439 9.66941 18.0527 9.89778 18.3003 10.0778C18.0527 10.2578 17.8439 10.4862 17.6871 10.7489Z" fill="#878787"/>
</g>
<defs>
<clipPath id="clip0_1068_12873">
<rect width="22" height="22" fill="white"/>
</clipPath>
</defs>
</svg>
