<svg width="20" height="22" viewBox="0 0 20 22" fill="none" xmlns="http://www.w3.org/2000/svg">
<path d="M10 16.5C11.0878 16.5 12.1512 16.1774 13.0556 15.5731C13.9601 14.9687 14.6651 14.1098 15.0813 13.1048C15.4976 12.0998 15.6065 10.9939 15.3943 9.92701C15.1821 8.86011 14.6583 7.8801 13.8891 7.11091C13.1199 6.34173 12.1399 5.8179 11.073 5.60568C10.0061 5.39346 8.90024 5.50238 7.89524 5.91867C6.89025 6.33495 6.03126 7.0399 5.42692 7.94437C4.82257 8.84884 4.5 9.91221 4.5 11C4.50166 12.4582 5.08166 13.8562 6.11275 14.8873C7.14384 15.9183 8.54182 16.4983 10 16.5ZM10 6.1875C10.9518 6.1875 11.8823 6.46975 12.6737 6.99855C13.4651 7.52736 14.0819 8.27897 14.4462 9.15834C14.8104 10.0377 14.9057 11.0053 14.72 11.9389C14.5343 12.8724 14.076 13.7299 13.403 14.403C12.7299 15.076 11.8724 15.5343 10.9389 15.72C10.0053 15.9057 9.0377 15.8104 8.15834 15.4462C7.27897 15.0819 6.52736 14.4651 5.99855 13.6737C5.46975 12.8823 5.1875 11.9518 5.1875 11C5.18894 9.72409 5.69643 8.50085 6.59864 7.59864C7.50084 6.69643 8.72409 6.18894 10 6.1875Z" fill="#1D4599"/>
<path d="M10 4.34607C10.0912 4.34607 10.1786 4.30985 10.2431 4.24538C10.3075 4.18092 10.3438 4.09348 10.3438 4.00232V0.6875C10.3438 0.596332 10.3075 0.508898 10.2431 0.444432C10.1786 0.379966 10.0912 0.34375 10 0.34375C9.90883 0.34375 9.8214 0.379966 9.75693 0.444432C9.69247 0.508898 9.65625 0.596332 9.65625 0.6875V4.00232C9.65625 4.09348 9.69247 4.18092 9.75693 4.24538C9.8214 4.30985 9.90883 4.34607 10 4.34607Z" fill="#1D4599"/>
<path d="M6.20324 5.11135C6.24882 5.19032 6.32391 5.24794 6.41198 5.27155C6.50005 5.29516 6.5939 5.28281 6.67287 5.23723C6.75184 5.19164 6.80946 5.11656 6.83307 5.02848C6.85668 4.94041 6.84433 4.84657 6.79875 4.7676L5.84371 3.11333C5.79812 3.03436 5.72304 2.97674 5.63496 2.95313C5.54689 2.92952 5.45305 2.94187 5.37408 2.98745C5.29511 3.03304 5.23748 3.10812 5.21387 3.1962C5.19026 3.28427 5.20261 3.37811 5.2482 3.45708L6.20324 5.11135Z" fill="#1D4599"/>
<path d="M0.897513 6.14156L3.76817 7.79888C3.84714 7.84446 3.94098 7.85681 4.02906 7.8332C4.11713 7.8096 4.19222 7.75197 4.2378 7.673C4.28338 7.59403 4.29573 7.50019 4.27212 7.41211C4.24852 7.32404 4.19089 7.24895 4.11192 7.20337L1.24126 5.54605C1.20216 5.52347 1.159 5.50883 1.11423 5.50294C1.06947 5.49705 1.02399 5.50003 0.980376 5.51172C0.936767 5.52341 0.895887 5.54358 0.860071 5.57106C0.824254 5.59855 0.794203 5.63282 0.771632 5.67193C0.749061 5.71103 0.734412 5.75419 0.728523 5.79896C0.722634 5.84372 0.725619 5.8892 0.737309 5.93281C0.748998 5.97642 0.769162 6.0173 0.79665 6.05312C0.824138 6.08894 0.858411 6.11899 0.897513 6.14156Z" fill="#1D4599"/>
<path d="M1.09277 10.6562C1.00161 10.6562 0.914171 10.6925 0.849706 10.7569C0.78524 10.8214 0.749023 10.9088 0.749023 11C0.749023 11.0912 0.78524 11.1786 0.849706 11.2431C0.914171 11.3075 1.00161 11.3438 1.09277 11.3438H3.00306C3.09423 11.3438 3.18166 11.3075 3.24613 11.2431C3.31059 11.1786 3.34681 11.0912 3.34681 11C3.34681 10.9088 3.31059 10.8214 3.24613 10.7569C3.18166 10.6925 3.09423 10.6562 3.00306 10.6562H1.09277Z" fill="#1D4599"/>
<path d="M1.24126 16.4532L4.11192 14.7959C4.15102 14.7733 4.1853 14.7432 4.21278 14.7074C4.24027 14.6716 4.26044 14.6307 4.27212 14.5871C4.28381 14.5435 4.2868 14.498 4.28091 14.4533C4.27502 14.4085 4.26037 14.3653 4.2378 14.3262C4.21523 14.2871 4.18518 14.2528 4.14936 14.2254C4.11355 14.1979 4.07267 14.1777 4.02906 14.166C3.98545 14.1543 3.93996 14.1513 3.8952 14.1572C3.85044 14.1631 3.80727 14.1778 3.76817 14.2003L0.897514 15.8577C0.818544 15.9032 0.760917 15.9783 0.737309 16.0664C0.713702 16.1545 0.726048 16.2483 0.771633 16.3273C0.817217 16.4063 0.892304 16.4639 0.980377 16.4875C1.06845 16.5111 1.16229 16.4988 1.24126 16.4532Z" fill="#1D4599"/>
<path d="M6.20324 16.8887L5.2482 18.543C5.20261 18.622 5.19026 18.7158 5.21387 18.8039C5.23748 18.892 5.29511 18.9671 5.37408 19.0127C5.45305 19.0582 5.54689 19.0706 5.63496 19.047C5.72304 19.0234 5.79812 18.9657 5.84371 18.8868L6.79875 17.2325C6.84433 17.1535 6.85668 17.0597 6.83307 16.9716C6.80946 16.8835 6.75184 16.8084 6.67287 16.7628C6.5939 16.7173 6.50005 16.7049 6.41198 16.7285C6.32391 16.7521 6.24882 16.8098 6.20324 16.8887Z" fill="#1D4599"/>
<path d="M9.65625 17.998V21.3129C9.65625 21.404 9.69247 21.4915 9.75693 21.5559C9.8214 21.6204 9.90883 21.6566 10 21.6566C10.0912 21.6566 10.1786 21.6204 10.2431 21.5559C10.3075 21.4915 10.3438 21.404 10.3438 21.3129V17.998C10.3438 17.9069 10.3075 17.8194 10.2431 17.755C10.1786 17.6905 10.0912 17.6543 10 17.6543C9.90883 17.6543 9.8214 17.6905 9.75693 17.755C9.69247 17.8194 9.65625 17.9069 9.65625 17.998Z" fill="#1D4599"/>
<path d="M13.3272 16.7629C13.2881 16.7854 13.2538 16.8155 13.2263 16.8513C13.1989 16.8871 13.1787 16.928 13.167 16.9716C13.1553 17.0152 13.1523 17.0607 13.1582 17.1055C13.1641 17.1502 13.1788 17.1934 13.2013 17.2325L14.1564 18.8868C14.202 18.9658 14.2771 19.0234 14.3651 19.047C14.4532 19.0706 14.547 19.0582 14.626 19.0127C14.705 18.9671 14.7626 18.892 14.7862 18.8039C14.8098 18.7158 14.7975 18.622 14.7519 18.543L13.7969 16.8888C13.7743 16.8497 13.7442 16.8154 13.7084 16.7879C13.6726 16.7604 13.6317 16.7402 13.5881 16.7285C13.5445 16.7168 13.499 16.7138 13.4543 16.7197C13.4095 16.7256 13.3663 16.7403 13.3272 16.7629Z" fill="#1D4599"/>
<path d="M15.8887 14.7959L18.7594 16.4532C18.7985 16.4757 18.8417 16.4904 18.8864 16.4963C18.9312 16.5022 18.9767 16.4992 19.0203 16.4875C19.0639 16.4758 19.1048 16.4556 19.1406 16.4282C19.1764 16.4007 19.2065 16.3664 19.229 16.3273C19.2516 16.2882 19.2663 16.245 19.2722 16.2003C19.278 16.1555 19.2751 16.11 19.2634 16.0664C19.2517 16.0228 19.2315 15.9819 19.204 15.9461C19.1765 15.9103 19.1423 15.8802 19.1032 15.8577L16.2325 14.2003C16.1535 14.1548 16.0597 14.1424 15.9716 14.166C15.8835 14.1896 15.8084 14.2473 15.7628 14.3262C15.7173 14.4052 15.7049 14.499 15.7285 14.5871C15.7521 14.6752 15.8098 14.7503 15.8887 14.7959Z" fill="#1D4599"/>
<path d="M18.9083 10.6562H16.998C16.9069 10.6562 16.8194 10.6925 16.755 10.7569C16.6905 10.8214 16.6543 10.9088 16.6543 11C16.6543 11.0912 16.6905 11.1786 16.755 11.2431C16.8194 11.3075 16.9069 11.3438 16.998 11.3438H18.9083C18.9995 11.3438 19.0869 11.3075 19.1514 11.2431C19.2159 11.1786 19.2521 11.0912 19.2521 11C19.2521 10.9088 19.2159 10.8214 19.1514 10.7569C19.0869 10.6925 18.9995 10.6562 18.9083 10.6562Z" fill="#1D4599"/>
<path d="M16.2325 7.79888L19.1032 6.14156C19.1423 6.11899 19.1765 6.08894 19.204 6.05312C19.2315 6.0173 19.2517 5.97642 19.2634 5.93281C19.2751 5.8892 19.278 5.84372 19.2722 5.79896C19.2663 5.75419 19.2516 5.71103 19.229 5.67193C19.2065 5.63282 19.1764 5.59855 19.1406 5.57106C19.1048 5.54358 19.0639 5.52341 19.0203 5.51172C18.9767 5.50003 18.9312 5.49705 18.8864 5.50294C18.8417 5.50883 18.7985 5.52347 18.7594 5.54605L15.8887 7.20337C15.8098 7.24895 15.7521 7.32404 15.7285 7.41211C15.7049 7.50019 15.7173 7.59403 15.7628 7.673C15.8084 7.75197 15.8835 7.8096 15.9716 7.8332C16.0597 7.85681 16.1535 7.84446 16.2325 7.79888Z" fill="#1D4599"/>
<path d="M13.3272 5.23726C13.4062 5.28278 13.5 5.29508 13.5881 5.27148C13.6761 5.24788 13.7512 5.1903 13.7969 5.11138L14.7519 3.45708C14.7745 3.41798 14.7891 3.37482 14.795 3.33005C14.8009 3.28529 14.7979 3.23981 14.7862 3.1962C14.7745 3.15259 14.7544 3.11171 14.7269 3.07589C14.6994 3.04007 14.6651 3.01002 14.626 2.98745C14.5869 2.96488 14.5438 2.95023 14.499 2.94434C14.4542 2.93845 14.4087 2.94144 14.3651 2.95313C14.3215 2.96482 14.2806 2.98498 14.2448 3.01247C14.209 3.03996 14.179 3.07423 14.1564 3.11333L13.2014 4.7676C13.1788 4.8067 13.1641 4.84987 13.1582 4.89463C13.1523 4.9394 13.1553 4.98489 13.167 5.02851C13.1787 5.07212 13.1989 5.11301 13.2263 5.14883C13.2538 5.18464 13.2881 5.2147 13.3272 5.23726Z" fill="#1D4599"/>
</svg>
