<svg width="66" height="47" viewBox="0 0 66 47" fill="none" xmlns="http://www.w3.org/2000/svg">
<path d="M13.0554 22.3714C8.83322 22.3714 5.39843 18.9678 5.39843 14.7856C5.39843 10.603 8.83322 7.19934 13.0554 7.19934C17.2771 7.19934 20.7112 10.6025 20.7112 14.7856C20.7112 18.9684 17.2771 22.3714 13.0554 22.3714ZM13.0554 9.32838C10.0069 9.32838 7.52746 11.7766 7.52746 14.7856C7.52746 17.7942 10.0069 20.2423 13.0554 20.2423C16.1029 20.2423 18.5822 17.7942 18.5822 14.7856C18.5822 11.7766 16.1029 9.32838 13.0554 9.32838ZM16.1357 43.3748H2.78238C1.24815 43.3748 0 42.1346 0 40.6098V37.1278C0 29.9995 5.85644 24.1998 13.0554 24.1998C15.8867 24.1998 18.5818 25.0833 20.847 26.7546C21.0741 26.9224 21.2254 27.1734 21.2675 27.4527C21.3096 27.7319 21.239 28.0164 21.0714 28.2436C20.9037 28.4706 20.6527 28.6218 20.3736 28.6639C20.0945 28.706 19.8101 28.6356 19.5828 28.4682C17.6861 27.0691 15.4292 26.3288 13.0554 26.3288C7.0306 26.3288 2.12903 31.1737 2.12903 37.1278V40.6098C2.12903 40.9602 2.42217 41.2456 2.78238 41.2456H16.1362C16.7235 41.2456 17.2007 41.7223 17.2007 42.3101C17.2007 42.8975 16.7235 43.3747 16.1357 43.3747V43.3748ZM63.2176 42.5691H49.8643C49.277 42.5691 48.7998 42.0925 48.7998 41.5046C48.7998 40.9172 49.277 40.4401 49.8643 40.4401H63.2182C63.5784 40.4401 63.8715 40.1553 63.8715 39.8049V36.3229C63.8715 30.3677 58.9699 25.5238 52.9452 25.5238C50.4289 25.5238 47.9724 26.3903 46.0278 27.9642C45.5714 28.3338 44.9014 28.2636 44.5308 27.8068C44.1613 27.3498 44.2309 26.6793 44.6889 26.3093C47.0108 24.4303 49.9428 23.3948 52.9452 23.3948C60.1436 23.3948 66 29.194 66 36.3229V39.8049C66 41.3289 64.752 42.5691 63.2176 42.5691ZM52.9446 21.8454C48.7229 21.8454 45.2888 18.4424 45.2888 14.2596C45.2888 10.0769 48.7229 6.67334 52.9446 6.67334C57.1668 6.67334 60.6016 10.0765 60.6016 14.2596C60.6016 18.4428 57.1662 21.8454 52.9446 21.8454ZM52.9446 8.80237C49.8971 8.80237 47.4178 11.2506 47.4178 14.2596C47.4178 17.2686 49.8971 19.7163 52.9446 19.7163C55.9932 19.7163 58.4725 17.2686 58.4725 14.2596C58.4725 11.2506 55.9926 8.80237 52.9446 8.80237Z" fill="#959698"/>
<path d="M47.447 46.8387H18.5513C16.6317 46.8387 15.0703 45.2888 15.0703 43.3832V38.4858C15.0703 28.6983 23.1123 20.7357 32.9992 20.7357C42.886 20.7357 50.928 28.6983 50.928 38.4858V43.3832C50.928 45.2886 49.3666 46.8387 47.447 46.8387ZM32.9992 22.8653C24.287 22.8653 17.1993 29.873 17.1993 38.4862V43.3837C17.1993 44.115 17.8059 44.7102 18.5513 44.7102H47.4465C48.1919 44.7102 48.7984 44.115 48.7984 43.3837V38.4862C48.799 29.873 41.7113 22.8653 32.9992 22.8653ZM32.6291 19.4918C27.2046 19.4918 22.7906 15.12 22.7906 9.74538C22.7906 4.37143 27.2042 0 32.6292 0C38.0547 0 42.4682 4.37183 42.4682 9.74591C42.4682 15.1204 38.0541 19.4918 32.6292 19.4918H32.6291ZM32.6291 2.12903C28.3782 2.12903 24.9196 5.54613 24.9196 9.74591C24.9196 13.9464 28.3782 17.3633 32.6291 17.3633C36.8804 17.3633 40.339 13.9462 40.339 9.74591C40.339 5.54613 36.8804 2.12903 32.6292 2.12903H32.6291Z" fill="#959698"/>
</svg>
