<svg width="15" height="15" viewBox="0 0 15 15" fill="none" xmlns="http://www.w3.org/2000/svg">
<path d="M1.10197 1.2366L9.90053 0.00347876C9.95019 -0.00350843 10.0008 5.66096e-05 10.0489 0.0139323C10.097 0.0278079 10.1416 0.0516699 10.1795 0.0839011C10.2174 0.116132 10.2478 0.15598 10.2686 0.200742C10.2894 0.245505 10.3002 0.294137 10.3002 0.343342V14.6568C10.3002 14.7059 10.2894 14.7545 10.2687 14.7992C10.2479 14.8439 10.2175 14.8837 10.1797 14.9159C10.1419 14.9481 10.0974 14.972 10.0494 14.9859C10.0014 14.9999 9.95083 15.0035 9.90123 14.9966L1.10127 13.7635C0.934412 13.7402 0.78173 13.6586 0.671273 13.5337C0.560817 13.4089 0.500002 13.2491 0.5 13.0838V1.91633C0.500002 1.75101 0.560817 1.59123 0.671273 1.46636C0.78173 1.34149 0.935111 1.25991 1.10197 1.2366ZM11.0002 1.32036H13.8C13.9857 1.32036 14.1637 1.3927 14.295 1.52146C14.4263 1.65022 14.5 1.82486 14.5 2.00696V12.9925C14.5 13.1745 14.4263 13.3492 14.295 13.4779C14.1637 13.6067 13.9857 13.679 13.8 13.679H11.0002V1.32036ZM6.24041 7.49971L8.20032 4.75333H6.5204L5.40045 6.32288L4.28051 4.75333H2.60059L4.5605 7.49971L2.60059 10.2461H4.28051L5.40045 8.67653L6.5204 10.2461H8.20032L6.24041 7.49971Z" fill="black"/>
</svg>
