<svg width="64" height="50" viewBox="0 0 64 50" fill="none" xmlns="http://www.w3.org/2000/svg">
<rect width="63.1738" height="50" rx="25" fill="#E1E9FA"/>
<path d="M33.0036 15.2578C33.0036 15.1413 32.9573 15.0295 32.8749 14.9471C32.7925 14.8647 32.6807 14.8184 32.5641 14.8184H30.6113C30.4948 14.8184 30.383 14.8647 30.3006 14.9471C30.2182 15.0295 30.1719 15.1413 30.1719 15.2578V18.7732C30.1719 18.8898 30.2182 19.0015 30.3006 19.0839C30.383 19.1664 30.4948 19.2127 30.6113 19.2127H32.5641C32.6807 19.2127 32.7925 19.1664 32.8749 19.0839C32.9573 19.0015 33.0036 18.8898 33.0036 18.7732V15.2578ZM32.1247 18.3338H31.0508V15.6973H32.1247V18.3338ZM33.0036 23.3302C33.0036 23.2137 32.9573 23.1019 32.8749 23.0195C32.7925 22.9371 32.6807 22.8908 32.5641 22.8908H30.6113C30.4948 22.8908 30.383 22.9371 30.3006 23.0195C30.2182 23.1019 30.1719 23.2137 30.1719 23.3302V26.8456C30.1719 26.9622 30.2182 27.0739 30.3006 27.1563C30.383 27.2388 30.4948 27.2851 30.6113 27.2851H32.5641C32.6807 27.2851 32.7925 27.2388 32.8749 27.1563C32.9573 27.0739 33.0036 26.9622 33.0036 26.8456V23.3302ZM32.1247 26.4062H31.0508V23.7697H32.1247V26.4062ZM32.5641 30.963H30.6113C30.4948 30.963 30.383 31.0093 30.3006 31.0917C30.2182 31.1741 30.1719 31.2859 30.1719 31.4024V34.9178C30.1719 35.1607 30.3685 35.3573 30.6113 35.3573H32.5641C32.807 35.3573 33.0036 35.1607 33.0036 34.9178V31.4024C33.0036 31.2859 32.9573 31.1741 32.8749 31.0917C32.7925 31.0093 32.6807 30.963 32.5641 30.963ZM32.1247 34.4784H31.0508V31.8419H32.1247V34.4784Z" fill="#1D4599"/>
<path d="M43.5586 21.4096C43.8978 21.4096 44.1738 21.1335 44.1738 20.7943V19.2322C44.1738 18.8929 43.8978 18.617 43.5586 18.617H43.0713V13.818C43.0713 13.3817 42.7165 13.027 42.2802 13.027H36.2744C36.0318 13.027 35.8349 13.2238 35.8349 13.4664C35.8349 13.709 36.0318 13.9059 36.2744 13.9059H42.1923V18.617H41.4396V16.8085C41.4396 16.4371 41.1373 16.1347 40.7658 16.1347H37.9647C37.5933 16.1347 37.2909 16.4371 37.2909 16.8085V18.617H36.7148C36.3754 18.617 36.0996 18.8929 36.0996 19.2322V20.7943C36.0996 21.1335 36.3754 21.4096 36.7148 21.4096H42.1924V26.3097H41.4396V24.5013C41.4396 24.1296 41.1373 23.8274 40.7658 23.8274H37.9647C37.5933 23.8274 37.2909 24.1296 37.2909 24.5013V26.3097H36.7148C36.3754 26.3097 36.0996 26.5855 36.0996 26.9249V28.4868C36.0996 28.8262 36.3754 29.102 36.7148 29.102H42.1924V34.0022H41.4396V32.1937C41.4396 31.8222 41.1373 31.5199 40.7658 31.5199H37.9647C37.5933 31.5199 37.2909 31.8222 37.2909 32.1937V34.0022H36.7148C36.3754 34.0022 36.0996 34.2781 36.0996 34.6174V36.1795C36.0996 36.5187 36.3754 36.7947 36.7148 36.7947H42.1924V39.1211H34.8581V34.917C34.8581 34.6741 34.6615 34.4775 34.4187 34.4775C34.3021 34.4775 34.1903 34.5238 34.1079 34.6063C34.0255 34.6887 33.9792 34.8004 33.9792 34.917V39.1211H29.1944V17.0095C29.1944 16.893 29.1481 16.7812 29.0657 16.6988C28.9833 16.6164 28.8715 16.5701 28.755 16.5701C28.6384 16.5701 28.5267 16.6164 28.4442 16.6988C28.3618 16.7812 28.3155 16.893 28.3155 17.0095V39.1211H20.9813V36.7947H26.459C26.7984 36.7947 27.0742 36.5187 27.0742 36.1795V34.6174C27.0742 34.2781 26.7984 34.0022 26.459 34.0022H25.8829V32.1937C25.8829 31.8222 25.5805 31.5199 25.2091 31.5199H22.408C22.0363 31.5199 21.7342 31.8222 21.7342 32.1937V34.0022H20.9814V29.1023H26.459C26.7985 29.1023 27.0743 28.8262 27.0743 28.487V26.9249C27.0743 26.5855 26.7985 26.3097 26.459 26.3097H25.8829V24.5013C25.8829 24.1296 25.5806 23.8274 25.2091 23.8274H22.408C22.0363 23.8274 21.7342 24.1296 21.7342 24.5013V26.3097H20.9814V21.4095H26.459C26.7985 21.4095 27.0743 21.1335 27.0743 20.7943V19.2321C27.0743 18.8929 26.7985 18.6169 26.459 18.6169H25.8829V16.8086C25.8829 16.4371 25.5806 16.1348 25.2091 16.1348H22.408C22.0363 16.1348 21.7342 16.4371 21.7342 16.8086V18.617H20.9814V13.9059H28.3155V15.2518C28.3155 15.3683 28.3618 15.4801 28.4442 15.5625C28.5266 15.6449 28.6384 15.6912 28.7549 15.6912C28.9978 15.6912 29.1944 15.4946 29.1944 15.2518V10.8789H33.9791V33.1592C33.9791 33.4018 34.176 33.5986 34.4186 33.5986C34.6612 33.5986 34.858 33.4018 34.858 33.1592V10.6738C34.858 10.3023 34.5557 10 34.1842 10H28.9893C28.6178 10 28.3155 10.3023 28.3155 10.6738V13.027H20.8935C20.4573 13.027 20.1025 13.3817 20.1025 13.818V18.6169H19.6152C19.276 18.6169 19 18.8929 19 19.2321V20.7943C19 21.1335 19.276 21.4095 19.6152 21.4095H20.1025V26.3097H19.6152C19.276 26.3097 19 26.5855 19 26.9249V28.4868C19 28.8262 19.276 29.102 19.6152 29.102H20.1025V34.0022H19.6152C19.276 34.0022 19 34.2781 19 34.6174V36.1795C19 36.5187 19.276 36.7947 19.6152 36.7947H20.1025V39.209C20.1025 39.6452 20.4573 40 20.8935 40H42.2802C42.7165 40 43.0713 39.6452 43.0713 39.209V36.7947H43.5586C43.8978 36.7947 44.1738 36.5187 44.1738 36.1795V34.6174C44.1738 34.2781 43.8978 34.0022 43.5586 34.0022H43.0713V29.1023H43.5586C43.8978 29.1023 44.1738 28.8262 44.1738 28.487V26.9249C44.1738 26.5855 43.8978 26.3097 43.5586 26.3097H43.0713V21.4095L43.5586 21.4096ZM22.6131 17.0136H25.004V18.617H22.6131V17.0136ZM19.8789 19.4959H26.1953V20.5306H19.8789V19.4959ZM22.6131 24.7063H25.004V26.3097H22.6131V24.7063ZM19.8789 27.1886H26.1953V28.2231H19.8789V27.1886ZM22.6131 32.3988H25.004V34.0022H22.6131V32.3988ZM19.8789 34.8811H26.1953V35.9158H19.8789V34.8811ZM38.1698 32.3988H40.5607V34.0022H38.1698V32.3988ZM43.2949 35.9158H36.9782V34.8811H43.2949V35.9158ZM38.1698 24.7063H40.5607V26.3097H38.1698V24.7063ZM43.2949 28.2231H36.9782V27.1886H43.2949V28.2231ZM38.1698 17.0136H40.5607V18.6169H38.1698V17.0136ZM36.9782 19.4958H43.2949V20.5306H36.9782V19.4958Z" fill="#1D4599"/>
</svg>
