<svg width="43" height="43" viewBox="0 0 43 43" fill="none" xmlns="http://www.w3.org/2000/svg">
<g clip-path="url(#clip0_147_1088)">
<path d="M37 0H6C2.68629 0 0 2.68629 0 6V37C0 40.3137 2.68629 43 6 43H37C40.3137 43 43 40.3137 43 37V6C43 2.68629 40.3137 0 37 0Z" fill="#fffbef7d"/>
<path d="M34.3008 18.3848H30.7324V10.2285C30.7324 9.29157 29.9702 8.5293 29.0332 8.5293H13.9668C13.0299 8.5293 12.2676 9.29157 12.2676 10.2285V15.3262H8.69922C7.76227 15.3262 7 16.0884 7 17.0254V27.4473C7 28.3842 7.76227 29.1465 8.69922 29.1465H13.7322L15.8319 31.2462C15.9425 31.3568 16.0875 31.4121 16.2324 31.4121C16.3774 31.4121 16.5224 31.3568 16.6329 31.2462L17.5352 30.344V30.5059C17.5352 31.4428 18.2974 32.2051 19.2344 32.2051H24.2673L26.3671 34.3048C26.4777 34.4154 26.6226 34.4707 26.7676 34.4707C26.9125 34.4707 27.0575 34.4154 27.1681 34.3048L29.2678 32.2051H34.3008C35.2377 32.2051 36 31.4428 36 30.5059V20.084C36 19.147 35.2377 18.3848 34.3008 18.3848ZM13.4004 10.2285C13.4004 9.9162 13.6545 9.66211 13.9668 9.66211H29.0332C29.3455 9.66211 29.5996 9.9162 29.5996 10.2285V20.6504C29.5996 20.9627 29.3455 21.2168 29.0332 21.2168H23.7656C23.6154 21.2168 23.4713 21.2765 23.3651 21.3827L21.5 23.2478L19.6349 21.3827C19.5287 21.2765 19.3846 21.2168 19.2344 21.2168H13.9668C13.6545 21.2168 13.4004 20.9627 13.4004 20.6504V10.2285ZM18.0975 28.1796L16.2324 30.0447L14.3673 28.1796C14.2611 28.0734 14.117 28.0137 13.9668 28.0137H8.69922C8.3869 28.0137 8.13281 27.7596 8.13281 27.4473V17.0254C8.13281 16.7131 8.3869 16.459 8.69922 16.459H12.2676V20.6504C12.2676 21.5873 13.0299 22.3496 13.9668 22.3496H18.9998L21.0995 24.4493C21.2101 24.56 21.3551 24.6152 21.5 24.6152C21.6449 24.6152 21.7899 24.56 21.9005 24.4493L24.0002 22.3496H24.332V27.4473C24.332 27.7596 24.0779 28.0137 23.7656 28.0137H18.498C18.3478 28.0137 18.2037 28.0734 18.0975 28.1796ZM34.8672 30.5059C34.8672 30.8182 34.6131 31.0723 34.3008 31.0723H29.0332C28.883 31.0723 28.7389 31.132 28.6327 31.2382L26.7676 33.1033L24.9025 31.2382C24.7963 31.132 24.6522 31.0723 24.502 31.0723H19.2344C18.9221 31.0723 18.668 30.8182 18.668 30.5059V29.2112L18.7327 29.1465H23.7656C24.7026 29.1465 25.4648 28.3842 25.4648 27.4473V22.3496H29.0332C29.9702 22.3496 30.7324 21.5873 30.7324 20.6504V19.5176H34.3008C34.6131 19.5176 34.8672 19.7717 34.8672 20.084V30.5059Z" fill="#a9976769"/>
<path d="M26.767 11.7012H16.2402C15.9274 11.7012 15.6738 11.9548 15.6738 12.2676C15.6738 12.5804 15.9274 12.834 16.2402 12.834H26.767C27.0798 12.834 27.3334 12.5804 27.3334 12.2676C27.3334 11.9548 27.0798 11.7012 26.767 11.7012Z" fill="#a9976769"/>
<path d="M27.168 15.039C27.0627 14.9336 26.9165 14.873 26.7676 14.873C26.6186 14.873 26.4725 14.9336 26.3671 15.039C26.2618 15.1444 26.2012 15.2905 26.2012 15.4394C26.2012 15.5884 26.2618 15.7345 26.3671 15.8399C26.4725 15.9452 26.6186 16.0059 26.7676 16.0059C26.9165 16.0059 27.0627 15.9452 27.168 15.8399C27.2734 15.7345 27.334 15.5884 27.334 15.4394C27.334 15.2905 27.2734 15.1444 27.168 15.039Z" fill="#a9976769"/>
<path d="M23.9545 14.873H16.2402C15.9274 14.873 15.6738 15.1266 15.6738 15.4394C15.6738 15.7523 15.9274 16.0059 16.2402 16.0059H23.9545C24.2673 16.0059 24.5209 15.7523 24.5209 15.4394C24.5209 15.1266 24.2673 14.873 23.9545 14.873Z" fill="#a9976769"/>
<path d="M26.7675 18.0449H19.0117C18.6989 18.0449 18.4453 18.2985 18.4453 18.6113C18.4453 18.9242 18.6989 19.1777 19.0117 19.1777H26.7675C27.0803 19.1777 27.3339 18.9242 27.3339 18.6113C27.3339 18.2985 27.0803 18.0449 26.7675 18.0449Z" fill="#a9976769"/>
<path d="M16.2798 18.0449H16.2324C15.9196 18.0449 15.666 18.2985 15.666 18.6113C15.666 18.9242 15.9196 19.1777 16.2324 19.1777H16.2798C16.5927 19.1777 16.8462 18.9242 16.8462 18.6113C16.8462 18.2985 16.5927 18.0449 16.2798 18.0449Z" fill="#a9976769"/>
</g>
<defs>
<clipPath id="clip0_147_1088">
<rect width="43" height="43" fill="white"/>
</clipPath>
</defs>
</svg>
