<svg width="18" height="16" viewBox="0 0 18 16" fill="none" xmlns="http://www.w3.org/2000/svg">
<path d="M16.003 0.995005C15.7459 0.734207 15.3271 0.73788 15.0663 0.995005L12.7155 3.34586C9.8026 2.0235 6.69506 2.34675 3.73078 4.28253C1.52318 5.72243 0.182454 7.53333 0.127355 7.61046C-0.0489588 7.8529 -0.0416124 8.18349 0.145722 8.41857C1.40196 9.96132 2.71697 11.1625 4.06137 12L1.99335 14.068C1.73622 14.3251 1.73622 14.7438 1.99335 15.0046C2.12191 15.1332 2.29088 15.1993 2.45985 15.1993C2.62881 15.1993 2.79778 15.1332 2.92634 15.0046L16.003 1.93167C16.2601 1.67455 16.2601 1.2558 16.003 0.995005ZM7.36359 8.69773C7.26808 8.48102 7.22033 8.24593 7.22033 7.99983C7.22033 7.52598 7.40399 7.07785 7.74193 6.73991C8.27087 6.21097 9.05327 6.08608 9.69975 6.36157L7.36359 8.69773ZM10.6768 5.38817C9.47569 4.61679 7.8558 4.75638 6.80893 5.80324C6.22122 6.39096 5.90165 7.16968 5.90165 7.99615C5.90165 8.59856 6.07429 9.17525 6.39386 9.67114L5.0311 11.0339C3.8373 10.3433 2.66187 9.32218 1.5195 7.9888C2.00804 7.41578 3.04021 6.31015 4.4544 5.38817C6.90076 3.79399 9.3361 3.44871 11.709 4.356L10.6768 5.38817ZM17.8543 7.58108C16.947 6.46442 16.0067 5.52408 15.0516 4.77842C14.7614 4.55435 14.3464 4.60577 14.1186 4.89229C13.8946 5.1788 13.946 5.59387 14.2325 5.82161C14.9892 6.413 15.7459 7.14764 16.4805 8.00717C16.0471 8.51407 15.2022 9.42503 14.0562 10.2589C11.8486 11.864 9.61894 12.4444 7.43338 11.9816C7.07708 11.9045 6.72445 12.1359 6.65098 12.4922C6.57385 12.8485 6.80526 13.2011 7.16156 13.2746C7.73091 13.3958 8.30393 13.4545 8.88063 13.4545C9.7475 13.4545 10.6217 13.3186 11.4923 13.0468C12.6347 12.6905 13.7697 12.1028 14.868 11.302C16.7193 9.94663 17.8249 8.45163 17.8727 8.38919C18.049 8.14675 18.0416 7.81616 17.8543 7.58108Z" fill="#9B9B9B"/>
</svg>
