<svg width="18" height="18" viewBox="0 0 18 18" fill="none" xmlns="http://www.w3.org/2000/svg">
<path d="M17.5 9C17.5 13.6944 13.6944 17.5 9 17.5C4.30558 17.5 0.5 13.6944 0.5 9C0.5 4.30558 4.30558 0.5 9 0.5C13.6944 0.5 17.5 4.30558 17.5 9Z" stroke="#C21616"/>
<path d="M12.1764 12.1768L11.8231 11.823C11.7903 11.8558 11.7458 11.8742 11.6994 11.8742C11.6531 11.8742 11.6087 11.8558 11.5759 11.8232C11.5759 11.8231 11.5758 11.823 11.5757 11.823L9.35296 9.60021L8.99941 9.24666L8.64585 9.60021L6.42307 11.823C6.42304 11.823 6.42301 11.8231 6.42298 11.8231C6.39018 11.8558 6.34574 11.8742 6.29941 11.8742C6.25313 11.8742 6.20874 11.8558 6.17595 11.8232C6.14332 11.7904 6.125 11.746 6.125 11.6998C6.125 11.6535 6.14335 11.6091 6.17602 11.5763C6.17607 11.5762 6.17613 11.5762 6.17618 11.5761L8.39896 9.35332L8.75251 8.99976L8.39896 8.64621L6.18423 6.43148C6.15586 6.39888 6.14051 6.35686 6.14127 6.31352C6.14207 6.26818 6.16044 6.22492 6.1925 6.19286C6.22456 6.16079 6.26782 6.14243 6.31316 6.14163C6.3565 6.14086 6.39852 6.15622 6.43112 6.18459L8.64585 8.39932L8.99941 8.75287L9.35296 8.39932L11.5677 6.18458C11.6003 6.15621 11.6423 6.14086 11.6857 6.14163C11.731 6.14243 11.7742 6.16079 11.8063 6.19286C11.8384 6.22492 11.8567 6.26818 11.8575 6.31352C11.8583 6.35686 11.843 6.39888 11.8146 6.43148L9.59985 8.64621L9.2463 8.99976L9.59985 9.35332L11.8226 11.5761C11.8227 11.5762 11.8228 11.5762 11.8228 11.5763C11.8555 11.6091 11.8738 11.6535 11.8738 11.6998C11.8738 11.7461 11.8554 11.7906 11.8226 11.8234L12.1764 12.1768ZM12.1764 12.1768C12.3028 12.0502 12.3738 11.8786 12.3738 11.6998C12.3738 11.5209 12.3028 11.3493 12.1764 11.2228L11.2224 12.1768C11.349 12.3032 11.5205 12.3742 11.6994 12.3742C11.8783 12.3742 12.0498 12.3032 12.1764 12.1768Z" fill="#EDEBEA" stroke="#C21616"/>
</svg>
