<svg width="8" height="10" viewBox="0 0 8 10" fill="none" xmlns="http://www.w3.org/2000/svg">
<path d="M6.06242 2.45305C6.01555 2.45305 5.95305 2.43743 5.90617 2.40618C5.74992 2.32805 5.70305 2.12493 5.78117 1.9843C5.81242 1.9218 5.84367 1.8593 5.8593 1.7968C5.9218 1.62493 5.9218 1.43743 5.89055 1.2968C5.8593 1.20305 5.81242 1.12493 5.76555 1.1093C5.71867 1.09368 5.64055 1.1093 5.56242 1.1718C5.43742 1.26555 5.34367 1.4218 5.28117 1.59368C5.26555 1.65618 5.24992 1.71868 5.2343 1.78118C5.21867 1.95305 5.06242 2.07805 4.89055 2.0468C4.71867 2.03118 4.59367 1.87493 4.62492 1.70305C4.64055 1.59368 4.65617 1.49993 4.70305 1.39055C4.9218 0.718676 5.4843 0.328051 5.9843 0.499926C6.2343 0.578051 6.43742 0.812426 6.51555 1.1093C6.59367 1.37493 6.57805 1.68743 6.4843 1.9843C6.45305 2.07805 6.40617 2.18743 6.3593 2.28118C6.28117 2.39055 6.1718 2.45305 6.06242 2.45305Z" fill="#1D4599"/>
<path d="M6.09381 9.10909C6.06256 9.10909 6.03131 9.10909 6.00006 9.09347L0.843814 7.39034C0.734439 7.35909 0.656314 7.26534 0.640689 7.14034C0.625064 7.01534 0.671939 6.90597 0.750064 6.84347C1.09381 6.57784 1.34381 6.21847 1.46881 5.81222L2.28131 3.35909C2.56256 2.49972 3.26569 1.85909 4.15631 1.64034C4.62506 1.53097 5.12506 1.54659 5.57819 1.70284C6.03131 1.85909 6.43756 2.12472 6.75006 2.49972C7.34381 3.20284 7.51569 4.12472 7.23444 4.99972L6.42194 7.45284C6.28131 7.85909 6.28131 8.29659 6.39069 8.71847C6.42194 8.82784 6.39069 8.95284 6.31256 9.03097C6.25006 9.07784 6.17194 9.10909 6.09381 9.10909ZM1.53131 6.96847L5.70319 8.34347C5.67194 7.98409 5.71881 7.60909 5.84381 7.26534L6.65631 4.81222C6.87506 4.15597 6.73444 3.45284 6.28131 2.92159C6.04694 2.64034 5.73444 2.42159 5.39069 2.31222C5.04694 2.20284 4.67194 2.18722 4.31256 2.26534C3.64069 2.42159 3.10944 2.92159 2.89069 3.57784L2.07819 6.03097C1.95319 6.35909 1.76569 6.68722 1.53131 6.96847Z" fill="#1D4599"/>
<path d="M3.39053 9.71863C3.28115 9.71863 3.17178 9.70301 3.0624 9.67176C2.79678 9.57801 2.57803 9.40613 2.45303 9.15613C2.32803 8.90613 2.3124 8.62488 2.39053 8.35926C2.57803 7.81238 3.15615 7.51551 3.70303 7.68738C4.2499 7.87488 4.54678 8.453 4.3749 8.99988C4.28115 9.2655 4.10928 9.48425 3.85928 9.60925C3.71865 9.67175 3.54678 9.71863 3.39053 9.71863ZM3.39053 8.24988C3.21865 8.24988 3.04678 8.35925 2.9999 8.53113C2.96865 8.6405 2.96865 8.74988 3.03115 8.84363C3.09365 8.93738 3.17178 9.01551 3.28115 9.04676C3.39053 9.07801 3.4999 9.07801 3.59365 9.01551C3.6874 8.96863 3.76553 8.87488 3.79678 8.7655C3.8749 8.54675 3.7499 8.31238 3.53115 8.23426C3.48428 8.26551 3.4374 8.24988 3.39053 8.24988Z" fill="#1D4599"/>
</svg>
