<svg width="16" height="15" viewBox="0 0 16 15" fill="none" xmlns="http://www.w3.org/2000/svg">
<path d="M5.97097 13.6672C5.96779 13.4772 5.92121 13.2903 5.83479 13.121C5.74838 12.9517 5.62441 12.8044 5.47236 12.6903C5.25013 12.5277 5.07941 12.3046 4.9806 12.0476C4.88178 11.7906 4.85906 11.5106 4.91513 11.241C4.97704 10.954 4.94856 10.6549 4.83359 10.3847C4.75674 10.2068 4.71723 10.0149 4.71748 9.8211C4.71748 9.36232 5.22061 8.83965 5.63731 8.71303C6.83969 8.84942 7.88051 9.06623 8.84016 9.37321C10.5291 9.91353 11.9213 10.6921 14.0157 11.9099C14.0585 11.9348 14.1071 11.9479 14.1567 11.9481C14.2062 11.9482 14.2549 11.9352 14.2978 11.9106C14.3407 11.8859 14.3764 11.8503 14.4012 11.8074C14.426 11.7646 14.4391 11.7159 14.4391 11.6664V7.73609C14.8586 7.66909 15.2404 7.45477 15.516 7.13161C15.7916 6.80846 15.943 6.39764 15.943 5.9729C15.943 5.54817 15.7916 5.13734 15.516 4.81419C15.2404 4.49104 14.8586 4.27672 14.4391 4.20972V0.281674C14.4391 0.232144 14.426 0.183495 14.4012 0.140629C14.3764 0.0977625 14.3407 0.0621933 14.2978 0.0375047C14.2549 0.0128162 14.2062 -0.000119605 14.1567 8.33373e-07C14.1071 0.000121272 14.0585 0.0132936 14.0157 0.0381907C11.9224 1.25636 10.5291 2.03453 8.84016 2.57485C7.02456 3.15575 4.91212 3.41464 1.99145 3.41464C1.46329 3.41464 0.956752 3.62445 0.583283 3.99792C0.209813 4.37139 0 4.87792 0 5.40609V6.54084C0.000629744 6.97227 0.141162 7.39186 0.400507 7.73663C0.659851 8.08141 1.02402 8.33278 1.43835 8.45301C1.07801 9.11958 0.901038 9.88573 0.901038 10.7826C0.901038 11.8956 1.23583 12.9447 1.84341 13.7367C2.4679 14.5514 3.30506 15 4.20121 15C4.56129 14.9995 4.91754 14.926 5.24841 14.7839C5.46457 14.6889 5.64813 14.5325 5.77641 14.3343C5.90469 14.136 5.97207 13.9045 5.97022 13.6684L5.97097 13.6672ZM0.56437 6.54047V5.40571C0.56437 5.02703 0.714802 4.66386 0.982572 4.39608C1.25034 4.12831 1.61352 3.97788 1.9922 3.97788C3.30243 3.97788 4.45484 3.9264 5.49415 3.81744V8.12799C4.45484 8.0194 3.30243 7.96755 1.9922 7.96755C1.61365 7.96755 1.25059 7.81722 0.982838 7.54961C0.715089 7.282 0.564569 6.91902 0.56437 6.54047ZM5.40735 13.6672C5.40802 13.7924 5.37262 13.9152 5.30539 14.0208C5.23815 14.1264 5.14193 14.2104 5.02823 14.2628C4.7671 14.3752 4.48587 14.4333 4.20159 14.4338C2.69259 14.4338 1.46503 12.7947 1.46503 10.78C1.46503 9.89324 1.6529 9.15528 2.04368 8.52966C3.02588 8.52966 3.91677 8.56122 4.73552 8.62397C4.40223 8.94336 4.15349 9.3781 4.15349 9.81734C4.15298 10.0881 4.2081 10.356 4.31544 10.6045C4.38468 10.7686 4.40186 10.95 4.36466 11.1242C4.28672 11.4998 4.31846 11.8898 4.45611 12.2479C4.59375 12.6059 4.83149 12.9168 5.14095 13.1434C5.22266 13.2045 5.2893 13.2834 5.33574 13.3742C5.38218 13.465 5.4072 13.5653 5.40886 13.6672H5.40735ZM13.8755 11.1742C12.2174 10.2123 10.7362 9.38561 9.01188 8.83402C8.11347 8.54695 7.14743 8.33578 6.05702 8.19525V3.75168C7.14668 3.61003 8.11347 3.39923 9.01188 3.11292C10.7362 2.56019 12.2177 1.73355 13.8755 0.773525V11.1742ZM14.4391 7.16157V4.78423C14.7068 4.84761 14.9452 4.99945 15.1158 5.21517C15.2864 5.43089 15.3792 5.69787 15.3792 5.9729C15.3792 6.24793 15.2864 6.51491 15.1158 6.73063C14.9452 6.94636 14.7068 7.09819 14.4391 7.16157Z" fill="#939393"/>
</svg>
