<svg width="20" height="20" viewBox="0 0 20 20" fill="none" xmlns="http://www.w3.org/2000/svg">
<path d="M16.3633 1.01171V3.63672H13.7383" stroke="#BDDC00" stroke-miterlimit="10" stroke-linecap="round" stroke-linejoin="round"/>
<path d="M3.63672 18.9883V16.3633H6.26173" stroke="#BDDC00" stroke-miterlimit="10" stroke-linecap="round" stroke-linejoin="round"/>
<path d="M2.20671 14.5C1.44063 13.176 1 11.6402 1 10.0006C1 5.03 5.02942 1.00059 9.99998 1.00059C12.4854 1.00059 14.7335 2.00963 16.3617 3.63889" stroke="#BDDC00" stroke-miterlimit="10" stroke-linecap="round" stroke-linejoin="round"/>
<path d="M17.7936 5.50059C18.5597 6.82459 19.0003 8.36042 19.0003 10C19.0003 14.9706 14.9709 19 10.0004 19C7.51494 19 5.26677 17.991 3.63867 16.3617" stroke="#BDDC00" stroke-miterlimit="10" stroke-linecap="round" stroke-linejoin="round"/>
<path d="M13.5474 9.99915C13.5475 9.75962 13.5235 9.52069 13.4756 9.28599L14.4409 8.72873L13.3205 6.78825L12.3513 7.34781C11.9968 7.03308 11.58 6.78802 11.1201 6.63487V5.51783H8.8794V6.63487C8.41947 6.78802 8.0027 7.03308 7.64812 7.34781L6.67892 6.78825L5.55859 8.72873L6.52383 9.28599C6.47597 9.52069 6.45191 9.75962 6.45202 9.99915C6.45191 10.2387 6.47597 10.4776 6.52383 10.7123L5.55859 11.2696L6.67892 13.2101L7.64812 12.6505C8.0027 12.9652 8.41947 13.2103 8.8794 13.3634V14.4805H11.1201V13.3634C11.58 13.2103 11.9968 12.9652 12.3513 12.6505L13.3205 13.2101L14.4409 11.2696L13.4756 10.7123C13.5235 10.4776 13.5475 10.2387 13.5474 9.99915Z" stroke="#BDDC00" stroke-miterlimit="10" stroke-linecap="round" stroke-linejoin="round"/>
<path d="M11.4934 9.99841C11.4934 10.8234 10.8246 11.4922 9.99963 11.4922C9.17462 11.4922 8.50586 10.8234 8.50586 9.99841C8.50586 9.17344 9.17462 8.50464 9.99963 8.50464C10.8246 8.50464 11.4934 9.17344 11.4934 9.99841Z" stroke="#BDDC00" stroke-miterlimit="10" stroke-linecap="round" stroke-linejoin="round"/>
</svg>
