<svg width="20" height="20" viewBox="0 0 20 20" fill="none" xmlns="http://www.w3.org/2000/svg">
<path d="M18.3346 18.958H1.66797C1.3263 18.958 1.04297 18.6747 1.04297 18.333C1.04297 17.9913 1.3263 17.708 1.66797 17.708H18.3346C18.6763 17.708 18.9596 17.9913 18.9596 18.333C18.9596 18.6747 18.6763 18.958 18.3346 18.958Z" fill="White"/>
<path d="M3.08203 18.3333H1.83203L1.8737 8.30826C1.8737 7.59992 2.1987 6.94161 2.75703 6.50828L8.59036 1.9666C9.41536 1.32493 10.5737 1.32493 11.407 1.9666L17.2404 6.49994C17.7904 6.93327 18.1237 7.60826 18.1237 8.30826V18.3333H16.8737V8.3166C16.8737 7.99993 16.7237 7.69161 16.4737 7.49161L10.6404 2.95827C10.2654 2.6666 9.74036 2.6666 9.35703 2.95827L3.5237 7.49995C3.2737 7.69161 3.1237 7.99993 3.1237 8.3166L3.08203 18.3333Z" fill="White"/>
<path d="M12.0846 18.9587H7.91797C7.5763 18.9587 7.29297 18.6753 7.29297 18.3337V15.417C7.29297 14.3837 8.13464 13.542 9.16797 13.542H10.8346C11.868 13.542 12.7096 14.3837 12.7096 15.417V18.3337C12.7096 18.6753 12.4263 18.9587 12.0846 18.9587ZM8.54297 17.7087H11.4596V15.417C11.4596 15.0753 11.1763 14.792 10.8346 14.792H9.16797C8.8263 14.792 8.54297 15.0753 8.54297 15.417V17.7087Z" fill="White"/>
<path d="M7.91797 12.0837H6.2513C5.4513 12.0837 4.79297 11.4253 4.79297 10.6253V9.37533C4.79297 8.57533 5.4513 7.91699 6.2513 7.91699H7.91797C8.71797 7.91699 9.3763 8.57533 9.3763 9.37533V10.6253C9.3763 11.4253 8.71797 12.0837 7.91797 12.0837ZM6.2513 9.16699C6.13464 9.16699 6.04297 9.25866 6.04297 9.37533V10.6253C6.04297 10.742 6.13464 10.8337 6.2513 10.8337H7.91797C8.03464 10.8337 8.1263 10.742 8.1263 10.6253V9.37533C8.1263 9.25866 8.03464 9.16699 7.91797 9.16699H6.2513Z" fill="White"/>
<path d="M13.75 12.0837H12.0833C11.2833 12.0837 10.625 11.4253 10.625 10.6253V9.37533C10.625 8.57533 11.2833 7.91699 12.0833 7.91699H13.75C14.55 7.91699 15.2083 8.57533 15.2083 9.37533V10.6253C15.2083 11.4253 14.55 12.0837 13.75 12.0837ZM12.0833 9.16699C11.9667 9.16699 11.875 9.25866 11.875 9.37533V10.6253C11.875 10.742 11.9667 10.8337 12.0833 10.8337H13.75C13.8667 10.8337 13.9583 10.742 13.9583 10.6253V9.37533C13.9583 9.25866 13.8667 9.16699 13.75 9.16699H12.0833Z" fill="White"/>
<path d="M15.8318 6.45801C15.4901 6.45801 15.2068 6.18302 15.2068 5.84135L15.1901 3.95801H12.1484C11.8068 3.95801 11.5234 3.67467 11.5234 3.33301C11.5234 2.99134 11.8068 2.70801 12.1484 2.70801H15.8151C16.1568 2.70801 16.4401 2.983 16.4401 3.32467L16.4651 5.82467C16.4568 6.17467 16.1818 6.45801 15.8318 6.45801C15.8401 6.45801 15.8318 6.45801 15.8318 6.45801Z" fill="White"/>
</svg>
