<svg width="33" height="33" viewBox="0 0 33 33" fill="none" xmlns="http://www.w3.org/2000/svg">
<circle cx="16.5" cy="16.5" r="16.5" fill="#fffbe3"/>
<path d="M23.4129 24.1816V25.1926C23.4129 25.8672 22.866 26.4141 22.1914 26.4141H8.87188C8.19727 26.4141 7.65039 25.8672 7.65039 25.1926V8.22148C7.65039 7.54688 8.19727 7 8.87188 7H18.9457C19.2695 7 19.5805 7.12852 19.8094 7.35781L23.0551 10.6035C23.2844 10.8328 23.4129 11.1434 23.4129 11.4672V14.9527" stroke="#9c8f41" stroke-width="0.585938" stroke-miterlimit="10" stroke-linecap="round" stroke-linejoin="round"/>
<path d="M18.9453 9.91699V10.6525C18.9453 11.1025 19.3102 11.467 19.7602 11.467H23.4129" stroke="#9c8f41" stroke-width="0.585938" stroke-miterlimit="10" stroke-linecap="round" stroke-linejoin="round"/>
<path d="M18.9453 8.55V7" stroke="#1D4599" stroke-width="0.585938" stroke-miterlimit="10" stroke-linecap="round" stroke-linejoin="round"/>
<path d="M18.4941 22.7441L18.8418 21.5859C18.9457 21.2395 19.2648 21.002 19.627 21.002H24.5508C24.9129 21.002 25.232 21.2395 25.3359 21.5859L25.6836 22.7441" stroke="#9c8f41" stroke-width="0.585938" stroke-miterlimit="10" stroke-linecap="round" stroke-linejoin="round"/>
<path d="M10.0808 19.5021C10.1968 19.338 10.3284 19.1814 10.4753 19.0345C11.8769 17.633 14.1503 17.633 15.5523 19.0349C16.9542 20.4369 16.9542 22.7099 15.5523 24.1119C14.1503 25.5138 11.8773 25.5142 10.4753 24.1123C9.55696 23.1935 9.24016 21.9013 9.52493 20.7248" stroke="#9c8f41" stroke-width="0.585938" stroke-miterlimit="10" stroke-linecap="round" stroke-linejoin="round"/>
<path d="M13.0137 24.164C14.4444 24.164 15.6044 23.0042 15.6044 21.5732" stroke="#9c8f41" stroke-width="0.585938" stroke-miterlimit="10" stroke-linecap="round" stroke-linejoin="round"/>
<path d="M13.0129 18.9824C11.5819 18.9824 10.4219 20.1425 10.4219 21.5734" stroke="#9c8f41" stroke-width="0.585938" stroke-miterlimit="10" stroke-linecap="round" stroke-linejoin="round"/>
<path d="M12.8647 23.2734C12.6816 23.2734 12.5085 23.1878 12.3975 23.0411L11.4196 21.749C11.2242 21.491 11.2751 21.1235 11.5332 20.9282C11.7912 20.7329 12.1587 20.7838 12.354 21.0418L12.8257 21.6651L13.9479 19.9204C14.1229 19.6482 14.4855 19.5695 14.7576 19.7446C15.0298 19.9196 15.1085 20.2822 14.9335 20.5543L13.3575 23.0045C13.254 23.1655 13.0783 23.2658 12.8871 23.2731C12.8796 23.2733 12.8721 23.2734 12.8647 23.2734Z" stroke="#9c8f41" stroke-width="0.585938" stroke-miterlimit="10" stroke-linecap="round" stroke-linejoin="round"/>
<path d="M18.5457 24.1812H25.6302C26.0275 24.1812 26.3497 23.8591 26.3497 23.4617C26.3497 23.0643 26.0276 22.7422 25.6302 22.7422H18.5457C18.1483 22.7422 17.8262 23.0643 17.8262 23.4617C17.8262 23.859 18.1483 24.1812 18.5457 24.1812Z" stroke="#9c8f41" stroke-width="0.585938" stroke-miterlimit="10" stroke-linecap="round" stroke-linejoin="round"/>
<path d="M23.9824 17.7L24.1179 16.848C24.3172 15.5992 23.3523 14.4688 22.0879 14.4688C20.823 14.4688 19.8582 15.5992 20.0574 16.848L20.7191 21.002H23.4562L23.7695 19.0344" stroke="#9c8f41" stroke-width="0.585938" stroke-miterlimit="10" stroke-linecap="round" stroke-linejoin="round"/>
<path d="M13.4961 11.4668H17.5668" stroke="#9c8f41" stroke-width="0.585938" stroke-miterlimit="10" stroke-linecap="round" stroke-linejoin="round"/>
<path d="M10.1172 13.208H20.945" stroke="#9c8f41" stroke-width="0.585938" stroke-miterlimit="10" stroke-linecap="round" stroke-linejoin="round"/>
<path d="M10.1172 14.9482H18.408" stroke="#9c8f41" stroke-width="0.585938" stroke-miterlimit="10" stroke-linecap="round" stroke-linejoin="round"/>
</svg>
