<svg width="33" height="33" viewBox="0 0 33 33" fill="none" xmlns="http://www.w3.org/2000/svg">
<circle cx="16.5" cy="16.5" r="16.5" fill="#fffbe3"/>
<g clip-path="url(#clip0_1404_18098)">
<path d="M16.1253 25.1451C16.0834 25.1451 16.0425 25.1335 16.0058 25.1105C15.9429 25.0696 15.9052 25.0004 15.9052 24.9249V16.1908C15.9052 16.1048 15.9555 16.0262 16.0341 15.9905L23.5594 12.5571C23.6276 12.5256 23.7073 12.5319 23.7702 12.5718C23.8331 12.6126 23.8708 12.6818 23.8708 12.7573V21.4914C23.8708 21.5774 23.8205 21.656 23.7419 21.6917L16.2165 25.1251C16.1872 25.1388 16.1568 25.1451 16.1253 25.1451ZM16.3455 16.3323V24.5821L23.4305 21.3499V13.1001L16.3455 16.3323ZM11.3069 21.807C11.2755 21.807 11.2451 21.8007 11.2157 21.7871L9.47856 20.9945C9.39993 20.9589 9.34961 20.8802 9.34961 20.7943V19.2112C9.34961 19.1368 9.38735 19.0665 9.45025 19.0256C9.51316 18.9847 9.59284 18.9795 9.66098 19.011L11.3982 19.8035C11.4768 19.8392 11.5271 19.9178 11.5271 20.0038V21.5868C11.5271 21.6613 11.4894 21.7315 11.4265 21.7724C11.3898 21.7955 11.3478 21.807 11.3069 21.807ZM9.78993 20.6527L11.0868 21.244V20.1453L9.78993 19.554V20.6527Z" fill="#9c8f41"/>
<path d="M16.1244 25.1453C16.0929 25.1453 16.0625 25.139 16.0332 25.1254L8.50786 21.6919C8.42923 21.6563 8.37891 21.5777 8.37891 21.4917V12.7586C8.37891 12.6842 8.41665 12.614 8.47955 12.5731C8.54245 12.5322 8.62213 12.5269 8.69028 12.5584L16.2156 15.9919C16.2942 16.0275 16.3446 16.1061 16.3446 16.1921V24.9252C16.3446 24.9996 16.3068 25.0698 16.2439 25.1107C16.2072 25.1338 16.1663 25.1453 16.1244 25.1453ZM8.81923 21.3502L15.9042 24.5823V16.3326L8.81923 13.1004V21.3502Z" fill="#9c8f41"/>
<path d="M13.0096 17.0017C12.9792 17.0017 12.9478 16.9954 12.9184 16.9817L11.2515 16.2217C11.1403 16.1713 11.0921 16.0403 11.1424 15.9302C11.1928 15.8191 11.3238 15.7709 11.4339 15.8212L13.1008 16.5813C13.212 16.6316 13.2602 16.7626 13.2099 16.8727C13.1732 16.9534 13.0935 17.0017 13.0096 17.0017ZM23.6497 12.979C23.6193 12.979 23.5878 12.9727 23.5585 12.9591L16.1244 9.56755L8.69027 12.9591C8.57914 13.0094 8.44914 12.9612 8.39882 12.85C8.34849 12.7389 8.39672 12.6089 8.50785 12.5586L16.0332 9.12513C16.0908 9.09892 16.1579 9.09892 16.2156 9.12513L23.7409 12.5586C23.852 12.6089 23.9003 12.74 23.8499 12.85C23.8133 12.9308 23.7336 12.979 23.6497 12.979Z" fill="#9c8f41"/>
<path d="M11.3432 14.2312C11.2593 14.2312 11.1797 14.183 11.143 14.1023C11.0926 13.9911 11.1409 13.8611 11.252 13.8108L18.7773 10.3773C18.8884 10.327 19.0184 10.3752 19.0688 10.4864C19.1191 10.5975 19.0709 10.7275 18.9597 10.7778L11.4344 14.2113C11.4051 14.2249 11.3736 14.2312 11.3432 14.2312ZM13.0101 14.9913C12.8885 14.9913 12.79 14.8927 12.79 14.7711C12.79 14.6799 12.8455 14.6013 12.9242 14.5677L20.4442 11.1374C20.5554 11.0871 20.6854 11.1353 20.7357 11.2464C20.786 11.3576 20.7378 11.4876 20.6267 11.5379L13.1013 14.9714C13.073 14.985 13.0416 14.9913 13.0101 14.9913Z" fill="#9c8f41"/>
<path d="M13.0101 17.0012C12.8885 17.0012 12.79 16.9027 12.79 16.7811V14.7703C12.79 14.6487 12.8885 14.5501 13.0101 14.5501C13.1318 14.5501 13.2303 14.6487 13.2303 14.7703V16.7811C13.2303 16.9027 13.1318 17.0012 13.0101 17.0012ZM11.3432 16.2401C11.2216 16.2401 11.123 16.1416 11.123 16.02V14.0102C11.123 13.8886 11.2216 13.79 11.3432 13.79C11.4648 13.79 11.5634 13.8886 11.5634 14.0102V16.021C11.5634 16.1416 11.4648 16.2401 11.3432 16.2401Z" fill="#9c8f41"/>
</g>
<defs>
<clipPath id="clip0_1404_18098">
<rect width="16.25" height="16.25" fill="#9c8f41" transform="translate(8 9)"/>
</clipPath>
</defs>
</svg>
