<svg width="16" height="17" viewBox="0 0 16 17" fill="none" xmlns="http://www.w3.org/2000/svg">
<path d="M8.05143 16.0928L8.05335 16.0941L15.4295 12.9066L15.3676 12.77L15.4299 12.9064L15.4297 12.9065C15.557 12.8487 15.6382 12.7216 15.6382 12.5827V4.41492C15.6382 4.29346 15.5771 4.18147 15.4758 4.11562L15.4758 4.11561L15.4743 4.11466C15.3738 4.05098 15.2456 4.04018 15.1346 4.09129C15.1344 4.09135 15.1343 4.09141 15.1342 4.09147L8.09772 7.30188L8.15965 7.4385L8.09739 7.30203L8.09751 7.30197C7.97021 7.35978 7.88906 7.48686 7.88906 7.62576V15.7935C7.88906 15.915 7.95012 16.027 8.05143 16.0928ZM8.39341 16.1168L8.33024 15.9808L8.39251 16.1173L8.3929 16.1171C8.39307 16.117 8.39324 16.1169 8.39341 16.1168ZM14.9264 4.96881V12.3539L8.60083 15.2396V7.85455L14.9264 4.96881Z" fill="#939393" stroke="#939393" stroke-width="0.3"/>
<path d="M3.92826 12.9725L3.92827 12.9725L2.19743 10.2631C2.1337 10.2337 2.05919 10.2386 2.00037 10.2769C1.94154 10.3151 1.90625 10.3808 1.90625 10.4504V11.9308C1.90625 12.0112 1.95331 12.0847 2.02684 12.1181L1.96458 12.2545L1.96475 12.2546C1.9648 12.2546 1.96485 12.2546 1.96491 12.2547L3.58821 12.9953C3.58838 12.9954 3.58855 12.9954 3.58871 12.9955C3.63673 13.0177 3.68666 13.0279 3.73667 13.0279C3.80267 13.0279 3.86963 13.0094 3.92826 12.9725ZM2.26029 10.1269C2.26018 10.1269 2.26006 10.1268 2.25995 10.1268L3.82196 11.0043L3.88423 10.8678L3.88408 10.8678C3.88402 10.8678 3.88396 10.8677 3.8839 10.8677L2.26029 10.1269ZM2.46802 11.0042L3.38078 11.4204V12.1181L2.46802 11.702V11.0042Z" fill="#939393" stroke="#939393" stroke-width="0.3"/>
<path d="M8.43484 16.0934L8.43485 16.0934L1.29118 4.22797C1.22745 4.19856 1.15294 4.20346 1.09412 4.2417C1.03529 4.27993 1 4.34562 1 4.41523V12.582C1 12.6624 1.04706 12.736 1.12059 12.7693L1.05833 12.9058L1.05858 12.9059C1.05861 12.9059 1.05863 12.9059 1.05866 12.9059L8.09479 16.1162C8.09495 16.1162 8.09511 16.1163 8.09527 16.1164C8.14329 16.1386 8.19323 16.1487 8.24325 16.1487C8.3106 16.1487 8.37652 16.1301 8.43484 16.0934ZM1.35404 4.09178C1.35393 4.09172 1.35382 4.09167 1.3537 4.09162L8.32855 7.43881L8.39081 7.30234L8.39069 7.30229C8.39062 7.30225 8.39055 7.30222 8.39048 7.30219L1.35404 4.09178ZM1.56177 4.96814L7.88736 7.85388V15.239L1.56177 12.3532V4.96814Z" fill="#939393" stroke="#939393" stroke-width="0.3"/>
<path d="M3.91987 7.14388C3.91989 7.14389 3.91992 7.14391 3.91994 7.14392L5.47831 7.85449C5.47838 7.85452 5.47845 7.85456 5.47853 7.85459L5.47866 7.85465L5.41643 7.99113C5.52035 8.03819 5.56545 8.16074 5.51839 8.26369L3.91987 7.14388ZM3.91987 7.14388L3.91981 7.14386L3.85758 7.28034L3.91987 7.14388ZM5.18319 8.50194C5.23153 8.52429 5.28248 8.53428 5.33114 8.53428L3.58503 7.3823C3.53797 7.48524 3.58307 7.60779 3.68699 7.65485L3.62476 7.79134L3.6249 7.7914C3.62497 7.79143 3.62504 7.79146 3.62511 7.7915L5.18319 8.50194Z" fill="#939393" stroke="#939393" stroke-width="0.3"/>
<path d="M1.35343 4.74019L1.35305 4.74036C1.17445 4.82124 0.963566 4.74381 0.881977 4.56363C0.801129 4.38509 0.878478 4.17429 1.05852 4.09264L1.05832 4.09274L1.35343 4.74019ZM1.35343 4.74019L8.24325 1.59699L1.35343 4.74019ZM8.09569 0.881916L1.05871 4.09256L15.4282 4.09274L15.4281 4.0927C15.428 4.09266 15.4279 4.09261 15.4278 4.09256L8.39081 0.881915L8.39061 0.881827C8.29725 0.839391 8.18924 0.839391 8.09588 0.881827L8.09569 0.881916Z" fill="#939393" stroke="#939393" stroke-width="0.3"/>
<path d="M3.44847 5.73399L3.44838 5.7338C3.36754 5.55526 3.44488 5.34447 3.62491 5.26282L3.62473 5.2629L3.68699 5.39937L3.62511 5.26273L3.44847 5.73399ZM3.44847 5.73399C3.50789 5.86471 3.63689 5.94251 3.77228 5.94251C3.82094 5.94251 3.8719 5.93252 3.92023 5.91017L3.44847 5.73399Z" fill="#939393" stroke="#939393" stroke-width="0.3"/>
<path d="M12.2207 2.76301L12.2211 2.76284C12.3997 2.68196 12.6106 2.75939 12.6922 2.93957C12.773 3.11809 12.6957 3.32887 12.5157 3.41053L12.5158 3.41046L12.2207 2.76301ZM12.2207 2.76301L5.18969 5.97023C5.06381 6.02483 4.975 6.1509 4.975 6.29756C4.975 6.49413 5.13432 6.65345 5.33089 6.65345C5.37937 6.65345 5.43087 6.6439 5.47965 6.62074M12.2207 2.76301L12.5154 3.41064L5.47965 6.62074M5.47965 6.62074C5.48018 6.62049 5.48072 6.62023 5.48125 6.61997L5.41618 6.48482L5.47845 6.62129L5.47965 6.62074Z" fill="#939393" stroke="#939393" stroke-width="0.3"/>
<path d="M4.975 8.17812C4.975 8.37469 5.13431 8.534 5.33088 8.534C5.52746 8.534 5.68677 8.37469 5.68677 8.17812V6.29768C5.68677 6.10111 5.52746 5.9418 5.33088 5.9418C5.13431 5.9418 4.975 6.10111 4.975 6.29768V8.17812Z" fill="#939393" stroke="#939393" stroke-width="0.3"/>
<path d="M3.41641 7.46617C3.41641 7.66274 3.57572 7.82206 3.77229 7.82206C3.9684 7.82206 4.12818 7.66321 4.12818 7.46715V5.58674C4.12818 5.39017 3.96886 5.23086 3.77229 5.23086C3.57572 5.23086 3.41641 5.39017 3.41641 5.58674V7.46617Z" fill="#939393" stroke="#939393" stroke-width="0.3"/>
</svg>
