<svg width="40" height="40" viewBox="0 0 40 40" fill="none" xmlns="http://www.w3.org/2000/svg">
<g clip-path="url(#clip0_288_64)">
<path d="M30 0.5H10C4.75329 0.5 0.5 4.75329 0.5 10V30C0.5 35.2467 4.75329 39.5 10 39.5H30C35.2467 39.5 39.5 35.2467 39.5 30V10C39.5 4.75329 35.2467 0.5 30 0.5Z" stroke="#ABABAB"/>
<g clip-path="url(#clip1_288_64)">
<path d="M11.582 14.2038H20.7975C21.0853 15.5331 22.2692 16.5325 23.6834 16.5325C25.0977 16.5325 26.2816 15.5331 26.5694 14.2038H28.4173C28.5831 14.2038 28.7421 14.1379 28.8593 14.0207C28.9765 13.9035 29.0423 13.7445 29.0423 13.5787C29.0423 13.413 28.9765 13.254 28.8593 13.1368C28.7421 13.0196 28.5831 12.9537 28.4173 12.9537H26.5694C26.2816 11.6244 25.0977 10.625 23.6834 10.625C22.2692 10.625 21.0853 11.6244 20.7975 12.9537H11.582C11.4163 12.9537 11.2573 13.0196 11.1401 13.1368C11.0229 13.254 10.957 13.413 10.957 13.5787C10.957 13.7445 11.0229 13.9035 11.1401 14.0207C11.2573 14.1379 11.4163 14.2038 11.582 14.2038ZM23.6834 11.875C24.623 11.875 25.3872 12.6394 25.3872 13.5787C25.3872 14.5181 24.6228 15.2825 23.6834 15.2825C22.7441 15.2825 21.9797 14.5181 21.9797 13.5787C21.9797 12.6394 22.7439 11.875 23.6834 11.875ZM28.4173 19.375H19.2019C18.9141 18.0456 17.7302 17.0462 16.3159 17.0462C14.9017 17.0462 13.7178 18.0456 13.43 19.375H11.582C11.4163 19.375 11.2573 19.4408 11.1401 19.5581C11.0229 19.6753 10.957 19.8342 10.957 20C10.957 20.1658 11.0229 20.3247 11.1401 20.4419C11.2573 20.5592 11.4163 20.625 11.582 20.625H13.43C13.7178 21.9544 14.9017 22.9537 16.3159 22.9537C17.7302 22.9537 18.9141 21.9544 19.2019 20.625H28.4173C28.5831 20.625 28.7421 20.5592 28.8593 20.4419C28.9765 20.3247 29.0423 20.1658 29.0423 20C29.0423 19.8342 28.9765 19.6753 28.8593 19.5581C28.7421 19.4408 28.5831 19.375 28.4173 19.375ZM16.3159 21.7037C15.3764 21.7037 14.6122 20.9394 14.6122 20C14.6122 19.0606 15.3766 18.2963 16.3159 18.2963C17.2553 18.2963 18.0197 19.0605 18.0197 20C18.0197 20.9395 17.2555 21.7037 16.3159 21.7037ZM28.4173 25.7963H26.5694C26.2816 24.4669 25.0977 23.4675 23.6834 23.4675C22.2692 23.4675 21.0853 24.4669 20.7975 25.7963H11.582C11.4163 25.7963 11.2573 25.8621 11.1401 25.9793C11.0229 26.0965 10.957 26.2555 10.957 26.4213C10.957 26.587 11.0229 26.746 11.1401 26.8632C11.2573 26.9804 11.4163 27.0463 11.582 27.0463H20.7975C21.0853 28.3756 22.2692 29.375 23.6834 29.375C25.0977 29.375 26.2816 28.3756 26.5694 27.0463H28.4173C28.5831 27.0463 28.7421 26.9804 28.8593 26.8632C28.9765 26.746 29.0423 26.587 29.0423 26.4213C29.0423 26.2555 28.9765 26.0965 28.8593 25.9793C28.7421 25.8621 28.5831 25.7963 28.4173 25.7963ZM23.6834 28.125C22.7439 28.125 21.9797 27.3606 21.9797 26.4213C21.9797 25.4819 22.7441 24.7175 23.6834 24.7175C24.6228 24.7175 25.3872 25.4819 25.3872 26.4213C25.3872 27.3606 24.623 28.125 23.6834 28.125Z" fill="#ABABAB"/>
</g>
</g>
<defs>
<clipPath id="clip0_288_64">
<rect width="40" height="40" fill="white"/>
</clipPath>
<clipPath id="clip1_288_64">
<rect width="20" height="20" fill="white" transform="translate(10 10)"/>
</clipPath>
</defs>
</svg>
