<svg width="33" height="33" viewBox="0 0 33 33" fill="none" xmlns="http://www.w3.org/2000/svg">
<circle cx="16.5" cy="16.5" r="16.5" fill="#F1F1F1"/>
<path d="M10.2661 17.3443L6.32603 15.7026L6.05551 16.3508L8.65005 17.4318V20.5937C8.65005 20.6869 8.68706 20.7763 8.75295 20.8422C8.81884 20.9081 8.9082 20.9451 9.00137 20.9451H10.7773C10.9604 21.2364 11.1752 21.5066 11.4178 21.7507C11.5076 21.8406 11.6165 21.9092 11.7364 21.9513C11.8563 21.9934 11.9842 22.0079 12.1105 21.9938C12.2368 21.9797 12.3583 21.9373 12.466 21.8698C12.5736 21.8023 12.6647 21.7113 12.7324 21.6038L12.8003 21.6892C12.8943 21.8072 13.0191 21.8972 13.1609 21.9491C13.3027 22.001 13.456 22.0129 13.6041 21.9834C13.7522 21.954 13.8893 21.8844 14.0005 21.7823C14.1116 21.6801 14.1926 21.5493 14.2344 21.4042C14.3263 21.4951 14.438 21.5637 14.5606 21.6045C14.6833 21.6454 14.8137 21.6575 14.9418 21.6399C15.0699 21.6223 15.1923 21.5755 15.2994 21.5031C15.4065 21.4307 15.4955 21.3346 15.5596 21.2223C15.7347 21.3021 15.9323 21.318 16.118 21.2674C16.3037 21.2168 16.4659 21.1027 16.5763 20.9451H21.6491C21.7423 20.9451 21.8316 20.9081 21.8975 20.8422C21.9634 20.7763 22.0004 20.6869 22.0004 20.5937V9.35133C22.0004 9.25815 21.9634 9.16879 21.8975 9.1029C21.8316 9.03701 21.7423 9 21.6491 9H9.00137C8.9082 9 8.81884 9.03701 8.75295 9.1029C8.68706 9.16879 8.65005 9.25815 8.65005 9.35133V12.281L6.38154 10.8132L6 11.4031L11.682 15.0797L10.2661 17.3443ZM9.3527 20.2424V17.7248L10.0553 18.0175V18.4608C10.0541 19.072 10.1735 19.6774 10.4067 20.2424H9.3527ZM15.803 20.5481L14.1901 18.6123L13.6498 19.0623L14.5235 20.1103L14.9209 20.6401C14.9552 20.6862 14.9738 20.7421 14.9739 20.7996C14.9717 20.8273 14.9618 20.8539 14.9455 20.8763C14.9291 20.8988 14.9068 20.9163 14.8812 20.927C14.8555 20.9376 14.8274 20.941 14.7999 20.9367C14.7724 20.9324 14.7467 20.9206 14.7255 20.9026L13.1143 19.2914L12.6176 19.7885L13.2798 20.4508L13.5036 20.898C13.5463 20.9834 13.5686 21.0776 13.5686 21.1731C13.5662 21.1974 13.557 21.2205 13.5419 21.2397C13.5269 21.2589 13.5066 21.2734 13.4836 21.2816C13.4606 21.2897 13.4357 21.2911 13.4119 21.2855C13.3882 21.28 13.3665 21.2678 13.3494 21.2504L12.0846 19.6719L11.5358 20.1107L12.1254 20.8485C12.1486 20.948 12.1604 21.0498 12.1605 21.152C12.1582 21.1797 12.1484 21.2063 12.132 21.2287C12.1157 21.2512 12.0934 21.2687 12.0678 21.2794C12.0421 21.29 12.014 21.2934 11.9865 21.289C11.959 21.2847 11.9333 21.2729 11.9121 21.2549C11.5446 20.8886 11.2534 20.453 11.0553 19.9734C10.8572 19.4939 10.7561 18.9797 10.758 18.4608V17.8836L12.321 15.3825L13.4488 15.508C14.4521 15.6192 15.4608 15.675 16.4702 15.6752C16.5324 15.675 16.5926 15.697 16.64 15.7372C16.6874 15.7774 16.7189 15.8332 16.7288 15.8946C16.7387 15.956 16.7264 16.0189 16.694 16.072C16.6617 16.1251 16.6115 16.1649 16.5524 16.1843C16.1681 16.3125 15.7655 16.3779 15.3604 16.3778H14.6226C14.5626 16.3778 14.5037 16.3931 14.4513 16.4222C14.3989 16.4514 14.3549 16.4935 14.3234 16.5444C14.2919 16.5954 14.2739 16.6536 14.2713 16.7135C14.2686 16.7734 14.2813 16.833 14.3081 16.8866L15.9646 20.1989C16.0061 20.282 16.0278 20.3736 16.0279 20.4666C16.0256 20.4915 16.0163 20.5154 16.0009 20.5352C15.9856 20.5551 15.9649 20.5702 15.9413 20.5787C15.9178 20.5873 15.8922 20.5889 15.8677 20.5835C15.8432 20.5781 15.8208 20.5658 15.803 20.5481ZM14.2713 9.70265H16.3792V12.5133H14.2713V9.70265ZM9.3527 12.7356V9.70265H13.5686V12.8646C13.5686 12.9578 13.6056 13.0471 13.6715 13.113C13.7374 13.1789 13.8268 13.2159 13.9199 13.2159H16.7305C16.8237 13.2159 16.9131 13.1789 16.979 13.113C17.0448 13.0471 17.0819 12.9578 17.0819 12.8646V9.70265H21.2978V20.2424H16.7042C16.6848 20.1184 16.6474 19.9979 16.5932 19.8848L16.4207 19.5398H20.5951V18.8371H16.0693L15.191 17.0805H15.3604C15.8415 17.0805 16.3194 17.003 16.7759 16.8511C16.9931 16.7786 17.1774 16.6312 17.2959 16.4352C17.4143 16.2392 17.4591 16.0074 17.4223 15.7814C17.3854 15.5554 17.2693 15.3499 17.0947 15.2017C16.9201 15.0534 16.6985 14.9722 16.4695 14.9725C15.4862 14.9722 14.5037 14.9179 13.5264 14.8099L12.3562 14.6799L12.3541 14.6778L9.3527 12.7356ZM21.0497 21.6797L19.2731 21.9333C19.0561 21.9654 18.8576 22.0739 18.7135 22.2393C18.5694 22.4047 18.4892 22.6162 18.4872 22.8355L16.3335 22.4048C15.8011 22.2924 15.2465 22.3589 14.7557 22.5938C14.6004 22.6712 14.4714 22.7929 14.3853 22.9436C14.2992 23.0942 14.2598 23.2671 14.2721 23.4402C14.2844 23.6133 14.3478 23.7789 14.4543 23.9159C14.5607 24.053 14.7055 24.1553 14.8703 24.2099L19.4024 25.7206C19.91 25.8898 20.4554 25.9108 20.9745 25.7811L23.0727 25.2565C23.0912 25.3256 23.1305 25.3873 23.1853 25.4331C23.2402 25.479 23.3078 25.5069 23.379 25.513L27.9462 25.8643L28 25.161L23.757 24.8356V22.7017H27.9729V21.999H23.4057C23.3571 21.9994 23.3091 22.0099 23.2648 22.0299C23.2205 22.0499 23.1809 22.079 23.1485 22.1153C22.5206 21.7311 21.7787 21.5771 21.0497 21.6797ZM20.8038 25.0981C20.4143 25.1952 20.0053 25.1794 19.6244 25.0528L15.0923 23.5421C15.0598 23.5312 15.0313 23.5109 15.0103 23.4837C14.9893 23.4566 14.9768 23.4239 14.9744 23.3897C14.972 23.3555 14.9798 23.3214 14.9968 23.2916C15.0137 23.2618 15.0392 23.2377 15.0698 23.2224C15.4208 23.0569 15.8166 23.0117 16.1958 23.0938L18.9889 23.6524C19.1166 23.7193 19.2585 23.7547 19.4027 23.7557H20.5951V23.053H19.4027C19.3492 23.0524 19.2978 23.0317 19.2588 22.995C19.2198 22.9582 19.1961 22.9082 19.1923 22.8548C19.1886 22.8013 19.2051 22.7484 19.2385 22.7066C19.2719 22.6648 19.3199 22.6371 19.3729 22.629L21.1492 22.3753C21.7502 22.2911 22.3612 22.4297 22.8671 22.7649L23.0544 22.89V24.5356L20.8038 25.0981Z" fill="#1D4599"/>
<path d="M17.7852 17.4316H20.5958V18.1343H17.7852V17.4316Z" fill="#1D4599"/>
</svg>
