<svg width="12" height="11" viewBox="0 0 12 11" fill="none" xmlns="http://www.w3.org/2000/svg">
<path d="M1.3625 10.75C1.26528 10.75 1.16319 10.7477 1.05625 10.743C0.949306 10.7379 0.847222 10.7306 0.75 10.7208V7.30833L3.66667 6.725L5.35833 8.41667C6.09722 7.96944 6.77544 7.43958 7.393 6.82708C8.01017 6.21458 8.52292 5.55833 8.93125 4.85833L7.26875 3.18125L7.80833 0.25H11.2208C11.2403 0.347222 11.25 0.449306 11.25 0.55625V0.8625C11.25 2.11667 10.9704 3.33914 10.4112 4.52992C9.85233 5.72108 9.11344 6.77847 8.1945 7.70208C7.27594 8.62569 6.22128 9.36458 5.0305 9.91875C3.83933 10.4729 2.61667 10.75 1.3625 10.75Z" fill="#C1C1C1"/>
</svg>
