<svg width="17" height="17" viewBox="0 0 17 17" fill="none" xmlns="http://www.w3.org/2000/svg">
<path d="M15.5308 12.7667C14.9583 12.1891 13.5715 11.3463 12.8987 11.0067C12.0226 10.5649 11.9505 10.5288 11.2618 11.041C10.8024 11.3828 10.497 11.6881 9.95944 11.5734C9.42184 11.4586 8.25362 10.8114 7.23071 9.79061C6.20779 8.76983 5.52381 7.56641 5.40879 7.03003C5.29377 6.49366 5.60385 6.19154 5.94206 5.7306C6.41872 5.08088 6.38267 4.9726 5.97523 4.09548C5.65758 3.41328 4.79115 2.03804 4.21209 1.46773C3.59264 0.855196 3.59264 0.963482 3.1935 1.12952C2.86855 1.26639 2.55681 1.43276 2.26217 1.62655C1.68527 2.01025 1.36509 2.32897 1.14119 2.80796C0.917277 3.28694 0.816681 4.40987 1.973 6.51279C3.12932 8.6157 3.94058 9.69098 5.61972 11.3673C7.29885 13.0435 8.59002 13.9448 10.4776 15.0046C12.8126 16.3138 13.7082 16.0586 14.1881 15.8348C14.668 15.611 14.9878 15.2933 15.3718 14.7158C15.5659 14.4214 15.7325 14.1096 15.8694 13.7846C16.0356 13.3864 16.1438 13.3864 15.5308 12.7667Z" stroke="#979797" stroke-width="1.1538" stroke-miterlimit="10"/>
</svg>
