<svg width="30" height="30" viewBox="0 0 30 30" fill="none" xmlns="http://www.w3.org/2000/svg">
<path d="M11.4492 14.525C11.4117 14.525 11.3867 14.525 11.3492 14.525C11.2867 14.5125 11.1992 14.5125 11.1242 14.525C7.49922 14.4125 4.76172 11.5625 4.76172 8.05C4.76172 4.475 7.67422 1.5625 11.2492 1.5625C14.8242 1.5625 17.7367 4.475 17.7367 8.05C17.7242 11.5625 14.9742 14.4125 11.4867 14.525C11.4742 14.525 11.4617 14.525 11.4492 14.525ZM11.2492 3.4375C8.71172 3.4375 6.63672 5.5125 6.63672 8.05C6.63672 10.55 8.58672 12.5625 11.0742 12.65C11.1492 12.6375 11.3117 12.6375 11.4742 12.65C13.9242 12.5375 15.8492 10.525 15.8617 8.05C15.8617 5.5125 13.7867 3.4375 11.2492 3.4375Z" fill="#00BB47"/>
<path d="M20.674 14.6875C20.6365 14.6875 20.599 14.6875 20.5615 14.675C20.049 14.725 19.524 14.3625 19.474 13.85C19.424 13.3375 19.7365 12.875 20.249 12.8125C20.399 12.8 20.5615 12.8 20.699 12.8C22.524 12.7 23.949 11.2 23.949 9.3625C23.949 7.4625 22.4115 5.925 20.5115 5.925C19.999 5.9375 19.574 5.5125 19.574 5C19.574 4.4875 19.999 4.0625 20.5115 4.0625C23.4365 4.0625 25.824 6.45 25.824 9.375C25.824 12.25 23.574 14.575 20.7115 14.6875C20.699 14.6875 20.6865 14.6875 20.674 14.6875Z" fill="#00BB47"/>
<path d="M11.4625 28.1875C9.0125 28.1875 6.55 27.5625 4.6875 26.3125C2.95 25.1625 2 23.5875 2 21.875C2 20.1625 2.95 18.575 4.6875 17.4125C8.4375 14.925 14.5125 14.925 18.2375 17.4125C19.9625 18.5625 20.925 20.1375 20.925 21.85C20.925 23.5625 19.975 25.15 18.2375 26.3125C16.3625 27.5625 13.9125 28.1875 11.4625 28.1875ZM5.725 18.9875C4.525 19.7875 3.875 20.8125 3.875 21.8875C3.875 22.95 4.5375 23.975 5.725 24.7625C8.8375 26.85 14.0875 26.85 17.2 24.7625C18.4 23.9625 19.05 22.9375 19.05 21.8625C19.05 20.8 18.3875 19.775 17.2 18.9875C14.0875 16.9125 8.8375 16.9125 5.725 18.9875Z" fill="#00BB47"/>
<path d="M22.9228 25.9375C22.4853 25.9375 22.0978 25.6375 22.0103 25.1875C21.9103 24.675 22.2353 24.1875 22.7353 24.075C23.5228 23.9125 24.2478 23.6 24.8103 23.1625C25.5228 22.625 25.9103 21.95 25.9103 21.2375C25.9103 20.525 25.5228 19.85 24.8228 19.325C24.2728 18.9 23.5853 18.6 22.7728 18.4125C22.2728 18.3 21.9478 17.8 22.0603 17.2875C22.1728 16.7875 22.6728 16.4625 23.1853 16.575C24.2603 16.8125 25.1978 17.2375 25.9603 17.825C27.1228 18.7 27.7853 19.9375 27.7853 21.2375C27.7853 22.5375 27.1103 23.775 25.9478 24.6625C25.1728 25.2625 24.1978 25.7 23.1228 25.9125C23.0478 25.9375 22.9853 25.9375 22.9228 25.9375Z" fill="#00BB47"/>
</svg>
