<svg width="26" height="25" viewBox="0 0 26 25" fill="none" xmlns="http://www.w3.org/2000/svg">
<path d="M12.125 21.25V23.75C12.125 24.44 12.685 25 13.375 25C14.065 25 14.625 24.44 14.625 23.75V21.25C14.625 20.56 14.065 20 13.375 20C12.685 20 12.125 20.56 12.125 21.25ZM6.30375 17.8037L4.53625 19.5712C4.04875 20.0588 4.04875 20.8512 4.53625 21.3387C5.02375 21.8262 5.81625 21.8262 6.30375 21.3387L8.07125 19.5712C8.56 19.0837 8.56 18.2913 8.07125 17.8037C7.58375 17.315 6.79125 17.315 6.30375 17.8037ZM22.2137 19.5712L20.4462 17.8037C19.9587 17.315 19.1663 17.315 18.6787 17.8037C18.19 18.2913 18.19 19.0837 18.6787 19.5712L20.4462 21.3387C20.9338 21.8262 21.7262 21.8262 22.2137 21.3387C22.7012 20.8512 22.7012 20.0588 22.2137 19.5712ZM24.625 11.25H22.125C21.435 11.25 20.875 11.81 20.875 12.5C20.875 13.19 21.435 13.75 22.125 13.75H24.625C25.315 13.75 25.875 13.19 25.875 12.5C25.875 11.81 25.315 11.25 24.625 11.25ZM4.625 11.25H2.125C1.435 11.25 0.875 11.81 0.875 12.5C0.875 13.19 1.435 13.75 2.125 13.75H4.625C5.315 13.75 5.875 13.19 5.875 12.5C5.875 11.81 5.315 11.25 4.625 11.25ZM20.4462 3.66125L18.6787 5.42875C18.19 5.91625 18.19 6.70875 18.6787 7.19625C19.1663 7.685 19.9587 7.685 20.4462 7.19625L22.2137 5.42875C22.7012 4.94125 22.7012 4.14875 22.2137 3.66125C21.7262 3.17375 20.9338 3.17375 20.4462 3.66125ZM8.07125 5.42875L6.30375 3.66125C5.81625 3.17375 5.02375 3.17375 4.53625 3.66125C4.04875 4.14875 4.04875 4.94125 4.53625 5.42875L6.30375 7.19625C6.79125 7.685 7.58375 7.685 8.07125 7.19625C8.56 6.70875 8.56 5.91625 8.07125 5.42875ZM12.125 1.25V3.75C12.125 4.44 12.685 5 13.375 5C14.065 5 14.625 4.44 14.625 3.75V1.25C14.625 0.56 14.065 0 13.375 0C12.685 0 12.125 0.56 12.125 1.25Z" fill="#F6599F"/>
</svg>
