<svg width="21" height="21" viewBox="0 0 21 21" fill="none" xmlns="http://www.w3.org/2000/svg">
<g clip-path="url(#clip0_1753_13950)">
<path d="M20.6699 15.1772L20.0405 14.6233V12.1899C20.0405 11.8008 19.8953 11.4256 19.6333 11.1379C19.3713 10.8501 19.0115 10.6704 18.624 10.6339C18.2366 10.5973 17.8495 10.7067 17.5383 10.9404C17.2272 11.1742 17.0145 11.5156 16.9417 11.8979L16.4023 11.4247C16.0996 11.1599 15.7111 11.0139 15.309 11.0139C14.9068 11.0139 14.5183 11.1599 14.2157 11.4247L9.95004 15.1765C9.85944 15.2624 9.80496 15.3796 9.79771 15.5042C9.79045 15.6289 9.83095 15.7516 9.91097 15.8474C9.991 15.9432 10.1045 16.005 10.2285 16.02C10.3524 16.0351 10.4774 16.0024 10.5781 15.9286V19.4238C10.5784 19.7979 10.7272 20.1565 10.9917 20.4211C11.2562 20.6856 11.6149 20.8344 11.989 20.8347H18.6303C19.0043 20.8344 19.3629 20.6856 19.6273 20.421C19.8917 20.1565 20.0404 19.7978 20.0405 19.4238V15.9279C20.1408 16.0053 20.267 16.0409 20.3929 16.0272C20.5187 16.0136 20.6344 15.9518 20.7158 15.8548C20.7971 15.7578 20.8377 15.6331 20.8292 15.5068C20.8206 15.3804 20.7635 15.2623 20.6699 15.1772ZM16.1733 19.849H14.5326V18.7019C14.5328 18.5088 14.6096 18.3236 14.7462 18.187C14.8828 18.0504 15.0679 17.9736 15.2611 17.9735H15.4481C15.6412 17.9736 15.8264 18.0504 15.963 18.187C16.0996 18.3236 16.1764 18.5088 16.1765 18.7019L16.1733 19.849ZM19.0562 19.4225C19.0562 19.5354 19.0114 19.6437 18.9317 19.7236C18.852 19.8036 18.7438 19.8487 18.6309 19.849H17.1576V18.7019C17.1571 18.2478 16.9765 17.8124 16.6554 17.4913C16.3343 17.1702 15.8989 16.9896 15.4448 16.9891H15.2578C14.8037 16.9896 14.3683 17.1702 14.0472 17.4913C13.7261 17.8124 13.5455 18.2478 13.545 18.7019V19.8477H11.9877C11.8746 19.8475 11.7662 19.8025 11.6863 19.7226C11.6063 19.6426 11.5613 19.5342 11.5611 19.4211V15.0702L14.8654 12.1643C14.9881 12.0568 15.1458 11.9975 15.309 11.9975C15.4722 11.9975 15.6298 12.0568 15.7526 12.1643L19.0562 15.0689V19.4225ZM19.0562 12.1899V13.7577L17.8966 12.7379V12.1899C17.894 12.1121 17.907 12.0346 17.935 11.962C17.9629 11.8894 18.0052 11.8231 18.0593 11.7672C18.1134 11.7112 18.1782 11.6667 18.2499 11.6363C18.3215 11.6059 18.3985 11.5903 18.4764 11.5903C18.5542 11.5903 18.6312 11.6059 18.7029 11.6363C18.7745 11.6667 18.8393 11.7112 18.8934 11.7672C18.9475 11.8231 18.9898 11.8894 19.0178 11.962C19.0457 12.0346 19.0588 12.1121 19.0562 12.1899Z" fill="#9C8F41"/>
<path d="M15.3097 13.1895C14.9238 13.1898 14.5538 13.3434 14.2811 13.6165C14.0084 13.8895 13.8553 14.2597 13.8555 14.6457C13.8556 15.0316 14.0091 15.4017 14.282 15.6745C14.555 15.9473 14.9251 16.1006 15.311 16.1006C15.697 16.1006 16.0671 15.9473 16.34 15.6745C16.613 15.4017 16.7664 15.0316 16.7666 14.6457C16.7668 14.2597 16.6137 13.8895 16.341 13.6165C16.0683 13.3434 15.6983 13.1898 15.3123 13.1895H15.3097ZM15.7816 14.6437C15.7818 14.7372 15.7543 14.8287 15.7026 14.9066C15.6508 14.9844 15.5771 15.0452 15.4908 15.0812C15.4045 15.1171 15.3094 15.1267 15.2177 15.1086C15.1259 15.0905 15.0416 15.0456 14.9754 14.9796C14.9092 14.9136 14.8641 14.8294 14.8457 14.7377C14.8274 14.646 14.8367 14.5509 14.8724 14.4645C14.9081 14.3781 14.9687 14.3042 15.0464 14.2522C15.1241 14.2003 15.2156 14.1725 15.3091 14.1725H15.3097C15.4347 14.1727 15.5545 14.2224 15.6429 14.3107C15.7314 14.399 15.7812 14.5187 15.7816 14.6437Z" fill="#9C8F41"/>
<path d="M8.99322 19.8443H2.73719C2.31696 19.8436 1.91415 19.6764 1.61707 19.3792C1.31998 19.0819 1.15286 18.6791 1.15234 18.2588V2.73328C1.15304 2.31317 1.32023 1.91046 1.6173 1.61339C1.91437 1.31633 2.31707 1.14913 2.73719 1.14844H16.9588C17.3789 1.14913 17.7816 1.31633 18.0787 1.61339C18.3757 1.91046 18.5429 2.31317 18.5436 2.73328V8.93419C18.5436 9.06472 18.5955 9.18991 18.6878 9.28222C18.7801 9.37452 18.9053 9.42637 19.0358 9.42637C19.1663 9.42637 19.2915 9.37452 19.3838 9.28222C19.4761 9.18991 19.528 9.06472 19.528 8.93419V2.73328C19.5271 2.05215 19.2562 1.39916 18.7745 0.917528C18.2929 0.435894 17.6399 0.164931 16.9588 0.164062H2.73719C2.05605 0.164931 1.40307 0.435894 0.921435 0.917528C0.439801 1.39916 0.168837 2.05215 0.167969 2.73328V18.2588C0.168663 18.9401 0.43955 19.5932 0.921203 20.075C1.40286 20.5568 2.05594 20.8279 2.73719 20.8287H8.99322C9.12375 20.8287 9.24894 20.7769 9.34125 20.6846C9.43355 20.5923 9.48541 20.4671 9.48541 20.3365C9.48541 20.206 9.43355 20.0808 9.34125 19.9885C9.24894 19.8962 9.12375 19.8443 8.99322 19.8443Z" fill="#9C8F41"/>
<path d="M15.0632 5.10547C15.0632 4.97493 15.0114 4.84974 14.9191 4.75744C14.8268 4.66514 14.7016 4.61328 14.571 4.61328H4.80078C4.67025 4.61328 4.54506 4.66514 4.45275 4.75744C4.36045 4.84974 4.30859 4.97493 4.30859 5.10547C4.30859 5.23601 4.36045 5.36119 4.45275 5.4535C4.54506 5.5458 4.67025 5.59766 4.80078 5.59766H14.571C14.7016 5.59766 14.8268 5.5458 14.9191 5.4535C15.0114 5.36119 15.0632 5.23601 15.0632 5.10547ZM12.6535 8.92419C12.6535 8.79365 12.6016 8.66846 12.5093 8.57616C12.417 8.48386 12.2918 8.432 12.1613 8.432H4.80078C4.67025 8.432 4.54506 8.48386 4.45275 8.57616C4.36045 8.66846 4.30859 8.79365 4.30859 8.92419C4.30859 9.05472 4.36045 9.17991 4.45275 9.27222C4.54506 9.36452 4.67025 9.41637 4.80078 9.41637H12.1613C12.2918 9.41637 12.417 9.36452 12.5093 9.27222C12.6016 9.17991 12.6535 9.05472 12.6535 8.92419ZM4.80078 12.2494C4.67025 12.2494 4.54506 12.3013 4.45275 12.3936C4.36045 12.4859 4.30859 12.6111 4.30859 12.7416C4.30859 12.8721 4.36045 12.9973 4.45275 13.0896C4.54506 13.1819 4.67025 13.2338 4.80078 13.2338H7.80509C7.93563 13.2338 8.06082 13.1819 8.15312 13.0896C8.24543 12.9973 8.29728 12.8721 8.29728 12.7416C8.29728 12.6111 8.24543 12.4859 8.15312 12.3936C8.06082 12.3013 7.93563 12.2494 7.80509 12.2494H4.80078Z" fill="#9C8F41"/>
</g>
<defs>
<clipPath id="clip0_1753_13950">
<rect width="21" height="21" fill="white"/>
</clipPath>
</defs>
</svg>
