<svg width="50" height="50" viewBox="0 0 50 50" fill="none" xmlns="http://www.w3.org/2000/svg">
<rect width="50" height="50" rx="11" fill="#FFFBE9"/>
<path d="M20 37.8997C19.65 37.8997 19.2875 37.8123 18.9625 37.6373C18.25 37.2623 17.8125 36.5122 17.8125 35.7122V33.9373C14.0375 33.5498 11.5625 30.7747 11.5625 26.7997V19.2998C11.5625 14.9998 14.45 12.1123 18.75 12.1123H31.25C35.55 12.1123 38.4375 14.9998 38.4375 19.2998V26.7997C38.4375 31.0997 35.55 33.9872 31.25 33.9872H26.5375L21.2125 37.5373C20.85 37.7748 20.425 37.8997 20 37.8997ZM18.75 13.9748C15.525 13.9748 13.4375 16.0623 13.4375 19.2873V26.7874C13.4375 30.0124 15.525 32.0999 18.75 32.0999C19.2625 32.0999 19.6875 32.5249 19.6875 33.0374V35.6999C19.6875 35.8624 19.7875 35.9373 19.85 35.9748C19.9125 36.0123 20.0375 36.0498 20.175 35.9623L25.7375 32.2624C25.8875 32.1624 26.075 32.0999 26.2625 32.0999H31.2625C34.4875 32.0999 36.575 30.0124 36.575 26.7874V19.2873C36.575 16.0623 34.4875 13.9748 31.2625 13.9748H18.75V13.9748Z" fill="#A1930D"/>
<path d="M25.0007 25.1375C24.4882 25.1375 24.0632 24.7125 24.0632 24.2V23.9375C24.0632 22.4875 25.1257 21.775 25.5257 21.5C25.9882 21.1875 26.1382 20.975 26.1382 20.65C26.1382 20.025 25.6257 19.5125 25.0007 19.5125C24.3757 19.5125 23.8633 20.025 23.8633 20.65C23.8633 21.1625 23.4383 21.5875 22.9258 21.5875C22.4133 21.5875 21.9883 21.1625 21.9883 20.65C21.9883 18.9875 23.3382 17.6375 25.0007 17.6375C26.6632 17.6375 28.0132 18.9875 28.0132 20.65C28.0132 22.075 26.9633 22.7875 26.5758 23.05C26.0883 23.375 25.9382 23.5875 25.9382 23.9375V24.2C25.9382 24.725 25.5132 25.1375 25.0007 25.1375Z" fill="#A1930D"/>
<path d="M25 28.25C24.475 28.25 24.0625 27.825 24.0625 27.3125C24.0625 26.8 24.4875 26.375 25 26.375C25.5125 26.375 25.9375 26.8 25.9375 27.3125C25.9375 27.825 25.525 28.25 25 28.25Z" fill="#A1930D"/>
</svg>
