<svg width="29" height="28" viewBox="0 0 29 28" fill="none" xmlns="http://www.w3.org/2000/svg">
<path d="M14.6654 6.33464C16.9585 6.33464 18.9987 8.75793 18.9987 10.668C18.9987 10.7564 19.0339 10.8412 19.0964 10.9037C19.1589 10.9662 19.2437 11.0013 19.3321 11.0013C19.4205 11.0013 19.5053 10.9662 19.5678 10.9037C19.6303 10.8412 19.6654 10.7564 19.6654 10.668C19.6654 9.58054 19.1214 8.34173 18.2102 7.35425C17.2068 6.26684 15.9478 5.66797 14.6654 5.66797C14.577 5.66797 14.4922 5.70309 14.4297 5.7656C14.3672 5.82811 14.332 5.9129 14.332 6.00131C14.332 6.08971 14.3672 6.1745 14.4297 6.23701C14.4922 6.29952 14.577 6.33464 14.6654 6.33464Z" fill="#1D4599"/>
<path d="M22.0002 21.3677V11.3341C22.0002 7.57385 19.2791 4.43735 15.7025 3.78995C16.0905 3.42494 16.3335 2.90747 16.3335 2.334C16.3335 1.23119 15.4363 0.333984 14.3335 0.333984C13.2306 0.333984 12.3334 1.23119 12.3334 2.334C12.3334 2.90747 12.5764 3.42494 12.9643 3.78995C9.38788 4.43735 6.66673 7.57385 6.66673 11.3341V21.3677C5.90685 21.5226 5.33338 22.196 5.33338 23.0009C5.33338 23.9199 6.08105 24.6675 7.00006 24.6675H12.3334V25.0009C12.3334 26.1037 13.2306 27.0009 14.3335 27.0009C15.4363 27.0009 16.3335 26.1037 16.3335 25.0009V24.6675H21.6669C22.5859 24.6675 23.3335 23.9199 23.3335 23.0009C23.3335 22.196 22.76 21.5226 22.0002 21.3677ZM21.3335 15.0008H7.3334V13.3341H21.3335V15.0008ZM7.3334 17.6675H13.6668C13.7552 17.6675 13.84 17.6323 13.9025 17.5698C13.965 17.5073 14.0001 17.4225 14.0001 17.3341C14.0001 17.2457 13.965 17.1609 13.9025 17.0984C13.84 17.0359 13.7552 17.0008 13.6668 17.0008H7.3334V15.6675H21.3335V21.3342H7.3334V17.6675ZM13.0001 2.334C13.0001 1.5988 13.5983 1.00066 14.3335 1.00066C15.0687 1.00066 15.6668 1.5988 15.6668 2.334C15.6668 3.06921 15.0687 3.66735 14.3335 3.66735C13.5983 3.66735 13.0001 3.06921 13.0001 2.334ZM14.3335 4.33402C18.1933 4.33402 21.3335 7.47425 21.3335 11.3341V12.6674H7.3334V11.3341C7.3334 7.47425 10.4736 4.33402 14.3335 4.33402ZM15.6668 25.0009C15.6668 25.7361 15.0687 26.3342 14.3335 26.3342C13.5983 26.3342 13.0001 25.7361 13.0001 25.0009V24.6675H15.6668V25.0009ZM21.6669 24.0009H7.00006C6.44866 24.0009 6.00005 23.5523 6.00005 23.0009C6.00005 22.4494 6.44866 22.0008 7.00006 22.0008H21.6669C22.2183 22.0008 22.6669 22.4494 22.6669 23.0009C22.6669 23.5523 22.2183 24.0009 21.6669 24.0009ZM24.6669 1.33399C23.5641 1.33399 22.6669 2.2312 22.6669 3.33401C22.6669 4.43682 23.5641 5.33403 24.6669 5.33403C25.7697 5.33403 26.6669 4.43682 26.6669 3.33401C26.6669 2.2312 25.7697 1.33399 24.6669 1.33399ZM24.6669 4.66736C23.9317 4.66736 23.3335 4.06922 23.3335 3.33401C23.3335 2.5988 23.9317 2.00067 24.6669 2.00067C25.4021 2.00067 26.0002 2.5988 26.0002 3.33401C26.0002 4.06922 25.4021 4.66736 24.6669 4.66736ZM2.33335 17.0008C1.04674 17.0008 0 18.0475 0 19.3342C0 20.6208 1.04674 21.6675 2.33335 21.6675C3.61997 21.6675 4.66671 20.6208 4.66671 19.3342C4.66671 18.0475 3.61997 17.0008 2.33335 17.0008ZM2.33335 21.0008C1.41435 21.0008 0.666673 20.2532 0.666673 19.3342C0.666673 18.4151 1.41435 17.6675 2.33335 17.6675C3.25236 17.6675 4.00004 18.4151 4.00004 19.3342C4.00004 20.2532 3.25236 21.0008 2.33335 21.0008Z" fill="#1D4599"/>
<path d="M21.5 1.33399C21.7761 1.33399 22 1.11013 22 0.833989C22 0.557844 21.7761 0.333984 21.5 0.333984C21.2239 0.333984 21 0.557844 21 0.833989C21 1.11013 21.2239 1.33399 21.5 1.33399Z" fill="#1D4599"/>
<path d="M5.49805 1.00001C5.7742 1.00001 5.99806 0.776149 5.99806 0.500004C5.99806 0.22386 5.7742 0 5.49805 0C5.22191 0 4.99805 0.22386 4.99805 0.500004C4.99805 0.776149 5.22191 1.00001 5.49805 1.00001Z" fill="#1D4599"/>
<path d="M2.16602 8.66602C2.44216 8.66602 2.66602 8.44216 2.66602 8.16602C2.66602 7.88988 2.44216 7.66602 2.16602 7.66602C1.88988 7.66602 1.66602 7.88988 1.66602 8.16602C1.66602 8.44216 1.88988 8.66602 2.16602 8.66602Z" fill="#1D4599"/>
<path d="M26.166 11C26.4422 11 26.666 10.7761 26.666 10.5C26.666 10.2239 26.4422 10 26.166 10C25.8899 10 25.666 10.2239 25.666 10.5C25.666 10.7761 25.8899 11 26.166 11Z" fill="#1D4599"/>
<path d="M9.5 28C9.77615 28 10 27.7761 10 27.5C10 27.2239 9.77615 27 9.5 27C9.22386 27 9 27.2239 9 27.5C9 27.7761 9.22386 28 9.5 28Z" fill="#1D4599"/>
<path d="M27.834 24.666C28.1101 24.666 28.334 24.4422 28.334 24.166C28.334 23.8899 28.1101 23.666 27.834 23.666C27.5578 23.666 27.334 23.8899 27.334 24.166C27.334 24.4422 27.5578 24.666 27.834 24.666Z" fill="#1D4599"/>
<path d="M2.83399 25.334C3.11013 25.334 3.33399 25.1101 3.33399 24.834C3.33399 24.5578 3.11013 24.334 2.83399 24.334C2.55784 24.334 2.33398 24.5578 2.33398 24.834C2.33398 25.1101 2.55784 25.334 2.83399 25.334Z" fill="#1D4599"/>
</svg>
