<svg width="28" height="28" viewBox="0 0 28 28" fill="none" xmlns="http://www.w3.org/2000/svg">
<path d="M25 3H22V1.00002C22 0.447715 21.5523 0 21 0C20.4477 0 20 0.447715 20 1.00002V3H7.99998V1.00002C7.99998 0.447715 7.55226 0 7.00001 0C6.44777 0 6 0.447715 6 1.00002V3H3C1.34314 3 0 4.34314 0 6V25C0 26.6569 1.34314 28 3 28H25C26.6569 28 28 26.6569 28 25V6C28 4.34314 26.6569 3 25 3ZM26 25C26 25.5523 25.5522 26 24.9999 26H3C2.44769 26 1.99998 25.5523 1.99998 25V12H26V25ZM26 10H1.99998V6C1.99998 5.44769 2.44769 4.99998 3 4.99998H6V6.99996C6 7.55226 6.44771 7.99998 7.00001 7.99998C7.55232 7.99998 8.00003 7.55226 8.00003 6.99996V4.99998H20V6.99996C20 7.55226 20.4477 7.99998 21 7.99998C21.5523 7.99998 22.0001 7.55226 22.0001 6.99996V4.99998H25.0001C25.5524 4.99998 26.0001 5.44769 26.0001 6V10H26Z" fill="#2A4F9F"/>
<path d="M20.6824 14.2934C20.2948 13.9191 19.6805 13.9191 19.293 14.2934L11.9999 21.5864L8.70691 18.2934C8.30965 17.9097 7.6766 17.9207 7.29293 18.3179C6.91863 18.7055 6.91863 19.3198 7.29293 19.7074L11.2929 23.7074C11.6835 24.0977 12.3165 24.0977 12.7069 23.7074L20.7069 15.7074C21.0906 15.3101 21.0796 14.6771 20.6824 14.2934Z" fill="#2A4F9F"/>
</svg>
