<svg width="30" height="30" viewBox="0 0 30 30" fill="none" xmlns="http://www.w3.org/2000/svg">
<path d="M23.7109 28.4375H6.21094C1.52344 28.4375 1.52344 25.8375 1.52344 23.75V22.5C1.52344 21.3 2.51094 20.3125 3.71094 20.3125H26.2109C27.4109 20.3125 28.3984 21.3 28.3984 22.5V23.75C28.3984 25.8375 28.3984 28.4375 23.7109 28.4375ZM3.71094 22.1875C3.53594 22.1875 3.39844 22.325 3.39844 22.5V23.75C3.39844 25.8 3.39844 26.5625 6.21094 26.5625H23.7109C26.5234 26.5625 26.5234 25.8 26.5234 23.75V22.5C26.5234 22.325 26.3859 22.1875 26.2109 22.1875H3.71094Z" fill="#0095FF"/>
<path d="M25.8984 22.1875H4.08594C3.57344 22.1875 3.14844 21.7625 3.14844 21.25V16.25C3.14844 11.125 6.78594 6.625 11.7859 5.5625C12.5234 5.4 13.2984 5.3125 14.0859 5.3125H15.8984C16.6984 5.3125 17.4734 5.4 18.2109 5.5625C23.2109 6.6375 26.8359 11.1375 26.8359 16.25V21.25C26.8359 21.7625 26.4234 22.1875 25.8984 22.1875ZM5.02344 20.3125H24.9609V16.25C24.9609 12.0125 21.9609 8.2875 17.8109 7.3875C17.1984 7.25 16.5609 7.1875 15.8984 7.1875H14.0859C13.4359 7.1875 12.7984 7.25 12.1859 7.3875C8.03594 8.275 5.02344 12 5.02344 16.25V20.3125Z" fill="#0095FF"/>
<path d="M11.9875 7.4125C11.575 7.4125 11.2 7.1375 11.0875 6.725C10.9875 6.3625 10.9375 6 10.9375 5.625C10.9375 3.3875 12.7625 1.5625 15 1.5625C17.2375 1.5625 19.0625 3.3875 19.0625 5.625C19.0625 6 19.0125 6.3625 18.9125 6.725C18.7875 7.2 18.3125 7.5 17.8125 7.3875C17.2 7.25 16.5625 7.1875 15.9 7.1875H14.0875C13.4375 7.1875 12.8 7.25 12.1875 7.3875C12.125 7.4 12.0625 7.4125 11.9875 7.4125ZM14.0875 5.3125H15.9C16.325 5.3125 16.7625 5.3375 17.175 5.3875C17.0625 4.2875 16.125 3.4375 15 3.4375C13.875 3.4375 12.95 4.2875 12.825 5.3875C13.25 5.3375 13.6625 5.3125 14.0875 5.3125Z" fill="#0095FF"/>
<path d="M18.75 14.6875H11.25C10.7375 14.6875 10.3125 14.2625 10.3125 13.75C10.3125 13.2375 10.7375 12.8125 11.25 12.8125H18.75C19.2625 12.8125 19.6875 13.2375 19.6875 13.75C19.6875 14.2625 19.2625 14.6875 18.75 14.6875Z" fill="#0095FF"/>
</svg>
