<svg width="18" height="18" viewBox="0 0 18 18" fill="none" xmlns="http://www.w3.org/2000/svg">
<path d="M15.75 13.9388L15.5138 12.9872C14.0067 15.4202 11.3908 16.9469 8.53125 17.0625C4.18199 17.0625 0.65625 13.5368 0.65625 9.1875H1.96875C1.96875 12.8119 4.90686 15.75 8.53125 15.75C11.0098 15.6414 13.2637 14.2821 14.5163 12.1406L13.2825 12.4688L12.9675 11.1562L15.5925 10.5C15.944 10.4133 16.2993 10.6277 16.3866 10.9791L17.0428 13.6041L15.75 13.9388ZM1.47 6.5625L4.095 5.90625L3.78 4.59375L2.54625 4.90219C3.80358 2.76827 6.05665 1.41693 8.53125 1.3125C12.1556 1.3125 15.0938 4.25061 15.0938 7.875H16.4062C16.4062 3.52574 12.8805 0 8.53125 0C5.66463 0.109143 3.03996 1.63673 1.52906 4.07531L1.3125 3.12375L0 3.43875L0.65625 6.06375C0.671139 6.1142 0.742752 6.33609 0.974572 6.47432C1.19688 6.60684 1.4159 6.57255 1.47 6.5625Z" fill="#109E83"/>
</svg>
