<svg width="30" height="32" viewBox="0 0 30 32" fill="none" xmlns="http://www.w3.org/2000/svg">
<path d="M15 29.5085C13.6375 29.5085 12.2875 29.1052 11.225 28.3113L5.85 24.2661C4.425 23.195 3.3125 20.9645 3.3125 19.175V9.81185C3.3125 7.87116 4.72502 5.80446 6.53752 5.12396L12.775 2.76743C14.0125 2.30116 15.9625 2.30116 17.2 2.76743L23.45 5.12396C25.2625 5.80446 26.675 7.87116 26.675 9.81185V19.175C26.675 20.9645 25.5625 23.195 24.1375 24.2661L18.7625 28.3113C17.7125 29.1052 16.3625 29.5085 15 29.5085ZM13.4375 4.53167L7.20002 6.88821C6.12502 7.29147 5.1875 8.65248 5.1875 9.81185V19.175C5.1875 20.3722 6.02502 22.0482 6.96252 22.7539L12.3375 26.7991C13.775 27.8829 16.2125 27.8829 17.65 26.7991L23.025 22.7539C23.975 22.0356 24.8 20.3596 24.8 19.175V9.81185C24.8 8.66508 23.8625 7.30407 22.7875 6.88821L16.55 4.53167C15.725 4.21663 14.275 4.21663 13.4375 4.53167Z" fill="#FF4646"/>
<path d="M15.0023 15.5335C14.9773 15.5335 14.9523 15.5335 14.9148 15.5335C13.1023 15.4831 11.7773 14.0843 11.7773 12.383C11.7773 10.644 13.1898 9.21997 14.9148 9.21997C16.6398 9.21997 18.0523 10.644 18.0523 12.383C18.0398 14.0969 16.7148 15.4831 15.0273 15.5461C15.0148 15.5335 15.0148 15.5335 15.0023 15.5335ZM14.9148 11.1102C14.2148 11.1102 13.6523 11.6773 13.6523 12.383C13.6523 13.0761 14.1898 13.6306 14.8648 13.6558C14.8648 13.6558 14.9273 13.6558 15.0023 13.6558C15.6648 13.618 16.1773 13.0635 16.1773 12.383C16.1898 11.6773 15.6148 11.1102 14.9148 11.1102Z" fill="#FF4646"/>
<path d="M15 22.6909C13.925 22.6909 12.8375 22.4011 12 21.834C11.1625 21.2795 10.6875 20.4604 10.6875 19.5909C10.6875 18.7214 11.1625 17.9022 12 17.3352C13.6875 16.201 16.325 16.2136 18 17.3352C18.8375 17.8896 19.3125 18.7088 19.3125 19.5783C19.3125 20.4478 18.8375 21.2669 18 21.834C17.1625 22.4011 16.075 22.6909 15 22.6909ZM13.0375 18.8978C12.725 19.0994 12.55 19.3515 12.5625 19.5783C12.5625 19.8051 12.7375 20.0572 13.0375 20.2588C14.0875 20.9645 15.9125 20.9645 16.9625 20.2588C17.275 20.0572 17.45 19.8051 17.45 19.5783C17.45 19.3515 17.275 19.0994 16.975 18.8978C15.925 18.2047 14.0875 18.2047 13.0375 18.8978Z" fill="#FF4646"/>
</svg>
