<svg width="20" height="18" viewBox="0 0 20 18" fill="none" xmlns="http://www.w3.org/2000/svg">
<path d="M19.9006 2.46246C19.9006 2.46029 19.9003 2.45811 19.9002 2.4559C19.9 2.44731 19.8994 2.43874 19.8985 2.4302C19.8981 2.42709 19.8975 2.42398 19.897 2.42087C19.8942 2.4017 19.8893 2.38288 19.8826 2.36471C19.882 2.36319 19.8817 2.36164 19.8811 2.36016L19.0903 0.335822C19.0106 0.131841 18.8175 0 18.5985 0H17.1587C17.0833 0 17.011 0.0299389 16.9577 0.0832304C16.9044 0.136522 16.8745 0.208801 16.8745 0.284166C16.8745 0.359532 16.9044 0.431811 16.9577 0.485102C17.011 0.538394 17.0833 0.568333 17.1587 0.568333H18.571L19.2003 2.17939H13.2506L12.8778 0.568333H15.0751C15.1505 0.568333 15.2228 0.538394 15.2761 0.485102C15.3294 0.431811 15.3593 0.359532 15.3593 0.284166C15.3593 0.208801 15.3294 0.136522 15.2761 0.0832304C15.2228 0.0299389 15.1505 0 15.0751 0H3.57886C3.35979 0 3.16677 0.131841 3.08706 0.3359L2.29628 2.36016C2.2957 2.36168 2.29539 2.36323 2.2948 2.36471C2.28804 2.38288 2.28319 2.4017 2.28034 2.42087C2.27988 2.42398 2.27929 2.42709 2.27891 2.4302C2.27795 2.43874 2.27736 2.44731 2.27716 2.4559C2.27712 2.45807 2.27685 2.46025 2.27681 2.46246L2.27677 2.46351V6.63836C2.27677 6.71373 2.30671 6.78601 2.36 6.8393C2.41329 6.89259 2.48557 6.92253 2.56093 6.92253C2.6363 6.92253 2.70858 6.89259 2.76187 6.8393C2.81516 6.78601 2.8451 6.71373 2.8451 6.63836V2.74772H8.8686V7.06708C8.86868 7.1499 8.89264 7.23094 8.93761 7.3005C8.98258 7.37005 9.04665 7.42516 9.12214 7.45922C9.19767 7.49317 9.2814 7.50459 9.36326 7.49213C9.44513 7.47966 9.52166 7.44383 9.58366 7.38895L11.0887 6.05561L12.5937 7.38891C12.6557 7.44379 12.7323 7.47961 12.8141 7.49208C12.896 7.50455 12.9798 7.49314 13.0553 7.45922C13.1308 7.42515 13.1948 7.37003 13.2398 7.30048C13.2848 7.23093 13.3087 7.1499 13.3088 7.06708V2.74772H19.3323V15.4935C19.3323 15.6974 19.1663 15.8634 18.9624 15.8634H13.752C13.752 15.8601 13.7516 15.8569 13.7516 15.8537C13.7514 15.8282 13.7502 15.8028 13.7482 15.7775C14.2374 15.9072 14.7601 15.6557 14.9562 15.1749C15.0593 14.922 15.0578 14.6441 14.9519 14.3924C14.9419 14.3687 14.9309 14.3457 14.9193 14.323C14.9172 14.3189 14.9151 14.3147 14.913 14.3105C14.9016 14.289 14.8895 14.2679 14.8767 14.2473C14.8742 14.2433 14.8716 14.2394 14.8691 14.2354C14.8557 14.2143 14.8415 14.1937 14.8266 14.1736L14.8257 14.1726C14.8108 14.1529 14.7952 14.1338 14.779 14.1153L14.7701 14.1052C14.754 14.0873 14.7374 14.07 14.7201 14.0533C14.7167 14.05 14.7133 14.0469 14.7099 14.0437C14.6919 14.0267 14.6733 14.0103 14.654 13.9946L14.6521 13.9931C14.633 13.9778 14.6134 13.9633 14.5933 13.9495C14.5897 13.9469 14.5861 13.9444 14.5824 13.9419C14.5622 13.9283 14.5416 13.9155 14.5206 13.9034C14.5188 13.9024 14.5172 13.9012 14.5154 13.9002C14.6369 13.7949 14.7317 13.6624 14.7921 13.5134C14.8952 13.2605 14.8937 12.9826 14.7877 12.7308C14.6951 12.5105 14.5322 12.3334 14.3235 12.2235C14.2935 12.2077 14.2628 12.1933 14.2314 12.1806L9.80867 10.3772L11.8674 9.73997C12.3572 9.58835 12.633 9.06596 12.4823 8.57556C12.426 8.39249 12.3145 8.2381 12.1705 8.12527C11.9561 7.95732 11.6696 7.88149 11.3855 7.94115C11.3841 7.94146 11.3828 7.94169 11.3814 7.94204C11.3657 7.94558 9.78749 8.30045 8.1392 8.62185C8.01239 8.64657 7.88552 8.67102 7.7586 8.69519L7.7118 8.7041C7.58275 8.72861 7.45363 8.75276 7.32444 8.77655C5.25443 9.15788 4.67292 9.16472 4.51154 9.14288C4.50857 9.14246 4.5056 9.14202 4.50264 9.14156L4.49798 9.14078C4.48876 9.13933 4.47965 9.13729 4.47069 9.13468L4.42413 9.11571L4.48216 8.97341C4.51041 8.90467 4.52474 8.83102 4.52433 8.7567C4.52393 8.68238 4.50879 8.60888 4.47978 8.54046C4.46531 8.50602 4.4475 8.47309 4.42661 8.44212C4.36408 8.34962 4.27541 8.27785 4.17191 8.23596L2.64563 7.61364C2.57689 7.58539 2.50323 7.57105 2.42891 7.57145C2.3546 7.57186 2.2811 7.58701 2.21267 7.61602C2.14409 7.64464 2.08187 7.68658 2.02961 7.73941C1.97735 7.79225 1.93609 7.85492 1.90822 7.92381L0.0418775 12.5011C-0.0758936 12.7899 0.0632939 13.1207 0.352124 13.2385L1.87844 13.8608C1.94599 13.8885 2.01827 13.9027 2.09125 13.9027C2.31447 13.9027 2.52646 13.7697 2.61582 13.5506L2.62985 13.5162L2.98176 13.6597L2.98238 13.6599C3.47302 13.8603 3.90457 14.1823 4.23635 14.5956C4.62871 15.0842 5.13898 15.4649 5.7191 15.7019L6.11501 15.8633H3.21497C3.01107 15.8633 2.84514 15.6974 2.84514 15.4935V14.7745C2.84514 14.6991 2.8152 14.6268 2.76191 14.5735C2.70862 14.5202 2.63634 14.4903 2.56097 14.4903C2.48561 14.4903 2.41333 14.5202 2.36004 14.5735C2.30675 14.6268 2.27681 14.6991 2.27681 14.7745V15.4935C2.27681 16.0108 2.69763 16.4317 3.21497 16.4317H7.50887L11.1695 17.9243C11.2916 17.9743 11.4223 18 11.5543 18C11.9577 18 12.3409 17.7596 12.5024 17.3636C12.5665 17.2068 12.5904 17.0365 12.572 16.8682C12.7624 16.8955 12.9598 16.8704 13.1388 16.7931C13.3207 16.7146 13.4714 16.5895 13.5784 16.4316H18.9625C19.4798 16.4316 19.9006 16.0108 19.9006 15.4935V2.46355L19.9006 2.46246ZM9.88295 0.568333H12.2944L12.6672 2.17939H9.51016L9.88295 0.568333ZM8.92683 2.17939H2.97706L3.60637 0.568333H9.29961L8.92683 2.17939ZM12.7405 6.75967L11.3738 5.54892C11.2952 5.47924 11.1938 5.44083 11.0888 5.44094C10.9837 5.44082 10.8822 5.47924 10.8036 5.54892L9.43697 6.75967V2.74772H12.7405V6.75967ZM2.09055 13.3335L0.569126 12.7132L2.43348 8.14093L3.95491 8.76131L2.09055 13.3335ZM13.4434 15.0485L13.1173 14.9154L13.1168 14.9153L13.1164 14.9151L13.1163 14.9151L9.71978 13.5301C9.64999 13.5017 9.57176 13.5021 9.50229 13.5314C9.43283 13.5606 9.37782 13.6162 9.34936 13.686C9.33527 13.7206 9.32811 13.7576 9.32832 13.7949C9.32852 13.8322 9.33607 13.8691 9.35055 13.9035C9.36502 13.9379 9.38613 13.9691 9.41267 13.9954C9.43921 14.0216 9.47066 14.0424 9.50523 14.0565L12.9019 15.4414C12.916 15.4472 12.9298 15.4536 12.943 15.4607C12.9467 15.4626 12.9502 15.465 12.9539 15.4671C12.9632 15.4724 12.9726 15.4777 12.9814 15.4835C12.9856 15.4864 12.9895 15.4896 12.9936 15.4926C13.0014 15.4982 13.0094 15.5037 13.0168 15.5098C13.0213 15.5134 13.0253 15.5175 13.0296 15.5213C13.0362 15.5272 13.043 15.5329 13.0492 15.5391C13.0535 15.5434 13.0574 15.5481 13.0615 15.5525C13.0672 15.5586 13.0731 15.5647 13.0784 15.5711C13.0825 15.5761 13.0861 15.5813 13.09 15.5864C13.0948 15.5928 13.0999 15.599 13.1044 15.6056C13.1081 15.6112 13.1114 15.617 13.1149 15.6226C13.1189 15.6291 13.1232 15.6356 13.1269 15.6423C13.1302 15.6483 13.133 15.6547 13.1361 15.6609C13.1393 15.6675 13.1429 15.674 13.1458 15.6808C13.1487 15.6874 13.151 15.6941 13.1535 15.7008C13.1561 15.7075 13.1588 15.7141 13.1611 15.721C13.1634 15.7278 13.1651 15.7349 13.167 15.7418C13.1689 15.7487 13.171 15.7555 13.1726 15.7624C13.1742 15.7695 13.1752 15.7766 13.1765 15.7837C13.1778 15.7908 13.1793 15.7978 13.1802 15.8049C13.1811 15.8121 13.1815 15.8193 13.1821 15.8265C13.1826 15.8337 13.1835 15.8409 13.1837 15.8481C13.184 15.8552 13.1836 15.8624 13.1835 15.8696C13.1835 15.877 13.1836 15.8844 13.1831 15.8918C13.1827 15.8988 13.1816 15.9059 13.1808 15.9129C13.18 15.9205 13.1794 15.928 13.1782 15.9356C13.177 15.9425 13.1753 15.9494 13.1739 15.9563C13.1722 15.964 13.1709 15.9716 13.1688 15.9792C13.167 15.986 13.1646 15.9926 13.1625 15.9993C13.1601 16.0069 13.1578 16.0146 13.155 16.0221C13.1526 16.0272 13.1502 16.0324 13.148 16.0377C13.1475 16.0389 13.1472 16.0401 13.1468 16.0413C13.1024 16.1438 13.0204 16.2252 12.9134 16.2714C12.7957 16.3222 12.6608 16.324 12.5434 16.2761L11.9416 16.0308C11.9389 16.0296 11.936 16.0289 11.9332 16.0278C11.9304 16.0265 11.9277 16.0251 11.9248 16.0239L9.16221 14.8975C9.12766 14.8834 9.09066 14.8762 9.05335 14.8764C9.01603 14.8766 8.97912 14.8842 8.94472 14.8987C8.91032 14.9131 8.87911 14.9342 8.85287 14.9608C8.82664 14.9873 8.80588 15.0188 8.7918 15.0533C8.7777 15.0879 8.77055 15.1249 8.77076 15.1622C8.77096 15.1995 8.77851 15.2364 8.79298 15.2708C8.80745 15.3052 8.82856 15.3364 8.85509 15.3627C8.88162 15.3889 8.91306 15.4097 8.94762 15.4238L11.7102 16.5502C11.7132 16.5514 11.7162 16.5523 11.7192 16.5534C11.7218 16.5545 11.7243 16.556 11.7271 16.5571C11.9589 16.6516 12.0707 16.9172 11.9762 17.149C11.8816 17.3809 11.6162 17.4927 11.3842 17.3981L7.67247 15.8846L7.672 15.8844L5.93381 15.1756C5.62825 15.0509 5.34441 14.8784 5.09289 14.6647C4.94202 14.5366 4.80371 14.3944 4.67984 14.24C4.28748 13.7514 3.77722 13.3706 3.19709 13.1336L3.19697 13.1336L2.84459 12.9899L3.54644 11.2686L4.20969 9.64203L4.25862 9.66197C4.30468 9.68074 4.37037 9.7074 4.54714 9.71409C4.76799 9.72408 5.13336 9.70103 5.7879 9.60856C6.23314 9.54567 6.77927 9.45472 7.41683 9.33742L7.46398 9.32875L7.55415 9.31203L7.62513 9.29878L7.70694 9.28343L7.79514 9.26675L7.86646 9.25323L7.97615 9.23224L8.03301 9.22136C8.08945 9.21047 8.14662 9.19943 8.20485 9.18812C9.84746 8.86863 11.4329 8.51302 11.5041 8.497C11.5113 8.49553 11.5184 8.49467 11.5255 8.49362C11.708 8.46661 11.8868 8.57218 11.9392 8.7425C11.957 8.80027 11.9601 8.86159 11.9481 8.92086C11.9227 9.0473 11.8308 9.15641 11.6995 9.19702L8.88221 10.069C8.82623 10.0863 8.77698 10.1205 8.7412 10.1669C8.70541 10.2133 8.68483 10.2696 8.68229 10.3281C8.67974 10.3867 8.69535 10.4445 8.72698 10.4939C8.75861 10.5432 8.80471 10.5815 8.85896 10.6036L14.0169 12.7068C14.0723 12.7292 14.1226 12.7623 14.165 12.8043C14.2074 12.8462 14.2411 12.8962 14.2641 12.9512C14.2874 13.0062 14.2995 13.0652 14.2998 13.1248C14.3002 13.1845 14.2887 13.2436 14.266 13.2988C14.2436 13.3541 14.2105 13.4044 14.1685 13.4468C14.1266 13.4893 14.0766 13.5229 14.0216 13.5459C13.9657 13.5694 13.9069 13.5813 13.848 13.5816L13.8454 13.5815C13.8316 13.5815 13.8178 13.581 13.804 13.5797C13.7999 13.5793 13.7959 13.5785 13.7918 13.578C13.7812 13.5767 13.7707 13.5755 13.7603 13.5735C13.7537 13.5722 13.7471 13.5703 13.7406 13.5687C13.7327 13.5668 13.7248 13.5652 13.717 13.5629C13.709 13.5606 13.7011 13.5574 13.6932 13.5546C13.6869 13.5523 13.6805 13.5505 13.6742 13.5479L10.2773 12.1628C10.2428 12.1487 10.2058 12.1416 10.1684 12.1418C10.1311 12.142 10.0942 12.1496 10.0598 12.164C10.0254 12.1785 9.99421 12.1996 9.96797 12.2262C9.94173 12.2527 9.92097 12.2841 9.90689 12.3187C9.89279 12.3533 9.88564 12.3902 9.88584 12.4276C9.88605 12.4649 9.8936 12.5018 9.90807 12.5362C9.92255 12.5706 9.94366 12.6018 9.9702 12.6281C9.99674 12.6543 10.0282 12.6751 10.0628 12.6891L14.181 14.3684C14.2364 14.3907 14.2867 14.4238 14.3291 14.4658C14.3715 14.5077 14.4052 14.5577 14.4282 14.6128C14.4515 14.6677 14.4637 14.7267 14.464 14.7864C14.4643 14.846 14.4528 14.9052 14.4301 14.9603C14.4242 14.9748 14.4176 14.9889 14.4104 15.0024C14.3937 15.0339 14.3733 15.0623 14.3505 15.0883C14.3363 15.1043 14.3212 15.1194 14.3051 15.1331C14.3026 15.1353 14.3002 15.1378 14.2976 15.1399C14.2455 15.1825 14.1846 15.213 14.1193 15.2292C14.0539 15.2455 13.9858 15.247 13.9198 15.2338C13.8919 15.2282 13.8645 15.22 13.8381 15.2094L13.4434 15.0485Z" fill="#21A041"/>
</svg>
