<svg width="59" height="59" viewBox="0 0 59 59" fill="none" xmlns="http://www.w3.org/2000/svg">
<circle cx="29.5" cy="29.5" r="29.5" fill="#1F4394"/>
<path d="M37.278 14.5488H22.1239C17.9414 14.5488 14.5469 17.9282 14.5469 22.0956V31.1577V32.6731C14.5469 36.8405 17.9414 40.2199 22.1239 40.2199H24.397C24.8062 40.2199 25.3518 40.4927 25.6094 40.8261L27.8825 43.8417C28.8827 45.1753 30.5193 45.1753 31.5195 43.8417L33.7926 40.8261C34.0805 40.4472 34.5351 40.2199 35.0049 40.2199H37.278C41.4606 40.2199 44.8551 36.8405 44.8551 32.6731V22.0956C44.8551 17.9282 41.4606 14.5488 37.278 14.5488ZM31.2164 32.3549H22.1239C21.5026 32.3549 20.9874 31.8397 20.9874 31.2183C20.9874 30.597 21.5026 30.0818 22.1239 30.0818H31.2164C31.8377 30.0818 32.353 30.597 32.353 31.2183C32.353 31.8397 31.8377 32.3549 31.2164 32.3549ZM37.278 24.7779H22.1239C21.5026 24.7779 20.9874 24.2626 20.9874 23.6413C20.9874 23.02 21.5026 22.5047 22.1239 22.5047H37.278C37.8994 22.5047 38.4146 23.02 38.4146 23.6413C38.4146 24.2626 37.8994 24.7779 37.278 24.7779Z" fill="white"/>
</svg>
