<svg width="21" height="20" viewBox="0 0 21 20" fill="#9B9B9B" xmlns="http://www.w3.org/2000/svg">
<path d="M16.3092 18.9577H4.64258C1.51758 18.9577 1.51758 17.2243 1.51758 15.8327V14.9993C1.51758 14.1993 2.17591 13.541 2.97591 13.541H17.9759C18.7759 13.541 19.4342 14.1993 19.4342 14.9993V15.8327C19.4342 17.2243 19.4342 18.9577 16.3092 18.9577ZM2.97591 14.791C2.85924 14.791 2.76758 14.8827 2.76758 14.9993V15.8327C2.76758 17.1993 2.76758 17.7077 4.64258 17.7077H16.3092C18.1842 17.7077 18.1842 17.1993 18.1842 15.8327V14.9993C18.1842 14.8827 18.0926 14.791 17.9759 14.791H2.97591Z" fill="#9B9B9B"/>
<path d="M17.7663 14.791H3.22461C2.88294 14.791 2.59961 14.5077 2.59961 14.166V10.8327C2.59961 7.41602 5.02461 4.41602 8.35794 3.70768C8.84961 3.59935 9.36628 3.54102 9.89128 3.54102H11.0996C11.6329 3.54102 12.1496 3.59935 12.6413 3.70768C15.9746 4.42435 18.3913 7.42435 18.3913 10.8327V14.166C18.3913 14.5077 18.1163 14.791 17.7663 14.791ZM3.84961 13.541H17.1413V10.8327C17.1413 8.00768 15.1413 5.52435 12.3746 4.92435C11.9663 4.83268 11.5413 4.79102 11.0996 4.79102H9.89128C9.45794 4.79102 9.03294 4.83268 8.62461 4.92435C5.85794 5.51602 3.84961 7.99935 3.84961 10.8327V13.541Z" fill="#9B9B9B"/>
<path d="M8.49102 4.94102C8.21602 4.94102 7.96602 4.75768 7.89102 4.48268C7.82435 4.24102 7.79102 3.99935 7.79102 3.74935C7.79102 2.25768 9.00768 1.04102 10.4993 1.04102C11.991 1.04102 13.2077 2.25768 13.2077 3.74935C13.2077 3.99935 13.1743 4.24102 13.1077 4.48268C13.0243 4.79935 12.7077 4.99935 12.3743 4.92435C11.966 4.83268 11.541 4.79102 11.0993 4.79102H9.89102C9.45768 4.79102 9.03268 4.83268 8.62435 4.92435C8.58268 4.93268 8.54102 4.94102 8.49102 4.94102ZM9.89102 3.54102H11.0993C11.3827 3.54102 11.6743 3.55768 11.9493 3.59102C11.8743 2.85768 11.2493 2.29102 10.4993 2.29102C9.74935 2.29102 9.13268 2.85768 9.04935 3.59102C9.33268 3.55768 9.60768 3.54102 9.89102 3.54102Z" fill="#9B9B9B"/>
<path d="M13 9.79102H8C7.65833 9.79102 7.375 9.50768 7.375 9.16602C7.375 8.82435 7.65833 8.54102 8 8.54102H13C13.3417 8.54102 13.625 8.82435 13.625 9.16602C13.625 9.50768 13.3417 9.79102 13 9.79102Z" fill="#9B9B9B"/>
</svg>
