<svg width="14" height="14" viewBox="0 0 14 14" fill="none" xmlns="http://www.w3.org/2000/svg">
<path d="M8.38562 0C8.49148 3.33582e-06 8.5946 0.0336038 8.68014 0.0959625C8.76569 0.158321 8.82923 0.24622 8.86162 0.347L9.41162 2.056C9.64262 2.169 9.86362 2.296 10.0746 2.439L11.8306 2.061C11.9342 2.03889 12.042 2.05022 12.1387 2.09335C12.2354 2.13648 12.3159 2.20919 12.3686 2.301L13.7546 4.7C13.8075 4.79176 13.83 4.89795 13.8186 5.00327C13.8073 5.10859 13.7628 5.20759 13.6916 5.286L12.4866 6.616C12.5042 6.87103 12.5042 7.12697 12.4866 7.382L13.6916 8.714C13.7628 8.79241 13.8073 8.89141 13.8186 8.99673C13.83 9.10205 13.8075 9.20824 13.7546 9.3L12.3686 11.7C12.3158 11.7916 12.2352 11.8641 12.1385 11.9071C12.0419 11.95 11.934 11.9612 11.8306 11.939L10.0746 11.561C9.86462 11.703 9.64262 11.831 9.41262 11.944L8.86162 13.653C8.82923 13.7538 8.76569 13.8417 8.68014 13.904C8.5946 13.9664 8.49148 14 8.38562 14H5.61362C5.50776 14 5.40464 13.9664 5.3191 13.904C5.23355 13.8417 5.17001 13.7538 5.13762 13.653L4.58862 11.945C4.35824 11.8323 4.13603 11.7037 3.92362 11.56L2.16862 11.939C2.06508 11.9611 1.95721 11.9498 1.86052 11.9066C1.76384 11.8635 1.68334 11.7908 1.63062 11.699L0.24462 9.3C0.191695 9.20824 0.169277 9.10205 0.1806 8.99673C0.191922 8.89141 0.2364 8.79241 0.30762 8.714L1.51262 7.382C1.49517 7.12763 1.49517 6.87237 1.51262 6.618L0.30762 5.286C0.2364 5.20759 0.191922 5.10859 0.1806 5.00327C0.169277 4.89795 0.191695 4.79176 0.24462 4.7L1.63062 2.3C1.68348 2.20837 1.76405 2.13587 1.86072 2.09293C1.95739 2.04998 2.06519 2.0388 2.16862 2.061L3.92362 2.44C4.13562 2.297 4.35762 2.168 4.58862 2.055L5.13862 0.347C5.17091 0.246545 5.23415 0.158879 5.31929 0.09655C5.40443 0.0342214 5.5071 0.000425667 5.61262 0H8.38462H8.38562ZM8.01962 1H5.97962L5.41162 2.767L5.02862 2.954C4.84034 3.04614 4.65858 3.15105 4.48462 3.268L4.13062 3.508L2.31462 3.116L1.29462 4.884L2.53962 6.262L2.50962 6.686C2.49525 6.89509 2.49525 7.10491 2.50962 7.314L2.53962 7.738L1.29262 9.116L2.31362 10.884L4.12962 10.493L4.48362 10.732C4.65758 10.849 4.83934 10.9539 5.02762 11.046L5.41062 11.233L5.97962 13H8.02162L8.59162 11.232L8.97362 11.046C9.1617 10.9541 9.34314 10.8492 9.51662 10.732L9.86962 10.493L11.6866 10.884L12.7066 9.116L11.4606 7.738L11.4906 7.314C11.505 7.10458 11.505 6.89442 11.4906 6.685L11.4606 6.261L12.7076 4.884L11.6866 3.116L9.86962 3.506L9.51662 3.268C9.34315 3.15081 9.16171 3.04589 8.97362 2.954L8.59162 2.768L8.02062 1H8.01962ZM6.99962 4C7.79527 4 8.55833 4.31607 9.12094 4.87868C9.68355 5.44129 9.99962 6.20435 9.99962 7C9.99962 7.79565 9.68355 8.55871 9.12094 9.12132C8.55833 9.68393 7.79527 10 6.99962 10C6.20397 10 5.44091 9.68393 4.8783 9.12132C4.31569 8.55871 3.99962 7.79565 3.99962 7C3.99962 6.20435 4.31569 5.44129 4.8783 4.87868C5.44091 4.31607 6.20397 4 6.99962 4ZM6.99962 5C6.46919 5 5.96048 5.21071 5.58541 5.58579C5.21033 5.96086 4.99962 6.46957 4.99962 7C4.99962 7.53043 5.21033 8.03914 5.58541 8.41421C5.96048 8.78929 6.46919 9 6.99962 9C7.53005 9 8.03876 8.78929 8.41383 8.41421C8.78891 8.03914 8.99962 7.53043 8.99962 7C8.99962 6.46957 8.78891 5.96086 8.41383 5.58579C8.03876 5.21071 7.53005 5 6.99962 5Z" fill="black"/>
</svg>
