<svg width="43" height="46" viewBox="0 0 43 46" fill="none" xmlns="http://www.w3.org/2000/svg">
<path fill-rule="evenodd" clip-rule="evenodd" d="M21.28 2.24C18.9037 2.24 16.6246 3.184 14.9443 4.86432C13.264 6.54465 12.32 8.82366 12.32 11.2C12.32 13.5763 13.264 15.8554 14.9443 17.5357C16.6246 19.216 18.9037 20.16 21.28 20.16C23.6563 20.16 25.9353 19.216 27.6157 17.5357C29.296 15.8554 30.24 13.5763 30.24 11.2C30.24 8.82366 29.296 6.54465 27.6157 4.86432C25.9353 3.184 23.6563 2.24 21.28 2.24ZM10.08 11.2C10.08 8.22958 11.26 5.38081 13.3604 3.2804C15.4608 1.18 18.3096 0 21.28 0C24.2504 0 27.0992 1.18 29.1996 3.2804C31.3 5.38081 32.48 8.22958 32.48 11.2C32.48 14.1704 31.3 17.0192 29.1996 19.1196C27.0992 21.22 24.2504 22.4 21.28 22.4C18.3096 22.4 15.4608 21.22 13.3604 19.1196C11.26 17.0192 10.08 14.1704 10.08 11.2ZM39.8362 33.5283C34.1223 30.4919 27.7506 28.904 21.28 28.904C14.8094 28.904 8.43771 30.4919 2.72384 33.5283C2.57768 33.6063 2.45546 33.7225 2.37024 33.8645C2.28502 34.0065 2.24 34.1691 2.24 34.3347V42.56C2.24 42.857 2.358 43.1419 2.56804 43.352C2.77808 43.562 3.06296 43.68 3.36 43.68H39.2C39.497 43.68 39.7819 43.562 39.992 43.352C40.202 43.1419 40.32 42.857 40.32 42.56V34.3347C40.32 33.9987 40.1341 33.6851 39.8362 33.5283ZM1.67328 31.5504C7.71068 28.3422 14.4431 26.6645 21.28 26.6645C28.1169 26.6645 34.8493 28.3422 40.8867 31.5504C41.9171 32.097 42.56 33.1677 42.56 34.3347V42.56C42.56 43.4511 42.206 44.3058 41.5759 44.9359C40.9458 45.566 40.0911 45.92 39.2 45.92H3.36C2.46887 45.92 1.61424 45.566 0.984121 44.9359C0.353999 44.3058 0 43.4511 0 42.56V34.3347C0 33.1699 0.64288 32.097 1.67328 31.5504Z" fill="#959698"/>
</svg>
