<svg width="63" height="50" viewBox="0 0 63 50" fill="none" xmlns="http://www.w3.org/2000/svg">
<rect width="62.2727" height="50" rx="25" fill="#E1E9FA"/>
<path d="M51.5909 32.5H50.9091V27.0455C50.9081 26.3224 50.6205 25.6293 50.1092 25.118C49.598 24.6068 48.9048 24.3191 48.1818 24.3182V12.7273C48.1809 12.0042 47.8932 11.3111 47.382 10.7998C46.8707 10.2886 46.1776 10.0009 45.4545 10H16.8182C16.0952 10.0009 15.402 10.2886 14.8908 10.7998C14.3795 11.3111 14.0919 12.0042 14.0909 12.7273V24.3182C13.3679 24.3191 12.6747 24.6068 12.1635 25.118C11.6522 25.6293 11.3646 26.3224 11.3636 27.0455V32.5H10.6818C10.501 32.5 10.3276 32.5718 10.1997 32.6997C10.0718 32.8276 10 33.001 10 33.1818V35.9091C10 36.0899 10.0718 36.2633 10.1997 36.3912C10.3276 36.5191 10.501 36.5909 10.6818 36.5909H11.3636V39.3182C11.3636 39.499 11.4355 39.6724 11.5633 39.8003C11.6912 39.9282 11.8646 40 12.0455 40H14.0909C14.2485 40.0001 14.4012 39.9455 14.5231 39.8456C14.6449 39.7456 14.7283 39.6065 14.7591 39.452L15.3318 36.5909H46.9409L47.5136 39.452C47.5444 39.6065 47.6278 39.7456 47.7497 39.8456C47.8715 39.9455 48.0242 40.0001 48.1818 40H50.2273C50.4081 40 50.5815 39.9282 50.7094 39.8003C50.8373 39.6724 50.9091 39.499 50.9091 39.3182V36.5909H51.5909C51.7717 36.5909 51.9452 36.5191 52.073 36.3912C52.2009 36.2633 52.2727 36.0899 52.2727 35.9091V33.1818C52.2727 33.001 52.2009 32.8276 52.073 32.6997C51.9452 32.5718 51.7717 32.5 51.5909 32.5ZM15.4545 12.7273C15.455 12.3658 15.5988 12.0192 15.8545 11.7636C16.1101 11.5079 16.4567 11.3641 16.8182 11.3636H45.4545C45.8161 11.3641 46.1626 11.5079 46.4183 11.7636C46.6739 12.0192 46.8177 12.3658 46.8182 12.7273V24.3182H45.4545V21.5909C45.4536 20.8679 45.166 20.1747 44.6547 19.6635C44.1434 19.1522 43.4503 18.8646 42.7273 18.8636H34.5455C33.8224 18.8646 33.1293 19.1522 32.618 19.6635C32.1068 20.1747 31.8191 20.8679 31.8182 21.5909V24.3182H30.4545V21.5909C30.4536 20.8679 30.166 20.1747 29.6547 19.6635C29.1434 19.1522 28.4503 18.8646 27.7273 18.8636H19.5455C18.8224 18.8646 18.1293 19.1522 17.618 19.6635C17.1068 20.1747 16.8191 20.8679 16.8182 21.5909V24.3182H15.4545V12.7273ZM44.0909 21.5909V24.3182H33.1818V21.5909C33.1823 21.2294 33.3261 20.8828 33.5817 20.6272C33.8374 20.3716 34.1839 20.2277 34.5455 20.2273H42.7273C43.0888 20.2277 43.4354 20.3716 43.691 20.6272C43.9466 20.8828 44.0904 21.2294 44.0909 21.5909ZM29.0909 21.5909V24.3182H18.1818V21.5909C18.1823 21.2294 18.3261 20.8828 18.5817 20.6272C18.8374 20.3716 19.1839 20.2277 19.5455 20.2273H27.7273C28.0888 20.2277 28.4354 20.3716 28.691 20.6272C28.9466 20.8828 29.0904 21.2294 29.0909 21.5909ZM12.7273 27.0455C12.7277 26.6839 12.8716 26.3374 13.1272 26.0817C13.3828 25.8261 13.7294 25.6823 14.0909 25.6818H48.1818C48.5433 25.6823 48.8899 25.8261 49.1455 26.0817C49.4012 26.3374 49.545 26.6839 49.5455 27.0455V32.5H12.7273V27.0455ZM13.5318 38.6364H12.7273V36.5909H13.9409L13.5318 38.6364ZM49.5455 38.6364H48.7409L48.3318 36.5909H49.5455V38.6364ZM50.9091 35.2273H11.3636V33.8636H50.9091V35.2273Z" fill="#1D4599"/>
</svg>
