<svg width="21" height="20" viewBox="0 0 21 20" fill="none" xmlns="http://www.w3.org/2000/svg">
<path d="M1.65234 4.20375H10.8678C11.1556 5.53312 12.3395 6.5325 13.7538 6.5325C15.168 6.5325 16.3519 5.53312 16.6397 4.20375H18.4877C18.6534 4.20375 18.8124 4.1379 18.9296 4.02069C19.0468 3.90348 19.1127 3.74451 19.1127 3.57875C19.1127 3.41299 19.0468 3.25402 18.9296 3.13681C18.8124 3.0196 18.6534 2.95375 18.4877 2.95375H16.6397C16.3519 1.62437 15.168 0.625 13.7538 0.625C12.3395 0.625 11.1556 1.62437 10.8678 2.95375H1.65234C1.48658 2.95375 1.32761 3.0196 1.2104 3.13681C1.09319 3.25402 1.02734 3.41299 1.02734 3.57875C1.02734 3.74451 1.09319 3.90348 1.2104 4.02069C1.32761 4.1379 1.48658 4.20375 1.65234 4.20375ZM13.7538 1.875C14.6933 1.875 15.4575 2.63937 15.4575 3.57875C15.4575 4.51812 14.6931 5.2825 13.7538 5.2825C12.8144 5.2825 12.05 4.51812 12.05 3.57875C12.05 2.63937 12.8142 1.875 13.7538 1.875ZM18.4877 9.375H9.27219C8.98438 8.04562 7.80047 7.04625 6.38625 7.04625C4.97203 7.04625 3.78813 8.04562 3.50031 9.375H1.65234C1.48658 9.375 1.32761 9.44085 1.2104 9.55806C1.09319 9.67527 1.02734 9.83424 1.02734 10C1.02734 10.1658 1.09319 10.3247 1.2104 10.4419C1.32761 10.5592 1.48658 10.625 1.65234 10.625H3.50031C3.78813 11.9544 4.97203 12.9537 6.38625 12.9537C7.80047 12.9537 8.98438 11.9544 9.27219 10.625H18.4877C18.6534 10.625 18.8124 10.5592 18.9296 10.4419C19.0468 10.3247 19.1127 10.1658 19.1127 10C19.1127 9.83424 19.0468 9.67527 18.9296 9.55806C18.8124 9.44085 18.6534 9.375 18.4877 9.375ZM6.38625 11.7037C5.44672 11.7037 4.6825 10.9394 4.6825 10C4.6825 9.06062 5.44688 8.29625 6.38625 8.29625C7.32563 8.29625 8.09 9.06047 8.09 10C8.09 10.9395 7.32578 11.7037 6.38625 11.7037ZM18.4877 15.7963H16.6397C16.3519 14.4669 15.168 13.4675 13.7538 13.4675C12.3395 13.4675 11.1556 14.4669 10.8678 15.7963H1.65234C1.48658 15.7963 1.32761 15.8621 1.2104 15.9793C1.09319 16.0965 1.02734 16.2555 1.02734 16.4213C1.02734 16.587 1.09319 16.746 1.2104 16.8632C1.32761 16.9804 1.48658 17.0463 1.65234 17.0463H10.8678C11.1556 18.3756 12.3395 19.375 13.7538 19.375C15.168 19.375 16.3519 18.3756 16.6397 17.0463H18.4877C18.6534 17.0463 18.8124 16.9804 18.9296 16.8632C19.0468 16.746 19.1127 16.587 19.1127 16.4213C19.1127 16.2555 19.0468 16.0965 18.9296 15.9793C18.8124 15.8621 18.6534 15.7963 18.4877 15.7963ZM13.7538 18.125C12.8142 18.125 12.05 17.3606 12.05 16.4213C12.05 15.4819 12.8144 14.7175 13.7538 14.7175C14.6931 14.7175 15.4575 15.4819 15.4575 16.4213C15.4575 17.3606 14.6933 18.125 13.7538 18.125Z" fill="#ABABAB"/>
</svg>
