<svg width="21" height="22" viewBox="0 0 21 22" fill="none" xmlns="http://www.w3.org/2000/svg">
<path d="M7.16602 20.5998C6.93268 20.5998 6.691 20.5415 6.47433 20.4249C5.99933 20.1749 5.70768 19.6748 5.70768 19.1415V17.9582C3.19102 17.6999 1.54102 15.8498 1.54102 13.1998V8.19987C1.54102 5.3332 3.46602 3.4082 6.33268 3.4082H14.666C17.5327 3.4082 19.4577 5.3332 19.4577 8.19987V13.1998C19.4577 16.0665 17.5327 17.9915 14.666 17.9915H11.5243L7.97432 20.3582C7.73266 20.5166 7.44935 20.5998 7.16602 20.5998ZM6.33268 4.64986C4.18268 4.64986 2.79102 6.04153 2.79102 8.19153V13.1916C2.79102 15.3416 4.18268 16.7332 6.33268 16.7332C6.67435 16.7332 6.95768 17.0166 6.95768 17.3582V19.1332C6.95768 19.2416 7.02435 19.2916 7.06602 19.3166C7.10769 19.3416 7.19103 19.3666 7.28269 19.3082L10.991 16.8416C11.091 16.7749 11.216 16.7332 11.341 16.7332H14.6744C16.8244 16.7332 18.216 15.3416 18.216 13.1916V8.19153C18.216 6.04153 16.8244 4.64986 14.6744 4.64986H6.33268Z" fill="#9B9B9B"/>
<path d="M10.5005 12.0918C10.1588 12.0918 9.8755 11.8085 9.8755 11.4668V11.2918C9.8755 10.3252 10.5838 9.85015 10.8505 9.66682C11.1588 9.45849 11.2588 9.31683 11.2588 9.10016C11.2588 8.68349 10.9172 8.3418 10.5005 8.3418C10.0838 8.3418 9.74219 8.68349 9.74219 9.10016C9.74219 9.44183 9.45885 9.72516 9.11719 9.72516C8.77552 9.72516 8.49219 9.44183 8.49219 9.10016C8.49219 7.99183 9.39217 7.0918 10.5005 7.0918C11.6088 7.0918 12.5088 7.99183 12.5088 9.10016C12.5088 10.0502 11.8088 10.5251 11.5505 10.7001C11.2255 10.9168 11.1255 11.0585 11.1255 11.2918V11.4668C11.1255 11.8168 10.8422 12.0918 10.5005 12.0918Z" fill="#9B9B9B"/>
<path d="M10.5 14.166C10.15 14.166 9.875 13.8827 9.875 13.541C9.875 13.1993 10.1583 12.916 10.5 12.916C10.8417 12.916 11.125 13.1993 11.125 13.541C11.125 13.8827 10.85 14.166 10.5 14.166Z" fill="#9B9B9B"/>
</svg>
