<svg width="19" height="18" viewBox="0 0 19 18" fill="none" xmlns="http://www.w3.org/2000/svg">
<path d="M17.9492 9C17.9492 13.6944 14.1436 17.5 9.44922 17.5C4.7548 17.5 0.949219 13.6944 0.949219 9C0.949219 4.30558 4.7548 0.5 9.44922 0.5C14.1436 0.5 17.9492 4.30558 17.9492 9Z" stroke="#C21616"/>
<path d="M9.69552 8.99976L10.0491 8.64621L12.2638 6.43148C12.2922 6.39888 12.3075 6.35686 12.3068 6.31351C12.306 6.26818 12.2876 6.22492 12.2555 6.19286M9.69552 8.99976L12.2555 6.19286M9.69552 8.99976L10.0491 9.35332L12.2719 11.5761C12.3046 11.6089 12.323 11.6534 12.323 11.6998C12.323 11.7461 12.3046 11.7906 12.2719 11.8234L12.6256 12.1768M9.69552 8.99976L12.0169 6.18459M12.2555 6.19286C12.2235 6.16079 12.1802 6.14243 12.1349 6.14163C12.0915 6.14086 12.0495 6.15622 12.0169 6.18459M12.2555 6.19286L12.0169 6.18459M12.0169 6.18459L9.80218 8.39932L9.44862 8.75287L9.09507 8.39932L6.88034 6.18459C6.84774 6.15622 6.80572 6.14086 6.76238 6.14163C6.71704 6.14243 6.67378 6.16079 6.64172 6.19286C6.60965 6.22492 6.59129 6.26818 6.59049 6.31352C6.58972 6.35686 6.60508 6.39888 6.63345 6.43148L8.84818 8.64621L9.20173 8.99976L8.84818 9.35332L6.6254 11.5761C6.62535 11.5761 6.62531 11.5762 6.62527 11.5762C6.59258 11.609 6.57422 11.6535 6.57422 11.6998C6.57422 11.7461 6.59263 11.7906 6.6254 11.8234L6.27163 12.1768M6.27163 12.1768L6.62496 11.823C6.65777 11.8558 6.70225 11.8742 6.74862 11.8742C6.795 11.8742 6.83948 11.8558 6.87229 11.823L9.09507 9.60021L9.44862 9.24666L9.80218 9.60021L12.025 11.823C12.0578 11.8558 12.1022 11.8742 12.1486 11.8742C12.195 11.8742 12.2395 11.8558 12.2723 11.823L12.6256 12.1768M6.27163 12.1768C6.14522 12.0502 6.07422 11.8786 6.07422 11.6998C6.07422 11.5209 6.14522 11.3493 6.27163 11.2228L8.14107 9.35332L9.09507 10.3073L7.22562 12.1768C7.09906 12.3032 6.9275 12.3742 6.74862 12.3742C6.56975 12.3742 6.39819 12.3032 6.27163 12.1768ZM12.6256 12.1768C12.752 12.0502 12.823 11.8786 12.823 11.6998C12.823 11.5209 12.752 11.3493 12.6256 11.2228L11.6716 12.1768C11.7982 12.3032 11.9697 12.3742 12.1486 12.3742C12.3275 12.3742 12.4991 12.3032 12.6256 12.1768Z" fill="#EDEBEA" stroke="#C21616"/>
</svg>
