<svg width="31" height="30" viewBox="0 0 31 30" fill="none" xmlns="http://www.w3.org/2000/svg">
<path d="M15.5 0C7.21652 0 0.5 6.71652 0.5 15C0.5 23.2835 7.21652 30 15.5 30C23.7835 30 30.5 23.2835 30.5 15C30.5 6.71652 23.7835 0 15.5 0ZM21.9788 10.1016L14.9275 19.8783C14.8289 20.0159 14.699 20.128 14.5485 20.2053C14.3979 20.2826 14.2312 20.323 14.0619 20.323C13.8927 20.323 13.7259 20.2826 13.5754 20.2053C13.4249 20.128 13.295 20.0159 13.1964 19.8783L9.0212 14.0926C8.89397 13.9152 9.0212 13.6674 9.23884 13.6674H10.8092C11.1507 13.6674 11.4754 13.8315 11.6763 14.1127L14.0603 17.4208L19.3237 10.1216C19.5246 9.84375 19.846 9.67634 20.1908 9.67634H21.7612C21.9788 9.67634 22.106 9.92411 21.9788 10.1016Z" fill="#078E29"/>
</svg>
