<svg width="21" height="20" viewBox="0 0 21 20" fill="none" xmlns="http://www.w3.org/2000/svg">
<path d="M7.16602 18.5998C6.93268 18.5998 6.691 18.5415 6.47433 18.4249C5.99933 18.1749 5.70768 17.6748 5.70768 17.1415V15.9582C3.19102 15.6999 1.54102 13.8498 1.54102 11.1998V6.19987C1.54102 3.3332 3.46602 1.4082 6.33268 1.4082H14.666C17.5327 1.4082 19.4577 3.3332 19.4577 6.19987V11.1998C19.4577 14.0665 17.5327 15.9915 14.666 15.9915H11.5243L7.97432 18.3582C7.73266 18.5166 7.44935 18.5998 7.16602 18.5998ZM6.33268 2.64986C4.18268 2.64986 2.79102 4.04153 2.79102 6.19153V11.1916C2.79102 13.3416 4.18268 14.7332 6.33268 14.7332C6.67435 14.7332 6.95768 15.0166 6.95768 15.3582V17.1332C6.95768 17.2416 7.02435 17.2916 7.06602 17.3166C7.10769 17.3416 7.19103 17.3666 7.28269 17.3082L10.991 14.8416C11.091 14.7749 11.216 14.7332 11.341 14.7332H14.6744C16.8244 14.7332 18.216 13.3416 18.216 11.1916V6.19153C18.216 4.04153 16.8244 2.64986 14.6744 2.64986H6.33268V2.64986Z" fill="#9B9B9B"/>
<path d="M10.5005 10.0918C10.1588 10.0918 9.8755 9.80846 9.8755 9.4668V9.29183C9.8755 8.32516 10.5838 7.85015 10.8505 7.66682C11.1588 7.45849 11.2588 7.31683 11.2588 7.10016C11.2588 6.68349 10.9172 6.3418 10.5005 6.3418C10.0838 6.3418 9.74219 6.68349 9.74219 7.10016C9.74219 7.44183 9.45885 7.72516 9.11719 7.72516C8.77552 7.72516 8.49219 7.44183 8.49219 7.10016C8.49219 5.99183 9.39217 5.0918 10.5005 5.0918C11.6088 5.0918 12.5088 5.99183 12.5088 7.10016C12.5088 8.05016 11.8088 8.52514 11.5505 8.70014C11.2255 8.91681 11.1255 9.0585 11.1255 9.29183V9.4668C11.1255 9.8168 10.8422 10.0918 10.5005 10.0918Z" fill="#9B9B9B"/>
<path d="M10.5 12.166C10.15 12.166 9.875 11.8827 9.875 11.541C9.875 11.1993 10.1583 10.916 10.5 10.916C10.8417 10.916 11.125 11.1993 11.125 11.541C11.125 11.8827 10.85 12.166 10.5 12.166Z" fill="#9B9B9B"/>
</svg>
