<svg width="18" height="19" viewBox="0 0 18 19" fill="none" xmlns="http://www.w3.org/2000/svg">
<path d="M15.8906 0.5H2.10938C0.946266 0.5 0 1.44627 0 2.60938V16.3906C0 17.5537 0.946266 18.5 2.10938 18.5H15.8906C17.0537 18.5 18 17.5537 18 16.3906V2.60938C18 1.44627 17.0537 0.5 15.8906 0.5ZM4.21875 17.0938H2.10938C1.72167 17.0938 1.40625 16.7783 1.40625 16.3906V6.125H4.21875V17.0938ZM4.21875 4.71875H1.40625V2.60938C1.40625 2.22167 1.72167 1.90625 2.10938 1.90625H4.21875V4.71875ZM16.5938 16.3906C16.5938 16.7783 16.2783 17.0938 15.8906 17.0938H5.625V6.125H16.5938V16.3906ZM16.5938 4.71875H5.625V1.90625H15.8906C16.2783 1.90625 16.5938 2.22167 16.5938 2.60938V4.71875Z" fill="#9c8f41"/>
</svg>
