<svg width="16" height="16" viewBox="0 0 16 16" fill="none" xmlns="http://www.w3.org/2000/svg">
<path d="M13.9465 0.780312H12.3958C12.2942 0.780419 12.1968 0.820817 12.125 0.892643C12.0531 0.964469 12.0127 1.06186 12.0126 1.16344V2.84591L8.3908 0.130968C8.27871 0.0459929 8.14191 0 8.00125 0C7.86059 0 7.72379 0.0459929 7.6117 0.130968L0.478983 5.47775C0.23166 5.66474 0.0673135 5.94108 0.0210855 6.24767C-0.0251426 6.55426 0.0504174 6.86677 0.231608 7.11837L0.25439 7.14997C0.34567 7.2779 0.462036 7.38592 0.596401 7.46744C0.730767 7.54897 0.880319 7.60229 1.03595 7.62416C1.25151 7.65813 1.47229 7.63054 1.67286 7.54456V14.9135C1.67318 15.2016 1.78774 15.4777 1.99141 15.6814C2.19508 15.8851 2.47123 15.9996 2.75926 16H13.2433C13.5313 15.9996 13.8074 15.8851 14.0111 15.6814C14.2148 15.4777 14.3293 15.2016 14.3297 14.9135V7.54478C14.473 7.60663 14.6276 7.63836 14.7837 7.638C14.8449 7.63796 14.906 7.63336 14.9665 7.62425C15.1222 7.60234 15.2718 7.54898 15.4062 7.4674C15.5405 7.38582 15.6569 7.27775 15.7481 7.14975L15.7708 7.1185C15.952 6.8669 16.0276 6.5544 15.9814 6.24781C15.9352 5.94122 15.7708 5.66488 15.5235 5.47787L14.3298 4.58294V1.16344C14.3296 1.06184 14.2892 0.964438 14.2174 0.89261C14.1455 0.820782 14.0481 0.780394 13.9465 0.780312ZM12.5126 1.28031H13.8297V4.208L12.5126 3.22072V1.28031ZM13.8297 14.9135C13.8295 15.069 13.7677 15.2181 13.6577 15.328C13.5478 15.4379 13.3987 15.4998 13.2433 15.5H2.75926C2.60379 15.4998 2.45474 15.4379 2.3448 15.328C2.23487 15.2181 2.17303 15.069 2.17286 14.9135V7.21028L7.91133 2.88747C7.93692 2.86719 7.96861 2.85615 8.00126 2.85615C8.03392 2.85615 8.06561 2.86719 8.0912 2.88747L13.8297 7.21028V14.9135ZM15.2236 5.87784C15.3664 5.98578 15.4612 6.14527 15.4879 6.32222C15.5145 6.49917 15.4709 6.67952 15.3663 6.82472L15.3436 6.85597C15.2904 6.92922 15.223 6.99114 15.1456 7.03812C15.0682 7.08509 14.9822 7.11617 14.8926 7.12955C14.803 7.14293 14.7117 7.13834 14.6239 7.11605C14.5361 7.09376 14.4536 7.05421 14.3813 6.99972L8.39205 2.48812C8.27977 2.40248 8.14247 2.35609 8.00126 2.35609C7.86005 2.35609 7.72276 2.40248 7.61048 2.48812L1.62123 6.99997C1.54978 7.05608 1.46736 7.09662 1.3793 7.11897C1.29123 7.14133 1.19946 7.145 1.10989 7.12975C1.01981 7.11813 0.933156 7.08779 0.8555 7.04068C0.777845 6.99358 0.710905 6.93074 0.658983 6.85622L0.636171 6.82478C0.531566 6.67959 0.487929 6.49922 0.514595 6.32227C0.541261 6.14532 0.636111 5.98582 0.778858 5.8779L7.91155 0.531218C7.9371 0.511066 7.9687 0.500106 8.00125 0.500106C8.0338 0.500106 8.06539 0.511066 8.09095 0.531218L15.2236 5.87784ZM4.24705 10.6951C4.24705 11.4376 4.46723 12.1634 4.87975 12.7808C5.29228 13.3982 5.87861 13.8794 6.56461 14.1635C7.25062 14.4477 8.00547 14.522 8.73373 14.3772C9.46198 14.2323 10.1309 13.8748 10.656 13.3497C11.181 12.8247 11.5386 12.1557 11.6834 11.4275C11.8283 10.6992 11.7539 9.94435 11.4698 9.25835C11.1856 8.57235 10.7044 7.98602 10.087 7.5735C9.46964 7.16098 8.74379 6.9408 8.00126 6.94081C7.00592 6.94194 6.05167 7.33783 5.34786 8.04165C4.64405 8.74547 4.24816 9.69972 4.24705 10.6951ZM8.00126 13.9493C7.2367 13.95 6.49655 13.6802 5.91173 13.1877C6.08538 12.7775 6.37636 12.4278 6.74812 12.1825C7.11988 11.9371 7.55584 11.8071 8.00126 11.8087C8.44591 11.8105 8.88039 11.9419 9.25153 12.1868C9.62267 12.4316 9.91439 12.7794 10.091 13.1875C9.50615 13.6801 8.76592 13.9499 8.00126 13.9493ZM7.00355 10.2172C7.00355 10.0199 7.06206 9.82699 7.17169 9.66291C7.28132 9.49884 7.43714 9.37096 7.61945 9.29545C7.80176 9.21993 8.00237 9.20017 8.19591 9.23867C8.38945 9.27717 8.56723 9.37219 8.70676 9.51172C8.84629 9.65126 8.94132 9.82903 8.97981 10.0226C9.01831 10.2161 8.99855 10.4167 8.92304 10.599C8.84752 10.7813 8.71964 10.9372 8.55557 11.0468C8.39149 11.1564 8.1986 11.2149 8.00126 11.2149C7.73675 11.2146 7.48315 11.1094 7.29611 10.9224C7.10907 10.7353 7.00385 10.4817 7.00355 10.2172ZM11.2555 10.6951C11.2562 11.4734 10.9766 12.226 10.468 12.8152C10.1333 12.1638 9.5549 11.671 8.85864 11.444C9.11987 11.2616 9.31611 11.0006 9.41884 10.699C9.52157 10.3974 9.52544 10.0709 9.42988 9.76692C9.33432 9.46296 9.14431 9.1974 8.88748 9.00883C8.63064 8.82026 8.32036 8.71852 8.00173 8.71839C7.68311 8.71825 7.37274 8.81974 7.11575 9.00809C6.85875 9.19644 6.66853 9.46184 6.57271 9.76572C6.4769 10.0696 6.48049 10.3961 6.58297 10.6978C6.68545 10.9995 6.88147 11.2607 7.14255 11.4433C6.79729 11.5547 6.47747 11.7332 6.20147 11.9687C5.92547 12.2041 5.69874 12.4918 5.53433 12.8152C5.19231 12.4173 4.95161 11.9425 4.83275 11.4315C4.71389 10.9204 4.72039 10.3882 4.85171 9.88015C4.98303 9.37215 5.23526 8.90343 5.5869 8.51399C5.93854 8.12455 6.37915 7.82592 6.87116 7.64359C7.36316 7.46126 7.89197 7.40062 8.41248 7.46686C8.93299 7.53309 9.42975 7.72424 9.86042 8.02398C10.2911 8.32372 10.6429 8.72318 10.8858 9.18828C11.1286 9.65338 11.2555 10.1703 11.2554 10.695L11.2555 10.6951Z" fill="#939393"/>
</svg>
