<svg width="21" height="20" viewBox="0 0 21 20" fill="none" xmlns="http://www.w3.org/2000/svg">
<path d="M8.13216 9.68268C8.10716 9.68268 8.0905 9.68268 8.0655 9.68268C8.02383 9.67435 7.96549 9.67435 7.91549 9.68268C5.49883 9.60768 3.67383 7.70768 3.67383 5.36602C3.67383 2.98268 5.61549 1.04102 7.99883 1.04102C10.3822 1.04102 12.3238 2.98268 12.3238 5.36602C12.3155 7.70768 10.4822 9.60768 8.15716 9.68268C8.14883 9.68268 8.14049 9.68268 8.13216 9.68268ZM7.99883 2.29102C6.30716 2.29102 4.92383 3.67435 4.92383 5.36602C4.92383 7.03268 6.22383 8.37435 7.88216 8.43268C7.93216 8.42435 8.0405 8.42435 8.14883 8.43268C9.78216 8.35768 11.0655 7.01602 11.0738 5.36602C11.0738 3.67435 9.6905 2.29102 7.99883 2.29102Z" fill="#9B9B9B"/>
<path d="M14.284 9.79232C14.259 9.79232 14.234 9.79232 14.209 9.78399C13.8673 9.81732 13.5173 9.57565 13.484 9.23398C13.4506 8.89232 13.659 8.58398 14.0006 8.54232C14.1006 8.53399 14.209 8.53398 14.3006 8.53398C15.5173 8.46732 16.4673 7.46732 16.4673 6.24232C16.4673 4.97565 15.4423 3.95065 14.1756 3.95065C13.834 3.95898 13.5506 3.67565 13.5506 3.33398C13.5506 2.99232 13.834 2.70898 14.1756 2.70898C16.1256 2.70898 17.7173 4.30065 17.7173 6.25065C17.7173 8.16732 16.2173 9.71732 14.309 9.79232C14.3006 9.79232 14.2923 9.79232 14.284 9.79232Z" fill="#9B9B9B"/>
<path d="M8.14036 18.7923C6.50703 18.7923 4.86536 18.3757 3.6237 17.5423C2.46536 16.7757 1.83203 15.7257 1.83203 14.584C1.83203 13.4423 2.46536 12.384 3.6237 11.609C6.1237 9.95065 10.1737 9.95065 12.657 11.609C13.807 12.3757 14.4487 13.4257 14.4487 14.5673C14.4487 15.709 13.8154 16.7673 12.657 17.5423C11.407 18.3757 9.7737 18.7923 8.14036 18.7923ZM4.31536 12.659C3.51536 13.1923 3.08203 13.8757 3.08203 14.5923C3.08203 15.3007 3.5237 15.984 4.31536 16.509C6.39036 17.9007 9.89036 17.9007 11.9654 16.509C12.7654 15.9757 13.1987 15.2923 13.1987 14.5757C13.1987 13.8673 12.757 13.184 11.9654 12.659C9.89036 11.2757 6.39036 11.2757 4.31536 12.659Z" fill="#9B9B9B"/>
<path d="M15.7825 17.2917C15.4908 17.2917 15.2325 17.0917 15.1742 16.7917C15.1075 16.45 15.3242 16.125 15.6575 16.05C16.1825 15.9417 16.6658 15.7333 17.0408 15.4417C17.5158 15.0833 17.7742 14.6333 17.7742 14.1583C17.7742 13.6833 17.5158 13.2333 17.0492 12.8833C16.6825 12.6 16.2242 12.4 15.6825 12.275C15.3492 12.2 15.1325 11.8667 15.2075 11.525C15.2825 11.1917 15.6158 10.975 15.9575 11.05C16.6742 11.2083 17.2992 11.4917 17.8075 11.8833C18.5825 12.4667 19.0242 13.2917 19.0242 14.1583C19.0242 15.025 18.5742 15.85 17.7992 16.4417C17.2825 16.8417 16.6325 17.1333 15.9158 17.275C15.8658 17.2917 15.8242 17.2917 15.7825 17.2917Z" fill="#9B9B9B"/>
</svg>
