<svg width="30" height="30" viewBox="0 0 30 30" fill="none" xmlns="http://www.w3.org/2000/svg">
<g clip-path="url(#clip0_3494_26152)">
<path d="M14.9985 29.9971C23.282 29.9971 29.9971 23.282 29.9971 14.9985C29.9971 6.71507 23.282 0 14.9985 0C6.71507 0 0 6.71507 0 14.9985C0 23.282 6.71507 29.9971 14.9985 29.9971Z" fill="#94E061"/>
<path d="M10.7555 29.3828C9.80714 29.1039 8.88869 28.7319 8.01361 28.272C9.03746 25.3103 9.18478 21.6798 7.21132 18.5135C5.51258 15.7885 2.73807 14.1827 0.0751953 13.4782C0.170407 12.5548 0.350662 11.6422 0.613666 10.752C4.29248 11.2904 7.89887 13.7945 10.0293 17.7184C12.1537 21.6315 12.2937 26.0076 10.7555 29.3828Z" fill="#E9EFF4"/>
<path d="M22.1542 28.1797C15.4624 31.8126 7.22759 29.8265 2.87207 23.8272C7.46064 27.9104 14.2931 28.9005 20.0021 25.8012C27.2819 21.8489 29.9791 12.7436 26.0268 5.4638C25.7121 4.88368 25.3596 4.32489 24.9716 3.79102C26.2339 4.91384 27.3266 6.27153 28.1796 7.84235C32.1319 15.1221 29.434 24.2274 22.1542 28.1797Z" fill="#70CF3D"/>
<path d="M11.401 27.5494C11.2374 28.1857 11.0219 28.799 10.7557 29.3828C10.6965 29.3653 10.6373 29.3478 10.5788 29.3297C10.0866 29.1777 9.60234 29.0009 9.12794 28.8001C9.04631 28.7655 8.005 28.2975 8.01373 28.272C8.16465 27.8359 8.2936 27.3924 8.40007 26.9434C9.37719 27.2468 10.3827 27.4499 11.401 27.5494Z" fill="#D3DCE2"/>
<path d="M29.9298 16.4257C29.843 17.3312 29.6737 18.227 29.4239 19.1018C25.8283 18.4921 22.33 16.0121 20.2455 12.1722C18.1555 8.32247 17.9853 4.02548 19.4456 0.673828C20.3291 0.94815 21.1855 1.3032 22.004 1.73448C21.1443 4.32727 20.9681 7.48877 22.2872 10.378C23.8277 13.7543 26.9108 15.6354 29.9298 16.4257Z" fill="#E9EFF4"/>
<path d="M29.9295 16.4252C29.8959 16.7762 29.8506 17.1122 29.7942 17.4593C29.773 17.5899 29.4494 19.1057 29.4236 19.1013C28.5133 18.9468 27.609 18.6727 26.7324 18.2863C27.091 17.4062 27.3656 16.4942 27.5528 15.5625C28.3297 15.9314 29.132 16.2163 29.9295 16.4252Z" fill="#D3DCE2"/>
<path d="M29.9295 16.4251C29.9187 16.5383 29.9066 16.6514 29.8933 16.7644C29.8867 16.8211 29.8794 16.8773 29.8722 16.934C29.8643 16.9902 29.8571 17.0469 29.8486 17.103C29.842 17.1513 29.8347 17.1996 29.8275 17.2479C29.8173 17.3185 29.8058 17.3886 29.7943 17.4592C29.7822 17.5287 29.7702 17.5987 29.7575 17.6681L29.7466 17.7279C29.7333 17.7998 29.7194 17.8717 29.7049 17.9434C29.7049 17.944 29.7049 17.9446 29.7044 17.9452C29.6894 18.0211 29.6735 18.0968 29.6567 18.1722C29.647 18.2193 29.6361 18.2664 29.6252 18.3135C29.6156 18.3563 29.6059 18.3992 29.5956 18.4421C29.583 18.4976 29.5691 18.5532 29.5552 18.6081C29.5413 18.6631 29.5274 18.718 29.513 18.7729C29.4846 18.8828 29.455 18.9921 29.4236 19.1013C28.5133 18.9468 27.609 18.6727 26.7324 18.2863C27.091 17.4062 27.3656 16.4942 27.5528 15.5625C28.3298 15.9313 29.1321 16.2162 29.9295 16.4251Z" fill="#D3DCE2"/>
</g>
<defs>
<clipPath id="clip0_3494_26152">
<rect width="30" height="30" fill="white"/>
</clipPath>
</defs>
</svg>
