<svg width="126" height="59" viewBox="0 0 126 59" fill="none" xmlns="http://www.w3.org/2000/svg">
<path d="M3.2423 36.2129L6.31468 39.6504H10.8545H15.3484V48.8169V57.9834H19.2462H23.144V48.8169V39.6504H41.4865H59.8291V36.2129V32.7755H29.9766H0.169922L3.2423 36.2129Z" fill="#4D4D4D"/>
<path d="M62.1211 45.3794V57.9834H66.0189H69.9167L70.0084 50.6044L70.146 43.2253L76.7493 50.6044L83.3067 57.9834H88.0758H92.8449V45.3794V32.7755H88.7178H84.5907L84.499 40.0629L84.3614 47.3502L77.804 40.0629L71.2465 32.7755H66.6609H62.1211V45.3794Z" fill="#4D4D4D"/>
<path d="M94.0831 33.7839C104.034 44.7837 104.355 45.1962 103.484 46.2962C103.071 46.8462 100.549 49.6878 97.9809 52.5294L93.2119 57.7543L98.4395 57.8918L103.621 58.0293L106.648 54.6835L109.72 51.3377L112.793 54.6377L115.865 57.9835H120.909C123.661 57.9835 125.862 57.8001 125.77 57.571C125.724 57.3418 120.68 51.6586 114.627 44.967L103.621 32.7756H98.3936H93.166L94.0831 33.7839Z" fill="#1D4599"/>
<path d="M113.756 35.0672C112.609 36.3046 111.646 37.4963 111.646 37.6796C111.692 38.1838 116.553 43.592 116.782 43.317C116.874 43.1795 118.617 41.2087 120.588 38.9629C122.606 36.6713 124.67 34.3797 125.128 33.7838L126 32.7755H120.955H115.911L113.756 35.0672Z" fill="#1D4599"/>
<path d="M33.2324 49.9627V57.9834H46.5308H59.8291V54.546V51.1085H50.4286H41.028V49.9627V48.8169H50.1993H59.3706V45.3794V41.942H46.3015H33.2324V49.9627Z" fill="#4D4D4D"/>
<path d="M63.0814 13.4472C68.2596 20.938 91.9917 26.2721 97.0163 16.2141C98.0666 14.1389 100.182 6.37068 93.6751 6.08214C93.6751 6.08214 97.5616 8.17587 95.9038 11.7123C78.7771 13.5988 75.4982 -6.57267 63.0814 2.23872C50.6718 -6.57267 47.3892 13.5988 30.2662 11.7123C28.6121 8.17587 32.4986 6.08214 32.4986 6.08214C25.9919 6.36698 28.1144 14.1389 29.1501 16.2141C34.1783 26.2684 57.9104 20.938 63.0814 13.4472Z" fill="#4D4D4D"/>
</svg>
