<svg width="14" height="14" viewBox="0 0 14 14" fill="none" xmlns="http://www.w3.org/2000/svg">
<path opacity="0.4" d="M6.99992 13.6673C10.6818 13.6673 13.6666 10.6825 13.6666 7.00065C13.6666 3.31875 10.6818 0.333984 6.99992 0.333984C3.31802 0.333984 0.333252 3.31875 0.333252 7.00065C0.333252 10.6825 3.31802 13.6673 6.99992 13.6673Z" fill="#1D4599"/>
<path d="M6.05321 9.38576C5.91988 9.38576 5.79321 9.33242 5.69988 9.23909L3.81321 7.35242C3.61988 7.15909 3.61988 6.83909 3.81321 6.64576C4.00655 6.45242 4.32655 6.45242 4.51988 6.64576L6.05321 8.17909L9.47988 4.75242C9.67321 4.55909 9.99321 4.55909 10.1865 4.75242C10.3799 4.94576 10.3799 5.26575 10.1865 5.45909L6.40655 9.23909C6.31321 9.33242 6.18655 9.38576 6.05321 9.38576Z" fill="#1D4599"/>
</svg>
