<svg width="23" height="23" viewBox="0 0 23 23" fill="none" xmlns="http://www.w3.org/2000/svg">
<g clip-path="url(#clip0_382_6803)">
<path d="M5.0318 18.0314C4.67229 17.6719 4.19432 17.4739 3.68599 17.4739C3.38568 17.4739 3.09621 17.5435 2.83525 17.6742C0.270979 14.0412 0.262084 9.06269 2.85695 5.42088C3.00088 5.21882 2.9538 4.93833 2.75174 4.79435C2.54969 4.65038 2.26919 4.69745 2.12522 4.89951C0.693873 6.90837 -0.0404201 9.28061 0.00171666 11.7597C0.0418319 14.119 0.782594 16.357 2.14737 18.2569C1.60507 19.0008 1.66926 20.052 2.34017 20.723C2.71123 21.094 3.19858 21.2796 3.68599 21.2796C4.17339 21.2796 4.66075 21.094 5.0318 20.723C5.77387 19.9809 5.77387 18.7735 5.0318 18.0314ZM4.39647 20.0877C4.00462 20.4795 3.36722 20.4795 2.97546 20.0877C2.58365 19.6959 2.58365 19.0584 2.97546 18.6666C3.16525 18.4768 3.41758 18.3723 3.68594 18.3723C3.9543 18.3723 4.20668 18.4768 4.39642 18.6666C4.78828 19.0584 4.78828 19.6959 4.39647 20.0877Z" fill="#1D4599"/>
<path d="M18.3264 20.2667C18.1813 20.0656 17.9005 20.0203 17.6993 20.1657C16.4151 21.0936 14.9714 21.7084 13.4084 21.9929C13.0463 22.0588 12.6769 21.9617 12.3951 21.7266C12.1153 21.4932 11.9549 21.1503 11.9549 20.7858V17.4931H11.9941C12.5143 17.4931 12.9375 17.07 12.9375 16.5498V15.7913C14.4591 15.2105 15.543 13.7359 15.543 12.0127V9.88587C16.2669 9.68812 16.8008 9.02503 16.8008 8.23926C16.8008 7.3742 16.1538 6.65783 15.3184 6.54746V3.74707C15.3184 3.00397 14.7138 2.39941 13.9707 2.39941C13.2276 2.39941 12.623 3.00397 12.623 3.74707V6.53223H10.377V3.74707C10.377 3.00397 9.77239 2.39941 9.0293 2.39941C8.2862 2.39941 7.68164 3.00397 7.68164 3.74707V6.54746C6.84623 6.65783 6.19922 7.37415 6.19922 8.23926C6.19922 9.02503 6.73307 9.68812 7.45703 9.88587V12.0127C7.45703 13.7359 8.54086 15.2105 10.0625 15.7913V16.5498C10.0625 17.07 10.4857 17.4932 11.0059 17.4932H11.0565V20.7858C11.0565 21.4175 11.3346 22.0119 11.8195 22.4165C12.2065 22.7394 12.6888 22.9116 13.1842 22.9116C13.3121 22.9116 13.441 22.9001 13.5693 22.8768C15.2652 22.5681 16.8317 21.9009 18.2254 20.8939C18.4265 20.7486 18.4717 20.4678 18.3264 20.2667ZM13.5215 3.74707C13.5215 3.49937 13.723 3.29785 13.9707 3.29785C14.2184 3.29785 14.42 3.49937 14.42 3.74707V6.53223H13.5215V3.74707ZM8.58012 3.74707C8.58012 3.49937 8.78164 3.29785 9.02934 3.29785C9.27704 3.29785 9.47856 3.49937 9.47856 3.74707V6.53223H8.58012V3.74707ZM7.0977 8.23926C7.0977 7.79341 7.46045 7.43067 7.9063 7.43067H15.0938C15.5396 7.43067 15.9024 7.79341 15.9024 8.23926C15.9024 8.68511 15.5396 9.04785 15.0938 9.04785H7.9063C7.46045 9.04785 7.0977 8.68511 7.0977 8.23926ZM8.35551 12.0127V9.94629H14.6446V12.0127C14.6446 13.7466 13.2339 15.1572 11.5 15.1572C9.76615 15.1572 8.35551 13.7466 8.35551 12.0127ZM11.5171 16.5947C11.5133 16.5946 11.5096 16.5941 11.5058 16.5941C11.502 16.5941 11.4983 16.5946 11.4945 16.5947H11.006C10.9811 16.5947 10.961 16.5746 10.961 16.5498V16.0196C11.1374 16.0433 11.3173 16.0557 11.5 16.0557C11.6828 16.0557 11.8627 16.0433 12.0391 16.0196V16.5498C12.0391 16.5746 12.019 16.5947 11.9942 16.5947H11.5171Z" fill="#1D4599"/>
<path d="M19.62 19.0485C19.4419 18.8823 19.1646 18.8888 18.9943 19.0609C18.9908 19.0644 18.9874 19.0679 18.9841 19.0714C18.8148 19.2528 18.8246 19.537 19.006 19.7063C19.0926 19.7872 19.2026 19.8271 19.3124 19.8271C19.4284 19.8271 19.5442 19.7824 19.6316 19.694C19.6351 19.6905 19.6386 19.6869 19.6418 19.6835C19.8112 19.5021 19.8013 19.2179 19.62 19.0485Z" fill="#1D4599"/>
<path d="M22.9696 10.7235C22.7695 7.97347 21.5841 5.38382 19.632 3.43165C17.7133 1.51281 15.1503 0.338285 12.415 0.124502C9.71312 -0.0867655 7.02405 0.646449 4.84228 2.18889C4.63969 2.3321 4.59158 2.61245 4.73479 2.81501C4.87795 3.01756 5.15835 3.06576 5.36091 2.9225C9.53293 -0.0269295 15.3951 0.46501 18.9968 4.06693C22.7188 7.7892 23.1689 13.5695 20.0668 17.8112C19.9204 18.0115 19.964 18.2925 20.1643 18.439C20.2442 18.4975 20.3371 18.5257 20.4291 18.5257C20.5675 18.5257 20.7041 18.4619 20.7921 18.3416C22.3944 16.1506 23.1677 13.4451 22.9696 10.7235Z" fill="#1D4599"/>
<path d="M3.94859 3.48369C3.77236 3.30908 3.48791 3.31024 3.31326 3.48652L3.30594 3.49397C3.13128 3.67016 3.13258 3.9546 3.30877 4.12926C3.39636 4.21605 3.51069 4.2594 3.62502 4.2594C3.7406 4.2594 3.85623 4.21501 3.94409 4.12643L3.95142 4.11897C4.12607 3.94279 4.12477 3.65834 3.94859 3.48369Z" fill="#1D4599"/>
<path d="M12.5127 11.8464C12.4322 11.7083 12.2844 11.6234 12.1246 11.6234H11.8036L12.3949 10.8765C12.5488 10.682 12.516 10.3994 12.3215 10.2455C12.1269 10.0914 11.8444 10.1244 11.6904 10.3188L10.5228 11.7937C10.4159 11.9288 10.3956 12.1131 10.4706 12.2682C10.5456 12.4233 10.7027 12.5218 10.875 12.5218H11.3539L10.8038 13.4931C10.6815 13.709 10.7574 13.9831 10.9732 14.1053C11.0432 14.145 11.1192 14.1638 11.1942 14.1638C11.3509 14.1637 11.5029 14.0817 11.5856 13.9358L12.5155 12.294C12.5943 12.1549 12.5932 11.9844 12.5127 11.8464Z" fill="#1D4599"/>
</g>
<defs>
<clipPath id="clip0_382_6803">
<rect width="23" height="23" fill="white"/>
</clipPath>
</defs>
</svg>
