<svg width="21" height="20" viewBox="0 0 21 20" fill="none" xmlns="http://www.w3.org/2000/svg">
<path d="M10.2917 18.9673C9.38334 18.9673 8.48335 18.7006 7.77501 18.1756L4.19167 15.5006C3.24167 14.7923 2.5 13.3173 2.5 12.134V5.94231C2.5 4.65898 3.44168 3.29231 4.65001 2.84231L8.80834 1.28398C9.63334 0.975651 10.9333 0.975651 11.7583 1.28398L15.925 2.84231C17.1333 3.29231 18.075 4.65898 18.075 5.94231V12.134C18.075 13.3173 17.3333 14.7923 16.3833 15.5006L12.8 18.1756C12.1 18.7006 11.2 18.9673 10.2917 18.9673ZM9.25 2.45065L5.09168 4.00897C4.37501 4.27564 3.75 5.17565 3.75 5.94231V12.134C3.75 12.9256 4.30834 14.034 4.93334 14.5006L8.51667 17.1756C9.475 17.8923 11.1 17.8923 12.0583 17.1756L15.6417 14.5006C16.275 14.0256 16.825 12.9173 16.825 12.134V5.94231C16.825 5.18398 16.2 4.28397 15.4833 4.00897L11.325 2.45065C10.775 2.24231 9.80834 2.24231 9.25 2.45065Z" fill="#9B9B9B"/>
<path d="M10.65 9.72579C10.6333 9.72579 10.6166 9.72579 10.5916 9.72579C9.38332 9.69246 8.5 8.76746 8.5 7.64246C8.5 6.49246 9.44165 5.55078 10.5916 5.55078C11.7416 5.55078 12.6833 6.49246 12.6833 7.64246C12.675 8.77579 11.7916 9.69244 10.6666 9.73411C10.6583 9.72577 10.6583 9.72579 10.65 9.72579ZM10.5916 6.80078C10.125 6.80078 9.75 7.17579 9.75 7.64246C9.75 8.10079 10.1083 8.46744 10.5583 8.48411C10.5583 8.48411 10.6 8.48411 10.65 8.48411C11.0917 8.45911 11.4333 8.09246 11.4333 7.64246C11.4417 7.17579 11.0583 6.80078 10.5916 6.80078Z" fill="#9B9B9B"/>
<path d="M10.375 14.4585C9.65834 14.4585 8.93335 14.2668 8.37502 13.8918C7.81668 13.5251 7.5 12.9835 7.5 12.4085C7.5 11.8335 7.81668 11.2918 8.37502 10.9168C9.50002 10.1668 11.2583 10.1751 12.375 10.9168C12.9333 11.2835 13.25 11.8251 13.25 12.4001C13.25 12.9751 12.9333 13.5168 12.375 13.8918C11.8167 14.2668 11.0917 14.4585 10.375 14.4585ZM9.06667 11.9501C8.85834 12.0835 8.74167 12.2501 8.75 12.4001C8.75 12.5501 8.86667 12.7168 9.06667 12.8501C9.76667 13.3168 10.9833 13.3168 11.6833 12.8501C11.8917 12.7168 12.0083 12.5501 12.0083 12.4001C12.0083 12.2501 11.8917 12.0835 11.6917 11.9501C10.9917 11.4918 9.76667 11.4918 9.06667 11.9501Z" fill="#9B9B9B"/>
</svg>
