<svg width="15" height="15" viewBox="0 0 15 15" fill="none" xmlns="http://www.w3.org/2000/svg">
<path d="M7.34375 14.2255C6.6625 14.2255 5.98751 14.0255 5.45626 13.6317L2.76875 11.6255C2.05625 11.0942 1.5 9.98798 1.5 9.10048V4.45674C1.5 3.49424 2.20626 2.46924 3.11251 2.13174L6.23125 0.962988C6.85 0.731738 7.82501 0.731738 8.44376 0.962988L11.5688 2.13174C12.475 2.46924 13.1813 3.49424 13.1813 4.45674V9.10048C13.1813 9.98798 12.625 11.0942 11.9125 11.6255L9.22501 13.6317C8.70001 14.0255 8.025 14.2255 7.34375 14.2255ZM6.5625 1.83798L3.44376 3.00673C2.90626 3.20673 2.4375 3.88174 2.4375 4.45674V9.10048C2.4375 9.69423 2.85626 10.5255 3.32501 10.8755L6.0125 12.8817C6.73125 13.4192 7.95 13.4192 8.66875 12.8817L11.3563 10.8755C11.8313 10.5192 12.2438 9.68798 12.2438 9.10048V4.45674C12.2438 3.88799 11.775 3.21298 11.2375 3.00673L8.11875 1.83798C7.70625 1.68173 6.98125 1.68173 6.5625 1.83798Z" fill="white"/>
<path d="M7.61249 7.29434C7.59999 7.29434 7.58749 7.29434 7.56874 7.29434C6.66249 7.26934 6 6.57559 6 5.73184C6 4.86934 6.70624 4.16309 7.56874 4.16309C8.43124 4.16309 9.13749 4.86934 9.13749 5.73184C9.13124 6.58184 8.46873 7.26933 7.62498 7.30058C7.61873 7.29433 7.61874 7.29434 7.61249 7.29434ZM7.56874 5.10059C7.21874 5.10059 6.9375 5.38184 6.9375 5.73184C6.9375 6.07559 7.20625 6.35058 7.54375 6.36308C7.54375 6.36308 7.57499 6.36308 7.61249 6.36308C7.94374 6.34433 8.19999 6.06934 8.19999 5.73184C8.20624 5.38184 7.91874 5.10059 7.56874 5.10059Z" fill="white"/>
<path d="M7.40626 10.8439C6.86876 10.8439 6.32501 10.7001 5.90626 10.4189C5.48751 10.1439 5.25 9.73761 5.25 9.30636C5.25 8.87511 5.48751 8.46885 5.90626 8.1876C6.75001 7.6251 8.06875 7.63135 8.90625 8.1876C9.325 8.4626 9.56252 8.86885 9.56252 9.3001C9.56252 9.73135 9.325 10.1376 8.90625 10.4189C8.4875 10.7001 7.94376 10.8439 7.40626 10.8439ZM6.425 8.96259C6.26875 9.06259 6.18125 9.1876 6.1875 9.3001C6.1875 9.4126 6.275 9.53761 6.425 9.63761C6.95 9.98761 7.86251 9.98761 8.38751 9.63761C8.54376 9.53761 8.63125 9.4126 8.63125 9.3001C8.63125 9.1876 8.54375 9.06259 8.39375 8.96259C7.86875 8.61884 6.95 8.61884 6.425 8.96259Z" fill="white"/>
</svg>
