<svg width="20" height="20" viewBox="0 0 20 20" fill="none" xmlns="http://www.w3.org/2000/svg">
<path d="M9.79167 18.9673C8.88334 18.9673 7.98335 18.7006 7.27501 18.1756L3.69167 15.5006C2.74167 14.7923 2 13.3173 2 12.134V5.94231C2 4.65898 2.94168 3.29231 4.15001 2.84231L8.30834 1.28398C9.13334 0.975651 10.4333 0.975651 11.2583 1.28398L15.425 2.84231C16.6333 3.29231 17.575 4.65898 17.575 5.94231V12.134C17.575 13.3173 16.8333 14.7923 15.8833 15.5006L12.3 18.1756C11.6 18.7006 10.7 18.9673 9.79167 18.9673ZM8.75 2.45065L4.59168 4.00897C3.87501 4.27564 3.25 5.17565 3.25 5.94231V12.134C3.25 12.9256 3.80834 14.034 4.43334 14.5006L8.01667 17.1756C8.975 17.8923 10.6 17.8923 11.5583 17.1756L15.1417 14.5006C15.775 14.0256 16.325 12.9173 16.325 12.134V5.94231C16.325 5.18398 15.7 4.28397 14.9833 4.00897L10.825 2.45065C10.275 2.24231 9.30834 2.24231 8.75 2.45065Z" fill="#9B9B9B"/>
<path d="M10.15 9.72579C10.1333 9.72579 10.1166 9.72579 10.0916 9.72579C8.88332 9.69246 8 8.76746 8 7.64246C8 6.49246 8.94165 5.55078 10.0916 5.55078C11.2416 5.55078 12.1833 6.49246 12.1833 7.64246C12.175 8.77579 11.2916 9.69244 10.1666 9.73411C10.1583 9.72577 10.1583 9.72579 10.15 9.72579ZM10.0916 6.80078C9.62498 6.80078 9.25 7.17579 9.25 7.64246C9.25 8.10079 9.60833 8.46744 10.0583 8.48411C10.0583 8.48411 10.1 8.48411 10.15 8.48411C10.5917 8.45911 10.9333 8.09246 10.9333 7.64246C10.9417 7.17579 10.5583 6.80078 10.0916 6.80078Z" fill="#9B9B9B"/>
<path d="M9.87501 14.4585C9.15834 14.4585 8.43335 14.2668 7.87502 13.8918C7.31668 13.5251 7 12.9835 7 12.4085C7 11.8335 7.31668 11.2918 7.87502 10.9168C9.00002 10.1668 10.7583 10.1751 11.875 10.9168C12.4333 11.2835 12.75 11.8251 12.75 12.4001C12.75 12.9751 12.4333 13.5168 11.875 13.8918C11.3167 14.2668 10.5917 14.4585 9.87501 14.4585ZM8.56667 11.9501C8.35834 12.0835 8.24167 12.2501 8.25 12.4001C8.25 12.5501 8.36667 12.7168 8.56667 12.8501C9.26667 13.3168 10.4833 13.3168 11.1833 12.8501C11.3917 12.7168 11.5083 12.5501 11.5083 12.4001C11.5083 12.2501 11.3917 12.0835 11.1917 11.9501C10.4917 11.4918 9.26667 11.4918 8.56667 11.9501Z" fill="#9B9B9B"/>
</svg>
