<svg width="15" height="17" viewBox="0 0 15 17" fill="none" xmlns="http://www.w3.org/2000/svg">
<path d="M7.25059 7.14632C7.96075 7.15074 8.65597 6.94263 9.24687 6.54869C9.83776 6.15476 10.2973 5.59303 10.5664 4.9358C10.8365 4.2835 10.9071 3.56578 10.7693 2.87334C10.6315 2.18091 10.2917 1.54488 9.79248 1.04565C9.29326 0.546428 8.65702 0.206406 7.96459 0.0686305C7.27215 -0.0691446 6.5545 0.00151289 5.9022 0.271617C5.24497 0.540675 4.6833 1.00017 4.28937 1.59107C3.89544 2.18196 3.68726 2.87725 3.69168 3.58741C3.69021 4.05612 3.78168 4.52043 3.96071 4.9536C4.13973 5.38678 4.40266 5.78023 4.73461 6.11115C5.06655 6.44207 5.46092 6.70393 5.89465 6.88161C6.32838 7.05929 6.79295 7.14924 7.26165 7.14632H7.25059ZM7.25059 1.52057C7.64554 1.52862 8.0296 1.65152 8.35585 1.87426C8.69478 2.09547 8.95715 2.41577 9.10736 2.79158C9.26837 3.16784 9.3109 3.58429 9.22906 3.98529C9.14821 4.38298 8.95205 4.74807 8.66509 5.03503C8.37813 5.32199 8.01311 5.51815 7.61541 5.59899C7.21442 5.68084 6.79791 5.63838 6.42164 5.47736C6.04583 5.32716 5.72539 5.06471 5.50419 4.72579C5.28145 4.39954 5.15875 4.01548 5.1507 3.62053C5.14476 3.34209 5.19461 3.06532 5.29776 2.80663C5.40091 2.54793 5.55519 2.31258 5.75109 2.11462C5.94699 1.91666 6.18077 1.76013 6.43837 1.65428C6.69598 1.54842 6.9721 1.49542 7.25059 1.49844V1.52057ZM12.9537 15.2147H1.53647V13.8C1.53938 12.7222 1.96863 11.6893 2.73078 10.9272C3.49293 10.165 4.52592 9.73558 5.60376 9.73267H8.91955C9.45316 9.73267 9.98151 9.8379 10.4744 10.0424C10.9672 10.247 11.4149 10.5468 11.7917 10.9246C12.1685 11.3025 12.4671 11.7509 12.6703 12.2443C12.8735 12.7377 12.9772 13.2664 12.9758 13.8L12.9537 15.2147ZM13.7826 11.1253C13.2385 10.1213 12.3969 9.31037 11.3732 8.80422C11.1321 8.68787 10.885 8.58459 10.6328 8.49478C10.4097 8.4111 10.1805 8.3446 9.94737 8.29584H9.41686H8.89742H5.58163C4.11083 8.29577 2.69956 8.8762 1.65439 9.91103C0.609212 10.9459 0.0145624 12.3514 8.23787e-09 13.8222V16.0327C-2.95114e-05 16.2352 0.0792794 16.4296 0.220999 16.5742C0.364129 16.7114 0.553569 16.7903 0.751773 16.7953H13.6944C13.8926 16.7903 14.0817 16.7114 14.2249 16.5742C14.3666 16.4296 14.4459 16.2352 14.4459 16.0327V13.5679C14.4263 13.278 14.3856 12.9899 14.3242 12.7058C14.2708 12.4078 14.1894 12.1154 14.081 11.8326C14.0028 11.5885 13.9029 11.3518 13.7826 11.1253Z" fill="#939393"/>
</svg>
