<svg width="13" height="15" viewBox="0 0 13 15" fill="none" xmlns="http://www.w3.org/2000/svg">
<path d="M10.8032 9.75073C9.99214 9.35707 9.11682 9.11261 8.21913 9.02907L7.6693 8.30775C8.9219 7.44569 9.5 5.49274 9.5 4V2.79033L9.9873 1.32105C9.99858 1.2871 10.0024 1.25113 9.99854 1.21558C9.97539 0.893283 9.83397 0.590908 9.60144 0.366538C9.36892 0.142169 9.06168 0.0116307 8.73877 0H3.76123C3.43832 0.0116306 3.13109 0.142169 2.89856 0.366537C2.66603 0.590906 2.52461 0.893281 2.50146 1.21557C2.49759 1.25113 2.50142 1.2871 2.51269 1.32105L3 2.79033V4C3 5.49274 3.57811 7.44568 4.8307 8.30775L4.28087 9.02906C3.38318 9.11261 2.50786 9.35706 1.69678 9.75073C0.357423 10.45 4.21023e-08 13.2222 4.21023e-08 14.75C-1.90193e-05 14.7828 0.00643447 14.8154 0.0189914 14.8457C0.0315483 14.876 0.0499624 14.9036 0.0731808 14.9268C0.0963993 14.95 0.123967 14.9685 0.154307 14.981C0.184647 14.9936 0.217164 15 0.25 15H12.25C12.2828 15 12.3154 14.9936 12.3457 14.981C12.376 14.9685 12.4036 14.95 12.4268 14.9268C12.45 14.9036 12.4685 14.876 12.481 14.8457C12.4936 14.8154 12.5 14.7828 12.5 14.75C12.5 13.2222 12.1426 10.45 10.8032 9.75073ZM9 3.75H3.5V3H9V3.75ZM8.50284 4.25C6.99606 5.28421 5.68929 5.28448 4.05278 4.25H8.50284ZM3.76123 0.5H8.73877C8.92948 0.510606 9.11021 0.588668 9.24867 0.720241C9.38714 0.851814 9.47431 1.02833 9.49463 1.21825L9.06958 2.5H3.43042L3.00537 1.21825C3.02569 1.02833 3.11286 0.851814 3.25133 0.720241C3.38979 0.588668 3.57052 0.510606 3.76123 0.5ZM3.52339 4.50326C4.53604 5.19324 5.44325 5.53882 6.33008 5.53882C7.20385 5.53882 8.0584 5.20198 8.97367 4.5316C8.81622 6.19258 7.93975 8.25 6.25 8.25C4.55067 8.25 3.67352 6.16905 3.52339 4.50326ZM5.27257 8.55274C5.58199 8.68293 5.9143 8.75 6.25 8.75C6.5857 8.75 6.91801 8.68293 7.22743 8.55274L7.7063 9.18091C7.25584 9.41267 6.75658 9.53357 6.25 9.53357C5.74342 9.53357 5.24416 9.41267 4.7937 9.18091L5.27257 8.55274ZM1.92822 10.1941C2.69387 9.82495 3.51999 9.59741 4.36667 9.52246C4.86912 9.80387 5.4261 9.97419 6 10.0219V14.5H0.503175C0.542 12.9622 0.93579 10.7122 1.92822 10.1941ZM6.5 14.5V10.0219C7.0739 9.97419 7.63088 9.80387 8.13333 9.52246C8.98001 9.59741 9.80613 9.82495 10.5718 10.1941C11.5642 10.7122 11.958 12.9622 11.9968 14.5H6.5Z" fill="#939393"/>
</svg>
