<svg width="33" height="33" viewBox="0 0 33 33" fill="none" xmlns="http://www.w3.org/2000/svg">
<circle cx="16.5" cy="16.5" r="16.5" fill="#E1E9FA"/>
<path d="M23.4109 24.1816V25.1926C23.4109 25.8672 22.8641 26.4141 22.1895 26.4141H8.86992C8.19531 26.4141 7.64844 25.8672 7.64844 25.1926V8.22148C7.64844 7.54688 8.19531 7 8.86992 7H18.9437C19.2676 7 19.5785 7.12852 19.8074 7.35781L23.0531 10.6035C23.2824 10.8328 23.4109 11.1434 23.4109 11.4672V14.9527" stroke="#fffbe3" stroke-width="0.585938" stroke-miterlimit="10" stroke-linecap="round" stroke-linejoin="round"/>
<path d="M18.9453 9.91797V10.6535C18.9453 11.1035 19.3102 11.468 19.7602 11.468H23.4129" stroke="#fffbe3" stroke-width="0.585938" stroke-miterlimit="10" stroke-linecap="round" stroke-linejoin="round"/>
<path d="M18.9453 8.55V7" stroke="#9c8f41" stroke-width="0.585938" stroke-miterlimit="10" stroke-linecap="round" stroke-linejoin="round"/>
<path d="M18.4922 22.7441L18.8398 21.5859C18.9437 21.2395 19.2629 21.002 19.625 21.002H24.5488C24.9109 21.002 25.2301 21.2395 25.334 21.5859L25.6816 22.7441" stroke="#fffbe3" stroke-width="0.585938" stroke-miterlimit="10" stroke-linecap="round" stroke-linejoin="round"/>
<path d="M10.0788 19.5031C10.1949 19.339 10.3265 19.1824 10.4734 19.0355C11.8749 17.6339 14.1484 17.6339 15.5503 19.0359C16.9523 20.4378 16.9523 22.7109 15.5503 24.1128C14.1484 25.5148 11.8753 25.5152 10.4734 24.1132C9.55501 23.1945 9.23821 21.9023 9.52298 20.7257" stroke="#fffbe3" stroke-width="0.585938" stroke-miterlimit="10" stroke-linecap="round" stroke-linejoin="round"/>
<path d="M13.0117 24.165C14.4424 24.165 15.6025 23.0052 15.6025 21.5742" stroke="#9c8f41" stroke-width="0.585938" stroke-miterlimit="10" stroke-linecap="round" stroke-linejoin="round"/>
<path d="M13.0129 18.9844C11.5819 18.9844 10.4219 20.1444 10.4219 21.5754" stroke="#9c8f41" stroke-width="0.585938" stroke-miterlimit="10" stroke-linecap="round" stroke-linejoin="round"/>
<path d="M12.8608 23.2744C12.6777 23.2744 12.5046 23.1888 12.3936 23.0421L11.4157 21.75C11.2203 21.492 11.2712 21.1245 11.5292 20.9292C11.7873 20.7339 12.1548 20.7847 12.3501 21.0428L12.8218 21.6661L13.944 19.9214C14.119 19.6492 14.4816 19.5705 14.7537 19.7456C15.0259 19.9206 15.1046 20.2832 14.9296 20.5553L13.3536 23.0055C13.2501 23.1665 13.0744 23.2668 12.8832 23.2741C12.8757 23.2743 12.8682 23.2744 12.8608 23.2744Z" stroke="#9c8f41" stroke-width="0.585938" stroke-miterlimit="10" stroke-linecap="round" stroke-linejoin="round"/>
<path d="M18.5437 24.1812H25.6282C26.0256 24.1812 26.3477 23.8591 26.3477 23.4617C26.3477 23.0643 26.0256 22.7422 25.6282 22.7422H18.5437C18.1464 22.7422 17.8242 23.0643 17.8242 23.4617C17.8242 23.859 18.1464 24.1812 18.5437 24.1812Z" stroke="#9c8f41" stroke-width="0.585938" stroke-miterlimit="10" stroke-linecap="round" stroke-linejoin="round"/>
<path d="M23.9824 17.7L24.1179 16.848C24.3172 15.5992 23.3523 14.4688 22.0879 14.4688C20.823 14.4688 19.8582 15.5992 20.0574 16.848L20.7191 21.002H23.4562L23.7695 19.0344" stroke="#9c8f41" stroke-width="0.585938" stroke-miterlimit="10" stroke-linecap="round" stroke-linejoin="round"/>
<path d="M13.4961 11.4668H17.5668" stroke="#9c8f41" stroke-width="0.585938" stroke-miterlimit="10" stroke-linecap="round" stroke-linejoin="round"/>
<path d="M10.1172 13.207H20.945" stroke="#9c8f41" stroke-width="0.585938" stroke-miterlimit="10" stroke-linecap="round" stroke-linejoin="round"/>
<path d="M10.1172 14.9473H18.408" stroke="#fffbe3" stroke-width="0.585938" stroke-miterlimit="10" stroke-linecap="round" stroke-linejoin="round"/>
</svg>
