<svg width="12" height="20" viewBox="0 0 12 20" fill="none" xmlns="http://www.w3.org/2000/svg">
<path d="M10.8516 0.9C11.1016 1.15 11.2266 1.446 11.2266 1.788C11.2266 2.12933 11.1016 2.425 10.8516 2.675L3.52656 10L10.8766 17.35C11.1099 17.5833 11.2266 17.875 11.2266 18.225C11.2266 18.575 11.1016 18.875 10.8516 19.125C10.6016 19.375 10.3056 19.5 9.96356 19.5C9.62223 19.5 9.32656 19.375 9.07656 19.125L0.676562 10.7C0.576562 10.6 0.505563 10.4917 0.463563 10.375C0.42223 10.2583 0.401563 10.1333 0.401563 10C0.401563 9.86667 0.42223 9.74167 0.463563 9.625C0.505563 9.50833 0.576562 9.4 0.676562 9.3L9.10156 0.875C9.3349 0.641666 9.62223 0.524999 9.96356 0.525C10.3056 0.525 10.6016 0.65 10.8516 0.9Z" fill="#5F5F5F"/>
</svg>
