<svg width="12" height="20" viewBox="0 0 12 20" fill="none" xmlns="http://www.w3.org/2000/svg">
<path d="M1.14844 19.1C0.898438 18.85 0.773438 18.554 0.773438 18.212C0.773438 17.8707 0.898438 17.575 1.14844 17.325L8.47344 10L1.12344 2.65C0.890104 2.41667 0.773438 2.125 0.773438 1.775C0.773438 1.425 0.898438 1.125 1.14844 0.875C1.39844 0.625 1.69444 0.5 2.03644 0.5C2.37777 0.5 2.67344 0.625 2.92344 0.875L11.3234 9.3C11.4234 9.4 11.4944 9.50833 11.5364 9.625C11.5778 9.74167 11.5984 9.86667 11.5984 10C11.5984 10.1333 11.5778 10.2583 11.5364 10.375C11.4944 10.4917 11.4234 10.6 11.3234 10.7L2.89844 19.125C2.6651 19.3583 2.37777 19.475 2.03644 19.475C1.69444 19.475 1.39844 19.35 1.14844 19.1Z" fill="#5F5F5F"/>
</svg>
