<svg width="14" height="10" viewBox="0 0 14 10" fill="none" xmlns="http://www.w3.org/2000/svg">
<path d="M13.6089 4.84545C13.0743 3.46257 12.1462 2.26664 10.9393 1.40549C9.73236 0.544343 8.29957 0.055715 6.81799 0C5.3364 0.055715 3.90362 0.544343 2.69672 1.40549C1.48981 2.26664 0.561698 3.46257 0.0270793 4.84545C-0.00902645 4.94532 -0.00902645 5.05468 0.0270793 5.15455C0.561698 6.53743 1.48981 7.73336 2.69672 8.59451C3.90362 9.45566 5.3364 9.94429 6.81799 10C8.29957 9.94429 9.73236 9.45566 10.9393 8.59451C12.1462 7.73336 13.0743 6.53743 13.6089 5.15455C13.645 5.05468 13.645 4.94532 13.6089 4.84545ZM6.81799 9.09091C4.4089 9.09091 1.86344 7.30455 0.940716 5C1.86344 2.69545 4.4089 0.909091 6.81799 0.909091C9.22708 0.909091 11.7725 2.69545 12.6953 5C11.7725 7.30455 9.22708 9.09091 6.81799 9.09091Z" fill="black"/>
<path d="M6.81712 2.27344C6.27771 2.27344 5.75042 2.43339 5.30193 2.73307C4.85343 3.03274 4.50387 3.45868 4.29745 3.95703C4.09103 4.45537 4.03702 5.00374 4.14225 5.53277C4.24748 6.06181 4.50723 6.54777 4.88864 6.92918C5.27006 7.3106 5.75601 7.57035 6.28505 7.67558C6.81409 7.78081 7.36246 7.7268 7.8608 7.52038C8.35914 7.31396 8.78509 6.9644 9.08476 6.5159C9.38444 6.0674 9.54439 5.54011 9.54439 5.00071C9.54439 4.27739 9.25705 3.5837 8.74559 3.07224C8.23413 2.56077 7.54044 2.27344 6.81712 2.27344ZM6.81712 6.81889C6.45752 6.81889 6.10599 6.71226 5.80699 6.51247C5.50799 6.31269 5.27495 6.02873 5.13734 5.6965C4.99972 5.36427 4.96372 4.99869 5.03387 4.646C5.10403 4.29331 5.27719 3.96934 5.53147 3.71506C5.78575 3.46078 6.10972 3.28762 6.46241 3.21746C6.8151 3.14731 7.18068 3.18332 7.51291 3.32093C7.84513 3.45854 8.1291 3.69158 8.32888 3.99058C8.52866 4.28958 8.6353 4.64111 8.6353 5.00071C8.6353 5.48292 8.44374 5.94538 8.10277 6.28636C7.76179 6.62733 7.29933 6.81889 6.81712 6.81889Z" fill="black"/>
</svg>
