<svg width="18" height="15" viewBox="0 0 18 15" fill="none" xmlns="http://www.w3.org/2000/svg">
<path d="M5.21046 8.09574C5.71946 8.09574 6.21703 7.9448 6.64025 7.66202C7.06347 7.37924 7.39332 6.9773 7.58811 6.50705C7.78289 6.0368 7.83386 5.51934 7.73456 5.02012C7.63526 4.52091 7.39015 4.06234 7.03023 3.70243C6.67032 3.34251 6.21176 3.09741 5.71254 2.99811C5.21332 2.8988 4.69587 2.94977 4.22561 3.14455C3.75536 3.33934 3.35343 3.6692 3.07064 4.09241C2.78786 4.51563 2.63692 5.0132 2.63692 5.5222C2.63769 6.20451 2.90908 6.85865 3.39155 7.34111C3.87401 7.82358 4.52816 8.09497 5.21046 8.09574ZM5.21046 4.03883C5.50385 4.03883 5.79064 4.12583 6.03458 4.28882C6.27852 4.45182 6.46865 4.68349 6.58092 4.95454C6.69319 5.22559 6.72257 5.52384 6.66533 5.81159C6.6081 6.09933 6.46682 6.36364 6.25937 6.5711C6.05191 6.77855 5.7876 6.91983 5.49986 6.97706C5.21211 7.0343 4.91385 7.00492 4.6428 6.89265C4.37175 6.78038 4.14008 6.59025 3.97709 6.34631C3.81409 6.10237 3.7271 5.81558 3.7271 5.5222C3.72754 5.12892 3.88397 4.75188 4.16206 4.47379C4.44015 4.1957 4.81719 4.03927 5.21046 4.03883ZM12.2323 5.14709C12.7413 5.14709 13.2389 4.99615 13.6621 4.71337C14.0853 4.43058 14.4152 4.02865 14.61 3.5584C14.8047 3.08814 14.8557 2.57069 14.7564 2.07147C14.6571 1.57225 14.412 1.11369 14.0521 0.753774C13.6922 0.393858 13.2336 0.148752 12.7344 0.0494511C12.2352 -0.0498496 11.7177 0.00111503 11.2475 0.1959C10.7772 0.390686 10.3753 0.720543 10.0925 1.14376C9.80971 1.56698 9.65877 2.06454 9.65877 2.57354C9.65954 3.25585 9.93093 3.91 10.4134 4.39246C10.8959 4.87493 11.55 5.14631 12.2323 5.14709ZM12.2323 1.09017C12.5257 1.09017 12.8125 1.17717 13.0564 1.34017C13.3004 1.50316 13.4905 1.73483 13.6028 2.00588C13.715 2.27693 13.7444 2.57519 13.6872 2.86293C13.6299 3.15068 13.4887 3.41499 13.2812 3.62244C13.0738 3.8299 12.8095 3.97117 12.5217 4.02841C12.234 4.08565 11.9357 4.05627 11.6647 3.944C11.3936 3.83172 11.1619 3.6416 10.9989 3.39766C10.8359 3.15372 10.7489 2.86693 10.7489 2.57354C10.7494 2.18027 10.9058 1.80322 11.1839 1.52514C11.462 1.24705 11.839 1.09062 12.2323 1.09017ZM13.4203 5.919H11.0443C10.1529 5.9217 9.28738 6.21934 8.58284 6.7655C7.8783 7.31166 7.37433 8.07564 7.14952 8.93827C6.90194 8.89129 6.65049 8.86765 6.39848 8.86766H4.02244C2.956 8.86887 1.93357 9.29305 1.17948 10.0471C0.425388 10.8012 0.00120826 11.8237 0 12.8901L0 14.4549C0 14.5995 0.0574286 14.7381 0.159652 14.8403C0.261876 14.9426 0.400521 15 0.545087 15H9.87584C10.0204 15 10.1591 14.9426 10.2613 14.8403C10.3635 14.7381 10.4209 14.5995 10.4209 14.4549V12.8901C10.421 12.6082 10.3914 12.3271 10.3327 12.0513H16.8977C17.0423 12.0513 17.1809 11.9939 17.2831 11.8917C17.3854 11.7895 17.4428 11.6508 17.4428 11.5063V9.94145C17.4416 8.875 17.0174 7.85258 16.2633 7.09848C15.5092 6.34439 14.4868 5.92021 13.4203 5.919ZM9.33075 13.9098H1.09017V12.8901C1.09105 12.1127 1.40027 11.3674 1.94999 10.8176C2.4997 10.2679 3.24503 9.95871 4.02244 9.95783H6.39848C7.1759 9.95871 7.92122 10.2679 8.47094 10.8176C9.02066 11.3674 9.32987 12.1127 9.33075 12.8901V13.9098ZM16.3526 10.9612H9.92735C9.53083 10.2395 8.92375 9.65579 8.18703 9.28792C8.4891 7.98315 9.67616 7.00918 11.0443 7.00918H13.4203C14.1978 7.01006 14.9431 7.31927 15.4928 7.86899C16.0425 8.41871 16.3517 9.16403 16.3526 9.94145V10.9612Z" fill="#939393"/>
</svg>
