<svg width="14" height="18" viewBox="0 0 14 18" fill="none" xmlns="http://www.w3.org/2000/svg">
<path d="M5.32769 9L2.25329 6.9498C1.76006 6.62122 1.35565 6.17587 1.07601 5.65333C0.796367 5.13079 0.650163 4.54726 0.650391 3.9546V2.25C0.650391 1.65326 0.887444 1.08097 1.3094 0.65901C1.73136 0.237053 2.30365 0 2.90039 0H11.0004C11.5971 0 12.1694 0.237053 12.5914 0.65901C13.0133 1.08097 13.2504 1.65326 13.2504 2.25V3.9546C13.2506 4.54726 13.1044 5.13079 12.8248 5.65333C12.5451 6.17587 12.1407 6.62122 11.6475 6.9498L8.57309 9L11.6475 11.0493C12.1406 11.3781 12.5448 11.8234 12.8245 12.3459C13.1041 12.8684 13.2504 13.4519 13.2504 14.0445V15.75C13.2504 16.3467 13.0133 16.919 12.5914 17.341C12.1694 17.7629 11.5971 18 11.0004 18H2.90039C2.30365 18 1.73136 17.7629 1.3094 17.341C0.887444 16.919 0.650391 16.3467 0.650391 15.75V14.0445C0.650401 13.4519 0.796708 12.8684 1.07633 12.3459C1.35594 11.8234 1.76023 11.3781 2.25329 11.0493L5.32769 9ZM6.95039 10.0818L3.25139 12.5469C2.75099 12.8808 2.45039 13.4433 2.45039 14.0445V15.75C2.45039 15.8693 2.4978 15.9838 2.58219 16.0682C2.66658 16.1526 2.78104 16.2 2.90039 16.2H11.0004C11.1197 16.2 11.2342 16.1526 11.3186 16.0682C11.403 15.9838 11.4504 15.8693 11.4504 15.75V14.0445C11.4503 13.7482 11.3771 13.4564 11.2372 13.1951C11.0973 12.9339 10.8951 12.7112 10.6485 12.5469L6.95039 10.0818ZM6.95039 7.9182L10.6485 5.4522C11.1498 5.1183 11.4504 4.5567 11.4504 3.9546V2.25C11.4504 2.13065 11.403 2.01619 11.3186 1.9318C11.2342 1.84741 11.1197 1.8 11.0004 1.8H2.90039C2.78104 1.8 2.66658 1.84741 2.58219 1.9318C2.4978 2.01619 2.45039 2.13065 2.45039 2.25V3.9546C2.45035 4.25087 2.52343 4.54256 2.66316 4.80381C2.80289 5.06505 3.00494 5.28777 3.25139 5.4522L6.95039 7.9182Z" fill="#1390D5"/>
</svg>
