<svg width="13" height="18" viewBox="0 0 13 18" fill="none" xmlns="http://www.w3.org/2000/svg">
<path d="M4.6773 9L1.6029 6.9498C1.10967 6.62122 0.705255 6.17587 0.425616 5.65333C0.145976 5.13079 -0.000227673 4.54726 2.66118e-07 3.9546V2.25C2.66118e-07 1.65326 0.237053 1.08097 0.65901 0.65901C1.08097 0.237053 1.65326 0 2.25 0H10.35C10.9467 0 11.519 0.237053 11.941 0.65901C12.3629 1.08097 12.6 1.65326 12.6 2.25V3.9546C12.6002 4.54726 12.454 5.13079 12.1744 5.65333C11.8947 6.17587 11.4903 6.62122 10.9971 6.9498L7.9227 9L10.9971 11.0493C11.4902 11.3781 11.8944 11.8234 12.1741 12.3459C12.4537 12.8684 12.6 13.4519 12.6 14.0445V15.75C12.6 16.3467 12.3629 16.919 11.941 17.341C11.519 17.7629 10.9467 18 10.35 18H2.25C1.65326 18 1.08097 17.7629 0.65901 17.341C0.237053 16.919 2.66118e-07 16.3467 2.66118e-07 15.75V14.0445C1.03938e-05 13.4519 0.146317 12.8684 0.425935 12.3459C0.705554 11.8234 1.10984 11.3781 1.6029 11.0493L4.6773 9ZM6.3 10.0818L2.601 12.5469C2.1006 12.8808 1.8 13.4433 1.8 14.0445V15.75C1.8 15.8693 1.84741 15.9838 1.9318 16.0682C2.01619 16.1526 2.13065 16.2 2.25 16.2H10.35C10.4693 16.2 10.5838 16.1526 10.6682 16.0682C10.7526 15.9838 10.8 15.8693 10.8 15.75V14.0445C10.7999 13.7482 10.7267 13.4564 10.5868 13.1951C10.4469 12.9339 10.2447 12.7112 9.9981 12.5469L6.3 10.0818ZM6.3 7.9182L9.9981 5.4522C10.4994 5.1183 10.8 4.5567 10.8 3.9546V2.25C10.8 2.13065 10.7526 2.01619 10.6682 1.9318C10.5838 1.84741 10.4693 1.8 10.35 1.8H2.25C2.13065 1.8 2.01619 1.84741 1.9318 1.9318C1.84741 2.01619 1.8 2.13065 1.8 2.25V3.9546C1.79996 4.25087 1.87304 4.54256 2.01277 4.80381C2.1525 5.06505 2.35455 5.28777 2.601 5.4522L6.3 7.9182Z" fill="#F2CB00"/>
</svg>
