<svg width="14" height="17" viewBox="0 0 14 17" fill="none" xmlns="http://www.w3.org/2000/svg">
<path d="M4.92285 3.1875H9.84473V4.25H4.92285V3.1875Z" fill="#939393"/>
<path d="M4.92285 5.3125H9.84473V6.375H4.92285V5.3125Z" fill="#939393"/>
<path d="M4.92285 7.4375H9.84473V8.5H4.92285V7.4375Z" fill="#939393"/>
<path d="M4.92285 9.5625H9.84473V10.625H4.92285V9.5625Z" fill="#939393"/>
<path d="M4.92285 11.6875H9.84473V12.75H4.92285V11.6875Z" fill="#939393"/>
<path d="M2.73242 3.1875H3.82617V4.25H2.73242V3.1875Z" fill="#939393"/>
<path d="M2.73242 5.3125H3.82617V6.375H2.73242V5.3125Z" fill="#939393"/>
<path d="M2.73242 7.4375H3.82617V8.5H2.73242V7.4375Z" fill="#939393"/>
<path d="M2.73242 9.5625H3.82617V10.625H2.73242V9.5625Z" fill="#939393"/>
<path d="M2.73242 11.6875H3.82617V12.75H2.73242V11.6875Z" fill="#939393"/>
<path d="M12.0312 0H1.09375C0.803669 0 0.52547 0.111942 0.320352 0.311199C0.115234 0.510456 0 0.780707 0 1.0625V15.9375C0 16.2193 0.115234 16.4895 0.320352 16.6888C0.52547 16.8881 0.803669 17 1.09375 17H12.0312C12.3213 17 12.5995 16.8881 12.8046 16.6888C13.0098 16.4895 13.125 16.2193 13.125 15.9375V1.0625C13.125 0.780707 13.0098 0.510456 12.8046 0.311199C12.5995 0.111942 12.3213 0 12.0312 0ZM12.0312 15.9375H1.09375V1.0625H12.0312V15.9375Z" fill="#939393"/>
</svg>
