<svg width="18" height="16" viewBox="0 0 18 16" fill="none" xmlns="http://www.w3.org/2000/svg">
<path d="M1.0072 11.8623C0.795149 12.2294 0.682295 12.6453 0.679732 13.0692C0.67717 13.4931 0.784987 13.9104 0.99258 14.28C1.19863 14.6491 1.4993 14.9568 1.86365 15.1712C2.228 15.3856 2.64289 15.4991 3.06566 15.5H14.8318C15.2546 15.4991 15.6695 15.3856 16.0338 15.1712C16.3982 14.9568 16.6988 14.6491 16.9049 14.28C17.1125 13.9104 17.2203 13.4931 17.2177 13.0692C17.2152 12.6453 17.1023 12.2294 16.8903 11.8623L11.008 1.69462C10.5787 0.953077 9.79489 0.5 8.94873 0.5C8.10258 0.5 7.31873 0.953077 6.8895 1.69462L1.0072 11.8623ZM2.00566 12.44L7.88873 2.27231C8.1095 1.89 8.51258 1.65385 8.94873 1.65385C9.38489 1.65385 9.78796 1.89 10.0087 2.27231L15.8918 12.44C16.1187 12.8323 16.1218 13.3185 15.8995 13.7138C15.7937 13.9046 15.6391 14.0637 15.4514 14.1748C15.2638 14.286 15.0499 14.3451 14.8318 14.3462H3.06566C2.84757 14.3451 2.6337 14.286 2.44604 14.1748C2.25839 14.0637 2.10373 13.9046 1.99796 13.7138C1.88874 13.5191 1.83203 13.2992 1.83337 13.0759C1.83472 12.8526 1.89409 12.6335 2.00566 12.44Z" fill="#A1930D"/>
<path d="M8.94892 13.2885C9.37375 13.2885 9.71815 12.9441 9.71815 12.5192C9.71815 12.0944 9.37375 11.75 8.94892 11.75C8.52408 11.75 8.17969 12.0944 8.17969 12.5192C8.17969 12.9441 8.52408 13.2885 8.94892 13.2885Z" fill="#A1930D"/>
<path d="M7.98828 5.59557L8.3729 10.211C8.3729 10.364 8.43368 10.5107 8.54187 10.6189C8.65007 10.7271 8.79681 10.7879 8.94982 10.7879C9.10283 10.7879 9.24957 10.7271 9.35777 10.6189C9.46596 10.5107 9.52674 10.364 9.52674 10.211L9.91136 5.59557C9.91136 5.27711 9.71905 4.63403 8.94982 4.63403C8.18059 4.63403 7.98828 5.27711 7.98828 5.59557Z" fill="#A1930D"/>
</svg>
