<svg width="19" height="13" viewBox="0 0 19 13" fill="none" xmlns="http://www.w3.org/2000/svg">
<path d="M5.50181 8.59785L3.96522 7.02468C4.68474 6.30516 5.52937 5.73516 6.49913 5.31468C7.4684 4.8937 8.51401 4.68321 9.63596 4.68321C10.7579 4.68321 11.8038 4.89663 12.7735 5.32346C13.7428 5.75029 14.5872 6.32955 15.3067 7.06126L13.7701 8.59785C13.2335 8.06126 12.6116 7.64053 11.9043 7.33565C11.1969 7.03077 10.4408 6.87833 9.63596 6.87833C8.83108 6.87833 8.07498 7.03077 7.36766 7.33565C6.66035 7.64053 6.0384 8.06126 5.50181 8.59785ZM2.39205 5.48809L0.855469 3.95151C1.97742 2.80516 3.2884 1.90882 4.7884 1.26248C6.2884 0.616139 7.90425 0.292969 9.63596 0.292969C11.3677 0.292969 12.9835 0.616139 14.4835 1.26248C15.9835 1.90882 17.2945 2.80516 18.4164 3.95151L16.8799 5.48809C15.9408 4.54907 14.8525 3.81419 13.615 3.28346C12.3769 2.75321 11.0506 2.48809 9.63596 2.48809C8.22132 2.48809 6.89498 2.75321 5.65693 3.28346C4.41937 3.81419 3.33108 4.54907 2.39205 5.48809ZM9.63596 12.732L12.2152 10.1344C11.886 9.80516 11.5018 9.5459 11.0628 9.35663C10.6238 9.16785 10.1482 9.07346 9.63596 9.07346C9.12376 9.07346 8.64815 9.16785 8.20913 9.35663C7.7701 9.5459 7.38596 9.80516 7.05669 10.1344L9.63596 12.732Z" fill="#939393"/>
</svg>
