<svg width="90" height="34" viewBox="0 0 90 34" fill="none" xmlns="http://www.w3.org/2000/svg">
<path d="M11.4171 30.0653V33.8975H0V33.7217C0.820034 33.7217 1.13292 32.5479 1.13292 31.2186V22.8301C1.13292 21.6175 0.858889 20.2903 0 20.2903V20.1328H11.1635V24.141H10.9876C10.9876 20.3291 5.65026 20.3087 5.65026 20.3087H4.94679V26.8567H6.5296C6.55005 26.8567 8.62161 26.916 8.83633 24.55H9.0122V29.3393H8.83633C8.62161 26.9937 6.54801 27.0305 6.5296 27.0305H4.94679V33.7176H5.65026C5.65026 33.7176 11.2433 33.9323 11.2433 30.0612H11.4191L11.4171 30.0653Z" fill="#1D4599"/>
<path d="M27.293 30.3017C27.293 30.8109 27.1949 31.2812 27.0006 31.7188C26.8043 32.1565 26.5384 32.5368 26.199 32.862C25.8595 33.1871 25.4628 33.4427 25.0068 33.6247C24.5507 33.8067 24.0681 33.8988 23.561 33.8988H17.0723V20.0195H23.5405C24.0231 20.0195 24.4608 20.1238 24.8493 20.3324C25.2399 20.541 25.5732 20.813 25.8452 21.1443C26.1192 21.4756 26.3319 21.8539 26.4812 22.2792C26.6325 22.7025 26.7061 23.1299 26.7061 23.5594C26.7061 24.2629 26.5303 24.9091 26.1785 25.4939C25.8268 26.0808 25.338 26.5103 24.7123 26.7843C25.5078 27.0195 26.1356 27.4591 26.5978 28.1033C27.0599 28.7475 27.291 29.4816 27.291 30.3017H27.293ZM18.0682 20.9193V26.4714H23.1499C23.5282 26.4714 23.8738 26.3917 24.1867 26.2363C24.4996 26.0788 24.7695 25.8743 24.9986 25.6207C25.2256 25.3671 25.4055 25.0706 25.5344 24.7312C25.6652 24.3937 25.7307 24.0481 25.7307 23.6964C25.7307 23.3201 25.6673 22.9643 25.5446 22.631C25.4198 22.2997 25.2501 22.0052 25.0354 21.7516C24.8207 21.498 24.563 21.2956 24.2644 21.1443C23.9659 20.995 23.6325 20.9193 23.2665 20.9193H18.0682V20.9193ZM26.2971 30.1626C26.2971 29.7986 26.2317 29.4448 26.1008 29.0992C25.9699 28.7557 25.7879 28.4469 25.5528 28.181C25.3196 27.9131 25.0415 27.7025 24.7225 27.5471C24.4015 27.3896 24.0599 27.3119 23.6959 27.3119H18.0661V32.999H23.5589C23.9495 32.999 24.3115 32.9213 24.6428 32.7659C24.974 32.6084 25.2624 32.3978 25.5037 32.1299C25.745 31.864 25.9372 31.5593 26.0804 31.2219C26.2235 30.8824 26.2951 30.5327 26.2951 30.1646L26.2971 30.1626Z" fill="#1D4599"/>
<path d="M35.5782 33.0765C36.5168 33.0765 37.296 32.9006 37.9136 32.5489C38.5311 32.1972 39.0199 31.735 39.3778 31.1624C39.7356 30.5898 39.9913 29.9375 40.1405 29.2074C40.2898 28.4794 40.3655 27.7412 40.3655 27.0009V20.0234H41.3634V27.0009C41.3634 27.9252 41.2632 28.8127 41.0608 29.6594C40.8604 30.506 40.5291 31.2524 40.0731 31.8986C39.617 32.5428 39.024 33.054 38.2939 33.4323C37.5639 33.8107 36.6661 33.9988 35.5966 33.9988C34.5271 33.9988 33.5639 33.8004 32.8216 33.4017C32.0792 33.0049 31.4842 32.4773 31.0343 31.8188C30.5844 31.1604 30.2654 30.414 30.0752 29.5816C29.887 28.7473 29.793 27.8864 29.793 27.0009V20.0234H30.7909V27.0009C30.7909 27.7698 30.8666 28.5183 31.0159 29.2483C31.1651 29.9784 31.4269 30.6266 31.797 31.1931C32.1692 31.7595 32.66 32.2156 33.2735 32.5612C33.887 32.9068 34.6539 33.0806 35.5802 33.0806L35.5782 33.0765Z" fill="#1D4599"/>
<path d="M54.4779 20.9192H49.3961V33.8966H48.3982V20.9192H43.3164V20.0215H54.4758V20.9192H54.4779Z" fill="#1D4599"/>
<path d="M56.627 33.8967V20.0195H57.6249V32.9969H65.9111V33.8967H56.627V33.8967Z" fill="#1D4599"/>
<path d="M77.2258 32.9969V33.8967H67.9805V20.0195H77.0479V20.9173H68.9764V26.3712H76.0315V27.2301H68.9764V32.9949H77.2238L77.2258 32.9969Z" fill="#1D4599"/>
<path d="M79.9453 33.8967V20.0195H85.7121C86.299 20.0195 86.8389 20.1443 87.3338 20.3897C87.8287 20.6371 88.254 20.9664 88.614 21.3774C88.9718 21.7864 89.252 22.2506 89.4544 22.7659C89.6548 23.2813 89.7551 23.7986 89.7551 24.3201C89.7551 24.8416 89.6773 25.3201 89.5219 25.7945C89.3665 26.271 89.1436 26.6984 88.8573 27.0747C88.571 27.453 88.2254 27.7659 87.8226 28.0133C87.4177 28.2608 86.9759 28.4223 86.4933 28.5021L89.9514 33.8947H88.8001L85.4381 28.6575H80.9412V33.8947H79.9453V33.8967ZM80.9412 27.7393H85.8083C86.252 27.7393 86.6549 27.6432 87.0209 27.4448C87.3849 27.2506 87.6978 26.9929 87.9596 26.6739C88.2193 26.3549 88.4197 25.9909 88.5567 25.5798C88.6937 25.1688 88.7612 24.7496 88.7612 24.3201C88.7612 23.8907 88.6794 23.449 88.5178 23.04C88.3542 22.6289 88.1334 22.269 87.8532 21.9561C87.5731 21.6432 87.2479 21.3917 86.8778 21.2036C86.5056 21.0154 86.1068 20.9214 85.6753 20.9214H80.9453V27.7434L80.9412 27.7393Z" fill="#1D4599"/>
<path d="M44.9703 7.43388C47.8639 11.575 61.1256 14.5238 63.9333 8.96353C64.5202 7.8163 65.7022 3.52185 62.0663 3.36234C62.0663 3.36234 64.238 4.5198 63.3117 6.47479C53.7412 7.51773 51.9089 -3.63351 44.9703 1.23761C38.0358 -3.63351 36.2014 7.51773 26.633 6.47479C25.7087 4.5198 27.8804 3.36234 27.8804 3.36234C24.2445 3.5198 25.4306 7.8163 26.0093 8.96353C28.8191 14.5218 42.0807 11.575 44.9703 7.43388V7.43388Z" fill="#1D4599"/>
</svg>
